<?xml version="1.0" encoding="utf-8" ?>
<svg baseProfile="full" height="200mm" version="1.1" viewBox="0,0,200,200" width="200mm" xmlns="http://www.w3.org/2000/svg" xmlns:ev="http://www.w3.org/2001/xml-events" xmlns:xlink="http://www.w3.org/1999/xlink"><defs /><rect fill="#1a1a1a" height="200" width="200" x="0" y="0" /><text alignment-baseline="middle" fill="#e1ed5e" style="dominant-baseline: central; font-size:9.0px; font-family:Arial;" text-anchor="middle" x="100.0" y="100.0">2024</text><line stroke="#e1ed5e" stroke-width="0.3" x1="100.0" x2="100.0" y1="15.0" y2="10.0" /><path d="M 100.0 14.0 a86.0,86.0 0 0,1 42.35913384403234,11.155469271406648" fill="none" id="id109" stroke="none" /><text fill="#e1ed5e" style="font-size:6.75px; font-family:Arial;" text-anchor="middle"><textPath startOffset="22.145653131862478" xlink:href="#id109">January</textPath></text><path d="M 103.23170211078529 79.25015418208739 l 1.801717660081554 -11.56831984276483 a32.707784184514004,32.707784184514004 0 0,0 0.5540426028436481,0.09116749945998558 l -2.0000377659782727 11.535686344809177" fill="#ff6209" stroke="none" /><path d="M 104.29559338865022 79.4440306129975 l 2.795724630965711 -13.378554422879908 a34.66754530477759,34.66754530477759 0 0,0 0.5814863038048353,0.1267322334824295 l -3.0249733513896806 13.32859073126376" fill="#ff7e0b" stroke="none" /><line stroke="#e1ed5e" stroke-width="0.3" x1="143.13028292997686" x2="145.6673583964461" y1="26.7553504044142" y2="22.446841604673864" /><path d="M 143.63769802327073 25.89364864446614 a86.0,86.0 0 0,1 29.32050498858742,28.57503671076993" fill="none" id="id110" stroke="none" /><text fill="#e1ed5e" style="font-size:6.75px; font-family:Arial;" text-anchor="middle"><textPath startOffset="20.669276256404974" xlink:href="#id110">February</textPath></text><path d="M 113.31354834802062 83.75963576809568 l 9.818076072580963 -11.976456411709773 a36.48644975288303,36.48644975288303 0 0,0 0.4809707498528805,0.40124290584476624 l -10.022221156595737 11.806151321953136" fill="#ff990e" stroke="none" /><path d="M 113.86319453409587 84.22622945171908 l 8.916947672789831 -10.145849590127499 a34.50741350906095,34.50741350906095 0 0,0 0.44158804017867537,0.39487074849474985 l -9.089800739791883 9.991283311749362" fill="#ff7c0b" stroke="none" /><path d="M 114.39649973595853 84.71141617570332 l 10.701573194523794 -11.364699881017993 a36.61025535420099,36.61025535420099 0 0,0 0.4538407984854901,0.4347692186549006 l -10.895086478874596 11.179318532057511" fill="#ff9a0e" stroke="none" /><path d="M 114.91283532996326 85.21462403516908 l 11.537354186496044 -11.438744914189323 a37.24670510708402,37.24670510708402 0 0,0 0.44627441040884785,0.45791685970922086 l -11.732015398055704 11.23900536241236" fill="#ffa30f" stroke="none" /><path d="M 115.41159269507618 85.73525988315684 l 11.246400303598014 -10.40950022200276 a36.324464579901154,36.324464579901154 0 0,0 0.41963802965580016,0.4612557043545676 l -11.42343603409569 10.214906942090522" fill="#ff960d" stroke="none" /><path d="M 117.62189284568427 88.57770195909679 l 12.494477766267796 -8.09876953409699 a35.88966227347611,35.88966227347611 0 0,0 0.3306673668304462,0.5198640230472475 l -12.631662824724131 7.88309183637107" fill="#ff900d" stroke="none" /><line stroke="#e1ed5e" stroke-width="0.3" x1="172.87174338648825" x2="177.1583165268699" y1="56.24261187166439" y2="53.66864786411523" /><path d="M 173.72905801456457 55.72781907015455 a86.0,86.0 0 0,1 12.242430191666344,42.057860355516425" fill="none" id="id111" stroke="none" /><text fill="#e1ed5e" style="font-size:6.75px; font-family:Arial;" text-anchor="middle"><textPath startOffset="22.145653131862474" xlink:href="#id111">March</textPath></text><path d="M 118.00360718960297 89.18935116829356 l 14.025462520236422 -8.421887259132102 a37.35976112026359,37.35976112026359 0 0,0 0.3254324996270463,0.5526555307067474 l -14.167968729993236 8.179880560131798" fill="#ffa50f" stroke="none" /><path d="M 118.70294669586156 90.45014215332178 l 13.700381640590509 -6.995512484769585 a36.3830313014827,36.3830313014827 0 0,0 0.2792485782282415,0.5586842176631093 l -13.818450132030488 6.759296410942725" fill="#ff970d" stroke="none" /><path d="M 119.0197475246899 91.09779779509293 l 17.390714430332935 -8.139732462045039 a40.20135914332785,40.20135914332785 0 0,0 0.2871823050209809,0.6275451646251101 l -17.527881200208967 7.839998315205245" fill="#ffcc13" stroke="none" /><path d="M 119.31412917781788 91.75594674310238 l 26.52340403684804 -11.321264004235715 a49.83855024711697,49.83855024711697 0 0,0 0.32911042214499964,0.7897452047056142 l -26.713840303529523 10.864286290088824" fill="#b6ff1f" stroke="none" /><path d="M 119.58574465831526 92.42381321644754 l 15.200616737140454 -5.879925100365104 a37.298228995057656,37.298228995057656 0 0,0 0.22586620363018503,0.59913693964833 l -15.29931362458508 5.618119880522616" fill="#ffa40f" stroke="none" /><path d="M 119.94978838288452 93.4421083053983 l 23.855585090583286 -7.841804651402531 a46.11140856672158,46.11140856672158 0 0,0 0.24073511352969232,0.7540993143771642 l -23.986684919890237 7.43113630333398" fill="#e4ff1a" stroke="none" /><path d="M 120.16314734710363 94.1308016681162 l 27.577220619975147 -8.027327007755051 a49.72178747940692,49.72178747940692 0 0,0 0.231517683642075,0.8215745840348845 l -27.710956795691803 7.5527444998171545" fill="#b7ff1f" stroke="none" /><path d="M 120.43855184770803 95.1765574152323 l 27.589519637917245 -6.511051512181282 a49.34740527182866,49.34740527182866 0 0,0 0.18749461671447049,0.8261358763224405 l -27.697225116189383 6.0364813019198165" fill="#bcff1f" stroke="none" /><path d="M 120.86939407059847 97.66154086499901 l 15.124907939715857 -1.6947774821841382 a36.21956342668863,36.21956342668863 0 0,0 0.06393202674218554,0.6184843642712893 l -15.15177235893971 1.4348885956299173" fill="#ff950d" stroke="none" /><path d="M 120.93736805541906 98.37931529534042 l 15.296129555996814 -1.184017167118532 a36.3418863261944,36.3418863261944 0 0,0 0.042807348166642785,0.6224094474215001 l -15.314200865328523 0.9212642955426977" fill="#ff960d" stroke="none" /><path d="M 120.98066250479742 99.09900007780936 l 25.395662472343197 -1.0905990173727336 a46.41906919275124,46.41906919275124 0 0,0 0.02735478621786955,0.7964047540434726 l -25.410641945557916 0.6544879987651411" fill="#e0ff1b" stroke="none" /><line stroke="#e1ed5e" stroke-width="0.3" x1="184.99686870605535" x2="189.99668451229388" y1="99.2704041080226" y2="99.22748670261217" /><path d="M 185.99683186730306 99.26182062694052 a86.0,86.0 0 0,1 -10.086455211305974,41.156179273409016" fill="none" id="id112" stroke="none" /><text fill="#e1ed5e" style="font-size:6.75px; font-family:Arial;" text-anchor="middle"><textPath startOffset="21.40746469413373" xlink:href="#id112">April</textPath></text><path d="M 120.99303781780057 100.54070618675476 l 15.426103159950069 0.3973216972452418 a36.43121911037891,36.43121911037891 0 0,0 -0.021468939979877706,0.6250447628457988 l -15.417009532973346 -0.6620727246551513" fill="#ff980e" stroke="none" /><path d="M 120.96210409425399 101.26102812881392 l 17.70666318128722 1.065188887462753 a38.73867380560132,38.73867380560132 0 0,0 -0.045630539984247216,0.663458036844019 l -17.685768680137905 -1.3689903484611154" fill="#ffb811" stroke="none" /><path d="M 120.9064616781168 101.97986365728391 l 18.21873405004636 1.725333056485763 a39.3002471169687,39.3002471169687 0 0,0 -0.0693698159764443,0.6710900423480114 l -18.18643184158825 -2.0378276211167057" fill="#ffc011" stroke="none" /><path d="M 120.77682067341334 103.0534771498775 l 21.51457139572477 3.1619011002158657 a42.74567545304778,42.74567545304778 0 0,0 -0.11292696627033219,0.7250721317951578 l -21.45712293731617 -3.530761413942474" fill="#ffee16" stroke="none" /><path d="M 120.65975698304385 103.76489593502545 l 27.594560088966716 5.028648071370482 a49.049011532125206,49.049011532125206 0 0,0 -0.1580632604892401,0.8270537700560434 l -27.504170536195318 -5.50160440645984" fill="#bfff1e" stroke="none" /><path d="M 120.51834098615036 104.47187691870673 l 29.352358411789062 6.397209900151562 a51.041392092257,51.041392092257 0 0,0 -0.19393089047326875,0.8544952860759107 l -29.23821665975813 -6.90013952016649" fill="#a7ff21" stroke="none" /><path d="M 120.26092885502905 105.52220625578681 l 21.609074562380925 5.88964936326323 a43.39732289950577,43.39732289950577 0 0,0 -0.20206931776381173,0.7170727223786199 l -21.504786752542536 -6.259730009544858" fill="#fff717" stroke="none" /><path d="M 120.05942366710727 106.21446072829308 l 26.71658883504787 8.276867514474354 a48.96931630971993,48.96931630971993 0 0,0 -0.2556554719909359,0.8008371247485432 l -26.57056864727968 -8.73427367291428" fill="#c0ff1e" stroke="none" /><path d="M 119.71291397450082 107.23885506374661 l 17.42567778023655 6.398950251690341 a39.56342668863262,39.56342668863262 0 0,0 -0.23958351990242474,0.6355237507756549 l -17.313263576519688 -6.697142282660154" fill="#ffc312" stroke="none" /><path d="M 119.4528033332814 107.91128576633889 l 20.51952566245404 8.345112451101643 a43.15156507413509,43.15156507413509 0 0,0 -0.2849527068373605,0.6837827630191112 l -20.373247111080193 -8.696127723562032" fill="#fff417" stroke="none" /><path d="M 119.16976305983485 108.57439118712176 l 27.624490283682928 12.356083134560262 a51.26194398682043,51.26194398682043 0 0,0 -0.3661946647501432,0.8002014300939626 l -27.408311154077726 -12.828473546868912" fill="#a5ff21" stroke="none" /><path d="M 118.8641267826498 109.22738970284198 l 18.13879689017737 8.872594505689275 a41.192545304777596,41.192545304777596 0 0,0 -0.3161627632025572,0.6325373154439258 l -17.983814213763083 -9.182663677296945" fill="#ffda14" stroke="none" /><line stroke="#e1ed5e" stroke-width="0.3" x1="174.33088141563837" x2="178.70328620479359" y1="141.23008692659167" y2="143.65538615756765" /><path d="M 175.20536237346943 141.71514677278685 a86.0,86.0 0 0,1 -30.301960400862466,31.631185727798858" fill="none" id="id113" stroke="none" /><text fill="#e1ed5e" style="font-size:6.75px; font-family:Arial;" text-anchor="middle"><textPath startOffset="22.145653131862474" xlink:href="#id113">May</textPath></text><path d="M 118.36410011445183 110.18625677009912 l 25.089103592467147 13.916502836061516 a49.69028006589786,49.69028006589786 0 0,0 -0.4201588486879413,0.7423804267882843 l -24.846511378757825 -14.345140032948922" fill="#b8ff1f" stroke="none" /><path d="M 117.62189284568427 111.42229804090321 l 21.1139224470178 13.685789438982884 a46.16144975288303,46.16144975288303 0 0,0 -0.4367215204707961,0.6612520443194092 l -20.875876487626275 -14.046221361641354" fill="#e3ff1b" stroke="none" /><path d="M 117.21940702142032 112.02048342749411 l 17.947858048038416 12.528998818431287 a42.888385502471166,42.888385502471166 0 0,0 -0.4266064847567978,0.6000754462041895 l -17.73013646475166 -12.83525149134498" fill="#fff016" stroke="none" /><path d="M 116.79662413953412 112.60449989151573 l 17.558480902841175 13.176211409894734 a42.95251235584844,42.95251235584844 0 0,0 -0.44762249508296376,0.5859522149387331 l -17.32970643040391 -13.475684538074344" fill="#fff116" stroke="none" /><path d="M 116.35404254752997 113.17365903436017 l 24.45139126758023 19.696309981991828 a52.39769357495881,52.39769357495881 0 0,0 -0.5702695014817412,0.6956360672838122 l -24.10967494685986 -20.11314833097413" fill="#97ff23" stroke="none" /><path d="M 115.6541949942343 113.99807769240083 l 21.921491407406066 19.602332791126496 a50.407537067545306,50.407537067545306 0 0,0 -0.5823325898802217,0.6400855259332457 l -21.581761116683968 -19.975755892617414" fill="#afff20" stroke="none" /><path d="M 115.16444852881244 114.52719865689866 l 22.243451507607332 21.308723377058342 a51.803130148270185,51.803130148270185 0 0,0 -0.6206833946193964,0.6368758421021444 l -21.87438131183713 -21.687421911228224" fill="#9eff22" stroke="none" /><path d="M 114.39649973595853 115.28858382429668 l 17.357624928766477 18.433196164434147 a46.31935749588139,46.31935749588139 0 0,0 -0.5835582383464497,0.540132793394833 l -17.038636919106057 -18.72844670396136" fill="#e1ff1b" stroke="none" /><path d="M 113.59037401385872 116.0094264158162 l 14.111807462578266 16.623673707282055 a42.805724876441516,42.805724876441516 0 0,0 -0.5642725376477932,0.4707362199540349 l -13.824360590768578 -16.86347211114796" fill="#ffef16" stroke="none" /><path d="M 112.7482090630111 116.68781488649013 l 15.271748400007729 19.991208885319704 a46.157001647446464,46.157001647446464 0 0,0 -0.6337730221848582,0.47559509119290155 l -14.926322388912105 -20.25042300377662" fill="#e4ff1b" stroke="none" /><path d="M 112.16784306229584 117.11559508785304 l 13.328642117438608 18.74840432975966 a44.00337726523888,44.00337726523888 0 0,0 -0.6194102059303643,0.43239642956024166 l -13.004836820334486 -18.97444557512502" fill="#ffff18" stroke="none" /><path d="M 111.5731344415666 117.5232005979908 l 16.940927969624354 25.65072415141286 a51.74011532125206,51.74011532125206 0 0,0 -0.745339441588475,0.4831200211019893 l -16.498102895778867 -25.937758014218744" fill="#9fff22" stroke="none" /><path d="M 110.96478420261333 117.91015095944535 l 12.643113580296223 20.651575866540963 a45.21437397034596,45.21437397034596 0 0,0 -0.6654419965236199,0.39957879921091355 l -12.286738827215167 -20.8655686662878" fill="#f0ff19" stroke="none" /><line stroke="#e1ed5e" stroke-width="0.3" x1="143.1302829299769" x2="145.66735839644613" y1="173.24464959558577" y2="177.55315839532614" /><path d="M 143.63769802327073 174.10635135553383 a86.0,86.0 0 0,1 -40.68552437913181,11.842963189579606" fill="none" id="id114" stroke="none" /><text fill="#e1ed5e" style="font-size:6.75px; font-family:Arial;" text-anchor="middle"><textPath startOffset="21.407464694133747" xlink:href="#id114">June</textPath></text><path d="M 110.34350942703117 118.27599006163325 l 16.38614917173535 28.952755495968194 a54.268121911037895,54.268121911037895 0 0,0 -0.8146828966813472,0.45189086969056813 l -15.88672208689791 -29.229779281091908" fill="#81ff25" stroke="none" /><path d="M 110.02825361518725 118.45085714620011 l 12.01549521179532 22.107157856273187 a46.16144975288303,46.16144975288303 0 0,0 -0.699480456708305,0.372433944803768 l -11.63422593930046 -22.310162268799523" fill="#e3ff1b" stroke="none" /><path d="M 109.3889696526874 118.78422872680471 l 13.759127338345467 27.527471550697346 a51.7745881383855,51.7745881383855 0 0,0 -0.798412843680656,0.3905437308220201 l -13.28455424540274 -27.759609031616588" fill="#9eff22" stroke="none" /><path d="M 108.4095320186766 119.2426549942271 l 11.500712904383827 26.315881801177813 a49.71919275123558,49.71919275123558 0 0,0 -0.7850066860547747,0.33507267489382103 l -11.047271143158621 -26.50942912573104" fill="#b7ff1f" stroke="none" /><path d="M 107.74402155503746 119.51999308798841 l 12.144754538514391 30.612714977905274 a53.93377265238879,53.93377265238879 0 0,0 -0.8635252549571925,0.3340301192527226 l -11.617457021063668 -30.816684985296035" fill="#85ff25" stroke="none" /><path d="M 107.06938296918513 119.77432235084164 l 9.09856541300541 25.450306793568224 a48.027800658978585,48.027800658978585 0 0,0 -0.778723281226405,0.2708803804920337 l -8.660336359733984 -25.602745606628847" fill="#ccff1d" stroke="none" /><path d="M 106.38641147887787 120.00534299687104 l 8.62763007535747 27.025928328998436 a49.369645799011536,49.369645799011536 0 0,0 -0.8095666658428421,0.25080582250551986 l -8.162422776643004 -27.1700507393106" fill="#bbff1f" stroke="none" /><path d="M 105.69591212413111 120.21278271476187 l 8.71227227200367 30.916780762785766 a53.12088138385502,53.12088138385502 0 0,0 -0.8798300259069851,0.23980158599129045 l -8.180260845161989 -31.0617828429212" fill="#8fff24" stroke="none" /><path d="M 105.3480935250658 120.30758222061773 l 6.329070317510652 24.032510884584294 a45.85193574958814,45.85193574958814 0 0,0 -0.7628773164892985,0.19392043064303646 l -5.915587707795956 -24.1376165470626" fill="#e7ff1a" stroke="none" /><path d="M 104.29559338865022 120.5559693870025 l 6.491537325887649 31.064356067337375 a52.735378912685334,52.735378912685334 0 0,0 -0.8877210372614684,0.17756906952993295 l -5.957319803095222 -31.17121453353017" fill="#93ff23" stroke="none" /><path d="M 103.58742460773223 120.69131181640829 l 5.625814636079592 32.44820381884522 a53.9322899505766,53.9322899505766 0 0,0 -0.9135680403468955,0.15032727338566548 l -5.067969092679624 -32.53999709072656" fill="#85ff25" stroke="none" /><path d="M 102.875027216393 120.80226474461374 l 2.617820880636016 18.941247826269116 a40.12129324546952,40.12129324546952 0 0,0 -0.6830596261751993,0.0884357439385081 l -2.2922834325700414 -18.98339516640802" fill="#ffcb12" stroke="none" /><path d="M 102.15924093988457 120.88869738790638 l 1.979410064948898 19.148996802322618 a40.251029654036245,40.251029654036245 0 0,0 -0.6879101008112527,0.06514580176426119 l -1.65040040075263 -19.180154359592063" fill="#ffcd13" stroke="none" /><path d="M 101.44090949804482 120.95050786540614 l 1.308212890234758 19.021128310750115 a40.0660626029654,40.0660626029654 0 0,0 -0.6865713769281584,0.04130242912887066 l -0.9814971611741347 -19.040782717703678" fill="#ffca12" stroke="none" /><path d="M 100.72087961077811 120.9876233191556 l 1.4035648176078994 40.863258241106024 a61.88735584843493,61.88735584843493 0 0,0 -1.0620656702448588,0.027355044259214874 l -0.7018858332922969 -40.88133100271528" fill="#30ff31" stroke="none" /><line stroke="#e1ed5e" stroke-width="0.3" x1="101.45913802915013" x2="101.54496967792366" y1="184.9874750549273" y2="189.98673829345242" /><path d="M 101.47630435890484 185.9873277026323 a86.0,86.0 0 0,1 -42.54439059252881,-10.42667462771756" fill="none" id="id115" stroke="none" /><text fill="#e1ed5e" style="font-size:6.75px; font-family:Arial;" text-anchor="middle"><textPath startOffset="22.145653131862474" xlink:href="#id115">July</textPath></text><path d="M 100.0 121.0 l 3.4533980527438803e-15 28.19913509060956 a49.19913509060956,49.19913509060956 0 0,0 -0.8445685766117922,-0.007249605466292452 l 0.48407565176293665 -28.1949798833377" fill="#beff1f" stroke="none" /><path d="M 99.27912038922189 120.98762331915562 l -0.7622551144445001 22.19222596376824 a43.20531301482701,43.20531301482701 0 0,0 -0.7410209882437144,-0.03182262965226163 l 1.1431018632890533 -22.17587076569015" fill="#fff417" stroke="none" /><path d="M 98.19965949673042 120.92268563240118 l -2.833661379322467 32.93144053614757 a54.05313014827018,54.05313014827018 0 0,0 -0.9237948576486077,-0.08748433348521585 l 3.39855580035609 -32.87794444715717" fill="#84ff25" stroke="none" /><path d="M 97.48249496171623 120.84855314841334 l -3.282695628850382 27.185428925619068 a48.382907742998356,48.382907742998356 0 0,0 -0.8237125028349305,-0.10664607479080215 l 3.748885953576106 -27.12507125462787" fill="#c8ff1d" stroke="none" /><path d="M 96.76829788921471 120.74984581791261 l -4.8688874199335315 31.261749940140856 a52.63863261943986,52.63863261943986 0 0,0 -0.8916545633933146,-0.14672141909201206 l 5.4048194863799095 -31.173562522553176" fill="#94ff23" stroke="none" /><path d="M 96.05791012581884 120.62667999033965 l -6.239407924122465 32.64721878183866 a54.23809719934102,54.23809719934102 0 0,0 -0.9130170465752643,-0.1826289798487508 l 6.798921456228687 -32.53530040532705" fill="#82ff25" stroke="none" /><path d="M 95.00130118170881 120.39639698878247 l -6.190257325729698 25.25836231946929 a47.005848434925866,47.005848434925866 0 0,0 -0.7820759347911055,-0.1988006443397479 l 6.622938553746183 -25.14837644329428" fill="#d9ff1c" stroke="none" /><path d="M 94.30408787586889 120.21278271476187 l -8.235713844108028 29.22564302329463 a51.36387973640856,51.36387973640856 0 0,0 -0.8466234617139571,-0.24643975088239944 l 8.736197318203592 -29.079959578109715" fill="#a3ff21" stroke="none" /><path d="M 93.61358852112213 120.00534299687104 l -7.175131041961226 22.47599579461358 a44.59349258649094,44.59349258649094 0 0,0 -0.727250345702241,-0.23906163365966346 l 7.559904125311211 -22.349513239551897" fill="#f8ff18" stroke="none" /><path d="M 92.59220618246901 119.65005319985036 l -10.7377270233404 28.483096648123887 a51.43986820428336,51.43986820428336 0 0,0 -0.8235957382836804,-0.31858452441969254 l 11.225095024117609 -28.294572235566154" fill="#a2ff22" stroke="none" /><path d="M 91.59046798132341 119.24265499422711 l -9.780311467049243 22.379266632024628 a45.42306425041186,45.42306425041186 0 0,0 -0.7118153164779948,-0.3183859371352994 l 10.163040186382872 -22.208076943979474" fill="#edff1a" stroke="none" /><path d="M 90.93487009805054 118.94263497670748 l -11.128732372568578 23.254770462991388 a46.78047775947282,46.78047775947282 0 0,0 -0.7213989646204277,-0.3528723833589733 l 11.526291586451077 -23.060304329535192" fill="#dcff1b" stroke="none" /><line stroke="#e1ed5e" stroke-width="0.3" x1="58.13341422392154" x2="55.67067388415222" y1="173.97424548756322" y2="178.32567169271397" /><path d="M 57.64086615596768 174.84453072859336 a86.0,86.0 0 0,1 -31.369924170532247,-30.572349798747897" fill="none" id="id116" stroke="none" /><text fill="#e1ed5e" style="font-size:6.75px; font-family:Arial;" text-anchor="middle"><textPath startOffset="22.145653131862474" xlink:href="#id116">August</textPath></text><path d="M 89.65649057296885 118.27599006163327 l -14.956948328099184 26.42749454864298 a51.3664744645799,51.3664744645799 0 0,0 -0.7636666774903946,-0.4409031618202298 l 15.408407473449978 -26.166844489546577" fill="#a3ff21" stroke="none" /><path d="M 89.03521579738668 117.91015095944536 l -14.364860819642798 23.463920587685227 a48.51190280065898,48.51190280065898 0 0,0 -0.7065085741480154,-0.44091360341657465 l 14.765533522580526 -23.213871187427102" fill="#c6ff1e" stroke="none" /><path d="M 86.96720088162412 116.46651593811092 l -20.20781665607482 25.531916207663162 a53.561243822075774,53.561243822075774 0 0,0 -0.7160608543743697,-0.5768079369956944 l 20.64312828080445 -25.18125997687406" fill="#89ff24" stroke="none" /><path d="M 86.68645165197938 116.24036423190432 l -10.105011396179453 12.326470851468926 a36.93904448105437,36.93904448105437 0 0,0 -0.4869369325662542,-0.40622010765890376 l 10.3151226629076 -12.151188559898152" fill="#ff9f0e" stroke="none" /><path d="M 86.13680546590413 115.77377054828092 l -19.697302495093783 22.41191445546963 a50.837520593080725,50.837520593080725 0 0,0 -0.6505628444260894,-0.5817373070553764 l 20.079130366343243 -22.070481618530874" fill="#aaff21" stroke="none" /><path d="M 85.60350026404147 115.28858382429668 l -23.952943017971002 25.437195421479267 a55.939868204283364,55.939868204283364 0 0,0 -0.6934612776496679,-0.6643202172596528 l 24.386076781485986 -25.02226307391403" fill="#6eff28" stroke="none" /><path d="M 85.08716467003676 114.78537596483092 l -18.02859658300511 17.874506939831786 a46.387561779242176,46.387561779242176 0 0,0 -0.5557963240995034,-0.5702959915098222 l 18.332779708255423 -17.562388256254224" fill="#e1ff1b" stroke="none" /><path d="M 84.3458050057657 113.99807769240083 l -21.758465253371032 19.456553798919206 a50.18883855024711,50.18883855024711 0 0,0 -0.5687803946536802,-0.647167679538944 l 22.089256711983303 -19.080173841568964" fill="#b1ff20" stroke="none" /><path d="M 83.8745106332314 113.45245675266167 l -26.749943940143208 22.31575462959187 a55.836079077429986,55.836079077429986 0 0,0 -0.6076911178280957,-0.7412843545566605 l 27.12908187720993 -21.853267993336715" fill="#6fff27" stroke="none" /><path d="M 83.4222238831116 112.89097897827486 l -20.903155511471937 16.254420157326386 a47.47920098846787,47.47920098846787 0 0,0 -0.494796631101152,-0.6477046732966402 l 21.179104119927384 -15.893194570788877" fill="#d3ff1c" stroke="none" /><path d="M 82.98947788004972 112.3143062007846 l -23.943941276572758 17.333566980140652 a50.55951400329489,50.55951400329489 0 0,0 -0.5029104333786347,-0.7074065057460844 l 24.237966808481353 -16.919983247685064" fill="#adff20" stroke="none" /><path d="M 82.576782715395 111.72311816256416 l -28.139992613697764 18.93384287846471 a54.9168039538715,54.9168039538715 0 0,0 -0.5195536589626607,-0.7866704593635028 l 28.46087071158115 -18.447992540762147" fill="#7aff26" stroke="none" /><path d="M 82.18462484594161 111.11811171558189 l -26.397593562734123 16.474050740724675 a52.11635090609555,52.11635090609555 0 0,0 -0.4671412769624181,-0.7630401688882235 l 26.676502804151948 -16.018473455711895" fill="#9aff22" stroke="none" /><line stroke="#e1ed5e" stroke-width="0.3" x1="26.387840678322732" x2="22.057713659400548" y1="142.50000000000003" y2="145.00000000000006" /><path d="M 25.521815274538298 143.00000000000003 a86.0,86.0 0 0,1 -11.493303480769221,-40.785679425670985" fill="none" id="id117" stroke="none" /><text fill="#e1ed5e" style="font-size:6.75px; font-family:Arial;" text-anchor="middle"><textPath startOffset="21.40746469413373" xlink:href="#id117">September</textPath></text><path d="M 81.81346652052679 110.50000000000001 l -45.56317303028411 26.305910214168062 a73.61182042833607,73.61182042833607 0 0,0 -0.6224287261004856,-1.0997719190509345 l 46.008035121405975 -25.519881525018004" fill="#3fffbf" stroke="none" /><path d="M 81.4637452351635 109.86951160357371 l -30.219679264353296 16.09027707806441 a55.236326194398686,55.236326194398686 0 0,0 -0.4384499940987576,-0.8407856754830808 l 30.491437327427004 -15.569145159476829" fill="#76ff27" stroke="none" /><path d="M 81.1358732173502 109.22738970284198 l -29.741300380553326 14.547960371696488 a54.10873146622735,54.10873146622735 0 0,0 -0.4009733781724838,-0.8378801429492195 l 29.98665301668572 -14.035267726682164" fill="#83ff25" stroke="none" /><path d="M 80.68587082218212 108.24405325689762 l -57.942387533453626 24.73215977069285 a84.0,84.0 0 0,0 -0.5546966218540579,-1.3310699622348747 l 58.35840999984417 -23.733857299016694" fill="#4dd2ff" stroke="none" /><path d="M 80.28708602549918 107.23885506374661 l -35.9355890261923 13.196046050191129 a59.28187808896211,59.28187808896211 0 0,0 -0.3425923163977204,-0.9582916824424009 l 36.15682151263396 -12.577219411367805" fill="#4aff2c" stroke="none" /><path d="M 80.05021161711548 106.5578916946017 l -27.76185131554218 9.125871947852579 a50.22331136738056,50.22331136738056 0 0,0 -0.26220223887477123,-0.8213447787675057 l 27.914418270194208 -8.647958135393681" fill="#b1ff20" stroke="none" /><path d="M 79.83685265289637 105.86919833188381 l -60.37733228464456 17.574961479390947 a83.88323723228996,83.88323723228996 0 0,0 -0.3905823536304506,-1.3860389827128488 l 60.67013313034958 -16.535914572775102" fill="#4dd3ff" stroke="none" /><path d="M 79.64726062577567 105.17358676015961 l -20.987415290224494 5.334918896125983 a42.65485996705107,42.65485996705107 0 0,0 -0.17430090666065629,-0.7112071795057181 l 21.075903723401442 -4.973855892012166" fill="#ffed16" stroke="none" /><path d="M 79.48165901384964 104.47187691870673 l -24.22579127848196 5.2798984542061635 a45.79448105436573,45.79448105436573 0 0,0 -0.16080904116948064,-0.7695294755241753 l 24.31285803047581 -4.863252527396579" fill="#e8ff1a" stroke="none" /><path d="M 79.34024301695615 103.76489593502545 l -26.285395681415633 4.790074705753732 a47.71828665568369,47.71828665568369 0 0,0 -0.1399399710784838,-0.8071365655805314 l 26.36375046998635 -4.338145107252608" fill="#d0ff1d" stroke="none" /><path d="M 79.2786578344484 103.40968896794605 l -39.88029318111767 6.562287066721533 a61.41659802306425,61.41659802306425 0 0,0 -0.1622524388696873,-1.041777049589573 l 39.98706711212563 -5.8767218352005095" fill="#33ff2f" stroke="none" /><path d="M 79.17382384314188 102.69636545807758 l -33.275808408780854 4.30821960340991 a54.55354200988468,54.55354200988468 0 0,0 -0.11227096537205421,-0.9297646491220332 l 33.34486146041257 -3.7363612773644777" fill="#7eff26" stroke="none" /><line stroke="#e1ed5e" stroke-width="0.3" x1="15.003131293944662" x2="10.003315487706104" y1="100.72959589197737" y2="100.7725132973878" /><path d="M 14.003168132696942 100.73817937305945 a86.0,86.0 0 0,1 10.791469493833604,-42.45332614584628" fill="none" id="id118" stroke="none" /><text fill="#e1ed5e" style="font-size:6.75px; font-family:Arial;" text-anchor="middle"><textPath startOffset="22.145653131862435" xlink:href="#id118">October</textPath></text><path d="M 79.00077361379809 100.18025310272382 l -24.645302937489376 0.2115502847747744 a45.64621087314662,45.64621087314662 0 0,0 0.0,-0.7836067749971748 l 24.645302937489376 0.2115502847747653" fill="#eaff1a" stroke="none" /><path d="M 79.00696218219943 99.45929381324524 l -39.69729597707064 -1.022461528366161 a60.710461285008236,60.710461285008236 0 0,0 0.03577671242702709,-1.041599946495708 l 39.67389457764676 1.7037677394260076" fill="#3aff2e" stroke="none" /><path d="M 79.03789590574601 98.7389718711861 l -5.2663031461552805 -0.31680771988835715 a26.275823723228996,26.275823723228996 0 0,0 0.03095046647798722,-0.45001298989624267 l 5.260088718512229 0.4071641339389248" fill="#ff0000" stroke="none" /><path d="M 79.06263194458094 98.37931529534042 l -35.05555507584328 -2.713521669695546 a56.160420098846785,56.160420098846785 0 0,0 0.08265310157277185,-0.9605543271450268 l 35.003808351572765 3.3148970442162535" fill="#6cff28" stroke="none" /><path d="M 79.17382384314186 97.30363454192245 l -30.35516879534997 -3.9300843322091232 a51.6085255354201,51.6085255354201 0 0,0 0.12129351084159802,-0.8776194221549484 l 30.283230767953167 4.450592062564139" fill="#a0ff22" stroke="none" /><path d="M 79.2786578344484 96.59031103205396 l -36.61664521436284 -6.025255035755717 a58.10906095551895,58.10906095551895 0 0,0 0.17041224401431024,-0.9828925381829663 l 36.507818152856295 6.652940606859276" fill="#56ff2a" stroke="none" /><path d="M 79.407916724674 95.88100663000787 l -44.71835735520167 -8.944923881680372 a66.60420098846788,66.60420098846788 0 0,0 0.2338831547430282,-1.1192155621004958 l 44.55821648963427 9.711255895066278" fill="#36ff6d" stroke="none" /><path d="M 79.56144815229197 95.17655741523228 l -29.8767710861604 -7.050836626103877 a51.697487644151565,51.697487644151565 0 0,0 0.21125187083989322,-0.8619797229044512 l 29.75133168880421 7.562672173616446" fill="#9fff22" stroke="none" /><path d="M 79.83685265289637 94.1308016681162 l -29.24285129044664 -8.51216782076781 a51.45654859967051,51.45654859967051 0 0,0 0.25415536098428104,-0.8460005371653639 l 29.09241960945873 9.012905961523899" fill="#a2ff22" stroke="none" /><path d="M 80.05021161711548 93.44210830539832 l -49.43558969830566 -16.250460249412452 a73.03801482701813,73.03801482701813 0 0,0 0.4017597853302074,-1.1877314172932403 l 49.14934449140309 17.096693341179854" fill="#3effb9" stroke="none" /><path d="M 80.16572619554312 93.10060997987247 l -26.859593191537993 -9.34316078508208 a49.43822075782537,49.43822075782537 0 0,0 0.285705431642842,-0.7991689412383249 l 26.69524758985121 9.802864682701328" fill="#bbff1f" stroke="none" /><path d="M 80.41425534168474 92.42381321644754 l -18.780811577364855 -7.26482137590881 a41.13694398682043,41.13694398682043 0 0,0 0.26041904006913996,-0.6564260992821593 l 18.653333862329582 7.586148492404552" fill="#ffd914" stroke="none" /><path d="M 80.83023694016515 91.42560881287825 l -33.865716683517974 -15.147704318011526 a58.09905271828666,58.09905271828666 0 0,0 0.41503621356898207,-0.9069290287592863 l 33.600696005093944 15.726822328985483" fill="#56ff2a" stroke="none" /><path d="M 81.29705330413844 90.45014215332179 l -19.8028287400198 -10.111465455395257 a43.23496705107084,43.23496705107084 0 0,0 0.3431866735975165,-0.6581056974823111 l 19.626333997447343 10.449917395982055" fill="#fff517" stroke="none" /><path d="M 81.63589988554816 89.8137432299009 l -28.18310222024621 -15.632691719397508 a53.228377265238876,53.228377265238876 0 0,0 0.4500754207791206,-0.7952401431228286 l 27.91059343444572 16.11418863261944" fill="#8dff24" stroke="none" /><line stroke="#e1ed5e" stroke-width="0.3" x1="26.387840678322718" x2="22.05771365940052" y1="57.49999999999999" y2="54.99999999999999" /><path d="M 25.521815274538284 56.99999999999999 a86.0,86.0 0 0,1 29.574782752854787,-30.34633250058573" fill="none" id="id119" stroke="none" /><text fill="#e1ed5e" style="font-size:6.75px; font-family:Arial;" text-anchor="middle"><textPath startOffset="21.40746469413373" xlink:href="#id119">November</textPath></text><path d="M 81.99639281039701 89.18935116829357 l -22.982246504214313 -13.800178692204206 a47.80724876441516,47.80724876441516 0 0,0 0.4285169404149173,-0.6999502178694504 l 22.741961599344002 14.1926660261982" fill="#cfff1d" stroke="none" /><line stroke="#e1ed5e" stroke-width="0.3" x1="56.869717070023135" x2="54.33264160355391" y1="26.7553504044142" y2="22.446841604673864" /><path d="M 56.362301976729285 25.89364864446614 a86.0,86.0 0 0,1 42.16139366436587,-11.88097634709845" fill="none" id="id120" stroke="none" /><text fill="#e1ed5e" style="font-size:6.75px; font-family:Arial;" text-anchor="middle"><textPath startOffset="22.145653131862474" xlink:href="#id120">December</textPath></text></svg>