<?xml version="1.0" encoding="utf-8" ?>
<svg baseProfile="full" height="200mm" version="1.1" viewBox="0,0,200,200" width="200mm" xmlns="http://www.w3.org/2000/svg" xmlns:ev="http://www.w3.org/2001/xml-events" xmlns:xlink="http://www.w3.org/1999/xlink"><defs /><rect fill="#1a1a1a" height="200" width="200" x="0" y="0" /><text alignment-baseline="middle" fill="#e1ed5e" style="dominant-baseline: central; font-size:9.0px; font-family:Arial;" text-anchor="middle" x="100.0" y="100.0">2018</text><line stroke="#e1ed5e" stroke-width="0.3" x1="100.0" x2="100.0" y1="15.0" y2="10.0" /><path d="M 100.0 14.0 a86.0,86.0 0 0,1 42.46469731375804,11.215312516191453" fill="none" id="id37" stroke="none" /><text fill="#e1ed5e" style="font-size:6.75px; font-family:Arial;" text-anchor="middle"><textPath startOffset="22.20632615414155" xlink:href="#id37">January</textPath></text><line stroke="#e1ed5e" stroke-width="0.3" x1="143.23703022742887" x2="145.7803849466894" y1="26.81831364943548" y2="22.513508569990506" /><path d="M 143.74570117128098 25.957352633546492 a86.0,86.0 0 0,1 28.547481713284135,27.462654790039103" fill="none" id="id38" stroke="none" /><text fill="#e1ed5e" style="font-size:6.75px; font-family:Arial;" text-anchor="middle"><textPath startOffset="19.985693538727396" xlink:href="#id38">February</textPath></text><line stroke="#e1ed5e" stroke-width="0.3" x1="172.23445277983987" x2="176.4835382374775" y1="55.19839476539836" y2="52.563006222186495" /><path d="M 173.08426987136738 54.67131705675599 a86.0,86.0 0 0,1 12.851231095245387,41.99856678651699" fill="none" id="id39" stroke="none" /><text fill="#e1ed5e" style="font-size:6.75px; font-family:Arial;" text-anchor="middle"><textPath startOffset="22.20632615414155" xlink:href="#id39">March</textPath></text><path d="M 119.61058180528143 92.48833698450437 l 28.941961438972182 -11.08596692824679 a51.99251191286589,51.99251191286589 0 0,0 0.3129340446695636,0.8385076586959257 l -29.12850007214337 10.586136132521531" fill="#c9ff1d" stroke="none" /><path d="M 120.45610955862082 95.25157060432595 l 31.94439436860189 -7.415178375545459 a53.79373723621511,53.79373723621511 0 0,0 0.20161281260131556,0.9037907065918896 l -32.067301568205245 6.8642094994036045" fill="#b1ff20" stroke="none" /><path d="M 120.87857604477298 97.74499172005257 l 32.87744351565237 -3.5509561184782474 a54.06864952610357,54.06864952610357 0 0,0 0.09197559864536305,0.9261817264907386 l -32.93369623997996 2.9844988612830736" fill="#adff20" stroke="none" /><path d="M 120.94382443527127 98.46500227214037 l 33.0909574637608 -2.4252755114786995 a54.17971409121852,54.17971409121852 0 0,0 0.06016375772175985,0.9307067028461515 l -33.12780181248697 1.8553097443795126" fill="#abff21" stroke="none" /><path d="M 120.98425023603335 99.18683210126433 l 40.198294307210986 -1.5577379294887654 a61.22846520395874,61.22846520395874 0 0,0 0.03174639224536225,1.0535082050257136 l -40.219152393912 0.8655595770380529" fill="#51ff2b" stroke="none" /><line stroke="#e1ed5e" stroke-width="0.3" x1="184.98032266829074" x2="189.97916517819016" y1="98.17113171792111" y2="98.06355123074" /><path d="M 185.9800911702706 98.14961562048488 a86.0,86.0 0 0,1 -9.607161424134198,41.387399972396054" fill="none" id="id40" stroke="none" /><text fill="#e1ed5e" style="font-size:6.75px; font-family:Arial;" text-anchor="middle"><textPath startOffset="21.466115282336823" xlink:href="#id40">April</textPath></text><path d="M 120.99824983174949 100.27111621757518 l 31.74202629433652 0.4098331135236135 a52.744671938000735,52.744671938000735 0 0,0 -0.019535464382553144,0.9077362667239431 l -31.730268767268957 -0.9561591960376715" fill="#bfff1e" stroke="none" /><path d="M 120.92983693683757 101.71520430193887 l 45.332819040603894 3.7150335414514064 a66.48478818662618,66.48478818662618 0 0,0 -0.10329014552484815,1.1397981488376931 l -45.262154298801974 -4.49481307883767" fill="#33ff52" stroke="none" /><path d="M 120.8583938346157 102.4346265915055 l 38.92612964716285 4.543522914314543 a60.190396397339896,60.190396397339896 0 0,0 -0.1289750950340117,1.0280584071490366 l -38.84215304288199 -5.2128990757509746" fill="#5eff2a" stroke="none" /><path d="M 120.76222939487914 103.15116336523771 l 43.570566331317835 6.612872337292047 a65.06953971828035,65.06953971828035 0 0,0 -0.17760342196049012,1.1059366780836772 l -43.450281154996055 -7.361888245068929" fill="#31ff3d" stroke="none" /><path d="M 120.5718875245553 104.21870165774334 l 38.64782995855214 7.925556861017839 a60.45211289731371,60.45211289731371 0 0,0 -0.2178174873101778,1.0175707855378082 l -38.50567843251751 -8.589641465971816" fill="#5bff2a" stroke="none" /><path d="M 120.41448212921028 104.9243191809786 l 38.33501301961617 9.247055042628352 a60.434518510760846,60.434518510760846 0 0,0 -0.25264128339383385,1.0091763419593607 l -38.17016042192727 -9.905559223985108" fill="#5bff2a" stroke="none" /><path d="M 120.23288151984713 105.62410040840565 l 35.983104941015235 10.00216380429813 a58.347384405927635,58.347384405927635 0 0,0 -0.27730945629279813,0.9653505969380992 l -35.80560284783634 -10.62007187674081" fill="#75ff27" stroke="none" /><path d="M 119.9155931802556 106.66101706037122 l 51.81474824113734 17.33008496855759 a75.63606849243337,75.63606849243337 0 0,0 -0.4235950079102843,1.2311653734152874 l -51.50876240228382 -18.219423045062175" fill="#41ffcb" stroke="none" /><path d="M 119.12269723197855 108.67885076344098 l 57.368091695935625 26.036552290322952 a84.0,84.0 0 0,0 -0.6089015326406746,1.3115197308846775 l -56.911415546455125 -27.02019208848646" fill="#4dd2ff" stroke="none" /><path d="M 118.64920377521936 109.65438752849418 l 47.426223037311 24.55177935389433 a74.40446143373305,74.40446143373305 0 0,0 -0.598592720766994,1.1323118421344702 l -46.99657780831911 -25.364506211114936" fill="#3fffbb" stroke="none" /><line stroke="#e1ed5e" stroke-width="0.3" x1="174.80103733775053" x2="179.2010983576182" y1="140.37084112569926" y2="142.7455964860345" /><path d="M 175.68104954172406 140.8457921977663 a86.0,86.0 0 0,1 -30.038265399797805,32.042727171017184" fill="none" id="id41" stroke="none" /><text fill="#e1ed5e" style="font-size:6.75px; font-family:Arial;" text-anchor="middle"><textPath startOffset="22.206326154141568" xlink:href="#id41">May</textPath></text><path d="M 116.93607887273984 112.41649034213515 l 38.7427104589471 28.4037700731275 a69.03927318426979,69.03927318426979 0 0,0 -0.7109030943646666,0.9523708690248038 l -38.24804609788734 -29.066453821661618" fill="#37ff75" stroke="none" /><path d="M 116.27256486870786 113.27417163493432 l 48.24337881194075 39.3540229070051 a83.25883646646069,83.25883646646069 0 0,0 -0.9154665897292902,1.102738481378645 l -47.558816222317915 -40.17862264549752" fill="#4cdaff" stroke="none" /><path d="M 115.32070863581623 114.36230785411682 l 14.341152410004241 13.444028653725312 a40.657328376184736,40.657328376184736 0 0,0 -0.4830350984901055,0.5064603696180009 l -14.10761076013517 -13.688896139925818" fill="#ff8c0c" stroke="none" /><path d="M 114.55890576462653 115.13401014063108 l 16.335981186805117 16.9812834106636 a44.56328219092004,44.56328219092004 0 0,0 -0.5573893968326188,0.5270464651972316 l -16.041255955581693 -17.259964512606754" fill="#ffc912" stroke="none" /><path d="M 114.29624159901734 115.38237550388516 l 15.685665299482135 16.87735842974843 a44.04094884013196,44.04094884013196 0 0,0 -0.5597404327303817,0.5113096139816387 l -15.39282531728489 -17.14486081031665" fill="#ffc111" stroke="none" /><path d="M 114.0293411484842 115.62618273729858 l 36.216813597901385 40.33906806127048 a75.21160391684558,75.21160391684558 0 0,0 -0.9707943043724683,0.8566131012903877 l -35.517076940622324 -40.95650430433316" fill="#40ffc6" stroke="none" /><path d="M 113.20401910651253 116.32954008644616 l 19.980611831177626 24.710218852077354 a52.77766141278735,52.77766141278735 0 0,0 -0.7113486483233353,0.5651383880883898 l -19.55230569013694 -25.050491154170867" fill="#beff1e" stroke="none" /><path d="M 112.63410532772338 116.77436683061366 l 6.804964518037525 9.034986501528623 a32.31099125517097,32.31099125517097 0 0,0 -0.44714569902033435,0.3307876983913372 l -6.648433848598627 -9.15078414865973" fill="#ff0000" stroke="none" /><path d="M 112.34349029814194 116.9893568818739 l 12.755220063022099 17.556054286374795 a42.70047651463581,42.70047651463581 0 0,0 -0.598361110766087,0.4269147650587591 l -12.451131624407129 -17.773013313277772" fill="#ffac0f" stroke="none" /><path d="M 112.04921762599082 117.19931262002967 l 18.72717329198479 26.731570292459583 a53.63868670471801,53.63868670471801 0 0,0 -0.7607577882319211,0.5232561437057882 l -18.264258619129986 -27.049967225530466" fill="#b3ff20" stroke="none" /><path d="M 111.1453310114006 117.79835938074945 l 17.6882595325721 28.246985186770406 a54.32816672775829,54.32816672775829 0 0,0 -0.7968669229378587,0.4895007486172686 l -17.199413409701933 -28.547274402216054" fill="#a9ff21" stroke="none" /><line stroke="#e1ed5e" stroke-width="0.3" x1="143.8653032363475" x2="146.44561519142675" y1="172.8068346515853" y2="177.08958963109032" /><path d="M 144.38136562736335 173.6633856474863 a86.0,86.0 0 0,1 -40.68145358897372,12.25698825130547" fill="none" id="id42" stroke="none" /><text fill="#e1ed5e" style="font-size:6.75px; font-family:Arial;" text-anchor="middle"><textPath startOffset="21.466115282336833" xlink:href="#id42">June</textPath></text><path d="M 110.21172684928248 118.3499491758327 l 11.390805118260227 20.468692325684035 a44.42472639681625,44.42472639681625 0 0,0 -0.6713997498726741,0.36610067599921614 l -11.036782556518904 -20.661733653443022" fill="#ffc712" stroke="none" /><path d="M 109.57404056367764 118.69057910512821 l 25.005206115858474 48.81552149690943 a75.84720113106769,75.84720113106769 0 0,0 -1.1671298408906778,0.5852231314406344 l -24.161222367285035 -49.23871246925937" fill="#41ffce" stroke="none" /><path d="M 108.92500713936063 119.00905698771935 l 17.716819167723834 37.734426420246784 a62.68659998952715,62.68659998952715 0 0,0 -0.9806930634802581,0.45018808548650346 l -17.064658108476156 -38.03380157606736" fill="#40ff2d" stroke="none" /><path d="M 108.2653958097858 119.30500536409082 l 14.900391765381775 34.80198039846859 a58.85762161596062,58.85762161596062 0 0,0 -0.9347950778581918,0.3907444183588498 l -14.29912522802612 -35.05330985984741" fill="#6fff28" stroke="none" /><path d="M 107.59598834532513 119.57807347666477 l 14.041262218061597 36.19026924646506 a59.818714981410686,59.818714981410686 0 0,0 -0.9631661376699256,0.3641870184164786 l -13.416225859631396 -36.42660451498816" fill="#63ff29" stroke="none" /><line stroke="#e1ed5e" stroke-width="0.3" x1="102.19456741930631" x2="102.32365962044197" y1="184.97166512339345" y2="189.96999836594603" /><path d="M 102.22038585953345 185.97133177190398 a86.0,86.0 0 0,1 -42.740103519485714,-10.115201625700543" fill="none" id="id43" stroke="none" /><text fill="#e1ed5e" style="font-size:6.75px; font-family:Arial;" text-anchor="middle"><textPath startOffset="22.20632615414155" xlink:href="#id43">July</textPath></text><path d="M 96.93821686468263 120.77559828337769 l -3.8921216627200237 26.40982478542582 a47.69508299732942,47.69508299732942 0 0,0 -0.811189196612441,-0.1266910695624434 l 4.346146722940982 -26.33891540851627" fill="#fff817" stroke="none" /><path d="M 95.86986931433489 120.58985236759428 l -6.079599083873467 30.308495570269805 a51.912237524218455,51.912237524218455 0 0,0 -0.8746187091606801,-0.1832848542630488 l 6.600409254463535 -30.199354735280217" fill="#caff1d" stroke="none" /><path d="M 94.81253420990036 120.34920634021253 l -8.817089180543762 34.5873639104026 a56.69351206995863,56.69351206995863 0 0,0 -0.9435678237634633,-0.24920483821042805 l 9.411147447118715 -34.430467722888594" fill="#8aff24" stroke="none" /><path d="M 93.42475214034765 119.94407469862007 l -6.721923022673344 20.38897053679424 a42.46845054196994,42.46845054196994 0 0,0 -0.6922969531321328,-0.23486471414329416 l 7.071889708742703 -20.27024283575282" fill="#ffa80f" stroke="none" /><path d="M 90.10565033884886 118.52300852407294 l -9.142571823881912 17.115620695176773 a40.40440906948735,40.40440906948735 0 0,0 -0.6106398923134806,-0.3329695571236803 l 9.435834528064033 -16.955710486293327" fill="#ff880c" stroke="none" /><line stroke="#e1ed5e" stroke-width="0.3" x1="58.666819895761336" x2="56.23545636021788" y1="174.27360380694188" y2="178.64263932499728" /><path d="M 58.180547188652646 175.14741091055294 a86.0,86.0 0 0,1 -31.652253787137756,-30.449443065178592" fill="none" id="id44" stroke="none" /><text fill="#e1ed5e" style="font-size:6.75px; font-family:Arial;" text-anchor="middle"><textPath startOffset="22.20632615414155" xlink:href="#id44">August</textPath></text><path d="M 88.8546689885994 117.79835938074946 l -11.591797902730201 18.511337593362608 a42.8412316070587,42.8412316070587 0 0,0 -0.6216429949234911,-0.39676197138050023 l 11.908722699700617 -18.309061193158303" fill="#ffae10" stroke="none" /><path d="M 88.24862548938628 117.40417183066458 l -15.554249018420835 23.036353948981958 a48.79583180604283,48.79583180604283 0 0,0 -0.6920715505966312,-0.4760131231456774 l 15.948477453640356 -22.765200036471178" fill="#f6ff19" stroke="none" /><path d="M 87.07902340077011 116.55440617244103 l -13.171994157920473 16.8760108585161 a42.407969838194475,42.407969838194475 0 0,0 -0.571583719608058,-0.4541006758334888 l 13.46053537024589 -16.646776268677478" fill="#ffa80f" stroke="none" /><path d="M 86.24171649860922 115.8653595955263 l -21.20477343543147 24.45227674373595 a53.36597371314866,53.36597371314866 0 0,0 -0.6888216795016651,-0.6078050442368342 l 21.622537467839724 -24.08364855772683" fill="#b6ff1f" stroke="none" /><line stroke="#e1ed5e" stroke-width="0.3" x1="26.63291911575756" x2="22.317208475507996" y1="142.92168965132927" y2="145.44649492493687" /><path d="M 25.769776987707644 143.4266507060508 a86.0,86.0 0 0,1 -11.730757126820373,-40.83630448921669" fill="none" id="id45" stroke="none" /><text fill="#e1ed5e" style="font-size:6.75px; font-family:Arial;" text-anchor="middle"><textPath startOffset="21.46611528233685" xlink:href="#id45">September</textPath></text><path d="M 79.67330655649465 105.27499134158121 l -15.811542708450116 4.103262102905633 a37.33528826517254,37.33528826517254 0 0,0 -0.15607694701022007,-0.6234498191747264 l 15.879830969755394 -3.8304844443335146" fill="#ff5607" stroke="none" /><path d="M 79.50377843672027 104.57218783832718 l -22.53543300854503 5.027084256236881 a44.089333403152324,44.089333403152324 0 0,0 -0.1588600854261021,-0.7421414318651268 l 22.618627132695575 -4.638429004955591" fill="#ffc212" stroke="none" /><path d="M 79.35854240842038 103.8639653848113 l -14.191880304625883 2.6566405981343832 a35.43839346494214,35.43839346494214 0 0,0 -0.10708057824448686,-0.6005647494434059 l 14.235507325209557 -2.4119570979577634" fill="#ff3605" stroke="none" /><path d="M 79.23777060512086 103.15116336523772 l -30.027334851399022 4.557364035424447 a51.371210137717966,51.371210137717966 0 0,0 -0.12516460557724043,-0.8754009598870821 l 30.101333507992862 -4.039817603556965" fill="#d2ff1c" stroke="none" /><path d="M 79.18660465613746 102.79330883721812 l -14.011468321762418 1.8804408237564119 a35.13708959522438,35.13708959522438 0 0,0 -0.07529123815444635,-0.6001452478009338 l 14.041761069163712 -1.6389778216680695" fill="#ff3104" stroke="none" /><path d="M 79.07016306316243 101.71520430193888 l -12.966481688208894 1.062605754633654 a34.009949206681675,34.009949206681675 0 0,0 -0.04279332846150895,-0.5838809673994966 l 12.982851575334738 -0.8392516507373968" fill="#ff1e03" stroke="none" /><path d="M 79.04373962182676 101.35467743843564 l -18.393927656644482 1.1890403321494587 a39.43231921244174,39.43231921244174 0 0,0 -0.03795576496434011,-0.6777256806790355 l 18.411669772496353 -0.8722429351349855" fill="#ff780b" stroke="none" /><path d="M 79.0235259727143 100.99374915477108 l -14.538650585178484 0.6887607379457503 a35.55495627585484,35.55495627585484 0 0,0 -0.023699693068132296,-0.6115837708695837 l 14.548352411097817 -0.4383997200621698" fill="#ff3805" stroke="none" /><line stroke="#e1ed5e" stroke-width="0.3" x1="15.007084014347285" x2="10.007500721073583" y1="101.09737516637583" y2="101.16192664675087" /><path d="M 14.007167355692545 101.11028546245083 a86.0,86.0 0 0,1 10.666146001902534,-42.60595125391555" fill="none" id="id46" stroke="none" /><text fill="#e1ed5e" style="font-size:6.75px; font-family:Arial;" text-anchor="middle"><textPath startOffset="22.20632615414155" xlink:href="#id46">October</textPath></text><path d="M 79.03285615573316 98.82574320788736 l -22.077149731398535 -1.236422243064411 a43.11174530030895,43.11174530030895 0 0,0 0.04787335338911773,-0.74057958768187 l 22.052595787005004 1.616260894999293" fill="#ffb210" stroke="none" /><path d="M 79.08570108090925 98.10471618934814 l -32.490155837705686 -2.9443045928998566 a53.62329161648426,53.62329161648426 0 0,0 0.0912180050914699,-0.918552862791494 l 32.43466070693199 3.5031329863957805" fill="#b3ff20" stroke="none" /><path d="M 79.16333360222342 97.38593545837743 l -22.05432988942022 -2.766826547615691 a43.2272084620621,43.2272084620621 0 0,0 0.0989779586865241,-0.7375007578906759 l 22.003435931675863 3.146045647571026" fill="#ffb410" stroke="none" /><path d="M 79.32604984820605 96.31383870115002 l -21.769516866650484 -3.881500631438148 a43.1128449494685,43.1128449494685 0 0,0 0.13655331771429885,-0.7294732835001505 l 21.699477825026324 4.255651992400871" fill="#ffb210" stroke="none" /><path d="M 79.54389044137918 95.25157060432595 l -32.47569406704019 -7.538507745616894 a54.33916321935383,54.33916321935383 0 0,0 0.2193418429654835,-0.909313545454831 l 32.34111942381389 8.096406522731122" fill="#a9ff21" stroke="none" /><path d="M 79.81627453868168 94.20196356495316 l -31.269607870270914 -8.982599673629155 a53.5342200345604,53.5342200345604 0 0,0 0.2620477201084343,-0.8834946413058716 l 31.110354253050772 9.519523701681564" fill="#b4ff20" stroke="none" /><path d="M 81.10775173730289 90.83032412892265 l -38.69562186706799 -18.781582012734468 a64.0127768759491,64.0127768759491 0 0,0 0.4896672213413591,-0.9871392383253104 l 38.36659463277322 19.444880839558742" fill="#30ff2f" stroke="none" /><line stroke="#e1ed5e" stroke-width="0.3" x1="26.266209847984243" x2="21.928928074336255" y1="57.711370442889674" y2="55.22380399835377" /><path d="M 25.398753493254645 57.213857153982495 a86.0,86.0 0 0,1 29.58750427330803,-30.492523968695096" fill="none" id="id47" stroke="none" /><text fill="#e1ed5e" style="font-size:6.75px; font-family:Arial;" text-anchor="middle"><textPath startOffset="21.46611528233685" xlink:href="#id47">November</textPath></text><path d="M 82.34701348167596 88.62581576622439 l -24.39360429554659 -15.71730364691336 a50.018641671466725,50.018641671466725 0 0,0 0.4725650858307399,-0.719749046547198 l 24.11944257435793 16.134870757438225" fill="#e5ff1a" stroke="none" /><path d="M 83.17141714833178 87.43820079747576 l -24.67228688699831 -18.416780335773865 a51.78797716918888,51.78797716918888 0 0,0 0.539394124477436,-0.7097794407437322 l 24.351616822296766 18.838744552398623" fill="#ccff1d" stroke="none" /><path d="M 87.22198572758235 83.33499621200491 l -23.97960284311169 -31.27404334472263 a60.409226580091115,60.409226580091115 0 0,0 0.8306379296896291,-0.625619267711991 l 23.43771875966367 31.682179201940475" fill="#5bff2a" stroke="none" /><path d="M 87.80319425747018 82.90503203632743 l -23.35193006043452 -32.72992164506258 a61.20647222076766,61.20647222076766 0 0,0 0.8629204990717636,-0.6045309552159478 l 22.785078421779097 33.12703744304247" fill="#52ff2b" stroke="none" /><path d="M 88.39885842347998 82.49532879139004 l -22.453254113722398 -33.87915130865752 a61.64413258627009,61.64413258627009 0 0,0 0.8895335638364366,-0.5785773739050524 l 21.866753524101675 34.26062760672211" fill="#4cff2c" stroke="none" /><line stroke="#e1ed5e" stroke-width="0.3" x1="56.762969772571076" x2="54.21961505331055" y1="26.818313649435495" y2="22.513508569990535" /><path d="M 56.25429882871897 25.957352633546506 a86.0,86.0 0 0,1 42.265352541879196,-11.944610805530505" fill="none" id="id48" stroke="none" /><text fill="#e1ed5e" style="font-size:6.75px; font-family:Arial;" text-anchor="middle"><textPath startOffset="22.20632615414155" xlink:href="#id48">December</textPath></text><path d="M 89.3179101791058 81.91981866633112 l -20.635893473971247 -34.927687582432426 a61.56825679426087,61.56825679426087 0 0,0 0.9170834238885264,-0.5312339127553357 l 20.0316133176174 35.27772565257781" fill="#4dff2c" stroke="none" /><path d="M 90.26544431104013 81.39251694778311 l -19.258587656940517 -36.812552610138056 a62.54584489710425,62.54584489710425 0 0,0 0.9582604590734826,-0.4908582261755945 l 18.62206671027827 37.13860336162615" fill="#41ff2d" stroke="none" /><path d="M 94.98787191387505 79.60689891045804 l -9.188857748511316 -37.387174019267604 a59.49981672514007,59.49981672514007 0 0,0 0.9966964835226061,-0.23588585567794695 l 8.543937578026176 37.53980578708642" fill="#66ff29" stroke="none" /></svg>