<?xml version="1.0" encoding="utf-8" ?>
<svg baseProfile="full" height="200mm" version="1.1" viewBox="0,0,200,200" width="200mm" xmlns="http://www.w3.org/2000/svg" xmlns:ev="http://www.w3.org/2001/xml-events" xmlns:xlink="http://www.w3.org/1999/xlink"><defs /><rect fill="#1a1a1a" height="200" width="200" x="0" y="0" /><text alignment-baseline="middle" fill="#e1ed5e" style="dominant-baseline: central; font-size:9.0px; font-family:Arial;" text-anchor="middle" x="100.0" y="100.0">2022</text><line stroke="#e1ed5e" stroke-width="0.3" x1="100.0" x2="100.0" y1="15.0" y2="10.0" /><path d="M 100.0 14.0 a86.0,86.0 0 0,1 42.46469731375804,11.215312516191453" fill="none" id="id85" stroke="none" /><text fill="#e1ed5e" style="font-size:6.75px; font-family:Arial;" text-anchor="middle"><textPath startOffset="22.20632615414155" xlink:href="#id85">January</textPath></text><path d="M 100.0 79.0 l 0.0 -22.583778217392478 a43.58377821739248,43.58377821739248 0 0,0 0.7502230970728865,0.0064574070503910725 l -0.38874261780035807 22.580432186950645" fill="#ffce13" stroke="none" /><path d="M 100.72285384407766 79.0124445844662 l 1.0460087491557926 -30.370131898588653 a51.38813988780792,51.38813988780792 0 0,0 0.8837760869972047,0.0380572573784821 l -1.5686256685423285 30.34762691468598" fill="#c3ff1e" stroke="none" /><path d="M 101.44485096284872 79.0497635885617 l 1.12924376559005 -16.37395445175162 a37.41284789030108,37.41284789030108 0 0,0 0.642093210645664,0.049838790976858616 l -1.4109271655980553 16.352090398586295" fill="#ff700a" stroke="none" /><path d="M 101.80526077348638 79.07773832637324 l 1.9925576183223588 -23.092958370666956 a44.17876209316821,44.17876209316821 0 0,0 0.7570869711232975,0.07189453040607187 l -2.3897697165359 23.055238295745706" fill="#ffd614" stroke="none" /><path d="M 102.52436894288641 79.15227682838746 l 5.199494723199601 -42.94048495842362 a64.25413267933118,64.25413267933118 0 0,0 1.096864771335377,0.14240452754905308 l -5.937874223042824 42.84462210771043" fill="#31ff3b" stroke="none" /><path d="M 103.2404852339499 79.25152402106235 l 3.510364674757377 -22.47648480802819 a43.74895666784098,43.74895666784098 0 0,0 0.7430464335864186,0.1226090282092794 l -3.896740314482671 22.41272951687929" fill="#ffd013" stroke="none" /><path d="M 103.95276090670814 79.375362276772 l 2.567296838868153 -13.395590697070697 a34.63938646649142,34.63938646649142 0 0,0 0.5846362913892581,0.11727254008001094 l -2.797499539724537 13.349414200913477" fill="#ff4306" stroke="none" /><path d="M 105.01212808612495 79.60689891045804 l 12.905065110833336 -52.50749638679213 a75.07012005094714,75.07012005094714 0 0,0 1.2522093228188027,0.31921603799014175 l -13.806983322337164 52.27757735263312" fill="#40ffc7" stroke="none" /><path d="M 105.71112130821622 79.79150937346287 l 10.457917284024958 -37.00476876638564 a59.45414080919216,59.45414080919216 0 0,0 0.9824365932208798,0.28680018174637484 l -11.093344094969265 36.81927025572056" fill="#5dff2a" stroke="none" /><path d="M 106.74666289553966 80.11325718540242 l 7.862665993406215 -23.176319740434373 a45.47372699926831,45.47372699926831 0 0,0 0.7390953031982888,0.2578558387691821 l -8.260443300667777 23.037543048492985" fill="#ffe915" stroke="none" /><path d="M 109.08828744355905 81.06846463323043 l 8.948026212180315 -18.63936145843713 a41.675903092057126,41.675903092057126 0 0,0 0.6440489536505394,0.3160320244824237 l -9.267546432841286 18.48257427381987" fill="#ffb110" stroke="none" /><path d="M 110.05341064243156 81.56283822128135 l 13.218855072169276 -24.242337069807977 a48.61211755778976,48.61211755778976 0 0,0 0.7312093769382931,0.40691722660256524 l -13.634188538179604 24.011204445645234" fill="#e9ff1a" stroke="none" /><line stroke="#e1ed5e" stroke-width="0.3" x1="143.23703022742887" x2="145.7803849466894" y1="26.81831364943548" y2="22.513508569990506" /><path d="M 143.74570117128098 25.957352633546492 a86.0,86.0 0 0,1 28.547481713284135,27.462654790039103" fill="none" id="id86" stroke="none" /><text fill="#e1ed5e" style="font-size:6.75px; font-family:Arial;" text-anchor="middle"><textPath startOffset="19.985693538727396" xlink:href="#id86">February</textPath></text><path d="M 110.99172775467656 82.1063720568725 l 13.192173294248233 -21.475772140381466 a46.20401208639333,46.20401208639333 0 0,0 0.674096399372923,0.42211910344560183 l -13.559888845993418 21.24550869561292" fill="#fff417" stroke="none" /><path d="M 111.60114157652 82.49532879139004 l 18.65823285463006 -28.152939027570707 a54.77451153085283,54.77451153085283 0 0,0 0.7814374533722976,0.527630056778603 l -19.1400750024089 27.827597058493435" fill="#97ff23" stroke="none" /><path d="M 112.19680574252982 82.90503203632743 l 5.572450535615453 -7.810312420843522 a30.594435110159615,30.594435110159615 0 0,0 0.4260707543560129,0.30955852297896685 l -5.706066606325255 7.7132346630478805" fill="#ff0000" stroke="none" /><path d="M 112.77801427241765 83.33499621200491 l 23.617129967158963 -30.80130855807926 a59.81352131378554,59.81352131378554 0 0,0 0.8116622064622105,0.6335152265163427 l -24.143824728780604 30.390214942339693" fill="#59ff2a" stroke="none" /><path d="M 113.34407831869373 83.78471172551755 l 23.92647738425437 -29.07467409233168 a58.65385761903472,58.65385761903472 0 0,0 0.7740702174946915,0.6482615460840794 l -24.423405138708176 28.658511388853782" fill="#67ff28" stroke="none" /><path d="M 113.89432698308785 84.25364557470407 l 25.825521603690277 -29.267903143839035 a60.03290561231403,60.03290561231403 0 0,0 0.7689615234475952,0.690381248182526 l -26.325494114733864 28.819022886887215" fill="#56ff2a" stroke="none" /><path d="M 116.15771136456269 86.58626213691792 l 27.91070476831624 -23.17078631304054 a57.27523644345682,57.27523644345682 0 0,0 0.6232132330481002,0.7639857341548224 l -28.30541649344075 22.686916409277618" fill="#78ff26" stroke="none" /><path d="M 117.04232023915458 87.72973835380427 l 36.59773729360847 -26.34992219073499 a66.09670469634969,66.09670469634969 0 0,0 0.6568356258417908,0.9290474115122638 l -37.04588553925414 25.716048278890934" fill="#33ff54" stroke="none" /><line stroke="#e1ed5e" stroke-width="0.3" x1="172.23445277983987" x2="176.4835382374775" y1="55.19839476539836" y2="52.563006222186495" /><path d="M 173.08426987136738 54.67131705675599 a86.0,86.0 0 0,1 12.851231095245387,41.99856678651699" fill="none" id="id87" stroke="none" /><text fill="#e1ed5e" style="font-size:6.75px; font-family:Arial;" text-anchor="middle"><textPath startOffset="22.20632615414155" xlink:href="#id87">March</textPath></text><path d="M 118.03404312379186 89.2402003453031 l 16.050229960185124 -9.576180870698405 a39.6899203273624,39.6899203273624 0 0,0 0.34500052270492887,0.589717726865271 l -16.21269015736038 9.298483731479239" fill="#ff930d" stroke="none" /><path d="M 118.89224826269711 90.83032412892265 l 19.23885274696165 -9.337906286641129 a42.385274111812684,42.385274111812684 0 0,0 0.31292806918131866,0.6591063203031948 l -19.396739009984728 9.005357550697394" fill="#ffbc11" stroke="none" /><path d="M 119.196687751892 91.48605970444005 l 34.50394063814296 -15.30287382654023 a58.74519660713801,58.74519660713801 0 0,0 0.4020109764078078,0.9278967602864704 l -34.76224232439344 14.706677921667156" fill="#66ff29" stroke="none" /><path d="M 119.47837535516314 92.15188598940014 l 23.141028860369993 -9.323849115097014 a45.94877510094578,45.94877510094578 0 0,0 0.28927259254191207,0.7361671955491911 l -23.298095002793605 8.924132914652038" fill="#fff016" stroke="none" /><path d="M 119.85752413597 93.16781622104841 l 20.35583224008393 -7.00363176625028 a42.52697758868324,42.52697758868324 0 0,0 0.23220277800122402,0.6942567508962175 l -20.473372311856924 6.652201912431748" fill="#ffbe11" stroke="none" /><path d="M 120.18372546131832 94.20196356495316 l 24.696498202398683 -7.094388826780239 a46.69527926072464,46.69527926072464 0 0,0 0.21527241831125152,0.7744494262002777 l -24.814957391276298 6.66822809716101" fill="#fffb17" stroke="none" /><path d="M 120.37134235888165 94.90015583598534 l 21.432390027339693 -5.365471124889315 a43.09379149616541,43.09379149616541 0 0,0 0.17394952529876448,0.7211330835972772 l -21.521572352899277 4.995752809632632" fill="#ffc612" stroke="none" /><path d="M 120.6074358757038 95.95851677861258 l 31.114290714988915 -6.102063576878837 a52.70700658518739,52.70700658518739 0 0,0 0.16694135180438185,0.8918073767162927 l -31.214717790703155 5.565578122699982" fill="#b2ff20" stroke="none" /><path d="M 120.67395015179393 96.31383870115 l 44.39442404109952 -7.915517188708941 a66.0945706078426,66.0945706078426 0 0,0 0.19006324202989505,1.1217640133236864 l -44.52409914464964 7.150167387069417" fill="#33ff54" stroke="none" /><path d="M 120.83666639777658 97.38593545837742 l 58.85605842587053 -7.383788387913727 a80.31741687217149,80.31741687217149 0 0,0 0.16028926613220473,1.373260545215538 l -58.97443804500632 6.369584104373336" fill="#48faff" stroke="none" /><path d="M 120.91429891909075 98.10471618934814 l 12.174597612700435 -1.1032795240145261 a33.22448578629305,33.22448578629305 0 0,0 0.04671286155581725,0.5700152303204613 l -12.191784958075747 0.893550376486296" fill="#ff2c04" stroke="none" /><path d="M 120.98425023603335 99.18683210126433 l 22.795443347379013 -0.8833540659797295 a43.81255250535216,43.81255250535216 0 0,0 0.022716402778874652,0.7538468160806373 l -22.807271444613534 0.4908371024740931" fill="#ffd113" stroke="none" /><line stroke="#e1ed5e" stroke-width="0.3" x1="184.98032266829074" x2="189.97916517819016" y1="98.17113171792111" y2="98.06355123074" /><path d="M 185.9800911702706 98.14961562048488 a86.0,86.0 0 0,1 -9.607161424134198,41.387399972396054" fill="none" id="id88" stroke="none" /><text fill="#e1ed5e" style="font-size:6.75px; font-family:Arial;" text-anchor="middle"><textPath startOffset="21.466115282336823" xlink:href="#id88">April</textPath></text><path d="M 120.99980553446 99.90962569577887 l 49.42161762105753 -0.2126897936581616 a70.42207528251268,70.42207528251268 0 0,0 -0.00521694349503942,1.2122339399930908 l -49.41795638027299 -0.6380536245386139" fill="#39ff8e" stroke="none" /><path d="M 120.9764740272857 100.99374915477107 l 31.059262134395908 1.4714158086683318 a52.09409636595215,52.09409636595215 0 0,0 -0.050143418322504366,0.8953444185914367 l -31.029332365185876 -2.0058319435951915" fill="#baff1f" stroke="none" /><path d="M 120.95626037817324 101.35467743843564 l 20.65754237706435 1.3353673836236535 a41.70065851873933,41.70065851873933 0 0,0 -0.05247023352516172,0.7159146486562061 l -20.63149558487485 -1.69075516877663" fill="#ffb210" stroke="none" /><path d="M 120.89721153311464 102.0752229133903 l 13.555636770498504 1.3461589354712231 a34.62231375843473,34.62231375843473 0 0,0 -0.06399802556242393,0.592542233792392 l -13.530456443435027 -1.5792974911484066" fill="#ff4306" stroke="none" /><path d="M 120.81339534386255 102.79330883721812 l 36.405533792298534 4.885887073473433 a57.73193138397333,57.73193138397333 0 0,0 -0.14066233599549768,0.9837920503367225 l -36.31603740528644 -5.511824595790564" fill="#72ff27" stroke="none" /><path d="M 120.70491114924044 103.5080841355445 l 34.55101538570575 5.854063708261544 a56.04344055716648,56.04344055716648 0 0,0 -0.16934074699544824,0.949752839937763 l -34.445128196371115 -6.447935298932525" fill="#87ff25" stroke="none" /><path d="M 120.64145759157962 103.86396538481128 l 19.13436436602711 3.5818459642528193 a40.4667285439419,40.4667285439419 0 0,0 -0.1340606198598878,0.6835722124491027 l -19.069873813191556 -3.910681903769867" fill="#ff9f0e" stroke="none" /><path d="M 120.49622156327973 104.57218783832717 l 19.648761872480723 4.383141048420994 a41.131710522750055,41.131710522750055 0 0,0 -0.16009917811609117,0.6897030691393399 l -19.57040212843408 -4.720712774908898" fill="#ffa90f" stroke="none" /><path d="M 120.13307415673323 105.97154293290107 l 18.77726566158453 5.56940520795435 a40.58581068263733,40.58581068263733 0 0,0 -0.20442343744560135,0.6680676214331575 l -18.678615451632798 -5.891799801939564" fill="#ffa10e" stroke="none" /><path d="M 119.9155931802556 106.66101706037122 l 18.922539023141425 6.328877785254477 a40.95287390585621,40.95287390585621 0 0,0 -0.22935397478830455,0.6666100089506454 l -18.81079421740989 -6.653660497294423" fill="#ffa60f" stroke="none" /><path d="M 119.67450827220406 107.3425965602758 l 23.866691137635147 8.907134136609995 a46.47461450909189,46.47461450909189 0 0,0 -0.28616350046248523,0.7470825999420887 l -23.709833357579154 -9.31664030338523" fill="#fff717" stroke="none" /><path d="M 119.26925614724726 108.34839909993367 l 25.755482751377116 11.158554714146057 a49.068812498306286,49.068812498306286 0 0,0 -0.3424510444417299,0.7721367007806529 l -25.559590622204112 -11.600239751419396" fill="#e2ff1b" stroke="none" /><path d="M 119.12269723197855 108.67885076344098 l 18.293162596220984 8.302365834588699 a41.08902875260833,41.08902875260833 0 0,0 -0.2978472926449995,0.6415365706182578 l -18.147540686736154 -8.616022472485787" fill="#ffa80f" stroke="none" /><path d="M 118.81262510543309 109.33194174019688 l 17.82639103951454 8.842723526695595 a40.89909487547763,40.89909487547763 0 0,0 -0.31827545186134004,0.6279876613223657 l -17.671536917866934 -9.148265399720655" fill="#ffa60f" stroke="none" /><line stroke="#e1ed5e" stroke-width="0.3" x1="174.80103733775053" x2="179.2010983576182" y1="140.37084112569926" y2="142.7455964860345" /><path d="M 175.68104954172406 140.8457921977663 a86.0,86.0 0 0,1 -30.038265399797805,32.042727171017184" fill="none" id="id89" stroke="none" /><text fill="#e1ed5e" style="font-size:6.75px; font-family:Arial;" text-anchor="middle"><textPath startOffset="22.206326154141568" xlink:href="#id89">May</textPath></text><path d="M 118.48025628344425 109.97397251340804 l 47.69129090312221 25.73944956720238 a75.19389718435815,75.19389718435815 0 0,0 -0.6245518825823702,1.1337430802443842 l -47.24116261108833 -26.556563165844572" fill="#40ffc9" stroke="none" /><path d="M 118.12598468904814 110.60418214915192 l 17.128591341683236 10.020680567789553 a40.84446220969621,40.84446220969621 0 0,0 -0.36024645347889445,0.6037937773679162 l -16.953564012506114 -10.314036439043573" fill="#ffa50f" stroke="none" /><path d="M 117.94076556474637 110.91462005526583 l 16.95976288952708 10.317807648650488 a40.85171811062031,40.85171811062031 0 0,0 -0.3706522300185641,0.5976094130292503 l -16.779646019840552 -10.60821339304501" fill="#ffa50f" stroke="none" /><path d="M 117.55443506779139 111.5257021239791 l 17.087637707007925 11.21921733470091 a41.44158017397903,41.44158017397903 0 0,0 -0.3966489962782102,0.5929364313933901 l -16.891985605318997 -11.511690680300106" fill="#ffae10" stroke="none" /><path d="M 117.14729908036423 112.12312394758627 l 29.330148153274166 20.73638651759367 a56.92012411587761,56.92012411587761 0 0,0 -0.5725085920839108,0.795164361388054 l -28.96885976881465 -21.238184484432853" fill="#7cff26" stroke="none" /><path d="M 116.71984013943494 112.70617746262583 l 15.75904175956252 11.976022471988765 a40.79324408552613,40.79324408552613 0 0,0 -0.4296755950132253,0.5554136274076821 l -15.550559347331227 -12.2455140935097" fill="#ffa40f" stroke="none" /><path d="M 116.27256486870786 113.27417163493432 l 26.49081925196254 21.60960391540882 a55.18681743042194,55.18681743042194 0 0,0 -0.6068027094204357,0.7309329535233056 l -26.114920542648562 -22.062398126045895" fill="#92ff23" stroke="none" /><path d="M 116.0416608686014 113.55231037782055 l 15.151133720574787 12.799975541123297 a40.8342185848622,40.8342185848622 0 0,0 -0.4582328321593758,0.5330283072359367 l -14.928558378844633 -13.058880947520763" fill="#ffa50f" stroke="none" /><path d="M 115.56566222782051 114.09645910891815 l 21.75938353365628 19.7055708731257 a50.356094685780874,50.356094685780874 0 0,0 -0.5873764891709314,0.6374811707295247 l -21.416960636489627 -20.07720329865656" fill="#d1ff1c" stroke="none" /><path d="M 115.07121518719521 114.62390073753431 l 14.439793310297453 14.011219494743386 a41.12018644481179,41.12018644481179 0 0,0 -0.49727889748210674,0.5037408977245358 l -14.196473787759812 -14.257700886448587" fill="#ffa90f" stroke="none" /><path d="M 114.81725581225074 114.88116024355365 l 44.45176743675221 44.643480730660954 a84.0,84.0 0 0,0 -1.033400190496823,1.011399588309712 l -43.67671729387959 -45.40203042189324" fill="#4dd2ff" stroke="none" /><path d="M 114.29624159901734 115.38237550388516 l 21.71749457183587 23.367446205618773 a52.90120863933227,52.90120863933227 0 0,0 -0.6723503056945339,0.6141760629800741 l -21.312044716674475 -23.73781503518543" fill="#afff20" stroke="none" /><path d="M 114.0293411484842 115.62618273729858 l 21.735194677333073 24.20912858730091 a53.53460610823555,53.53460610823555 0 0,0 -0.690998303322426,0.6097256616869435 l -21.315254021104057 -24.579677390760143" fill="#a7ff21" stroke="none" /><path d="M 113.20401910651253 116.32954008644616 l 18.186164848620525 22.491008648101214 a49.92372835424514,49.92372835424514 0 0,0 -0.672882726013496,0.5345787330138294 l -17.79632462988968 -22.80072129512017" fill="#d7ff1c" stroke="none" /><path d="M 112.63410532772338 116.77436683061366 l 11.749913110470578 15.600420261684377 a40.530324381453084,40.530324381453084 0 0,0 -0.5608914961457702,0.41493411982678036 l -11.479636643906243 -15.800364330250927" fill="#ffa00e" stroke="none" /><path d="M 112.04921762599082 117.19931262002967 l 18.67749547467769 26.660659106632675 a53.552105633993655,53.552105633993655 0 0,0 -0.7595298084301483,0.5224115280008113 l -18.21580878162466 -26.97821142399858" fill="#a7ff21" stroke="none" /><line stroke="#e1ed5e" stroke-width="0.3" x1="143.8653032363475" x2="146.44561519142675" y1="172.8068346515853" y2="177.08958963109032" /><path d="M 144.38136562736335 173.6633856474863 a86.0,86.0 0 0,1 -40.68145358897372,12.25698825130547" fill="none" id="id90" stroke="none" /><text fill="#e1ed5e" style="font-size:6.75px; font-family:Arial;" text-anchor="middle"><textPath startOffset="21.466115282336833" xlink:href="#id90">June</textPath></text><path d="M 110.8373102113329 117.98757091392108 l 14.604201355153098 24.239788507880053 a49.29929405707163,49.29929405707163 0 0,0 -0.7306440117228682,0.43167736076783814 l -14.184789472401848 -24.487584440941642" fill="#dfff1b" stroke="none" /><path d="M 110.21172684928248 118.3499491758327 l 11.896546935191926 21.377484420670598 a45.46476382753855,45.46476382753855 0 0,0 -0.6871180429828646,0.3746715426614182 l -11.526806080340414 -21.579096615091785" fill="#ffe915" stroke="none" /><path d="M 109.57404056367764 118.69057910512821 l 15.564594101112768 30.385423515932295 a55.13986748326604,55.13986748326604 0 0,0 -0.848487271814659,0.42544913239469345 l -15.039252921615349 -30.648840489236292" fill="#92ff23" stroke="none" /><path d="M 108.92500713936063 119.00905698771935 l 14.265475423164654 30.38353146855556 a54.56579767485976,54.56579767485976 0 0,0 -0.8536481367938648,0.3918679908049406 l -13.740359290603369 -30.624586529694575" fill="#9aff23" stroke="none" /><path d="M 108.59647513512805 119.15986991738527 l 7.901728706257947 17.611415348101996 a40.302830546597654,40.302830546597654 0 0,0 -0.635401616511925,0.2785413959465883 l -7.597406415088268 -17.74482129734304" fill="#ff9d0e" stroke="none" /><path d="M 107.59598834532513 119.57807347666477 l 12.76693564300415 32.90579088953132 a56.2956898187041,56.2956898187041 0 0,0 -0.9064404366926887,0.3427382121321734 l -12.198624985551186 -33.12067735177013" fill="#84ff25" stroke="none" /><path d="M 106.91757812671514 119.82793768551818 l 7.130817473050969 20.43914819789663 a42.647340180482914,42.647340180482914 0 0,0 -0.695213112071507,0.23585403358575943 l -6.777934628042234 -20.55886521838051" fill="#ffc011" stroke="none" /><path d="M 106.2309692047433 120.05430185196036 l 8.571656316641402 27.587776074118953 a49.88872930272892,49.88872930272892 0 0,0 -0.8222732240500334,0.24774417719616465 l -8.095508118151123 -27.73123562042084" fill="#d7ff1c" stroke="none" /><path d="M 105.88484417918355 120.15858648285463 l 5.897363088374792 20.20147011849877 a42.044673586081686,42.044673586081686 0 0,0 -0.6964776898958749,0.1968315520921803 l -5.548754230374312 -20.29999046392947" fill="#ffb711" stroke="none" /><path d="M 104.83641907484287 120.43548508189849 l 8.200653730342829 34.65049954830081 a56.607693558440154,56.607693558440154 0 0,0 -0.9501462556520777,0.21625019437578774 l -7.602987325297889 -34.78652647625428" fill="#80ff26" stroke="none" /><path d="M 104.48393922423573 120.51570834832081 l 4.570668896095522 20.91252921587492 a42.40618817918214,42.40618817918214 0 0,0 -0.714460546001296,0.14972215398434294 l -4.210016888664848 -20.988107350585803" fill="#ffbc11" stroke="none" /><path d="M 103.7750983002368 120.6578951692458 l 6.100531640474415 33.38300968154449 a54.93584862198856,54.93584862198856 0 0,0 -0.931688523322714,0.1619859922299217 l -5.524994145679651 -33.483074252295424" fill="#95ff23" stroke="none" /><path d="M 103.41894727170886 120.7198165907248 l 3.503839562912439 21.234288609132204 a42.52142895856481,42.52142895856481 0 0,0 -0.7231966405770281,0.11294844196802566 l -3.1378070587268936 -21.291455358447337" fill="#ffbe11" stroke="none" /><path d="M 102.70371172650421 120.8252237178851 l 3.627216740698692 27.938481517027473 a49.1729560174521,49.1729560174521 0 0,0 -0.8403250210554367,0.10175165736904547 l -3.145764296591875 -27.99677870312187" fill="#e1ff1b" stroke="none" /><path d="M 102.34483914955558 120.86867818915974 l 2.278244980597179 20.276001168422106 a41.403593398552886,41.403593398552886 0 0,0 -0.7089229795007177,0.07348276543643134 l -1.9288894044908587 -20.312213302314294" fill="#ffad10" stroke="none" /><path d="M 101.62511606390274 120.93702456842531 l 2.6264070540897877 33.83705954275442 a54.93883634589849,54.93883634589849 0 0,0 -0.9434757269429994,0.06506761001292277 l -2.043568566367858 -33.87725549728362" fill="#95ff23" stroke="none" /><path d="M 100.90346689309514 120.98055641714683 l 0.8769267420934045 20.36423373873196 a41.383106148884856,41.383106148884856 0 0,0 -0.7119463826704597,0.02452087293166343 l -0.5262600077482924 -20.376311410089716" fill="#ffad10" stroke="none" /><line stroke="#e1ed5e" stroke-width="0.3" x1="102.19456741930631" x2="102.32365962044197" y1="184.97166512339345" y2="189.96999836594603" /><path d="M 102.22038585953345 185.97133177190398 a86.0,86.0 0 0,1 -42.740103519485714,-10.115201625700543" fill="none" id="id91" stroke="none" /><text fill="#e1ed5e" style="font-size:6.75px; font-family:Arial;" text-anchor="middle"><textPath startOffset="22.20632615414155" xlink:href="#id91">July</textPath></text><path d="M 100.18074693466247 120.99922214144158 l 0.32353926619856677 37.58886940500734 a58.59026178152354,58.59026178152354 0 0,0 -1.0085724017220186,0.0 l 0.32353926619854084 -37.58886940500734" fill="#68ff28" stroke="none" /><path d="M 99.81925306533755 120.99922214144158 l -0.14481404632111 16.824530571304848 a37.82515378987019,37.82515378987019 0 0,0 -0.6510254912222957,-0.011207994232226065 l 0.43439922743607357 -16.819545099793462" fill="#ff760a" stroke="none" /><path d="M 98.37488393609728 120.93702456842531 l -1.623882946919729 20.92113782584609 a41.98406547248042,41.98406547248042 0 0,0 -0.7200380830583318,-0.06212791556851807 l 1.9837653477196024 -20.89008565799891" fill="#ffb610" stroke="none" /><path d="M 98.01472825383883 120.90594882070398 l -2.258024013988624 23.778172717990344 a44.88514538901385,44.88514538901385 0 0,0 -0.7685350085003874,-0.07966179598112119 l 2.6669916190946044 -23.735781553553462" fill="#ffe115" stroke="none" /><path d="M 97.2962882734958 120.8252237178851 l -2.599009846956906 20.018761977204413 a41.1867700062329,41.1867700062329 0 0,0 -0.7022764171712279,-0.09732911226264072 l 2.943214855314965 -19.97105829944917" fill="#ffaa0f" stroke="none" /><path d="M 96.58105272829116 120.7198165907248 l -3.244298465249097 19.661393938939852 a40.92726484377117,40.92726484377117 0 0,0 -0.694108927092615,-0.12067973411302671 l 3.582256363813762 -19.60263562630582" fill="#ffa60f" stroke="none" /><path d="M 95.86986931433489 120.58985236759428 l -4.466716022226885 22.267824063007623 a43.71139671011626,43.71139671011626 0 0,0 -0.7364507328041212,-0.1543304114354602 l 4.849358216460393 -22.187637670845625" fill="#ffd013" stroke="none" /><path d="M 95.16358092515715 120.4354850818985 l -5.925632394847227 25.037774959493078 a46.72942467683802,46.72942467683802 0 0,0 -0.7811529066020737,-0.19198837908699534 l 6.355738586192511 -24.93206532209205" fill="#fffb17" stroke="none" /><path d="M 94.81253420990036 120.34920634021253 l -4.983522374067906 19.549184359830885 a41.174392292891795,41.174392292891795 0 0,0 -0.6852782675140305,-0.1809882188477071 l 5.319291084393426 -19.460504791679597" fill="#ffaa0f" stroke="none" /><path d="M 94.11515582081647 120.15858648285463 l -10.792655273524714 36.97033737623449 a59.513468469689165,59.513468469689165 0 0,0 -0.9809095616771802,-0.2955400044095035 l 11.42743980964214 -36.77908200271926" fill="#5dff2a" stroke="none" /><path d="M 93.42475214034765 119.94407469862007 l -5.165706161763948 15.668645769771684 a37.49821143058453,37.49821143058453 0 0,0 -0.6112748920670655,-0.20737763201003565 l 5.434650786768239 -15.577405150863525" fill="#ff710a" stroke="none" /><path d="M 92.7421414339146 119.70592522655815 l -12.626561512343416 34.28257450392547 a57.53388797051571,57.53388797051571 0 0,0 -0.926377182774909,-0.3502765835809218 l 13.214808915878608 -34.06014967023791" fill="#74ff27" stroke="none" /><path d="M 92.06813273071674 119.44442032107085 l -6.953415199968676 17.04581320198154 a39.40950109753123,39.40950109753123 0 0,0 -0.6259139706187025,-0.2616320904817446 l 7.245800630084841 -16.923596068479824" fill="#ff8f0d" stroke="none" /><path d="M 91.7346041902142 119.30500536409082 l -14.44456369695852 33.737329230088314 a57.69949323866562,57.69949323866562 0 0,0 -0.9096718711451197,-0.3987734155179747 l 15.023156242761383 -33.48369126127589" fill="#72ff27" stroke="none" /><path d="M 91.07499286063937 119.00905698771935 l -14.570949096425888 31.034149039230872 a55.28455868404651,55.28455868404651 0 0,0 -0.8579303490632365,-0.4118587038918123 l 15.102992113489368 -30.7787360588395" fill="#90ff24" stroke="none" /><path d="M 90.7491055286396 118.85261126421891 l -9.28091519201689 18.91379118343222 a42.06814855965963,42.06814855965963 0 0,0 -0.6473408484797675,-0.3245901400033278 l 9.605109948179418 -18.75123320251959" fill="#ffb711" stroke="none" /><path d="M 90.10565033884886 118.52300852407294 l -19.609385852859848 36.71032798957093 a62.61942088290291,62.61942088290291 0 0,0 -0.9463797962966598,-0.5160417221512422 l 20.23838846102515 -36.367345615659914" fill="#38ff2e" stroke="none" /><line stroke="#e1ed5e" stroke-width="0.3" x1="58.666819895761336" x2="56.23545636021788" y1="174.27360380694188" y2="178.64263932499728" /><path d="M 58.180547188652646 175.14741091055294 a86.0,86.0 0 0,1 -31.652253787137756,-30.449443065178592" fill="none" id="id92" stroke="none" /><text fill="#e1ed5e" style="font-size:6.75px; font-family:Arial;" text-anchor="middle"><textPath startOffset="22.20632615414155" xlink:href="#id92">August</textPath></text><path d="M 89.4739219176387 118.17145234162733 l -10.697799688973069 18.46789998016448 a42.34259234167095,42.34259234167095 0 0,0 -0.6275416743178844,-0.370762682503343 l 11.014109234319335 -18.28101872536739" fill="#ffbb11" stroke="none" /><path d="M 88.8546689885994 117.79835938074946 l -14.535201817244737 23.21175973602009 a48.387184629142844,48.387184629142844 0 0,0 -0.7021169382959624,-0.44812424953366137 l 14.932600557587623 -22.958121057662623" fill="#ecff1a" stroke="none" /><path d="M 88.24862548938628 117.40417183066458 l -13.783606602954878 20.413974343804764 a45.631649548792716,45.631649548792716 0 0,0 -0.6471939362575669,-0.445145890787334 l 14.132957423835334 -20.17368766365233" fill="#ffeb16" stroke="none" /><path d="M 87.65650970185807 116.9893568818739 l -15.58172892863264 21.44640998705264 a47.50922061732744,47.50922061732744 0 0,0 -0.6574711216712176,-0.48638141789775996 l 15.94858502072242 -21.175018620415113" fill="#f8ff18" stroke="none" /><path d="M 87.07902340077011 116.55440617244103 l -20.288272279345506 25.993414450528416 a53.97380152299396,53.97380152299396 0 0,0 -0.7274704814592327,-0.5779465473685509 l 20.732700253522097 -25.640333989154733" fill="#a1ff22" stroke="none" /><path d="M 86.51685102203217 116.09983520530335 l -20.34612332733304 24.29471284283109 a52.689080241727865,52.689080241727865 0 0,0 -0.6903135705667153,-0.5883002008700466 l 20.76130237447681 -23.94088825173809" fill="#b2ff20" stroke="none" /><path d="M 86.24171649860922 115.8653595955263 l -20.964874711046534 24.175637617315104 a52.999803528359664,52.999803528359664 0 0,0 -0.684095335276681,-0.603634594980906 l 21.377912399229803 -23.81117988056191" fill="#aeff20" stroke="none" /><path d="M 85.70375840098266 115.38237550388516 l -25.73457148248358 27.689714057598657 a58.80196336142653,58.80196336142653 0 0,0 -0.7354842210719453,-0.6954462376339604 l 26.207391537946343 -27.242633183218764" fill="#65ff29" stroke="none" /><path d="M 85.44109423537348 115.13401014063109 l -10.67417023212188 11.095820190570421 a36.396594943226475,36.396594943226475 0 0,0 -0.44776485890197554,-0.43823215644589214 l 10.863585043399649 -10.91043793120196" fill="#ff6008" stroke="none" /><path d="M 84.9287848128048 114.62390073753433 l -18.319913417669902 17.77617743576831 a46.526686268664804,46.526686268664804 0 0,0 -0.5527668290513564,-0.5795738103276868 l 18.623186798100217 -17.458196508858126" fill="#fff817" stroke="none" /><path d="M 84.43433777217949 114.09645910891817 l -22.360480215985856 20.249931574196374 a51.16704831847375,51.16704831847375 0 0,0 -0.58559748823624,-0.6579249859097712 l 22.705736553870437 -19.86203241854574" fill="#c6ff1e" stroke="none" /><path d="M 84.19399662182784 113.82643327865904 l -12.112146256887861 10.595200954688522 a37.09230779653668,37.09230779653668 0 0,0 -0.4162419128361939,-0.4841833815228581 l 12.292730679294833 -10.385140474004134" fill="#ff6b09" stroke="none" /><path d="M 83.72743513129214 113.27417163493432 l -30.801939880067614 25.126354693057856 a60.75038616839653,60.75038616839653 0 0,0 -0.6540273404011707,-0.8159996684512829 l 31.22988513252365 -24.592427191028314" fill="#4eff2b" stroke="none" /><path d="M 83.28015986056508 112.70617746262583 l -15.918419656341635 12.097141084559677 a40.99342158749086,40.99342158749086 0 0,0 -0.4221126456149228,-0.5654888694638666 l 16.124293568651645 -11.821339335586503" fill="#ffa70f" stroke="none" /><path d="M 82.85270091963577 112.12312394758628 l -30.316788156861683 21.433940050606687 a58.12844502859001,58.12844502859001 0 0,0 -0.5705973774413959,-0.8219880793677006 l 30.681246441465213 -20.908910709051973" fill="#6dff28" stroke="none" /><path d="M 82.6465618267979 111.8261652097733 l -20.323781899970687 13.850419728789868 a45.59451640876941,45.59451640876941 0 0,0 -0.4363979146886737,-0.6523556712129615 l 20.55918292007009 -13.498527143371087" fill="#ffeb16" stroke="none" /><path d="M 82.24976979558568 111.22182372390057 l -37.078576658879655 23.441343937928412 a64.86704289856644,64.86704289856644 0 0,0 -0.5885459710644056,-0.9489235024726855 l 37.47658726961202 -22.799624104090462" fill="#31ff43" stroke="none" /><path d="M 82.05923443525364 110.91462005526583 l -21.25886642347656 12.933252428973198 a45.88389881033035,45.88389881033035 0 0,0 -0.40469407415239655,-0.6782905462390719 l 21.47834137332719 -12.565399788848016" fill="#ffef16" stroke="none" /><line stroke="#e1ed5e" stroke-width="0.3" x1="26.63291911575756" x2="22.317208475507996" y1="142.92168965132927" y2="145.44649492493687" /><path d="M 25.769776987707644 143.4266507060508 a86.0,86.0 0 0,1 -11.730757126820373,-40.83630448921669" fill="none" id="id93" stroke="none" /><text fill="#e1ed5e" style="font-size:6.75px; font-family:Arial;" text-anchor="middle"><textPath startOffset="21.46611528233685" xlink:href="#id93">September</textPath></text><path d="M 79.97269907076064 106.31721596034903 l -21.02402562928944 6.631613052871752 a43.04513427820385,43.04513427820385 0 0,0 -0.21681060859583912,-0.7085496134690641 l 21.13506301039141 -6.2687364668506405" fill="#ffc612" stroke="none" /><path d="M 79.76711848015287 105.62410040840567 l -19.584651819382653 5.443913077226636 a41.32719302999919,41.32719302999919 0 0,0 -0.18461826083519126,-0.6870332282465423 l 19.67545815655962 -5.105988915804555" fill="#ffac0f" stroke="none" /><path d="M 79.58551787078972 104.9243191809786 l -23.429962426920184 5.651704150917605 a45.10196878133384,45.10196878133384 0 0,0 -0.17555282874304745,-0.7562769915806559 l 23.523775821593787 -5.247558501988375" fill="#ffe415" stroke="none" /><path d="M 79.50377843672027 104.57218783832718 l -23.31257048164536 5.200443940715675 a44.88557220671527,44.88557220671527 0 0,0 -0.16172904611545885,-0.7555442610796083 l 23.398633566485255 -4.798385860219903" fill="#ffe115" stroke="none" /><path d="M 79.35854240842038 103.8639653848113 l -35.063935612448844 6.5637725853732265 a56.672996666756994,56.672996666756994 0 0,0 -0.17124301246690624,-0.9604217549265665 l 35.17172506725494 -5.959232079713447" fill="#7fff26" stroke="none" /><path d="M 79.23777060512086 103.15116336523772 l -31.99195612139182 4.855542157572305 a53.358330397550205,53.358330397550205 0 0,0 -0.13000617195050038,-0.9092628638251987 l 32.07079634435892 -4.3041338217667064" fill="#a9ff21" stroke="none" /><path d="M 79.1416061653843 102.43462659150553 l -41.54057010661951 4.84868477456951 a62.82258610877755,62.82258610877755 0 0,0 -0.11612515269022539,-1.0751746912478404 l 41.61787756081079 -4.132913761436887" fill="#36ff2e" stroke="none" /><path d="M 79.07016306316243 101.71520430193888 l -34.22275917119961 2.8045619242903226 a55.337484079022246,55.337484079022246 0 0,0 -0.0696288935345391,-0.950030931865254 l 34.26596462339849 -2.215057855928308" fill="#90ff24" stroke="none" /><path d="M 79.0235259727143 100.99374915477108 l -35.436916574224824 1.6788048290442799 a56.476660524105036,56.476660524105036 0 0,0 -0.0376453710011548,-0.9714597520939596 l 35.46056407807718 -1.0685678299363235" fill="#82ff25" stroke="none" /><line stroke="#e1ed5e" stroke-width="0.3" x1="15.007084014347285" x2="10.007500721073583" y1="101.09737516637583" y2="101.16192664675087" /><path d="M 14.007167355692545 101.11028546245083 a86.0,86.0 0 0,1 10.666146001902534,-42.60595125391555" fill="none" id="id94" stroke="none" /><text fill="#e1ed5e" style="font-size:6.75px; font-family:Arial;" text-anchor="middle"><textPath startOffset="22.20632615414155" xlink:href="#id94">October</textPath></text><path d="M 79.00175016825051 100.2711162175752 l -31.653577007151497 0.40869111186250556 a52.65621527871873,52.65621527871873 0 0,0 -0.0039008293730293134,-0.906415368424935 l 31.65592213381403 0.13623373476610484" fill="#b2ff20" stroke="none" /><path d="M 79.00486145842228 99.54816195383935 l -34.92182084426513 -0.7515552834956057 a55.92990704858947,55.92990704858947 0 0,0 0.028999138905353,-0.9623402413524095 l 34.90371001090413 1.3525656722730097" fill="#88ff25" stroke="none" /><path d="M 79.03285615573316 98.82574320788736 l -47.133458658453286 -2.639691146134959 a68.20731822985826,68.20731822985826 0 0,0 0.07574068334734332,-1.1716748477634131 l 47.08103738410153 3.4506250581513838" fill="#36ff71" stroke="none" /><path d="M 79.08570108090925 98.10471618934814 l -47.05419703695709 -4.264118927073475 a68.24701227609009,68.24701227609009 0 0,0 0.11609425914772205,-1.1690533462868922 l 46.97382565212714 5.073447804064798" fill="#36ff71" stroke="none" /><path d="M 79.16333360222342 97.38593545837743 l -36.2158552005148 -4.543461085229298 a57.499742554402324,57.499742554402324 0 0,0 0.1316579845314377,-0.9810049092022153 l 36.13228121692553 5.166184336496173" fill="#75ff27" stroke="none" /><path d="M 79.26566170972629 96.67025291283419 l -42.6504737407604 -6.849280103197549 a64.19693910734128,64.19693910734128 0 0,0 0.1846063642281874,-1.089557211641897 l 42.52625551501199 7.582423103155274" fill="#30ff3a" stroke="none" /><path d="M 79.3925641242962 95.95851677861259 l -42.97748575868899 -8.428646273064084 a64.79619116013117,64.79619116013117 0 0,0 0.22407357257501573,-1.0926623179853425 l 42.82603289019898 9.167184247212829" fill="#31ff42" stroke="none" /><path d="M 79.54389044137918 95.25157060432595 l -48.537456942943386 -11.266887610210606 a70.82797891656053,70.82797891656053 0 0,0 0.28589949694966127,-1.1852379906188688 l 48.33632464573291 12.100710832488872" fill="#3aff93" stroke="none" /><path d="M 79.71946130924805 94.55025226153421 l -28.139721457553755 -7.561652365984306 a50.137990840356636,50.137990840356636 0 0,0 0.23114384812234046,-0.8315474037609909 l 28.005390838865054 8.04491107316424" fill="#d4ff1c" stroke="none" /><path d="M 79.91906864156998 93.8553929516997 l -41.60150131496652 -12.729732184085465 a64.50552830546599,64.50552830546599 0 0,0 0.3340296414216349,-1.0589652451374099 l 41.37621618977668 13.44394759564929" fill="#31ff3e" stroke="none" /><path d="M 80.14247586403 93.16781622104843 l -39.13682790706914 -13.46542494197177 a62.38851250643614,62.38851250643614 0 0,0 0.3581306178814069,-1.0124834831384046 l 38.89924420837792 14.137106051536787" fill="#3bff2e" stroke="none" /><path d="M 80.803312248108 91.48605970444005 l -38.44305664197284 -17.049914717518252 a63.05434812064714,63.05434812064714 0 0,0 0.44857969117194885,-0.9883858880060651 l 38.14387463383754 17.709122614366386" fill="#34ff2f" stroke="none" /><path d="M 81.10775173730289 90.83032412892265 l -37.63525692840291 -18.266915750815176 a62.834110186715805,62.834110186715805 0 0,0 0.48065098316561244,-0.9689630523413162 l 37.31524593228389 18.912038391655454" fill="#36ff2e" stroke="none" /><path d="M 81.43458229118936 90.18545643968196 l -33.39458346618216 -17.65393050930274 a58.77379339313298,58.77379339313298 0 0,0 0.4805230620860869,-0.8903362552401846 l 33.0857523048776 18.226147747875398" fill="#65ff29" stroke="none" /><line stroke="#e1ed5e" stroke-width="0.3" x1="26.266209847984243" x2="21.928928074336255" y1="57.711370442889674" y2="55.22380399835377" /><path d="M 25.398753493254645 57.213857153982495 a86.0,86.0 0 0,1 29.58750427330803,-30.492523968695096" fill="none" id="id95" stroke="none" /><text fill="#e1ed5e" style="font-size:6.75px; font-family:Arial;" text-anchor="middle"><textPath startOffset="21.46611528233685" xlink:href="#id95">November</textPath></text><path d="M 82.15384107792192 88.93136811851018 l -31.598814940272824 -19.598371391420603 a58.183077694371434,58.183077694371434 0 0,0 0.5352078560014115,-0.8465702977496071 l 31.256779488025447 20.139389336884424" fill="#6dff28" stroke="none" /><path d="M 82.54541684631803 88.32363383020206 l -45.2607780530281 -30.277515826302015 a75.45425598222272,75.45425598222272 0 0,0 0.7314590704356492,-1.0733259285556964 l 44.73289451692371 31.052119778128127" fill="#41ffcc" stroke="none" /><path d="M 83.17141714833178 87.43820079747576 l -21.57660006568493 -16.105985862703644 a47.9249410585079,47.9249410585079 0 0,0 0.49915893680176865,-0.65683465007824 l 21.29616518865905 16.47500528866291" fill="#f2ff19" stroke="none" /><path d="M 83.6137871275137 86.86637796730984 l -29.62793454139292 -23.746920469299262 a58.97012953578494,58.97012953578494 0 0,0 0.6416554057798725,-0.7865936572969218 l 29.214780643536656 24.253398296204267" fill="#63ff29" stroke="none" /><path d="M 84.07557802195018 86.31012108654704 l -43.589010886883216 -37.472523763885626 a78.48210075607707,78.48210075607707 0 0,0 0.8894942163547533,-1.0168456539162765 l 42.93752480695062 38.21728497400484" fill="#45fff0" stroke="none" /><path d="M 84.5562425177563 85.77008943001954 l -10.050411997451853 -9.260470716380405 a34.66627598168071,34.66627598168071 0 0,0 0.4081255356315326,-0.4353598656816714 l 9.889519139849863 9.432099998940126" fill="#ff4406" stroke="none" /><path d="M 85.05521093208273 85.24692304244772 l -23.864844871848828 -23.558706073025835 a54.534213164954885,54.534213164954885 0 0,0 0.6652244323288496,-0.6623677472088012 l 23.455784639352665 23.966009670884745" fill="#9aff23" stroke="none" /><path d="M 85.57189188830299 84.74124197986013 l -24.172584342334158 -25.564239770429317 a56.18300994552994,56.18300994552994 0 0,0 0.7084199094405484,-0.6583990994341613 l 23.728956549098754 25.976543455938124" fill="#85ff25" stroke="none" /><path d="M 86.65592168130627 83.78471172551755 l -12.882110890923988 -15.653920539986057 a41.27298718191919,41.27298718191919 0 0,0 0.5524617346632581,-0.44671896829265584 l 12.610745757696229 15.873345605542848" fill="#ffab0f" stroke="none" /><path d="M 87.22198572758235 83.33499621200491 l -16.53928879145509 -21.570433753177674 a48.181458497059694,48.181458497059694 0 0,0 0.6625038789788805,-0.4989841865010798 l 16.16553875871782 21.851934529184607" fill="#efff19" stroke="none" /><line stroke="#e1ed5e" stroke-width="0.3" x1="56.762969772571076" x2="54.21961505331055" y1="26.818313649435495" y2="22.513508569990535" /><path d="M 56.25429882871897 25.957352633546506 a86.0,86.0 0 0,1 42.265352541879196,-11.944610805530505" fill="none" id="id96" stroke="none" /><text fill="#e1ed5e" style="font-size:6.75px; font-family:Arial;" text-anchor="middle"><textPath startOffset="22.20632615414155" xlink:href="#id96">December</textPath></text></svg>