<?xml version="1.0" encoding="utf-8" ?>
<svg baseProfile="full" height="200mm" version="1.1" viewBox="0,0,200,200" width="200mm" xmlns="http://www.w3.org/2000/svg" xmlns:ev="http://www.w3.org/2001/xml-events" xmlns:xlink="http://www.w3.org/1999/xlink"><defs /><rect fill="#1a1a1a" height="200" width="200" x="0" y="0" /><text alignment-baseline="middle" fill="#e1ed5e" style="dominant-baseline: central; font-size:9.0px; font-family:Arial;" text-anchor="middle" x="100.0" y="100.0">2025</text><line stroke="#e1ed5e" stroke-width="0.3" x1="100.0" x2="100.0" y1="15.0" y2="10.0" /><path d="M 100.0 14.0 a86.0,86.0 0 0,1 42.46469731375804,11.215312516191453" fill="none" id="id121" stroke="none" /><text fill="#e1ed5e" style="font-size:6.75px; font-family:Arial;" text-anchor="middle"><textPath startOffset="22.20632615414155" xlink:href="#id121">January</textPath></text><path d="M 100.0 79.0 l 0.0 -40.740403071017276 a61.740403071017276,61.740403071017276 0 0,0 1.06275954726621,0.009147506948483777 l -0.7012790679936816 40.734366940677354" fill="#84ff25" stroke="none" /><path d="M 101.80526077348638 79.07773832637324 l 2.0258075071378303 -23.478311492295365 a44.56554702495201,44.56554702495201 0 0,0 0.7637152653218262,0.0725239668076645 l -2.4296478995499005 23.439961980972523" fill="#ff4706" stroke="none" /><path d="M 103.2404852339499 79.25152402106235 l 5.098384167218957 -32.64440162129555 a54.04013435700576,54.04013435700576 0 0,0 0.9178351248321472,0.1514506599121225 l -5.659548498189979 32.5518046984438" fill="#fffa17" stroke="none" /><path d="M 104.307194497241 79.44645832069477 l 5.149288223707355 -24.57193660340125 a46.10568138195778,46.10568138195778 0 0,0 0.775359849423696,0.16946363160855574 l -5.571490797284579 24.479659473696827" fill="#ff6509" stroke="none" /><path d="M 105.36241919743992 79.69619591428918 l 8.815570139361416 -33.37851861691233 a55.52303262955854,55.52303262955854 0 0,0 0.921952317839421,0.2520043954160855 l -9.388820346424547 33.22182768066995" fill="#eaff1a" stroke="none" /><path d="M 106.0581310904928 79.89281104454417 l 7.766500802230217 -25.777339053988584 a47.92191938579654,47.92191938579654 0 0,0 0.7877784542740361,0.24476660045196474 l -8.209064629214971 25.6398323186541" fill="#ff890c" stroke="none" /><path d="M 106.74666289553966 80.11325718540242 l 11.372983022335232 -33.52347551698363 a56.400115163147795,56.400115163147795 0 0,0 0.9166844894326751,0.31981321879128016 l -11.94834951583118 33.32274144502014" fill="#dbff1b" stroke="none" /><path d="M 107.76421540070413 80.48803036053334 l 11.91307829428577 -29.93832731245614 a53.221497120921306,53.221497120921306 0 0,0 0.8482901700489313,0.34603885966065623 l -12.426652333923089 29.728827566611905" fill="#ffeb16" stroke="none" /><path d="M 108.76106565485865 80.91482961587045 l 14.586081284115922 -31.774427622253324 a55.962380038387714,55.962380038387714 0 0,0 0.8720052426710905,0.40941815374783097 l -15.13086473808661 31.518644485865487" fill="#e3ff1b" stroke="none" /><path d="M 109.73455568895987 81.39251694778311 l 18.86411154450607 -36.05851638997932 a61.69485604606526,61.69485604606526 0 0,0 0.9367481168576515,0.5003784023836567 l -19.48200470789203 35.72845926109391" fill="#85ff25" stroke="none" /><path d="M 110.36928655335952 81.73862282372117 l 20.28917101386903 -35.73131117282566 a62.08986564299425,62.08986564299425 0 0,0 0.9248529930436833,0.535734548700998 l -20.901220739378044 35.376772466734614" fill="#7fff26" stroke="none" /><line stroke="#e1ed5e" stroke-width="0.3" x1="143.23703022742887" x2="145.7803849466894" y1="26.81831364943548" y2="22.513508569990506" /><path d="M 143.74570117128098 25.957352633546492 a86.0,86.0 0 0,1 28.547481713284135,27.462654790039103" fill="none" id="id122" stroke="none" /><text fill="#e1ed5e" style="font-size:6.75px; font-family:Arial;" text-anchor="middle"><textPath startOffset="19.985693538727396" xlink:href="#id122">February</textPath></text><path d="M 111.2981086023043 82.29822771554956 l 13.8771566945731 -21.742601032607237 a46.7937236084453,46.7937236084453 0 0,0 0.6752400590331202,0.43919491741934574 l -14.249363779390501 21.500507191028362" fill="#ff730a" stroke="none" /><path d="M 111.90073688211348 82.69761687909136 l 18.7054000628843 -27.19562675184661 a54.00748560460653,54.00748560460653 0 0,0 0.7614254627099157,0.5334271961239976 l -19.17075666517787 26.86961471295868" fill="#fff917" stroke="none" /><path d="M 113.06298171725822 83.55741782278167 l 15.936336237023655 -20.059319063032564 a46.619193857965456,46.619193857965456 0 0,0 0.6240236645303446,0.5045837387798612 l -16.27926330011849 19.782029226988573" fill="#ff700a" stroke="none" /><path d="M 113.6212207817346 84.01681056812373 l 21.39917314750437 -25.10986669863863 a53.99136276391555,53.99136276391555 0 0,0 0.7021607614446437,0.608906893117755 l -21.82822770759578 24.737794812101203" fill="#fff917" stroke="none" /><path d="M 114.16331599549186 84.49514656593476 l 19.25504168830495 -21.078863123509414 a49.54952015355086,49.54952015355086 0 0,0 0.6247772523051723,0.5806623653329067 l -19.615026824404968 20.74429617210187" fill="#ffa80f" stroke="none" /><path d="M 114.68862486808459 84.99185889309783 l 22.238465277728295 -22.722210410198404 a52.79383877159309,52.79383877159309 0 0,0 0.6439948316676442,0.6412293131995797 l -22.626295909563265 22.336045246348707" fill="#ffe415" stroke="none" /><path d="M 115.19652480421416 85.50635884689758 l 18.139575385299015 -17.300567050123593 a46.06698656429943,46.06698656429943 0 0,0 0.542345926525831,0.5785368204415954 l -18.434688633795307 16.985760812803942" fill="#ff6509" stroke="none" /><path d="M 115.4437574822437 85.77008943001954 l 20.773484152699393 -19.140731914476607 a49.24721689059501,49.24721689059501 0 0,0 0.5690547790697268,0.6283645000269962 l -21.09988257238515 18.78031462718006" fill="#ffa20f" stroke="none" /><path d="M 115.9244219780498 86.31012108654704 l 18.846446433139178 -16.20187972751458 a45.85335892514395,45.85335892514395 0 0,0 0.5093858082477072,0.602952128410611 l -19.122542854874002 15.875068649474864" fill="#ff6008" stroke="none" /><path d="M 116.60985879189232 87.15038557335679 l 23.362196780611697 -18.073315646533867 a50.537044145873324,50.537044145873324 0 0,0 0.5263651173646958,0.692634794626411 l -23.669837838200507 17.668496076026425" fill="#ffbb11" stroke="none" /><path d="M 117.04232023915458 87.72973835380427 l 22.237120387293047 -16.010454068522698 a48.401170825335896,48.401170825335896 0 0,0 0.4809863589506706,0.6803210943120527 l -22.5094193660476 15.625306473878851" fill="#ff920d" stroke="none" /><path d="M 117.45458315368197 88.32363383020206 l 20.832262757432858 -13.935888698087817 a46.063761996161226,46.063761996161226 0 0,0 0.4352002556242922,0.6628398466891259 l -21.069059648415074 13.575230787421017" fill="#ff6509" stroke="none" /><line stroke="#e1ed5e" stroke-width="0.3" x1="172.23445277983987" x2="176.4835382374775" y1="55.19839476539836" y2="52.563006222186495" /><path d="M 173.08426987136738 54.67131705675599 a86.0,86.0 0 0,1 12.851231095245387,41.99856678651699" fill="none" id="id123" stroke="none" /><text fill="#e1ed5e" style="font-size:6.75px; font-family:Arial;" text-anchor="middle"><textPath startOffset="22.20632615414155" xlink:href="#id123">March</textPath></text><path d="M 117.84615892207809 88.93136811851018 l 34.253663957923386 -21.244974820517886 a61.30710172744722,61.30710172744722 0 0,0 0.5485064698784134,0.9016004164146433 l -34.614286226088026 20.65220663089616" fill="#8bff24" stroke="none" /><path d="M 118.3937258080291 89.86733742301442 l 22.217573106047592 -12.239128380657968 a46.36566218809981,46.36566218809981 0 0,0 0.37907660343187666,0.7023713744008434 l -22.424957808697933 11.854876022924666" fill="#ff6b09" stroke="none" /><path d="M 118.73160827565052 90.50648371742162 l 24.439895120036375 -12.386578816522674 a48.39955854126679,48.39955854126679 0 0,0 0.3702335455776125,0.746368235927286 l -24.649488678567398 11.964050992096437" fill="#ff920d" stroke="none" /><path d="M 119.04729006885535 91.15688171328212 l 36.599313028658536 -16.992026327894955 a61.35143953934741,61.35143953934741 0 0,0 0.4364649008638955,0.9616925534385725 l -36.88638024648578 16.359511765614318" fill="#8aff24" stroke="none" /><path d="M 119.34039704204932 91.81776055985345 l 23.620527135999975 -9.993011431411224 a46.647408829174665,46.647408829174665 0 0,0 0.30649194197044866,0.7421945482042079 l -23.789040764856622 9.584942312753714" fill="#ff700a" stroke="none" /><path d="M 119.7369772167798 92.82701384747503 l 26.575593583714717 -9.658336364144558 a49.27623800383877,49.27623800383877 0 0,0 0.2828618419354926,0.7996885177369197 l -26.73790850646002 9.199450219981024" fill="#ffa30f" stroke="none" /><path d="M 119.97218684219823 93.5106431181261 l 44.49465886322357 -14.457191041825396 a67.78445297504798,67.78445297504798 0 0,0 0.3510089308003986,1.1127942324773339 l -44.73692327779217 13.689146642921644" fill="#30ff34" stroke="none" /><path d="M 120.18372546131832 94.20196356495316 l 26.04126728425753 -7.4806911547763715 a48.09443378119002,48.09443378119002 0 0,0 0.2217227358161527,0.7976546502121048 l -26.166176790640044 7.031325201145315" fill="#ff8c0c" stroke="none" /><path d="M 120.37134235888165 94.90015583598534 l 28.904627879807425 -7.236101343198056 a50.796621880998075,50.796621880998075 0 0,0 0.20504225681248542,0.8500325290855086 l -29.02490293688073 6.737483582453142" fill="#ffbf11" stroke="none" /><path d="M 120.53481517161879 95.60439243477599 l 38.499822379342106 -8.241131419790444 a60.37197696737044,60.37197696737044 0 0,0 0.20877407020828723,1.0180565109375084 l -38.635975745465394 7.577199252689523" fill="#9aff23" stroke="none" /><path d="M 120.73433829027371 96.67025291283417 l 31.849694690414687 -5.114772732934384 a53.25777351247601,53.25777351247601 0 0,0 0.13756763531411334,0.9063988345419229 l -31.9330182191681 4.565774786000379" fill="#ffec16" stroke="none" /><path d="M 120.83666639777658 97.38593545837742 l 28.989762005935376 -3.6369113697515183 a50.21700575815739,50.21700575815739 0 0,0 0.1002179516448152,0.8586062076211113 l -29.048070310583782 3.1373614238055545" fill="#ffb510" stroke="none" /><path d="M 120.94382443527127 98.46500227214037 l 48.230693127052035 -3.534884690803665 a69.3600575815739,69.3600575815739 0 0,0 0.07702074050961964,1.1914767654971583 l -48.28439445856608 2.704148861053471" fill="#33ff50" stroke="none" /><path d="M 120.98425023603335 99.18683210126433 l 25.761490006658914 -0.9982923602885236 a46.780825335892516,46.780825335892516 0 0,0 0.02425542475591897,0.8049194629502339 l -25.774857125870476 0.5547027499132907" fill="#ff730a" stroke="none" /><line stroke="#e1ed5e" stroke-width="0.3" x1="184.98032266829074" x2="189.97916517819016" y1="98.17113171792111" y2="98.06355123074" /><path d="M 185.9800911702706 98.14961562048488 a86.0,86.0 0 0,1 -9.607161424134198,41.387399972396054" fill="none" id="id124" stroke="none" /><text fill="#e1ed5e" style="font-size:6.75px; font-family:Arial;" text-anchor="middle"><textPath startOffset="21.466115282336823" xlink:href="#id124">April</textPath></text><path d="M 120.99980553446 99.90962569577887 l 27.917649342289874 -0.12014578566733458 a48.917907869481766,48.917907869481766 0 0,0 -0.0036238915173521266,0.8420647638534782 l -27.91558115348302 -0.3604284563898283" fill="#ff9c0e" stroke="none" /><path d="M 120.9904718944345 100.63252640178507 l 48.94687966324085 1.4749641564849947 a69.96909788867563,69.96909788867563 0 0,0 -0.04663895889365907,1.2035442934901857 l -48.914238571495986 -2.3172856969891864" fill="#34ff5a" stroke="none" /><path d="M 120.92983693683757 101.71520430193887 l 36.44443007504616 2.9866282969653426 a57.56660268714012,57.56660268714012 0 0,0 -0.08943493588691172,0.9869070650190626 l -36.38762054288217 -3.613516750532976" fill="#c8ff1d" stroke="none" /><path d="M 120.8583938346157 102.4346265915055 l 27.788505106730828 3.24352076231089 a48.97715930902112,48.97715930902112 0 0,0 -0.10494753572774443,0.8365351185516056 l -27.728556061756233 -3.7213736351498907" fill="#ff9d0e" stroke="none" /><path d="M 120.70491114924044 103.5080841355445 l 41.86286641959669 7.0929286533254805 a63.459500959692896,63.459500959692896 0 0,0 -0.19174910015581823,1.075430784732478 l -41.73457087710169 -7.812478188791177" fill="#6aff28" stroke="none" /><path d="M 120.5718875245553 104.21870165774334 l 26.97839184482227 5.532491185514654 a48.53982725527831,48.53982725527831 0 0,0 -0.1748958423533386,0.8170551496508224 l -26.87916196374449 -5.996060154581645" fill="#ff950d" stroke="none" /><path d="M 120.41448212921028 104.9243191809786 l 36.514886557027 8.808009682829097 a58.56218809980806,58.56218809980806 0 0,0 -0.24481416787083699,0.9779109062178952 l -36.3578610748611 -9.435248428444387" fill="#b7ff1f" stroke="none" /><path d="M 120.23288151984713 105.62410040840565 l 39.12480066180497 10.875455736000863 a61.608195777351256,61.608195777351256 0 0,0 -0.2928072174639226,1.0193003366900415 l -38.93180080745494 -11.547313548195486" fill="#86ff25" stroke="none" /><path d="M 119.9155931802556 106.66101706037122 l 22.969827143983867 7.682543477115296 a45.220537428023036,45.220537428023036 0 0,0 -0.2532547538671581,0.7360768606604874 l -22.834181559173476 -8.076793040865082" fill="#ff5407" stroke="none" /><path d="M 119.67450827220406 107.3425965602758 l 25.036094998667654 9.343559822517552 a47.72280230326295,47.72280230326295 0 0,0 -0.29384911103047956,0.7671473039172636 l -24.871551608043667 -9.773130693267959" fill="#ff850c" stroke="none" /><path d="M 119.41010516605496 108.01547362559984 l 37.61313277475833 15.532480177361984 a61.69404990403071,61.69404990403071 0 0,0 -0.413787923583593,0.9780724203749908 l -37.34019386998243 -16.177627123403138" fill="#85ff25" stroke="none" /><path d="M 119.26925614724726 108.34839909993367 l 18.533251929722855 8.029525506673249 a41.1978886756238,41.1978886756238 0 0,0 -0.28751989884100954,0.64828146884995 l -18.392290946150574 -8.347355312015887" fill="#ff0100" stroke="none" /><path d="M 118.97047184881838 109.00673069616215 l 25.493983818941796 12.103939662619759 a49.22142034548945,49.22142034548945 0 0,0 -0.3699733764920835,0.7622547380680312 l -25.281857185834998 -12.540983356653065" fill="#ffa20e" stroke="none" /><path d="M 118.64920377521936 109.65438752849418 l 48.33293739264001 25.021170533780886 a75.42547024952016,75.42547024952016 0 0,0 -0.60680685783878,1.1478498938959107 l -47.895078026576336 -25.849435442762932" fill="#3effb2" stroke="none" /><line stroke="#e1ed5e" stroke-width="0.3" x1="174.80103733775053" x2="179.2010983576182" y1="140.37084112569926" y2="142.7455964860345" /><path d="M 175.68104954172406 140.8457921977663 a86.0,86.0 0 0,1 -30.038265399797805,32.042727171017184" fill="none" id="id125" stroke="none" /><text fill="#e1ed5e" style="font-size:6.75px; font-family:Arial;" text-anchor="middle"><textPath startOffset="22.206326154141568" xlink:href="#id125">May</textPath></text><path d="M 118.30583269289576 110.29060199501025 l 23.809528725554475 13.384498149517736 a48.31370441458733,48.31370441458733 0 0,0 -0.4137677760689285,0.721438994165814 l -23.575608953333166 -13.792356989541865" fill="#ff900d" stroke="none" /><path d="M 117.75023020441432 111.22182372390056 l 27.36431362357686 17.299916692513786 a53.374261036468326,53.374261036468326 0 0,0 -0.4976390824659188,0.7723469071017489 l -27.06246967773389 -17.768385199536986" fill="#ffee16" stroke="none" /><path d="M 117.35343817320211 111.8261652097733 l 23.475438050811594 15.998236544814233 a49.4084452975048,49.4084452975048 0 0,0 -0.4850005758169932,0.6986795025166054 l -23.196576567832466 -16.39995730951786" fill="#ffa50f" stroke="none" /><path d="M 116.93607887273984 112.41649034213515 l 39.853421685180514 29.21807516210688 a70.4165067178503,70.4165067178503 0 0,0 -0.7250845817344995,0.9713692888622395 l -39.34457583675092 -29.899757330478437" fill="#35ff61" stroke="none" /><path d="M 116.498646956653 112.99209946851258 l 15.833634315405952 12.468425593582124 a41.15355086372361,41.15355086372361 0 0,0 -0.44305146217273345,0.5527748213370566 l -15.616664941178364 -12.739128248497432" fill="#ff0000" stroke="none" /><path d="M 116.0416608686014 113.55231037782055 l 21.687956012716796 18.322411485468788 a49.39151631477927,49.39151631477927 0 0,0 -0.5542609896778485,0.6447307490008576 l -21.36935251346817 -18.693019333631174" fill="#ffa50f" stroke="none" /><path d="M 115.32070863581623 114.36230785411682 l 29.430169692535987 27.589138816657695 a61.33975047984645,61.33975047984645 0 0,0 -0.7287555183224147,0.7640972474348845 l -28.950907622834606 -28.091643180675085" fill="#8bff24" stroke="none" /><path d="M 115.07121518719521 114.62390073753431 l 23.658047271968755 22.95587519997133 a53.96476007677543,53.96476007677543 0 0,0 -0.6526122256250416,0.6610927390382474 l -23.259394421288178 -23.359708432990242" fill="#fff917" stroke="none" /><path d="M 114.29624159901734 115.38237550388516 l 21.979442458374066 23.64929516048371 a53.28598848368522,53.28598848368522 0 0,0 -0.6772406825428136,0.6186433062812616 l -21.56910222636439 -24.024131233351554" fill="#ffed16" stroke="none" /><path d="M 113.48314897796784 116.09983520530334 l 23.37217179459178 27.90802911826018 a57.40214971209214,57.40214971209214 0 0,0 -0.7629835557330797,0.6278835227123132 l -22.888318110314007 -28.306207759829675" fill="#caff1d" stroke="none" /><path d="M 112.92097659922987 116.55440617244103 l 19.907232084840356 25.505224250707137 a53.35451055662188,53.35451055662188 0 0,0 -0.7288512516183538,0.5588520599291908 l -19.465252104728506 -25.8441156524637" fill="#ffee16" stroke="none" /><path d="M 112.34349029814194 116.9893568818739 l 19.531618813413075 26.882967012316385 a54.22917466410748,54.22917466410748 0 0,0 -0.7599125779503083,0.5421774474372119 l -19.065978907613882 -27.215188721597816" fill="#fffd17" stroke="none" /><path d="M 112.04921762599082 117.19931262002967 l 11.608415153915224 16.57010168233722 a41.23174664107485,41.23174664107485 0 0,0 -0.5847900891437,0.40222395571376307 l -11.32146818014864 -16.76746642741608" fill="#ff0200" stroke="none" /><path d="M 111.45004920935366 117.60387380957326 l 22.126505842566747 34.01838800667631 a61.581190019193855,61.581190019193855 0 0,0 -0.8935671071644906,0.5703168054567846 l -21.537656933355326 -34.39421924095691" fill="#87ff25" stroke="none" /><line stroke="#e1ed5e" stroke-width="0.3" x1="143.8653032363475" x2="146.44561519142675" y1="172.8068346515853" y2="177.08958963109032" /><path d="M 144.38136562736335 173.6633856474863 a86.0,86.0 0 0,1 -40.68145358897372,12.25698825130547" fill="none" id="id126" stroke="none" /><text fill="#e1ed5e" style="font-size:6.75px; font-family:Arial;" text-anchor="middle"><textPath startOffset="21.466115282336833" xlink:href="#id126">June</textPath></text><path d="M 110.5260780823613 118.17145234162733 l 15.94609913256295 27.52818078632668 a52.813186180422264,52.813186180422264 0 0,0 -0.7905661999350488,0.4489041208335358 l -15.4698841657067 -27.798588072954843" fill="#ffe415" stroke="none" /><path d="M 109.89434966115114 118.52300852407294 l 15.303767237892579 28.64986792521867 a53.481074856046064,53.481074856046064 0 0,0 -0.815736896145383,0.4267549899566065 l -14.8083394392207 -28.90905233411999" fill="#fff016" stroke="none" /><path d="M 109.2508944713604 118.85261126421891 l 21.316653243190586 43.44169942616646 a69.3898848368522,69.3898848368522 0 0,0 -1.0768230684406128,0.5169405112815977 l -20.56571750674974 -43.802194213947615" fill="#33ff50" stroke="none" /><path d="M 107.93186726928326 119.44442032107085 l 12.392591088669052 30.379574167661552 a53.809980806142036,53.809980806142036 0 0,0 -0.8606494500654674,0.34247017796141654 l -11.867820562561718 -30.58839119002904" fill="#fff617" stroke="none" /><path d="M 107.2578585660854 119.70592522655815 l 10.85725491216054 29.47870250110343 a52.41454894433781,52.41454894433781 0 0,0 -0.8493164640082638,0.30453466676095325 l -10.348218887522542 -29.661224708904342" fill="#ffdd14" stroke="none" /><path d="M 106.2309692047433 120.05430185196036 l 10.839016104143681 34.88524715629879 a57.53032629558541,57.53032629558541 0 0,0 -0.9482231266438332,0.28569184966487116 l -10.236918003059602 -35.06665437506939" fill="#c8ff1d" stroke="none" /><path d="M 105.88484417918355 120.15858648285463 l 9.055882864143225 31.021007920851957 a53.31581573896353,53.31581573896353 0 0,0 -0.8831862163173009,0.2495972466399373 l -8.520565479721318 -31.172293960830416" fill="#ffed16" stroke="none" /><path d="M 105.53697534728816 120.25689768951611 l 6.472734808571693 23.68035227984604 a45.54904030710173,45.54904030710173 0 0,0 -0.7580869003855419,0.2002176405364394 l -6.064157465374654 -23.788261269686064" fill="#ff5a08" stroke="none" /><path d="M 104.83641907484287 120.43548508189849 l 7.449663477451342 31.47731503469168 a53.34685220729367,53.34685220729367 0 0,0 -0.8954138331613305,0.2037932732103626 l -6.906729494897149 -31.600885041479728" fill="#ffee16" stroke="none" /><path d="M 103.7750983002368 120.6578951692458 l 6.539687562179905 35.78613571219022 a57.37877159309021,57.37877159309021 0 0,0 -0.9731194532642572,0.1691892904648884 l -5.922719137443598 -35.893403581176116" fill="#cbff1d" stroke="none" /><path d="M 103.41894727170886 120.7198165907248 l 5.255138511817989 31.847670487559167 a53.278330134357006,53.278330134357006 0 0,0 -0.9061480367056161,0.141521687457816 l -4.706154611503856 -31.93341048236409" fill="#ffec16" stroke="none" /><path d="M 103.06178313531738 120.77559828337769 l 3.857494145916173 26.174861253760298 a47.45758157389635,47.45758157389635 0 0,0 -0.8092001472871896,0.11214776696546971 l -3.406365407442153 -26.237383586218368" fill="#ff800b" stroke="none" /><path d="M 102.34483914955558 120.86867818915974 l 3.9691240806009085 35.32454375243757 a56.5468330134357,56.5468330134357 0 0,0 -0.9682094246103647,0.10035886563035804 l -3.3604820593849407 -35.38763198652369" fill="#d9ff1c" stroke="none" /><path d="M 101.62511606390274 120.93702456842531 l 3.9048326214151143 50.30753085648544 a71.45884836852207,71.45884836852207 0 0,0 -1.2271772282638493,0.08463332656594758 l -3.0382926323723347 -50.36729252756768" fill="#36ff73" stroke="none" /><path d="M 100.90346689309514 120.98055641714683 l 1.3595355934483524 31.571509080696956 a52.60076775431862,52.60076775431862 0 0,0 -0.9049327083773104,0.031167712195676794 l -0.8158825333963897 -31.59023359131873" fill="#ffe015" stroke="none" /><line stroke="#e1ed5e" stroke-width="0.3" x1="102.19456741930631" x2="102.32365962044197" y1="184.97166512339345" y2="189.96999836594603" /><path d="M 102.22038585953345 185.97133177190398 a86.0,86.0 0 0,1 -42.740103519485714,-10.115201625700543" fill="none" id="id127" stroke="none" /><text fill="#e1ed5e" style="font-size:6.75px; font-family:Arial;" text-anchor="middle"><textPath startOffset="22.20632615414155" xlink:href="#id127">July</textPath></text><path d="M 94.81253420990036 120.34920634021253 l -5.162474352224111 20.2511708163854 a41.8988291746641,41.8988291746641 0 0,0 -0.6973352967406621,-0.18417258985109386 l 5.510300091776262 -20.159306877230723" fill="#ff1001" stroke="none" /><path d="M 93.76903079525671 120.05430185196036 l -9.059422596147876 29.1576461667178 a51.53262955854127,51.53262955854127 0 0,0 -0.8448373518257826,-0.27049024097037455 l 9.559981293064599 -28.99738307908772" fill="#ffcd13" stroke="none" /><path d="M 93.08242187328487 119.8279376855182 l -8.829538299933894 25.308212208962757 a47.8042226487524,47.8042226487524 0 0,0 -0.7746115184129447,-0.27774813114512487 l 9.263869378976565 -25.152476536777677" fill="#ff870c" stroke="none" /><path d="M 92.40401165467489 119.57807347666478 l -12.529735861751256 32.294426767458184 a55.639923224568136,55.639923224568136 0 0,0 -0.889917978180075,-0.35411672933179594 l 13.083774915973189 -32.07396319372032" fill="#e8ff1a" stroke="none" /><path d="M 91.7346041902142 119.30500536409082 l -19.322940683913817 45.13147127344073 a70.09404990403071,70.09404990403071 0 0,0 -1.105080512034903,-0.4844348211534503 l 20.096941870606464 -44.79217189899283" fill="#34ff5c" stroke="none" /><path d="M 90.7491055286396 118.85261126421891 l -14.171091895571454 28.87959510551461 a53.16909788867562,53.16909788867562 0 0,0 -0.8181612483218246,-0.41024303465746564 l 14.66610705157604 -28.63138422994784" fill="#ffeb16" stroke="none" /><path d="M 90.10565033884886 118.52300852407294 l -16.85078014268599 31.5459989700766 a56.76449136276391,56.76449136276391 0 0,0 -0.8578930787819453,-0.46779170849658686 l 17.391296033336577 -31.25126660982025" fill="#d5ff1c" stroke="none" /><line stroke="#e1ed5e" stroke-width="0.3" x1="58.666819895761336" x2="56.23545636021788" y1="174.27360380694188" y2="178.64263932499728" /><path d="M 58.180547188652646 175.14741091055294 a86.0,86.0 0 0,1 -31.652253787137756,-30.449443065178592" fill="none" id="id128" stroke="none" /><text fill="#e1ed5e" style="font-size:6.75px; font-family:Arial;" text-anchor="middle"><textPath startOffset="22.20632615414155" xlink:href="#id128">August</textPath></text><path d="M 89.1626897886671 117.98757091392108 l -19.66524582302136 32.64001831481955 a59.1063339731286,59.1063339731286 0 0,0 -0.8669514418795825,-0.5325523843433134 l 20.22417646483325 -32.29667746364786" fill="#aeff20" stroke="none" /><path d="M 88.54995079064634 117.60387380957326 l -17.142108221297242 26.355127776328487 a52.439539347408825,52.439539347408825 0 0,0 -0.7524457138950281,-0.498679989558915 l 17.59322863393223 -26.056149765678253" fill="#ffdd14" stroke="none" /><path d="M 87.95078237400918 117.19931262002967 l -22.969832910046225 32.78763396202203 a61.033013435700575,61.033013435700575 0 0,0 -0.8552546644361141,-0.6102014946554379 l 23.530814902331226 -32.38738820552237" fill="#8fff24" stroke="none" /><path d="M 87.36589467227662 116.77436683061367 l -19.568555921803554 25.981272663401164 a53.52621880998081,53.52621880998081 0 0,0 -0.7311968785216687,-0.5606505866159885 l 20.01288152881871 -25.640582734957807" fill="#fff116" stroke="none" /><path d="M 87.07902340077011 116.55440617244103 l -30.866501872171806 39.54628391980827 a71.1662188099808,71.1662188099808 0 0,0 -0.959193571704861,-0.7620413847073729 l 31.542652936594028 -39.00910862109576" fill="#36ff6e" stroke="none" /><path d="M 86.51685102203217 116.09983520530335 l -20.382587591261935 24.33825375757565 a52.74587332053743,52.74587332053743 0 0,0 -0.6910576532653815,-0.5889343242883794 l 20.79851072110437 -23.98379504306432" fill="#ffe315" stroke="none" /><path d="M 85.97065885151581 115.62618273729859 l -22.616590461827013 25.190846220838928 a54.85393474088292,54.85393474088292 0 0,0 -0.6971685664694003,-0.6368469557626272 l 23.046858577763267 -24.797806498489724" fill="#f6ff19" stroke="none" /><path d="M 85.44109423537348 115.13401014063109 l -22.455924515266545 23.34297610174884 a53.39078694817658,53.39078694817658 0 0,0 -0.6568339214645355,-0.6428502373680695 l 22.854408389106876 -22.952975761458198" fill="#ffee16" stroke="none" /><path d="M 85.18274418774928 114.88116024355367 l -38.62156121504123 38.78812977110531 a75.73704414587331,75.73704414587331 0 0,0 -0.915911066258451,-0.9278130744919981 l 39.28351290635522 -38.11757620263265" fill="#3effb7" stroke="none" /><path d="M 84.67929136418377 114.36230785411682 l -19.469944698222516 18.251984702899716 a47.68733205374281,47.68733205374281 0 0,0 -0.5562468228411768,-0.6036960661123413 l 19.781237929059422 -17.91413738198603" fill="#ff840c" stroke="none" /><path d="M 84.19399662182784 113.82643327865904 l -23.442032265477224 20.506113233051508 a52.145297504798464,52.145297504798464 0 0,0 -0.5851633308412352,-0.6806771531952557 l 23.791538105889238 -20.09955898069472" fill="#ffd814" stroke="none" /><path d="M 83.72743513129214 113.27417163493432 l -46.849994823535084 38.217384745492296 a81.46065259117083,81.46065259117083 0 0,0 -0.8769902106278811,-1.094180131167634 l 47.50090294621783 -37.405276780746405" fill="#48f4ff" stroke="none" /><path d="M 83.50135304334701 112.99209946851258 l -19.152997413287643 15.082306335020695 a45.37854126679463,45.37854126679463 0 0,0 -0.47797257013350136,-0.6178439782484029 l 19.409776800639214 -14.75038436265904" fill="#ff5708" stroke="none" /><path d="M 83.06392112726016 112.41649034213515 l -23.71051042183577 17.383086478989203 a50.4,50.4 0 0,0 -0.506928498298542,-0.7040793469172684 l 24.00621871250992 -16.972373526620796" fill="#ffb811" stroke="none" /><path d="M 82.6465618267979 111.8261652097733 l -20.45773843758297 13.941709542884373 a45.75662188099808,45.75662188099808 0 0,0 -0.43794947166552567,-0.65467503837534 l 20.694691014659227 -13.587497590303213" fill="#ff5e08" stroke="none" /><path d="M 82.24976979558568 111.22182372390057 l -27.497525523959307 17.384134217965734 a53.53186180422265,53.53186180422265 0 0,0 -0.48570059895775003,-0.7831040159573754 l 27.792690762585014 -16.90823387064309" fill="#fff116" stroke="none" /><path d="M 82.05923443525364 110.91462005526583 l -53.82229669423909 32.743860165797486 a84.0,84.0 0 0,0 -0.7408764972070725,-1.2417516244555555 l 54.3779540671444 -31.812546447455823" fill="#4dd2ff" stroke="none" /><line stroke="#e1ed5e" stroke-width="0.3" x1="26.63291911575756" x2="22.317208475507996" y1="142.92168965132927" y2="145.44649492493687" /><path d="M 25.769776987707644 143.4266507060508 a86.0,86.0 0 0,1 -11.730757126820373,-40.83630448921669" fill="none" id="id129" stroke="none" /><text fill="#e1ed5e" style="font-size:6.75px; font-family:Arial;" text-anchor="middle"><textPath startOffset="21.46611528233685" xlink:href="#id129">September</textPath></text><path d="M 81.69416730710424 110.29060199501025 l -28.442555786754536 15.988948781114768 a53.62859884836852,53.62859884836852 0 0,0 -0.445432988915081,-0.8085902596385741 l 28.713565185121134 -15.496988003078371" fill="#fff316" stroke="none" /><line stroke="#e1ed5e" stroke-width="0.3" x1="15.007084014347285" x2="10.007500721073583" y1="101.09737516637583" y2="101.16192664675087" /><path d="M 14.007167355692545 101.11028546245083 a86.0,86.0 0 0,1 10.666146001902534,-42.60595125391555" fill="none" id="id130" stroke="none" /><text fill="#e1ed5e" style="font-size:6.75px; font-family:Arial;" text-anchor="middle"><textPath startOffset="22.20632615414155" xlink:href="#id130">October</textPath></text><line stroke="#e1ed5e" stroke-width="0.3" x1="26.266209847984243" x2="21.928928074336255" y1="57.711370442889674" y2="55.22380399835377" /><path d="M 25.398753493254645 57.213857153982495 a86.0,86.0 0 0,1 29.58750427330803,-30.492523968695096" fill="none" id="id131" stroke="none" /><text fill="#e1ed5e" style="font-size:6.75px; font-family:Arial;" text-anchor="middle"><textPath startOffset="21.46611528233685" xlink:href="#id131">November</textPath></text><line stroke="#e1ed5e" stroke-width="0.3" x1="56.762969772571076" x2="54.21961505331055" y1="26.818313649435495" y2="22.513508569990535" /><path d="M 56.25429882871897 25.957352633546506 a86.0,86.0 0 0,1 42.265352541879196,-11.944610805530505" fill="none" id="id132" stroke="none" /><text fill="#e1ed5e" style="font-size:6.75px; font-family:Arial;" text-anchor="middle"><textPath startOffset="22.20632615414155" xlink:href="#id132">December</textPath></text></svg>