<?xml version="1.0" encoding="utf-8" ?>
<svg baseProfile="full" height="200mm" version="1.1" viewBox="0,0,200,200" width="200mm" xmlns="http://www.w3.org/2000/svg" xmlns:ev="http://www.w3.org/2001/xml-events" xmlns:xlink="http://www.w3.org/1999/xlink"><defs /><rect fill="#1a1a1a" height="200" width="200" x="0" y="0" /><text alignment-baseline="middle" fill="#e1ed5e" style="dominant-baseline: central; font-size:9.0px; font-family:Arial;" text-anchor="middle" x="100.0" y="100.0">2020</text><line stroke="#e1ed5e" stroke-width="0.3" x1="100.0" x2="100.0" y1="15.0" y2="10.0" /><path d="M 100.0 14.0 a86.0,86.0 0 0,1 42.35913384403234,11.155469271406648" fill="none" id="id61" stroke="none" /><text fill="#e1ed5e" style="font-size:6.75px; font-family:Arial;" text-anchor="middle"><textPath startOffset="22.145653131862478" xlink:href="#id61">January</textPath></text><path d="M 101.08105385017728 79.02784411241856 l 1.8015237496994896 -34.949079463231435 a55.995480324579006,55.995480324579006 0 0,0 0.9595376118978731,0.057723399989691594 l -2.401205713729825 34.91300408541705" fill="#ccff1d" stroke="none" /><path d="M 102.15924093988457 79.11130261209362 l 3.5266032026447314 -34.116686909060455 a55.29847308262805,55.29847308262805 0 0,0 0.943402742942874,0.1057102450965641 l -4.111741847188402 34.05112090345692" fill="#d7ff1c" stroke="none" /><path d="M 102.87502721639298 79.19773525538626 l 6.657741238457048 -48.172099051386986 a69.62999738242735,69.62999738242735 0 0,0 1.1826319982340312,0.17380617757087946 l -7.48369834229876 48.05071180051723" fill="#34ff5f" stroke="none" /><path d="M 103.94208987418118 79.37332000966035 l 11.82626962254352 -61.88003997101897 a84.0,84.0 0 0,0 1.4140140578761722,0.2828424133485634 l -12.88678016595065 61.66790816100754" fill="#4dd2ff" stroke="none" /><path d="M 105.3480935250658 79.69241777938227 l 12.18698970207125 -46.27598493494714 a68.85383474391415,68.85383474391415 0 0,0 1.1404116352810665,0.3108242623811412 l -12.979582738287009 46.05996017842185" fill="#33ff53" stroke="none" /><path d="M 106.04205211174951 79.88797359093562 l 17.210121979662098 -57.28689878147373 a80.81619404938486,80.81619404938486 0 0,0 1.3252292112652237,0.410559397222312 l -18.190991823798953 56.98302279644477" fill="#48fbff" stroke="none" /><line stroke="#e1ed5e" stroke-width="0.3" x1="143.13028292997686" x2="145.6673583964461" y1="26.7553504044142" y2="22.446841604673864" /><path d="M 143.63769802327073 25.89364864446614 a86.0,86.0 0 0,1 29.32050498858742,28.57503671076993" fill="none" id="id62" stroke="none" /><text fill="#e1ed5e" style="font-size:6.75px; font-family:Arial;" text-anchor="middle"><textPath startOffset="20.669276256404974" xlink:href="#id62">February</textPath></text><line stroke="#e1ed5e" stroke-width="0.3" x1="172.87174338648825" x2="177.1583165268699" y1="56.24261187166439" y2="53.66864786411523" /><path d="M 173.72905801456457 55.72781907015455 a86.0,86.0 0 0,1 12.242430191666344,42.057860355516425" fill="none" id="id63" stroke="none" /><text fill="#e1ed5e" style="font-size:6.75px; font-family:Arial;" text-anchor="middle"><textPath startOffset="22.145653131862474" xlink:href="#id63">March</textPath></text><line stroke="#e1ed5e" stroke-width="0.3" x1="184.99686870605535" x2="189.99668451229388" y1="99.2704041080226" y2="99.22748670261217" /><path d="M 185.99683186730306 99.26182062694052 a86.0,86.0 0 0,1 -10.086455211305974,41.156179273409016" fill="none" id="id64" stroke="none" /><text fill="#e1ed5e" style="font-size:6.75px; font-family:Arial;" text-anchor="middle"><textPath startOffset="21.40746469413373" xlink:href="#id64">April</textPath></text><line stroke="#e1ed5e" stroke-width="0.3" x1="174.33088141563837" x2="178.70328620479359" y1="141.23008692659167" y2="143.65538615756765" /><path d="M 175.20536237346943 141.71514677278685 a86.0,86.0 0 0,1 -30.301960400862466,31.631185727798858" fill="none" id="id65" stroke="none" /><text fill="#e1ed5e" style="font-size:6.75px; font-family:Arial;" text-anchor="middle"><textPath startOffset="22.145653131862474" xlink:href="#id65">May</textPath></text><line stroke="#e1ed5e" stroke-width="0.3" x1="143.1302829299769" x2="145.66735839644613" y1="173.24464959558577" y2="177.55315839532614" /><path d="M 143.63769802327073 174.10635135553383 a86.0,86.0 0 0,1 -40.68552437913181,11.842963189579606" fill="none" id="id66" stroke="none" /><text fill="#e1ed5e" style="font-size:6.75px; font-family:Arial;" text-anchor="middle"><textPath startOffset="21.407464694133747" xlink:href="#id66">June</textPath></text><line stroke="#e1ed5e" stroke-width="0.3" x1="101.45913802915013" x2="101.54496967792366" y1="184.9874750549273" y2="189.98673829345242" /><path d="M 101.47630435890484 185.9873277026323 a86.0,86.0 0 0,1 -42.54439059252881,-10.42667462771756" fill="none" id="id67" stroke="none" /><text fill="#e1ed5e" style="font-size:6.75px; font-family:Arial;" text-anchor="middle"><textPath startOffset="22.145653131862474" xlink:href="#id67">July</textPath></text><line stroke="#e1ed5e" stroke-width="0.3" x1="58.13341422392154" x2="55.67067388415222" y1="173.97424548756322" y2="178.32567169271397" /><path d="M 57.64086615596768 174.84453072859336 a86.0,86.0 0 0,1 -31.369924170532247,-30.572349798747897" fill="none" id="id68" stroke="none" /><text fill="#e1ed5e" style="font-size:6.75px; font-family:Arial;" text-anchor="middle"><textPath startOffset="22.145653131862474" xlink:href="#id68">August</textPath></text><path d="M 83.8745106332314 113.45245675266167 l -13.869243424132696 11.570216141147132 a39.06172236279557,39.06172236279557 0 0,0 -0.4251276615254509,-0.5185866222702034 l 14.065817904896777 -11.330427237178432" fill="#ff0000" stroke="none" /><path d="M 82.78059297857968 112.02048342749411 l -17.85073018959071 12.461196029905159 a42.769932815635634,42.769932815635634 0 0,0 -0.4150929173116936,-0.6056329715598862 l 18.062012843717728 -12.152928323275221" fill="#ff4906" stroke="none" /><path d="M 82.18462484594161 111.11811171558189 l -20.6052744060001 12.859215188850056 a45.28861355902627,45.28861355902627 0 0,0 -0.4059413293908607,-0.6630746538847002 l 20.822983699846365 -12.503603418840799" fill="#ff790b" stroke="none" /><line stroke="#e1ed5e" stroke-width="0.3" x1="26.387840678322732" x2="22.057713659400548" y1="142.50000000000003" y2="145.00000000000006" /><path d="M 25.521815274538298 143.00000000000003 a86.0,86.0 0 0,1 -11.493303480769221,-40.785679425670985" fill="none" id="id69" stroke="none" /><text fill="#e1ed5e" style="font-size:6.75px; font-family:Arial;" text-anchor="middle"><textPath startOffset="21.40746469413373" xlink:href="#id69">September</textPath></text><path d="M 81.4637452351635 109.86951160357371 l -23.434186352815807 12.47738429707888 a47.54893988308176,47.54893988308176 0 0,0 -0.37742974320499756,-0.7237712985726297 l 23.644924164995754 -12.073266755401747" fill="#ffa20f" stroke="none" /><path d="M 80.5471966667186 107.91128576633889 l -24.31795606642141 9.889901028587724 a47.2521071459733,47.2521071459733 0 0,0 -0.2991313206965881,-0.7540063351967273 l 24.484146062084122 -9.470993676177432" fill="#ff9d0e" stroke="none" /><path d="M 80.05021161711548 106.5578916946017 l -24.67500394384589 8.111163904196468 a46.973963877497596,46.973963877497596 0 0,0 -0.2452382800370673,-0.7682054193235552 l 24.81060693966021 -7.686389451181521" fill="#ff980e" stroke="none" /><path d="M 79.03789590574601 101.26102812881392 l -27.083748139578848 1.6292910331974964 a48.132710932728386,48.132710932728386 0 0,0 -0.0425365052408422,-0.8251968379536393 l 27.107726234276264 -1.1641224018671263" fill="#ffad10" stroke="none" /><line stroke="#e1ed5e" stroke-width="0.3" x1="15.003131293944662" x2="10.003315487706104" y1="100.72959589197737" y2="100.7725132973878" /><path d="M 14.003168132696942 100.73817937305945 a86.0,86.0 0 0,1 10.791469493833604,-42.45332614584628" fill="none" id="id70" stroke="none" /><text fill="#e1ed5e" style="font-size:6.75px; font-family:Arial;" text-anchor="middle"><textPath startOffset="22.145653131862435" xlink:href="#id70">October</textPath></text><path d="M 79.0935383218832 98.0201363427161 l -35.40873474620546 -3.3532439947883548 a56.56715818863973,56.56715818863973 0 0,0 0.09984805800781614,-0.9659393863692052 l 35.345954295715984 3.960587903440473" fill="#c3ff1e" stroke="none" /><path d="M 79.22317932658666 96.9465228501225 l -40.23172723505171 -5.91267844793658 a61.663886222842685,61.663886222842685 0 0,0 0.1629057331713788,-1.0459716676481432 l 40.12430000974206 6.602438297516173" fill="#75ff27" stroke="none" /><path d="M 79.34024301695615 96.23510406497455 l -33.294998288073735 -6.0674578028351815 a54.84332955239508,54.84332955239508 0 0,0 0.17673578354295255,-0.9247563009302723 l 33.18593621224862 6.6381166687987685" fill="#dfff1b" stroke="none" /><path d="M 79.64726062577567 94.8264132398404 l -34.725562984661636 -8.827102317443229 a56.829910130006105,56.829910130006105 0 0,0 0.2484563597550783,-0.9434292669553671 l 34.56891714410183 9.42191208877138" fill="#bfff1e" stroke="none" /><path d="M 79.94057633289273 93.78553927170692 l -40.953358563991756 -12.68745516876224 a63.87364104353896,63.87364104353896 0 0,0 0.33346689476904023,-1.04458029834437 l 40.72952695344546 13.388604500798001" fill="#56ff2b" stroke="none" /><path d="M 80.28708602549916 92.7611449362534 l -39.07770005541132 -14.349872742893053 a62.629142308699066,62.629142308699066 0 0,0 0.3792621524136018,-1.0060379183313857 l 38.825607219183276 15.018578941418584" fill="#68ff28" stroke="none" /><path d="M 80.9802524753101 91.09779779509293 l -26.017939245448765 -12.177709289637297 a49.72681266905157,49.72681266905157 0 0,0 0.3685011184212668,-0.7700256091489049 l 25.805058869067594 12.62254740085129" fill="#ffc912" stroke="none" /><path d="M 81.29705330413844 90.45014215332179 l -36.78186348015365 -18.78108157411991 a62.29932815635634,62.29932815635634 0 0,0 0.49451406247366353,-0.948295918916464 l 36.45404134870505 19.409723736140858" fill="#6cff28" stroke="none" /><path d="M 81.63589988554816 89.8137432299009 l -35.62228434905074 -19.75908064405282 a61.73534595585028,61.73534595585028 0 0,0 0.5220065543153319,-0.9223355637732193 l 35.27784442971404 20.367672977925142" fill="#74ff27" stroke="none" /><line stroke="#e1ed5e" stroke-width="0.3" x1="26.387840678322718" x2="22.05771365940052" y1="57.49999999999999" y2="54.99999999999999" /><path d="M 25.521815274538284 56.99999999999999 a86.0,86.0 0 0,1 29.574782752854787,-30.34633250058573" fill="none" id="id71" stroke="none" /><text fill="#e1ed5e" style="font-size:6.75px; font-family:Arial;" text-anchor="middle"><textPath startOffset="21.40746469413373" xlink:href="#id71">November</textPath></text><path d="M 81.99639281039701 89.18935116829357 l -38.85329548086576 -23.33028759040751 a66.31976267341419,66.31976267341419 0 0,0 0.5944525678500953,-0.9709935947382767 l 38.44707494856027 23.99381830127033" fill="#34ff2f" stroke="none" /><path d="M 82.37810715431573 88.57770195909679 l -36.081136955984164 -23.387357054939304 a63.99787104092138,63.99787104092138 0 0,0 0.6054672827111373,-0.9167546358367168 l 35.6743452343523 24.00329156911508" fill="#54ff2b" stroke="none" /><path d="M 82.78059297857968 87.97951657250589 l -47.89462150151269 -33.434165491812024 a79.41008637989705,79.41008637989705 0 0,0 0.7898841937710087,-1.1110710384465667 l 47.31362220921171 34.25141375696811" fill="#45fff0" stroke="none" /><path d="M 83.42222388311158 87.10902102172516 l -34.647132613476266 -26.94181988154726 a64.88946863275456,64.88946863275456 0 0,0 0.6913310681418382,-0.873474220593023 l 34.17953511469287 27.532614046054967" fill="#48ff2c" stroke="none" /><path d="M 83.8745106332314 86.54754324733833 l -37.87470973423297 -31.596429921027802 a70.3237064828549,70.3237064828549 0 0,0 0.781281096989525,-0.9203471677502849 l 37.32673407373633 32.24194387122765" fill="#36ff6b" stroke="none" /><path d="M 84.34580500576568 86.00192230759919 l -41.08253006165078 -36.73625170857969 a76.11194485646976,76.11194485646976 0 0,0 0.8792825150274612,-0.9664855116403851 l 40.44584984578145 37.43607479577773" fill="#3fffc2" stroke="none" /><path d="M 86.13680546590413 84.22622945171909 l -30.63063216010032 -34.85203661060269 a67.39935433208271,67.39935433208271 0 0,0 0.8756155672631862,-0.7563358722116815 l 30.027837113074284 35.37271661527908" fill="#31ff3b" stroke="none" /><line stroke="#e1ed5e" stroke-width="0.3" x1="56.869717070023135" x2="54.33264160355391" y1="26.7553504044142" y2="22.446841604673864" /><path d="M 56.362301976729285 25.89364864446614 a86.0,86.0 0 0,1 42.16139366436587,-11.88097634709845" fill="none" id="id72" stroke="none" /><text fill="#e1ed5e" style="font-size:6.75px; font-family:Arial;" text-anchor="middle"><textPath startOffset="22.145653131862474" xlink:href="#id72">December</textPath></text></svg>