<?xml version="1.0" encoding="utf-8" ?>
<svg baseProfile="full" height="200mm" version="1.1" viewBox="0,0,200,200" width="200mm" xmlns="http://www.w3.org/2000/svg" xmlns:ev="http://www.w3.org/2001/xml-events" xmlns:xlink="http://www.w3.org/1999/xlink"><defs /><rect fill="#1a1a1a" height="200" width="200" x="0" y="0" /><text alignment-baseline="middle" fill="#e1ed5e" style="dominant-baseline: central; font-size:9.0px; font-family:Arial;" text-anchor="middle" x="100.0" y="100.0">2025</text><line stroke="#e1ed5e" stroke-width="0.3" x1="100.0" x2="100.0" y1="15.0" y2="10.0" /><path d="M 100.0 14.0 a86.0,86.0 0 0,1 42.46469731375804,11.215312516191453" fill="none" id="id121" stroke="none" /><text fill="#e1ed5e" style="font-size:6.75px; font-family:Arial;" text-anchor="middle"><textPath startOffset="22.20632615414155" xlink:href="#id121">January</textPath></text><path d="M 100.0 79.0 l 0.0 -52.41357313359124 a73.41357313359124,73.41357313359124 0 0,0 1.2636939810209227,0.010877013057075315 l -0.9022135017483942 52.405807497142725" fill="#34ff5c" stroke="none" /><path d="M 101.80526077348638 79.07773832637324 l 2.606253299577273 -30.205449718048946 a51.31768046752819,51.31768046752819 0 0,0 0.8794258922035793,0.08351208508199288 l -3.1258043188710967 30.156112088451774" fill="#ff0000" stroke="none" /><path d="M 103.2404852339499 79.25152402106235 l 6.55920195354616 -41.997859687286976 a63.50697999835378,63.50697999835378 0 0,0 1.0786230938921628,0.17798205249150614 l -7.281154253577197 41.87873137185584" fill="#cfff1d" stroke="none" /><path d="M 104.307194497241 79.44645832069477 l 6.624691327396983 -31.612426464002098 a53.29910280681538,53.29910280681538 0 0,0 0.8963317120150462,0.19590339525174508 l -7.1678657635655565 31.493709570654485" fill="#ff3605" stroke="none" /><path d="M 105.36241919743992 79.69619591428918 l 11.34145701524561 -42.94232002488597 a65.4147666474607,65.4147666474607 0 0,0 1.0862032002813307,0.29690036620048926 l -12.078958104750651 42.74073311785919" fill="#a6ff21" stroke="none" /><path d="M 106.0581310904928 79.89281104454417 l 9.991802414919608 -33.163207623165825 a55.635739567042556,55.635739567042556 0 0,0 0.9145843380285782,0.28416580579391415 l -10.561172125658903 32.98630168248939" fill="#ff730a" stroke="none" /><path d="M 106.74666289553966 80.11325718540242 l 14.631634261181965 -43.12881079351833 a66.54315581529345,66.54315581529345 0 0,0 1.0815417421991085,0.3773286772244764 l -15.371858007444347 42.87056126312165" fill="#8eff24" stroke="none" /><path d="M 107.76421540070413 80.48803036053334 l 15.3264806765731 -38.51642570529998 a62.45378220429665,62.45378220429665 0 0,0 0.9954423004281812,0.4060659084123052 l -15.987206846589668 38.2468989107041" fill="#e6ff1a" stroke="none" /><path d="M 108.76106565485865 80.91482961587045 l 18.76536755870704 -40.87861583141159 a65.97999835377396,65.97999835377396 0 0,0 1.0280996704653094,0.48270658059498295 l -19.466245440471948 40.549544268176604" fill="#9aff23" stroke="none" /><path d="M 109.73455568895987 81.39251694778311 l 24.26916317726808 -46.39020587500015 a73.35497571816612,73.35497571816612 0 0,0 1.1137903509301297,0.5949482324643313 l -25.064098574726522 45.96557891603407" fill="#34ff5b" stroke="none" /><path d="M 110.36928655335952 81.73862282372117 l 26.10253872308609 -45.969247973599884 a73.8631656926496,73.8631656926496 0 0,0 1.1002209323388408,0.6373189783580014 l -26.88995638789026 45.513124837851834" fill="#35ff66" stroke="none" /><line stroke="#e1ed5e" stroke-width="0.3" x1="143.23703022742887" x2="145.7803849466894" y1="26.81831364943548" y2="22.513508569990506" /><path d="M 143.74570117128098 25.957352633546492 a86.0,86.0 0 0,1 28.547481713284135,27.462654790039103" fill="none" id="id122" stroke="none" /><text fill="#e1ed5e" style="font-size:6.75px; font-family:Arial;" text-anchor="middle"><textPath startOffset="19.985693538727396" xlink:href="#id122">February</textPath></text><path d="M 111.2981086023043 82.29822771554956 l 17.853317897454737 -27.97241370809541 a54.18428677257388,54.18428677257388 0 0,0 0.781886932211931,0.5085610103106175 l -18.332171855450948 27.660953773625263" fill="#ff4e07" stroke="none" /><path d="M 111.90073688211348 82.69761687909136 l 24.06497678680399 -34.98787111131472 a63.46497654127912,63.46497654127912 0 0,0 0.894762060996516,0.626838004204407 l -24.663669987384154 34.56844826434638" fill="#d0ff1d" stroke="none" /><path d="M 113.06298171725822 83.55741782278167 l 20.50250517611982 -25.806828294937766 a53.95974977364392,53.95974977364392 0 0,0 0.7222810607467511,0.584034386509644 l -20.943689635431063 25.450087811163993" fill="#ff4806" stroke="none" /><path d="M 113.6212207817346 84.01681056812373 l 27.530584928429775 -32.30448732403669 a63.44423409334102,63.44423409334102 0 0,0 0.8250958938570391,0.7155150285228732 l -28.082574620933578 31.825807302094148" fill="#d0ff1d" stroke="none" /><path d="M 114.16331599549186 84.49514656593476 l 24.77210483070264 -27.118497869820743 a57.72968968639394,57.72968968639394 0 0,0 0.7279222238060504,0.6765243751978892 l -25.235234938303538 26.688068908548214" fill="#ffa80f" stroke="none" /><path d="M 114.68862486808459 84.99185889309783 l 28.610355773388203 -29.23270628952186 a61.903588772738495,61.903588772738495 0 0,0 0.7551182516542702,0.7518755339058766 l -29.109309825209795 28.735894904965864" fill="#f3ff19" stroke="none" /><path d="M 115.19652480421416 85.50635884689758 l 23.337028831362545 -22.257623096010512 a53.24932093176393,53.24932093176393 0 0,0 0.6269034389149658,0.6687368790562717 l -23.716699592247974 21.852616800076188" fill="#ff3505" stroke="none" /><path d="M 115.4437574822437 85.77008943001954 l 26.72561999396588 -24.625042375773262 a57.34076878755453,57.34076878755453 0 0,0 0.6625762951555065,0.7316332939260227 l -27.14553992973742 24.16135629457769" fill="#ff9f0e" stroke="none" /><path d="M 115.9244219780498 86.31012108654704 l 24.246436558561648 -20.844133685163634 a52.974483496584085,52.974483496584085 0 0,0 0.5884945121788064,0.696591881695347 l -24.60164168422757 20.42368285383918" fill="#ff2d04" stroke="none" /><path d="M 116.60985879189232 87.15038557335679 l 30.05606516429013 -23.251783978543447 a59.00016462260268,59.00016462260268 0 0,0 0.6145121682714901,0.808625981138586 l -30.451853272785733 22.730973221523826" fill="#ffc712" stroke="none" /><path d="M 117.04232023915458 87.72973835380427 l 28.608625537360304 -20.597859666722346 a56.25230883200264,56.25230883200264 0 0,0 0.5590069981015967,0.7906757553504286 l -28.958945155265784 20.102357411040124" fill="#ff830c" stroke="none" /><path d="M 117.45458315368197 88.32363383020206 l 26.801240176037172 -17.92887812586325 a53.24517244217631,53.24517244217631 0 0,0 0.5030486363559654,0.7661775853533066 l -27.10588544775106 17.464882476532267" fill="#ff3505" stroke="none" /><line stroke="#e1ed5e" stroke-width="0.3" x1="172.23445277983987" x2="176.4835382374775" y1="55.19839476539836" y2="52.563006222186495" /><path d="M 173.08426987136738 54.67131705675599 a86.0,86.0 0 0,1 12.851231095245387,41.99856678651699" fill="none" id="id123" stroke="none" /><text fill="#e1ed5e" style="font-size:6.75px; font-family:Arial;" text-anchor="middle"><textPath startOffset="22.20632615414155" xlink:href="#id123">March</textPath></text><path d="M 117.84615892207809 88.93136811851018 l 44.068216944797314 -27.33220482712112 a72.85611984525475,72.85611984525475 0 0,0 0.6518339960518518,1.0714437013000844 l -44.532166739135384 26.569593352613957" fill="#33ff50" stroke="none" /><path d="M 118.3937258080291 89.86733742301442 l 28.58347745884631 -15.745952472605484 a53.63357477981727,53.63357477981727 0 0,0 0.43849763807883024,0.8124695271105006 l -28.850283196143607 15.251601962162525" fill="#ff3f05" stroke="none" /><path d="M 118.73160827565052 90.50648371742162 l 31.442551710113474 -15.935651238970236 a56.25023458720882,56.25023458720882 0 0,0 0.43028747406938,0.8674332912263004 l -31.71219919713626 15.392058359244984" fill="#ff830c" stroke="none" /><path d="M 119.04729006885535 91.15688171328212 l 47.08595461667075 -21.8606775458884 a72.91316157708454,72.91316157708454 0 0,0 0.5187170191663592,1.1429241931866088 l -47.455273952800454 21.04693134385973" fill="#33ff51" stroke="none" /><path d="M 119.34039704204932 91.81776055985345 l 30.38841379007981 -12.856265427027529 a53.9960490575356,53.9960490575356 0 0,0 0.3547754173223282,0.8591168135796953 l -30.605210894288337 12.33127404299453" fill="#ff4906" stroke="none" /><path d="M 119.7369772167798 92.82701384747503 l 34.190182542880976 -12.425697371930156 a57.37810519384311,57.37810519384311 0 0,0 0.3293692290518311,0.9311711638669108 l -34.39900485274262 11.83532858163663" fill="#ff9f0e" stroke="none" /><path d="M 119.97218684219823 93.5106431181261 l 57.24351946927191 -18.59954695725829 a81.1893983043872,81.1893983043872 0 0,0 0.42042389722671464,1.3328586453988882 l -57.55519885026683 17.61143814543298" fill="#46fffa" stroke="none" /><path d="M 120.18372546131832 94.20196356495316 l 33.50275805851882 -9.624100975319342 a55.85768375998025,55.85768375998025 0 0,0 0.2575125120707858,0.9264095176571381 l -33.66345734115597 9.045980154243253" fill="#ff790b" stroke="none" /><path d="M 120.37134235888165 94.90015583598534 l 37.186544881174584 -9.30942991144832 a59.33411803440612,59.33411803440612 0 0,0 0.23950414451288662,0.992899302083537 l -37.34128182594829 8.667945377705376" fill="#ffcf13" stroke="none" /><path d="M 120.53481517161879 95.60439243477599 l 49.53100862532859 -10.602426873925806 a71.65305786484484,71.65305786484484 0 0,0 0.247785500570881,1.2082901000130126 l -49.70617342181447 9.748261117749381" fill="#30ff35" stroke="none" /><path d="M 120.73433829027371 96.67025291283417 l 40.97544884444658 -6.580286263541395 a62.500452712157376,62.500452712157376 0 0,0 0.16144196271477443,1.0637008226296067 l -41.082646700600655 5.873986328519706" fill="#e5ff1a" stroke="none" /><path d="M 120.83666639777658 97.38593545837742 l 37.29607211727467 -4.67897972748508 a58.588427031031365,58.588427031031365 0 0,0 0.11692477594978637,1.0017400755804413 l -37.37108724622804 4.036295913579786" fill="#ffbd11" stroke="none" /><path d="M 120.94382443527127 98.46500227214037 l 62.05002334149504 -4.54771978905764 a83.21645402913819,83.21645402913819 0 0,0 0.09240754888893944,1.429503880762647 l -62.119111481388394 3.4789568440419583" fill="#4be0ff" stroke="none" /><path d="M 120.98425023603335 99.18683210126433 l 33.142817417407095 -1.2843287176977218 a54.16769281422339,54.16769281422339 0 0,0 0.028085447142572554,0.9320192599472036 l -33.16001455900531 0.7136393103255192" fill="#ff4d07" stroke="none" /><line stroke="#e1ed5e" stroke-width="0.3" x1="184.98032266829074" x2="189.97916517819016" y1="98.17113171792111" y2="98.06355123074" /><path d="M 185.9800911702706 98.14961562048488 a86.0,86.0 0 0,1 -9.607161424134198,41.387399972396054" fill="none" id="id124" stroke="none" /><text fill="#e1ed5e" style="font-size:6.75px; font-family:Arial;" text-anchor="middle"><textPath startOffset="21.466115282336823" xlink:href="#id124">April</textPath></text><path d="M 120.99980553446 99.90962569577887 l 35.9167716865578 -0.15457063379541028 a56.9171042884188,56.9171042884188 0 0,0 -0.004216480638815847,0.9797616061121812 l -35.91411090862948 -0.46370045052045566" fill="#ff940d" stroke="none" /><path d="M 120.9904718944345 100.63252640178507 l 62.97141568330351 1.8975792053552112 a84.0,84.0 0 0,0 -0.05599146859518722,1.4448910119439753 l -62.92942208185712 -2.9812474643131925" fill="#4dd2ff" stroke="none" /><path d="M 120.92983693683757 101.71520430193887 l 46.88669372565408 3.8423738811069477 a68.04387192361511,68.04387192361511 0 0,0 -0.10571232344661531,1.166526680367563 l -46.81360680593039 -4.648881950023081" fill="#70ff27" stroke="none" /><path d="M 120.8583938346157 102.4346265915055 l 35.750624316256705 4.172872624489193 a56.993332784591324,56.993332784591324 0 0,0 -0.12212447420470192,0.9734522187534789 l -35.67349833280516 -4.787642597530067" fill="#ff960d" stroke="none" /><path d="M 120.70491114924044 103.5080841355445 l 53.85765101146566 9.125234574983725 a75.62523664499136,75.62523664499136 0 0,0 -0.22850906257454562,1.2816001758721678 l -53.69259550655193 -10.050953501589111" fill="#39ff8c" stroke="none" /><path d="M 120.5718875245553 104.21870165774334 l 34.70839283353133 7.117691763074659 a56.43069388427031,56.43069388427031 0 0,0 -0.20332774753333352,0.9498795451831458 l -34.58073104727355 -7.714085127673974" fill="#ff880c" stroke="none" /><path d="M 120.41448212921028 104.9243191809786 l 46.97733779622454 11.331730294066901 a69.3247180837929,69.3247180837929 0 0,0 -0.28980599464007645,1.1576308892195273 l -46.775320487289406 -12.138689022683824" fill="#57ff2a" stroke="none" /><line stroke="#e1ed5e" stroke-width="0.3" x1="174.80103733775053" x2="179.2010983576182" y1="140.37084112569926" y2="142.7455964860345" /><path d="M 175.68104954172406 140.8457921977663 a86.0,86.0 0 0,1 -30.038265399797805,32.042727171017184" fill="none" id="id125" stroke="none" /><text fill="#e1ed5e" style="font-size:6.75px; font-family:Arial;" text-anchor="middle"><textPath startOffset="22.206326154141568" xlink:href="#id125">May</textPath></text><line stroke="#e1ed5e" stroke-width="0.3" x1="143.8653032363475" x2="146.44561519142675" y1="172.8068346515853" y2="177.08958963109032" /><path d="M 144.38136562736335 173.6633856474863 a86.0,86.0 0 0,1 -40.68145358897372,12.25698825130547" fill="none" id="id126" stroke="none" /><text fill="#e1ed5e" style="font-size:6.75px; font-family:Arial;" text-anchor="middle"><textPath startOffset="21.466115282336833" xlink:href="#id126">June</textPath></text><line stroke="#e1ed5e" stroke-width="0.3" x1="102.19456741930631" x2="102.32365962044197" y1="184.97166512339345" y2="189.96999836594603" /><path d="M 102.22038585953345 185.97133177190398 a86.0,86.0 0 0,1 -42.740103519485714,-10.115201625700543" fill="none" id="id127" stroke="none" /><text fill="#e1ed5e" style="font-size:6.75px; font-family:Arial;" text-anchor="middle"><textPath startOffset="22.20632615414155" xlink:href="#id127">July</textPath></text><line stroke="#e1ed5e" stroke-width="0.3" x1="58.666819895761336" x2="56.23545636021788" y1="174.27360380694188" y2="178.64263932499728" /><path d="M 58.180547188652646 175.14741091055294 a86.0,86.0 0 0,1 -31.652253787137756,-30.449443065178592" fill="none" id="id128" stroke="none" /><text fill="#e1ed5e" style="font-size:6.75px; font-family:Arial;" text-anchor="middle"><textPath startOffset="22.20632615414155" xlink:href="#id128">August</textPath></text><line stroke="#e1ed5e" stroke-width="0.3" x1="26.63291911575756" x2="22.317208475507996" y1="142.92168965132927" y2="145.44649492493687" /><path d="M 25.769776987707644 143.4266507060508 a86.0,86.0 0 0,1 -11.730757126820373,-40.83630448921669" fill="none" id="id129" stroke="none" /><text fill="#e1ed5e" style="font-size:6.75px; font-family:Arial;" text-anchor="middle"><textPath startOffset="21.46611528233685" xlink:href="#id129">September</textPath></text><line stroke="#e1ed5e" stroke-width="0.3" x1="15.007084014347285" x2="10.007500721073583" y1="101.09737516637583" y2="101.16192664675087" /><path d="M 14.007167355692545 101.11028546245083 a86.0,86.0 0 0,1 10.666146001902534,-42.60595125391555" fill="none" id="id130" stroke="none" /><text fill="#e1ed5e" style="font-size:6.75px; font-family:Arial;" text-anchor="middle"><textPath startOffset="22.20632615414155" xlink:href="#id130">October</textPath></text><line stroke="#e1ed5e" stroke-width="0.3" x1="26.266209847984243" x2="21.928928074336255" y1="57.711370442889674" y2="55.22380399835377" /><path d="M 25.398753493254645 57.213857153982495 a86.0,86.0 0 0,1 29.58750427330803,-30.492523968695096" fill="none" id="id131" stroke="none" /><text fill="#e1ed5e" style="font-size:6.75px; font-family:Arial;" text-anchor="middle"><textPath startOffset="21.46611528233685" xlink:href="#id131">November</textPath></text><line stroke="#e1ed5e" stroke-width="0.3" x1="56.762969772571076" x2="54.21961505331055" y1="26.818313649435495" y2="22.513508569990535" /><path d="M 56.25429882871897 25.957352633546506 a86.0,86.0 0 0,1 42.265352541879196,-11.944610805530505" fill="none" id="id132" stroke="none" /><text fill="#e1ed5e" style="font-size:6.75px; font-family:Arial;" text-anchor="middle"><textPath startOffset="22.20632615414155" xlink:href="#id132">December</textPath></text></svg>