<?xml version="1.0" encoding="utf-8" ?>
<svg baseProfile="full" height="200mm" version="1.1" viewBox="0,0,200,200" width="200mm" xmlns="http://www.w3.org/2000/svg" xmlns:ev="http://www.w3.org/2001/xml-events" xmlns:xlink="http://www.w3.org/1999/xlink"><defs /><rect fill="#1a1a1a" height="200" width="200" x="0" y="0" /><text alignment-baseline="middle" fill="#e1ed5e" style="dominant-baseline: central; font-size:9.0px; font-family:Arial;" text-anchor="middle" x="100.0" y="100.0">2025</text><line stroke="#e1ed5e" stroke-width="0.3" x1="100.0" x2="100.0" y1="15.0" y2="10.0" /><path d="M 100.0 14.0 a86.0,86.0 0 0,1 42.46469731375804,11.215312516191453" fill="none" id="id121" stroke="none" /><text fill="#e1ed5e" style="font-size:6.75px; font-family:Arial;" text-anchor="middle"><textPath startOffset="22.20632615414155" xlink:href="#id121">January</textPath></text><path d="M 100.0 79.0 l 0.0 -35.56196247068022 a56.56196247068022,56.56196247068022 0 0,0 0.9736212048807737,0.008380265093593289 l -0.6121407256082454 35.55669358219519" fill="#beff1e" stroke="none" /><path d="M 101.80526077348638 79.07773832637324 l 1.7683106967812072 -20.494024831038573 a41.57017200938233,41.57017200938233 0 0,0 0.7123838270815788,0.06764942823004863 l -2.12081965095303 20.460549858293344" fill="#ff3a05" stroke="none" /><path d="M 103.2404852339499 79.25152402106235 l 4.450337570291092 -28.495029450510973 a49.84046129788898,49.84046129788898 0 0,0 0.8465065189296538,0.13968082877113194 l -4.940173295359621 28.414202358800214" fill="#ffd113" stroke="none" /><path d="M 104.307194497241 79.44645832069477 l 4.494771302163853 -21.448641187934857 a42.91454261141517,42.91454261141517 0 0,0 0.7216944268021298,0.1577344488090877 l -4.863308453119511 21.3680932410299" fill="#ff5407" stroke="none" /><path d="M 105.36241919743992 79.69619591428918 l 7.69503860595437 -29.135834132823625 a51.13487099296326,51.13487099296326 0 0,0 0.8490874975961681,0.2320876875590736 l -8.195423992774248 28.999059904438255" fill="#ffe715" stroke="none" /><path d="M 106.0581310904928 79.89281104454417 l 6.779314617382906 -22.500827064327137 a44.499921813917126,44.499921813917126 0 0,0 0.7315249487330276,0.22728836245233958 l -7.165624938826652 22.380798566992276" fill="#ff720a" stroke="none" /><path d="M 106.74666289553966 80.11325718540242 l 9.92738325919243 -29.2623658176284 a51.90046911649726,51.90046911649726 0 0,0 0.8435506717628002,0.2942982658264138 l -10.429615935018505 29.08714669862978" fill="#fff417" stroke="none" /><path d="M 107.76421540070413 80.48803036053334 l 10.398827976079895 -26.132919462397492 a49.12587959343237,49.12587959343237 0 0,0 0.783010681932404,0.31940971738759244 l -10.847122527600687 25.95004885882632" fill="#ffc512" stroke="none" /><path d="M 108.76106565485865 80.91482961587045 l 12.732070282069243 -27.73563630826647 a51.51837372947615,51.51837372947615 0 0,0 0.8027587810807137,0.3769060115374708 l -13.207607274449554 27.512365314089" fill="#ffee16" stroke="none" /><path d="M 109.73455568895987 81.39251694778311 l 16.466327680142406 -31.475182127520206 a56.52220484753715,56.52220484753715 0 0,0 0.8582088093704153,0.45842542431244065 l -17.00568153604113 31.187077976706014" fill="#bfff1e" stroke="none" /><path d="M 110.36928655335952 81.73862282372117 l 17.71025036003423 -31.189567386980066 a56.867005473025806,56.867005473025806 0 0,0 0.8470564346130729,0.4906697606375989 l -18.24450352711263 30.880093468952417" fill="#baff1f" stroke="none" /><line stroke="#e1ed5e" stroke-width="0.3" x1="143.23703022742887" x2="145.7803849466894" y1="26.81831364943548" y2="22.513508569990506" /><path d="M 143.74570117128098 25.957352633546492 a86.0,86.0 0 0,1 28.547481713284135,27.462654790039103" fill="none" id="id122" stroke="none" /><text fill="#e1ed5e" style="font-size:6.75px; font-family:Arial;" text-anchor="middle"><textPath startOffset="19.985693538727396" xlink:href="#id122">February</textPath></text><path d="M 111.2981086023043 82.29822771554956 l 12.113255843637752 -18.978937458932823 a43.51512900703675,43.51512900703675 0 0,0 0.627929474589671,0.40842279726780345 l -12.438152344011703 18.76761573750549" fill="#ff5f08" stroke="none" /><path d="M 111.90073688211348 82.69761687909136 l 16.327789734328245 -23.738838720616688 a49.811962470680214,49.811962470680214 0 0,0 0.7022748077998209,0.49198838229014646 l -16.73399568171172 23.454265495562606" fill="#ffd113" stroke="none" /><path d="M 113.06298171725822 83.55741782278167 l 13.910696715328921 -17.509614484262197 a43.36278342455043,43.36278342455043 0 0,0 0.5804348118773877,0.4693379180026846 l -14.2100349257708 17.267570468995384" fill="#ff5c08" stroke="none" /><path d="M 113.6212207817346 84.01681056812373 l 18.679162085082844 -21.918195939892875 a49.79788897576232,49.79788897576232 0 0,0 0.6476243949324108,0.5616134934886261 l -19.053680278662018 21.59341745298458" fill="#ffd013" stroke="none" /><path d="M 114.16331599549186 84.49514656593476 l 16.807567384575364 -18.399566101890557 a45.9206411258796,45.9206411258796 0 0,0 0.579020178153288,0.5381361516948203 l -17.1217954465235 18.107525364121095" fill="#ff8c0c" stroke="none" /><path d="M 114.68862486808459 84.99185889309783 l 19.41177327660523 -19.83403042060768 a48.75258014073495,48.75258014073495 0 0,0 0.5946983657871358,0.5921445420099275 l -19.75030744255969 19.496950027947634" fill="#ffbe11" stroke="none" /><path d="M 115.19652480421416 85.50635884689758 l 15.83388603106353 -15.101522561902812 a42.8807662236122,42.8807662236122 0 0,0 0.5048346033058173,0.5385223562318598 l -16.09148795633981 14.826730788792895" fill="#ff5307" stroke="none" /><path d="M 115.4437574822437 85.77008943001954 l 18.13300331211278 -16.70778732398466 a45.65676309616888,45.65676309616888 0 0,0 0.5275668530558322,0.5825524959006174 l -18.417913805784647 16.393182040814494" fill="#ff870c" stroke="none" /><path d="M 115.9244219780498 86.31012108654704 l 16.45090794984728 -14.142487442256948 a42.69429241594996,42.69429241594996 0 0,0 0.4742916802532662,0.5614117501229757 l -16.691910243587664 13.857216742504866" fill="#ff5007" stroke="none" /><path d="M 116.60985879189232 87.15038557335679 l 20.392669255051977 -15.77604845053749 a46.782642689601246,46.782642689601246 0 0,0 0.48726140648163246,0.6411788947897671 l -20.661206601757723 15.422684779866689" fill="#ff9b0e" stroke="none" /><path d="M 117.04232023915458 87.72973835380427 l 19.410599332815277 -13.975393560315524 a44.91825645035184,44.91825645035184 0 0,0 0.4463749172191078,0.6313656645449695 l -19.648286869838266 13.63920139543876" fill="#ff790b" stroke="none" /><path d="M 117.45458315368197 88.32363383020206 l 18.184310672326347 -12.164522526031083 a42.877951524628614,42.877951524628614 0 0,0 0.40510142149743383,0.6169972573516057 l -18.391008729181703 11.849707204701803" fill="#ff5307" stroke="none" /><line stroke="#e1ed5e" stroke-width="0.3" x1="172.23445277983987" x2="176.4835382374775" y1="55.19839476539836" y2="52.563006222186495" /><path d="M 173.08426987136738 54.67131705675599 a86.0,86.0 0 0,1 12.851231095245387,41.99856678651699" fill="none" id="id123" stroke="none" /><text fill="#e1ed5e" style="font-size:6.75px; font-family:Arial;" text-anchor="middle"><textPath startOffset="22.20632615414155" xlink:href="#id123">March</textPath></text><path d="M 117.84615892207809 88.93136811851018 l 29.899741296902857 -18.544563634798088 a56.183737294761535,56.183737294761535 0 0,0 0.5026684109963229,0.82625469991855 l -30.214525506185403 18.027141161672454" fill="#c4ff1e" stroke="none" /><path d="M 118.3937258080291 89.86733742301442 l 19.393536671926938 -10.683434412469786 a43.14147771696638,43.14147771696638 0 0,0 0.35271630055953346,0.6535297366145708 l -19.574561071704938 10.348023692522757" fill="#ff5808" stroke="none" /><path d="M 118.73160827565052 90.50648371742162 l 21.333383264054987 -10.812142684142154 a44.91684910086005,44.91684910086005 0 0,0 0.3435924789398038,0.6926614712453854 l -21.5163357559482 10.443321624397818" fill="#ff790b" stroke="none" /><path d="M 119.04729006885535 91.15688171328212 l 31.947239061651562 -14.83219990533889 a56.22243940578577,56.22243940578577 0 0,0 0.39997629437585774,0.8812947457902576 l -32.197817672990766 14.280083150706568" fill="#c4ff1e" stroke="none" /><path d="M 119.34039704204932 91.81776055985345 l 20.61816369572655 -8.72281741723207 a43.38741204065676,43.38741204065676 0 0,0 0.28507247255920515,0.6903256040478081 l -20.765257855171953 8.366617242730959" fill="#ff5d08" stroke="none" /><path d="M 119.7369772167798 92.82701384747503 l 23.1976168721915 -8.43068230601918 a45.68209538702111,45.68209538702111 0 0,0 0.26223027909799074,0.7413603113191712 l -23.339300232099298 8.030124368273395" fill="#ff870c" stroke="none" /><path d="M 119.97218684219823 93.5106431181261 l 38.839021447122995 -12.61956305058254 a61.83776387802971,61.83776387802971 0 0,0 0.3202151294177255,1.0151694669291969 l -39.050492060308926 11.949143417226924" fill="#70ff27" stroke="none" /><path d="M 120.18372546131832 94.20196356495316 l 22.731207843904006 -6.529833728870472 a44.6505082095387,44.6505082095387 0 0,0 0.20584570931516943,0.7405365383800773 l -22.840240323785537 6.137585887071443" fill="#ff740a" stroke="none" /><path d="M 120.37134235888165 94.90015583598534 l 25.230611736925617 -6.31633329577715 a47.00922595777951,47.00922595777951 0 0,0 0.1897543069689223,0.7866541071344628 l -25.33559884415536 5.881093956983281" fill="#ff9f0e" stroke="none" /><path d="M 120.53481517161879 95.60439243477599 l 33.60617802910293 -7.193615776350084 a55.36747458952306,55.36747458952306 0 0,0 0.19146785657617535,0.9336652670906583 l -33.725025181594106 6.614074853096014" fill="#d1ff1c" stroke="none" /><path d="M 120.73433829027371 96.67025291283417 l 27.801336312475236 -4.464643014395421 a49.157544956997654,49.157544956997654 0 0,0 0.12697652890046607,0.8366166762027185 l -27.874068734815 3.985427225800621" fill="#ffc512" stroke="none" /><path d="M 120.83666639777658 97.38593545837742 l 25.304924614809 -3.174629996046925 a46.50328381548085,46.50328381548085 0 0,0 0.09280648613717711,0.7951092972573778 l -25.35582145394977 2.7385769604646946" fill="#ff960d" stroke="none" /><path d="M 120.94382443527127 98.46500227214037 l 42.10017500144216 -3.0855717478644746 a63.21309616888194,63.21309616888194 0 0,0 0.07019485921139872,1.0858834030202544 l -42.147050451657975 2.360429280591185" fill="#5cff2a" stroke="none" /><path d="M 120.98425023603335 99.18683210126433 l 22.486992561380475 -0.8714011834753503 a43.503870211102424,43.503870211102424 0 0,0 0.022556353867640197,0.748535571896172 l -22.49866060970376 0.4841954641541792" fill="#ff5f08" stroke="none" /><line stroke="#e1ed5e" stroke-width="0.3" x1="184.98032266829074" x2="189.97916517819016" y1="98.17113171792111" y2="98.06355123074" /><path d="M 185.9800911702706 98.14961562048488 a86.0,86.0 0 0,1 -9.607161424134198,41.387399972396054" fill="none" id="id124" stroke="none" /><text fill="#e1ed5e" style="font-size:6.75px; font-family:Arial;" text-anchor="middle"><textPath startOffset="21.466115282336823" xlink:href="#id124">April</textPath></text><path d="M 120.99980553446 99.90962569577887 l 24.369086296213045 -0.10487426728361664 a45.36931196247068,45.36931196247068 0 0,0 -0.0033610076949237623,0.7809798216596827 l -24.36728099122862 -0.31461503257975076" fill="#ff820b" stroke="none" /><path d="M 120.9904718944345 100.63252640178507 l 42.72532833332147 1.2874840704713761 a63.744722439405784,63.744722439405784 0 0,0 -0.04249000743541566,1.096478291804296 l -42.696836193034855 -2.022739609289678" fill="#55ff2b" stroke="none" /><path d="M 120.92983693683757 101.71520430193887 l 31.81204300642083 2.607003254862521 a52.91868647380766,52.91868647380766 0 0,0 -0.08221397669975464,0.9072243821016084 l -31.762454433444 -3.1542090255126998" fill="#f9ff18" stroke="none" /><path d="M 120.8583938346157 102.4346265915055 l 24.256357356093083 2.831242573155323 a45.42103205629398,45.42103205629398 0 0,0 -0.09732751861827427,0.7757960847874167 l -24.204028328227963 -3.2483564122301343" fill="#ff830c" stroke="none" /><path d="M 120.70491114924044 103.5080841355445 l 36.54175148767432 6.1913590333674335 a58.062548866301796,58.062548866301796 0 0,0 -0.17544168059150259,0.9839701155310971 l -36.42976336474362 -6.819447899631749" fill="#a7ff21" stroke="none" /><path d="M 120.5718875245553 104.21870165774334 l 23.54921615852631 4.829266013045573 a45.03928850664582,45.03928850664582 0 0,0 -0.16228290762011896,0.7581317176394031 l -23.462599212181747 -5.233911550101146" fill="#ff7c0b" stroke="none" /><path d="M 120.41448212921028 104.9243191809786 l 31.873543889552774 7.68843914568406 a53.78772478498827,53.78772478498827 0 0,0 -0.22485493647300478,0.8981836982976226 l -31.73647763878471 -8.235950683379079" fill="#ebff1a" stroke="none" /><path d="M 120.23288151984713 105.62410040840565 l 34.15171642712005 9.493095786534875 a56.44655981235341,56.44655981235341 0 0,0 -0.26827534722486024,0.9339016781088417 l -33.98324844300909 -10.079554940148299" fill="#c0ff1e" stroke="none" /><path d="M 119.9155931802556 106.66101706037122 l 20.050173029178364 6.7060289594165114 a42.141907740422205,42.141907740422205 0 0,0 -0.23601308341990887,0.6859644956937434 l -19.931769114815225 -7.050166158199555" fill="#ff4506" stroke="none" /><path d="M 119.67450827220406 107.3425965602758 l 21.85380123026781 8.155916454034923 a44.326114151681,44.326114151681 0 0,0 -0.2729342915811222,0.7125453100700656 l -21.710172659093182 -8.530885330938132" fill="#ff6e0a" stroke="none" /><path d="M 119.41010516605496 108.01547362559984 l 32.83219397238203 13.558174085343895 a56.52150117279124,56.52150117279124 0 0,0 -0.3790951419869241,0.8960689327624771 l -32.5939478492028 -14.121317543772536" fill="#bfff1e" stroke="none" /><path d="M 119.26925614724726 108.34839909993367 l 16.177523045993976 7.0089067167040575 a38.630570758405,38.630570758405 0 0,0 -0.2696025974554117,0.6078826842548508 l -16.054479363807292 -7.286337737451596" fill="#ff0100" stroke="none" /><path d="M 118.97047184881838 109.00673069616215 l 22.253488612200393 10.565429293351214 a45.63424550430024,45.63424550430024 0 0,0 -0.3430103352237337,0.7067028868662103 l -22.068325020361947 -10.946921136182699" fill="#ff870c" stroke="none" /><path d="M 118.64920377521936 109.65438752849418 l 42.18942317921163 21.840773787724522 a68.50754495699766,68.50754495699766 0 0,0 -0.5511513280073872,1.0425706057889559 l -41.807219342979344 -22.563759408599612" fill="#33ff50" stroke="none" /><line stroke="#e1ed5e" stroke-width="0.3" x1="174.80103733775053" x2="179.2010983576182" y1="140.37084112569926" y2="142.7455964860345" /><path d="M 175.68104954172406 140.8457921977663 a86.0,86.0 0 0,1 -30.038265399797805,32.042727171017184" fill="none" id="id125" stroke="none" /><text fill="#e1ed5e" style="font-size:6.75px; font-family:Arial;" text-anchor="middle"><textPath startOffset="22.206326154141568" xlink:href="#id125">May</textPath></text><path d="M 118.30583269289576 110.29060199501025 l 20.783141627410725 11.683218255163757 a44.8419077404222,44.8419077404222 0 0,0 -0.3840346474206711,0.6695967781547051 l -20.578954983837672 -12.039234879176776" fill="#ff780b" stroke="none" /><path d="M 117.75023020441432 111.22182372390056 l 23.88608410234035 15.100954870098876 a49.25922595777951,49.25922595777951 0 0,0 -0.45927223220686614,0.7128007034836987 l -23.622607006756436 -15.509877173504028" fill="#ffc712" stroke="none" /><path d="M 117.35343817320211 111.8261652097733 l 20.491516627621202 13.964728984443566 a45.79749804534793,45.79749804534793 0 0,0 -0.44955498577675534,0.6476174864066171 l -20.24810073468231 -14.315387733037202" fill="#ff8a0c" stroke="none" /><path d="M 116.93607887273984 112.41649034213515 l 34.78772372050549 25.50421728938515 a64.13526192337764,64.13526192337764 0 0,0 -0.6604060856423655,0.8847218737380543 l -34.34355636816804 -26.099252042632518" fill="#4fff2b" stroke="none" /><path d="M 116.498646956653 112.99209946851258 l 13.821049053378475 10.883586062084696 a38.591868647380764,38.591868647380764 0 0,0 -0.4154728686430792,0.5183662855062043 l -13.631658272680543 -11.119880181169151" fill="#ff0000" stroke="none" /><path d="M 116.0416608686014 113.55231037782055 l 18.931238270901577 15.99348215781734 a45.782720875684134,45.782720875684134 0 0,0 -0.5137638622183448,0.5976234407009812 l -18.653131899112456 -16.316982697679848" fill="#ff890c" stroke="none" /><path d="M 115.32070863581623 114.36230785411682 l 25.68935285906051 24.082332162647145 a56.21223612197029,56.21223612197029 0 0,0 -0.6678373640366815,0.7002248062138646 l -25.271008943644865 -24.520964085443516" fill="#c4ff1e" stroke="none" /><path d="M 115.07121518719521 114.62390073753431 l 20.650914713552535 20.03799449210052 a49.77466770914777,49.77466770914777 0 0,0 -0.6019401666420754,0.6097622108158056 l -20.302933921854926 -20.39049719689699" fill="#ffd013" stroke="none" /><path d="M 114.29624159901734 115.38237550388516 l 19.185674389835064 20.643275067483543 a49.18217357310399,49.18217357310399 0 0,0 -0.6250830611838263,0.5709985558150931 l -18.827491779184374 -20.97046638988522" fill="#ffc612" stroke="none" /><path d="M 113.48314897796784 116.09983520530334 l 20.401376362642104 24.36068888185003 a52.77513682564504,52.77513682564504 0 0,0 -0.701481769437078,0.5772717396109972 l -19.979024464660334 -24.708255740318204" fill="#fbff18" stroke="none" /><path d="M 112.92097659922987 116.55440617244103 l 17.376859012959606 22.2633002925585 a49.24198592650508,49.24198592650508 0 0,0 -0.6726719578210476,0.5157761730533985 l -16.991058326645067 -22.559115807439273" fill="#ffc712" stroke="none" /><path d="M 112.34349029814194 116.9893568818739 l 17.048989280333206 23.465920607757464 a50.00547302580141,50.00547302580141 0 0,0 -0.7007259128325287,0.4999493333791008 l -16.642536039651795 -23.755914202980783" fill="#ffd413" stroke="none" /><path d="M 112.04921762599082 117.19931262002967 l 10.132890028800123 14.463905355463579 a38.6601250977326,38.6601250977326 0 0,0 -0.5483167666656066,0.37713727193181973 l -9.882416377511634 -14.636183416760494" fill="#ff0100" stroke="none" /><path d="M 111.45004920935366 117.60387380957326 l 19.31404480728908 29.694370855822118 a56.42298670836591,56.42298670836591 0 0,0 -0.8187195634715836,0.5225455617830088 l -18.800043441770566 -30.022430846428936" fill="#c1ff1e" stroke="none" /><line stroke="#e1ed5e" stroke-width="0.3" x1="143.8653032363475" x2="146.44561519142675" y1="172.8068346515853" y2="177.08958963109032" /><path d="M 144.38136562736335 173.6633856474863 a86.0,86.0 0 0,1 -40.68145358897372,12.25698825130547" fill="none" id="id126" stroke="none" /><text fill="#e1ed5e" style="font-size:6.75px; font-family:Arial;" text-anchor="middle"><textPath startOffset="21.466115282336833" xlink:href="#id126">June</textPath></text><path d="M 110.5260780823613 118.17145234162733 l 13.91921866647821 24.029122399770237 a48.76946833463643,48.76946833463643 0 0,0 -0.7300353575043094,0.4145331287434151 l -13.503534542052702 -24.265158694308283" fill="#ffbf11" stroke="none" /><path d="M 109.89434966115114 118.52300852407294 l 13.358532443217973 25.00823386971785 a49.35246286161063,49.35246286161063 0 0,0 -0.7527639446331974,0.3938105180109228 l -12.92607759605828 -25.23447380667349" fill="#ffc912" stroke="none" /><path d="M 109.2508944713604 118.85261126421891 l 18.607131139901085 37.919901822349026 a63.23913213448006,63.23913213448006 0 0,0 -0.9813729547279264,0.4711186562056502 l -17.951645517172928 -38.23457475505424" fill="#5cff2a" stroke="none" /><path d="M 107.93186726928326 119.44442032107085 l 10.817390747006437 26.518080210016198 a49.639562157935885,49.639562157935885 0 0,0 -0.7939467963504953,0.3159278154623438 l -10.359322874614074 -26.70035486988461" fill="#ffce13" stroke="none" /><path d="M 107.2578585660854 119.70592522655815 l 9.477208437231614 25.731716748142894 a48.421501172791245,48.421501172791245 0 0,0 -0.7846137949545341,0.2813345916489864 l -9.032875081647344 -25.891038880831843" fill="#ffb811" stroke="none" /><path d="M 106.2309692047433 120.05430185196036 l 9.46128793185333 30.451045071649173 a52.88702111024237,52.88702111024237 0 0,0 -0.8716915015981856,0.26263349883711073 l -8.935721455814898 -30.609393939592007" fill="#f9ff18" stroke="none" /><path d="M 105.88484417918355 120.15858648285463 l 7.904805605191478 27.07798245297197 a49.20820953870211,49.20820953870211 0 0,0 -0.8151429700901,0.23036754559051437 l -7.437531466996772 -27.210038791901002" fill="#ffc612" stroke="none" /><path d="M 105.53697534728816 120.25689768951611 l 5.64999693164166 20.67038457131652 a42.42865519937451,42.42865519937451 0 0,0 -0.7061533567065258,0.18650151963417796 l -5.293353132123636 -20.764577440254282" fill="#ff4b07" stroke="none" /><path d="M 104.83641907484287 120.43548508189849 l 6.502749924749494 27.476289176378362 a49.23530101641908,49.23530101641908 0 0,0 -0.8264024546126125,0.188086508134433 l -6.02882732074402 -27.58415241809048" fill="#ffc712" stroke="none" /><path d="M 103.7750983002368 120.6578951692458 l 5.708439439119396 31.2374232760825 a52.75473025801407,52.75473025801407 0 0,0 -0.8946976876717276,0.15555466130081513 l -5.169892779975619 -31.33105651590432" fill="#fcff18" stroke="none" /><path d="M 103.41894727170886 120.7198165907248 l 4.587167147309013 27.799569402465643 a49.17548866301799,49.17548866301799 0 0,0 -0.8363676638074274,0.13062342831696924 l -4.107963619893068 -27.87441113812972" fill="#ffc612" stroke="none" /><path d="M 103.06178313531738 120.77559828337769 l 3.3671748855506425 22.84782092015378 a44.094605160281475,44.094605160281475 0 0,0 -0.7518579709905925,0.10420066383386176 l -2.9733883233732197 -22.902396149480246" fill="#ff6a09" stroke="none" /><path d="M 102.34483914955558 120.86867818915974 l 3.4646157366129895 30.83450345418291 a52.028537920250194,52.028537920250194 0 0,0 -0.8908460134472048,0.0923398317433927 l -2.933337126560182 -30.88957265438206" fill="#fff617" stroke="none" /><path d="M 101.62511606390274 120.93702456842531 l 3.408496251129132 43.91302955919063 a65.04511336982017,65.04511336982017 0 0,0 -1.1170328624054016,0.0770371262206353 l -2.6521006279448 -43.96519502992756" fill="#43ff2d" stroke="none" /><path d="M 100.90346689309514 120.98055641714683 l 1.186727427990492 27.558510383742515 a48.58405003909304,48.58405003909304 0 0,0 -0.8358299291592681,0.028787672757770517 l -0.7121771471565717 -27.57485485492638" fill="#ffbb11" stroke="none" /><line stroke="#e1ed5e" stroke-width="0.3" x1="102.19456741930631" x2="102.32365962044197" y1="184.97166512339345" y2="189.96999836594603" /><path d="M 102.22038585953345 185.97133177190398 a86.0,86.0 0 0,1 -42.740103519485714,-10.115201625700543" fill="none" id="id127" stroke="none" /><text fill="#e1ed5e" style="font-size:6.75px; font-family:Arial;" text-anchor="middle"><textPath startOffset="22.20632615414155" xlink:href="#id127">July</textPath></text><path d="M 94.81253420990036 120.34920634021253 l -4.506281365199534 17.677080300463743 a39.2424159499609,39.2424159499609 0 0,0 -0.6531237819846755,-0.1724959269718332 l 4.8098955899956986 -17.596893024188326" fill="#ff0d01" stroke="none" /><path d="M 93.76903079525671 120.05430185196036 l -7.907895408119698 25.451469316754118 a47.65168100078186,47.65168100078186 0 0,0 -0.7812122209097511,-0.2501194832664728 l 8.34482897412039 -25.31157698682794" fill="#ffab0f" stroke="none" /><path d="M 93.08242187328487 119.8279376855182 l -7.707231298333897 22.091330103098844 a44.39718530101642,44.39718530101642 0 0,0 -0.7194044629063481,-0.25795284521341216 l 8.086355321869972 -21.955389716845477" fill="#ff700a" stroke="none" /><path d="M 92.40401165467489 119.57807347666478 l -10.93710329047091 28.189539281546484 a51.236903831118056,51.236903831118056 0 0,0 -0.8194950536067968,-0.3260939942805631 l 11.420719420119564 -27.99709844285985" fill="#ffe915" stroke="none" /><path d="M 91.7346041902142 119.30500536409082 l -16.866835858906118 39.39488975783975 a63.853792025019544,63.853792025019544 0 0,0 -1.0066985897232497,-0.44130707759020743 l 17.542455123287112 -39.09871812695509" fill="#53ff2b" stroke="none" /><path d="M 90.7491055286396 118.85261126421891 l -12.369829460950623 25.208760834312155 a49.08014073494918,49.08014073494918 0 0,0 -0.755240747089476,-0.37869338913138706 l 12.80192411572286 -24.992099604271466" fill="#ffc412" stroke="none" /><path d="M 90.10565033884886 118.52300852407294 l -14.708907272991288 27.53624281817811 a52.2185301016419,52.2185301016419 0 0,0 -0.7891890596196124,-0.43032879930729506 l 15.180719144479541 -27.27897336711105" fill="#fff917" stroke="none" /><line stroke="#e1ed5e" stroke-width="0.3" x1="58.666819895761336" x2="56.23545636021788" y1="174.27360380694188" y2="178.64263932499728" /><path d="M 58.180547188652646 175.14741091055294 a86.0,86.0 0 0,1 -31.652253787137756,-30.449443065178592" fill="none" id="id128" stroke="none" /><text fill="#e1ed5e" style="font-size:6.75px; font-family:Arial;" text-anchor="middle"><textPath startOffset="22.20632615414155" xlink:href="#id128">August</textPath></text><path d="M 89.1626897886671 117.98757091392108 l -17.165631197019092 28.491203298370916 a54.262705238467554,54.262705238467554 0 0,0 -0.7959067562566704,-0.4889109358195354 l 17.65351715320807 -28.191503895723002" fill="#e3ff1b" stroke="none" /><path d="M 88.54995079064634 117.60387380957326 l -14.963205154633973 23.0051740837716 a48.443315089913995,48.443315089913995 0 0,0 -0.695104595881109,-0.4606774232548867 l 15.356984449255044 -22.744198639425395" fill="#ffb911" stroke="none" /><path d="M 87.95078237400918 117.19931262002967 l -20.050178062326733 28.620055781660017 a55.94448788115715,55.94448788115715 0 0,0 -0.7839492352816037,-0.5593269642302608 l 20.539854625457224 -28.27068455558554" fill="#c8ff1d" stroke="none" /><path d="M 87.36589467227662 116.77436683061367 l -17.081231378185496 22.678839033226858 a49.39186864738077,49.39186864738077 0 0,0 -0.6747194362360385,-0.5173460921930534 l 17.469079542915022 -22.381453599206438" fill="#ffc912" stroke="none" /><path d="M 87.07902340077011 116.55440617244103 l -26.943115394953946 34.51962569343255 a64.7896794370602,64.7896794370602 0 0,0 -0.873249205424007,-0.6937619822797142 l 27.53332209309531 -34.0507297971477" fill="#46ff2c" stroke="none" /><path d="M 86.51685102203217 116.09983520530335 l -17.791792921446667 21.24466135546227 a48.71071149335418,48.71071149335418 0 0,0 -0.6381903996341188,-0.5438797038132432 l 18.15484879765784 -20.935257261426074" fill="#ffbe11" stroke="none" /><path d="M 85.97065885151581 115.62618273729859 l -19.741835637124776 21.988882298208 a50.550820953870215,50.550820953870215 0 0,0 -0.642477947019444,-0.5868883715971639 l 20.117413133611073 -21.645801160024263" fill="#ffdd14" stroke="none" /><path d="M 85.44109423537348 115.13401014063109 l -19.60159165495455 20.37589168269487 a49.27365129007037,49.27365129007037 0 0,0 -0.6061833408289613,-0.5932779836820707 l 19.949424948159304 -20.03546359609023" fill="#ffc712" stroke="none" /><path d="M 85.18274418774928 114.88116024355367 l -33.71244285664552 33.85783917806189 a68.77951524628617,68.77951524628617 0 0,0 -0.831771557187155,-0.8425801960242344 l 34.290255038888205 -33.27251848805699" fill="#33ff54" stroke="none" /><path d="M 84.67929136418377 114.36230785411682 l -16.995154452877127 15.932007199057438 a44.29515246286161,44.29515246286161 0 0,0 -0.5166788906740373,-0.5607528905064243 l 17.266879751546895 -15.63710305374967" fill="#ff6e0a" stroke="none" /><path d="M 84.19399662182784 113.82643327865904 l -20.462356992595165 17.899617437316827 a48.18647380766224,48.18647380766224 0 0,0 -0.5407382614355755,-0.629000761015872 l 20.76743776360152 -17.544739577139424" fill="#ffb410" stroke="none" /><path d="M 83.72743513129214 113.27417163493432 l -40.89497481804163 33.35964054350747 a73.7756059421423,73.7756059421423 0 0,0 -0.794254430038921,-0.9909545236750811 l 41.463147160135414 -32.65075818625412" fill="#3cffa1" stroke="none" /><path d="M 83.50135304334701 112.99209946851258 l -16.71849377692873 13.165221044140145 a42.27982799061767,42.27982799061767 0 0,0 -0.4453337962246343,-0.5756539632201928 l 16.942634390371435 -12.875489086806699" fill="#ff4806" stroke="none" /><path d="M 83.06392112726016 112.41649034213515 l -20.696709365201226 15.173553092069767 a46.66301798279906,46.66301798279906 0 0,0 -0.46934154031940856,-0.6518743497324982 l 20.95483069789624 -14.81504513688613" fill="#ff990e" stroke="none" /><path d="M 82.6465618267979 111.8261652097733 l -17.857391476567734 12.169603493537515 a42.60985144644253,42.60985144644253 0 0,0 -0.40783084855452606,-0.6096517833728424 l 18.06422543053299 -11.860414795958853" fill="#ff4e07" stroke="none" /><path d="M 82.24976979558568 111.22182372390057 l -24.002363673600136 15.174467654797523 a49.39679437060204,49.39679437060204 0 0,0 -0.4481826673643118,-0.7226131642592672 l 24.2600109806324 -14.75905815917299" fill="#ffca12" stroke="none" /><path d="M 82.05923443525364 110.91462005526583 l -46.98103972584369 28.58184599527615 a75.99218139171228,75.99218139171228 0 0,0 -0.6702478710073365,-1.123373984393809 l 47.46606847254926 -27.768909916996233" fill="#3fffc2" stroke="none" /><line stroke="#e1ed5e" stroke-width="0.3" x1="26.63291911575756" x2="22.317208475507996" y1="142.92168965132927" y2="145.44649492493687" /><path d="M 25.769776987707644 143.4266507060508 a86.0,86.0 0 0,1 -11.730757126820373,-40.83630448921669" fill="none" id="id129" stroke="none" /><text fill="#e1ed5e" style="font-size:6.75px; font-family:Arial;" text-anchor="middle"><textPath startOffset="21.46611528233685" xlink:href="#id129">September</textPath></text><path d="M 81.69416730710424 110.29060199501025 l -24.827272810620656 13.956621771966038 a49.481235340109464,49.481235340109464 0 0,0 -0.41098546346649534,-0.7460579949892477 l 25.06383468353867 -13.527193258578968" fill="#ffcb12" stroke="none" /><path d="M 81.51974371655577 109.97397251340807 l -36.962576708101864 19.94905906373264 a63.00234558248632,63.00234558248632 0 0,0 -0.5068613458147615,-0.958790650596074 l 37.30049056214151 -19.30985339805044" fill="#5fff29" stroke="none" /><path d="M 81.35079622478065 109.6543875284942 l -19.14704357218991 9.912111042323092 a42.560594214229866,42.560594214229866 0 0,0 -0.33120518672268406,-0.6534992548480711 l 19.314827428698862 -9.581057575772336" fill="#ff4d07" stroke="none" /><path d="M 81.02952815118164 109.00673069616217 l -26.07767129875767 12.381060652720542 a49.867552775605944,49.867552775605944 0 0,0 -0.36148130135841805,-0.7785985642397721 l 26.286927216955917 -11.930342021201943" fill="#ffd213" stroke="none" /><path d="M 80.87730276802145 108.67885076344099 l -57.36809169593562 26.03655229032298 a84.0,84.0 0 0,0 -0.5862356610748805,-1.3218066540292166 l 57.80776844174178 -25.045197299801067" fill="#4dd2ff" stroke="none" /><path d="M 80.58989483394504 108.01547362559985 l -19.321759160747597 7.978990820926195 a41.90441751368256,41.90441751368256 0 0,0 -0.26957986938883083,-0.6690751277388943 l 19.456241644393813 -7.645216325344496" fill="#ff4106" stroke="none" /><path d="M 80.32549172779594 107.34259656027581 l -23.52172838078751 8.778392807128807 a46.10641125879594,46.10641125879594 0 0,0 -0.27109634297985097,-0.7459407046341849 l 23.669348984772586 -8.372204305488504" fill="#ff8f0d" stroke="none" /><path d="M 80.0844068197444 106.66101706037122 l -30.280466007620838 10.127677285189689 a52.929241594996085,52.929241594996085 0 0,0 -0.2815526873330533,-0.8665300706523933 l 30.45031094597014 -9.604948314559492" fill="#f9ff18" stroke="none" /><path d="M 79.97269907076064 106.31721596034903 l -46.422044290633266 14.642915694978576 a69.67670054730257,69.67670054730257 0 0,0 -0.3509490237148603,-1.1469217152747841 l 46.66722008685426 -13.841667007151743" fill="#35ff63" stroke="none" /><line stroke="#e1ed5e" stroke-width="0.3" x1="15.007084014347285" x2="10.007500721073583" y1="101.09737516637583" y2="101.16192664675087" /><path d="M 14.007167355692545 101.11028546245083 a86.0,86.0 0 0,1 10.666146001902534,-42.60595125391555" fill="none" id="id130" stroke="none" /><text fill="#e1ed5e" style="font-size:6.75px; font-family:Arial;" text-anchor="middle"><textPath startOffset="22.20632615414155" xlink:href="#id130">October</textPath></text><line stroke="#e1ed5e" stroke-width="0.3" x1="26.266209847984243" x2="21.928928074336255" y1="57.711370442889674" y2="55.22380399835377" /><path d="M 25.398753493254645 57.213857153982495 a86.0,86.0 0 0,1 29.58750427330803,-30.492523968695096" fill="none" id="id131" stroke="none" /><text fill="#e1ed5e" style="font-size:6.75px; font-family:Arial;" text-anchor="middle"><textPath startOffset="21.46611528233685" xlink:href="#id131">November</textPath></text><line stroke="#e1ed5e" stroke-width="0.3" x1="56.762969772571076" x2="54.21961505331055" y1="26.818313649435495" y2="22.513508569990535" /><path d="M 56.25429882871897 25.957352633546506 a86.0,86.0 0 0,1 42.265352541879196,-11.944610805530505" fill="none" id="id132" stroke="none" /><text fill="#e1ed5e" style="font-size:6.75px; font-family:Arial;" text-anchor="middle"><textPath startOffset="22.20632615414155" xlink:href="#id132">December</textPath></text></svg>