<?xml version="1.0" encoding="utf-8" ?>
<svg baseProfile="full" height="200mm" version="1.1" viewBox="0,0,200,200" width="200mm" xmlns="http://www.w3.org/2000/svg" xmlns:ev="http://www.w3.org/2001/xml-events" xmlns:xlink="http://www.w3.org/1999/xlink"><defs /><rect fill="#1a1a1a" height="200" width="200" x="0" y="0" /><text alignment-baseline="middle" fill="#e1ed5e" style="dominant-baseline: central; font-size:9.0px; font-family:Arial;" text-anchor="middle" x="100.0" y="100.0">2026</text><line stroke="#e1ed5e" stroke-width="0.3" x1="100.0" x2="100.0" y1="15.0" y2="10.0" /><path d="M 100.0 14.0 a86.0,86.0 0 0,1 42.46469731375804,11.215312516191453" fill="none" id="id133" stroke="none" /><text fill="#e1ed5e" style="font-size:6.75px; font-family:Arial;" text-anchor="middle"><textPath startOffset="22.20632615414155" xlink:href="#id133">January</textPath></text><path d="M 100.36148047927253 79.00311137660856 l 0.8720495183648719 -50.65370790710054 a71.66121391262097,71.66121391262097 0 0,0 1.2331644760773424,0.03184900022749145 l -1.743840629637082 50.63119211473069" fill="#3aff93" stroke="none" /><path d="M 101.44485096284872 79.0497635885617 l 3.3308152698234137 -48.29658500420407 a69.41130501680365,69.41130501680365 0 0,0 1.191262633200904,0.09246490757150473 l -4.161668092386659 48.232094834444105" fill="#37ff74" stroke="none" /><path d="M 102.16513564639614 79.11191278185805 l 4.356343744557183 -42.02770770504833 a63.25288091671053,63.25288091671053 0 0,0 1.082025758296034,0.12157820135431663 l -5.079136206362942 41.94649355022341" fill="#40ff2d" stroke="none" /><path d="M 103.2404852339499 79.25152402106235 l 7.760238513976852 -49.68796670053416 a71.2903105640361,71.2903105640361 0 0,0 1.2108176982609948,0.19979529489944184 l -8.614385418376722 49.5470251426951" fill="#3aff8e" stroke="none" /><path d="M 109.08828744355905 81.06846463323043 l 22.860445002480645 -47.6198982208986 a73.8228610762441,73.8228610762441 0 0,0 1.1408399795589717,0.5598052233559541 l -23.676756249050047 47.21933783740781" fill="#3dffb0" stroke="none" /><path d="M 110.36928655335952 81.73862282372117 l 31.107859660078564 -54.7841315288365 a84.0,84.0 0 0,0 1.2512130701386868,0.7247833704398019 l -32.04626946268258 54.24054400100664" fill="#4dd2ff" stroke="none" /><line stroke="#e1ed5e" stroke-width="0.3" x1="143.23703022742887" x2="145.7803849466894" y1="26.81831364943548" y2="22.513508569990506" /><path d="M 143.74570117128098 25.957352633546492 a86.0,86.0 0 0,1 28.547481713284135,27.462654790039103" fill="none" id="id134" stroke="none" /><text fill="#e1ed5e" style="font-size:6.75px; font-family:Arial;" text-anchor="middle"><textPath startOffset="19.985693538727396" xlink:href="#id134">February</textPath></text><path d="M 114.16331599549186 84.49514656593476 l 19.743881568319782 -21.614005507875373 a50.27432481677937,50.27432481677937 0 0,0 0.6339164218581076,0.5891562274096805 l -20.113005873972735 21.27094469439105" fill="#efff19" stroke="none" /><path d="M 114.94478906791727 85.2469230424477 l 34.84870415799899 -34.40166415045839 a69.96842531481556,69.96842531481556 0 0,0 0.8387406221028152,0.8643959384590915 l -35.43570904380491 33.79670401644918" fill="#37ff7c" stroke="none" /><path d="M 115.68641384162765 86.03803664274999 l 29.732858434395833 -26.464243781819157 a60.80451066931206,60.80451066931206 0 0,0 0.6891413462125623,0.7878076888481761 l -30.183991644186246 25.948520536768033" fill="#5fff29" stroke="none" /><line stroke="#e1ed5e" stroke-width="0.3" x1="172.23445277983987" x2="176.4835382374775" y1="55.19839476539836" y2="52.563006222186495" /><path d="M 173.08426987136738 54.67131705675599 a86.0,86.0 0 0,1 12.851231095245387,41.99856678651699" fill="none" id="id135" stroke="none" /><text fill="#e1ed5e" style="font-size:6.75px; font-family:Arial;" text-anchor="middle"><textPath startOffset="22.20632615414155" xlink:href="#id135">March</textPath></text><path d="M 118.56541770881063 90.18545643968196 l 13.932520217641672 -7.365378400086436 a36.7595659391829,36.7595659391829 0 0,0 0.2909091952486136,0.5619439706832018 l -14.057238846050401 7.124461707142889" fill="#ff3505" stroke="none" /><path d="M 120.28053869075195 94.5502522615342 l 16.740621041317056 -4.498507808475176 a38.33450216625501,38.33450216625501 0 0,0 0.1657577815534182,0.6387323491799031 l -16.815575154740777 4.209679033746422" fill="#ff5107" stroke="none" /><path d="M 120.98425023603335 99.18683210126433 l 18.700002824017638 -0.7246502415724108 a39.71403814228449,39.71403814228449 0 0,0 0.020591361033017126,0.6833270260528389 l -18.709705879506302 0.40265306809457274" fill="#ff6809" stroke="none" /><line stroke="#e1ed5e" stroke-width="0.3" x1="184.98032266829074" x2="189.97916517819016" y1="98.17113171792111" y2="98.06355123074" /><path d="M 185.9800911702706 98.14961562048488 a86.0,86.0 0 0,1 -9.607161424134198,41.387399972396054" fill="none" id="id136" stroke="none" /><text fill="#e1ed5e" style="font-size:6.75px; font-family:Arial;" text-anchor="middle"><textPath startOffset="21.466115282336823" xlink:href="#id136">April</textPath></text><path d="M 120.99824983174949 100.27111621757518 l 12.753522592875349 0.16466547611563262 a33.75458557719561,33.75458557719561 0 0,0 -0.012501954795856139,0.5809167138753618 l -12.748798575394485 -0.3841720057811093" fill="#ff0000" stroke="none" /><path d="M 120.9764740272857 100.99374915477107 l 25.549900842175074 1.2104127859319451 a46.57855609993117,46.57855609993117 0 0,0 -0.04483440900807335,0.8005484908915408 l -25.525280082279473 -1.6500329931589093" fill="#ffd714" stroke="none" /><path d="M 120.92983693683757 101.71520430193887 l 16.106576057284695 1.3199371130473092 a37.160570109729925,37.160570109729925 0 0,0 -0.05773231440018979,0.6370712786499267 l -16.081469146607432 -1.5969897802458064" fill="#ff3c05" stroke="none" /><path d="M 120.49622156327973 104.57218783832717 l 17.462910237459294 3.895532918738319 a38.892132647690005,38.892132647690005 0 0,0 -0.15138194820838338,0.6521494708480379 l -17.39326772332036 -4.195551046934922" fill="#ff5a08" stroke="none" /><path d="M 120.32669344350535 105.2749913415812 l 19.635008090226737 5.095491696949679 a41.28540308539499,41.28540308539499 0 0,0 -0.18443157535457283,0.6863385021244565 l -19.544388438530387 -5.432721132249684" fill="#ff820c" stroke="none" /><path d="M 119.67450827220406 107.3425965602758 l 14.807861674038511 5.526346716702694 a36.8054824472608,36.8054824472608 0 0,0 -0.22662663917864762,0.591650642168173 l -14.710540755266356 -5.780420925704011" fill="#ff3605" stroke="none" /><path d="M 119.26925614724726 108.34839909993367 l 17.43431924774141 7.553413271564881 a40.000251042636755,40.000251042636755 0 0,0 -0.2791615906326482,0.6294356903690199 l -17.30171657237749 -7.852397298426588" fill="#ff6d0a" stroke="none" /><path d="M 118.64920377521936 109.65438752849418 l 27.628338167701575 14.302738425417871 a52.11098513989553,52.11098513989553 0 0,0 -0.4192390587292962,0.7930423047514377 l -27.378046600747385 -14.776195745255443" fill="#d4ff1c" stroke="none" /><line stroke="#e1ed5e" stroke-width="0.3" x1="174.80103733775053" x2="179.2010983576182" y1="140.37084112569926" y2="142.7455964860345" /><path d="M 175.68104954172406 140.8457921977663 a86.0,86.0 0 0,1 -30.038265399797805,32.042727171017184" fill="none" id="id137" stroke="none" /><text fill="#e1ed5e" style="font-size:6.75px; font-family:Arial;" text-anchor="middle"><textPath startOffset="22.206326154141568" xlink:href="#id137">May</textPath></text><path d="M 117.94076556474637 110.91462005526583 l 23.471115333722924 14.279117867985535 a48.473377333279345,48.473377333279345 0 0,0 -0.43980440079558,0.7091047308523243 l -23.221846293259382 -14.681018930203134" fill="#fff417" stroke="none" /><path d="M 117.55443506779139 111.5257021239791 l 20.317284365621283 13.339703992866282 a45.30513827590396,45.30513827590396 0 0,0 -0.4336281953521226,0.6482153166052721 l -20.08465306485844 -13.68745622367736" fill="#ffc312" stroke="none" /><path d="M 117.14729908036423 112.12312394758627 l 27.322923077691936 19.317280320871888 a54.46191035348423,54.46191035348423 0 0,0 -0.547783619642107,0.7608235371735894 l -26.986359665674225 -19.784737463496608" fill="#b3ff20" stroke="none" /><path d="M 116.498646956653 112.99209946851258 l 19.385526049598713 15.265414391103583 a45.67451107421954,45.67451107421954 0 0,0 -0.4917232775968214,0.6135003947123477 l -19.119884859947035 -15.596842619394181" fill="#ffc912" stroke="none" /><path d="M 115.80600337817218 113.82643327865902 l 24.25869840254239 21.220498747524115 a53.230327570150216,53.230327570150216 0 0,0 -0.6092113410383655,0.6844553998616885 l -23.889828211855686 -21.63492831712667" fill="#c4ff1e" stroke="none" /><path d="M 115.32070863581623 114.36230785411682 l 18.94539586742632 17.760249498511065 a46.96833623517026,46.96833623517026 0 0,0 -0.5580139134907129,0.5850753573847858 l -18.636875402556644 -18.083731972478358" fill="#ffdd14" stroke="none" /><line stroke="#e1ed5e" stroke-width="0.3" x1="143.8653032363475" x2="146.44561519142675" y1="172.8068346515853" y2="177.08958963109032" /><path d="M 144.38136562736335 173.6633856474863 a86.0,86.0 0 0,1 -40.68145358897372,12.25698825130547" fill="none" id="id138" stroke="none" /><text fill="#e1ed5e" style="font-size:6.75px; font-family:Arial;" text-anchor="middle"><textPath startOffset="21.466115282336833" xlink:href="#id138">June</textPath></text><path d="M 110.8373102113329 117.98757091392108 l 11.892386887533613 19.738768043346987 a44.044475037453935,44.044475037453935 0 0,0 -0.652764558825908,0.3856648072599686 l -11.550854457679323 -19.940551422900704" fill="#ffaf10" stroke="none" /><path d="M 110.21172684928248 118.3499491758327 l 12.890418642633572 23.16342088254665 a47.508620480220266,47.508620480220266 0 0,0 -0.7180072561910398,0.39151480457615895 l -12.489788574573883 -23.381876338882577" fill="#ffe515" stroke="none" /><path d="M 109.57404056367764 118.69057910512821 l 14.138117543570019 27.600635550701206 a52.01098918897031,52.01098918897031 0 0,0 -0.8003403768557118,0.40130727974913366 l -13.660923259031547 -27.839910671359643" fill="#d6ff1c" stroke="none" /><path d="M 108.2653958097858 119.30500536409082 l 10.927310422567691 25.522284858155103 a48.76316151759323,48.76316151759323 0 0,0 -0.7744717186310686,0.32372924119930285 l -10.486367244439162 -25.70659914237438" fill="#fff817" stroke="none" /><path d="M 107.59598834532513 119.57807347666477 l 9.773995061468195 25.19171762444199 a48.021354820423525,48.021354820423525 0 0,0 -0.7732119097248724,0.2923625831448345 l -9.338912930983048 -25.356228457693454" fill="#ffed16" stroke="none" /><path d="M 106.57524785965236 119.94407469862006 l 11.669953412646967 35.397361066713096 a58.271449973681015,58.271449973681015 0 0,0 -0.9553150674542599,0.30586171674334167 l -11.058917000101767 -35.59299563011614" fill="#7fff26" stroke="none" /><path d="M 105.88484417918355 120.15858648285463 l 6.820910173980677 23.36508893818305 a45.34034093209701,45.34034093209701 0 0,0 -0.7510710208470246,0.21226017273701872 l -6.417707985029047 -23.479037904258586" fill="#ffc412" stroke="none" /><path d="M 105.18746579009965 120.34920634021253 l 5.504086672473878 21.591235478862416 a43.28175081993764,43.28175081993764 0 0,0 -0.7235198312334257,0.17782357136713917 l -5.131613556497242 -21.682780308543585" fill="#ffa30f" stroke="none" /><path d="M 104.48393922423573 120.51570834832081 l 8.88690355702678 40.66092611384408 a62.62076365550472,62.62076365550472 0 0,0 -1.0550362320538307,0.22109310035202148 l -8.185675863543572 -40.80787519492264" fill="#48ff2c" stroke="none" /><path d="M 101.26447882468166 120.96189622390904 l 1.171039384464469 19.412904013979322 a40.44819208810787,40.44819208810787 0 0,0 -0.6953466645195444,0.03594148002303187 l -0.836704651531445 -19.430185300764556" fill="#ff740a" stroke="none" /><line stroke="#e1ed5e" stroke-width="0.3" x1="102.19456741930631" x2="102.32365962044197" y1="184.97166512339345" y2="189.96999836594603" /><path d="M 102.22038585953345 185.97133177190398 a86.0,86.0 0 0,1 -42.740103519485714,-10.115201625700543" fill="none" id="id139" stroke="none" /><text fill="#e1ed5e" style="font-size:6.75px; font-family:Arial;" text-anchor="middle"><textPath startOffset="22.20632615414155" xlink:href="#id139">July</textPath></text><line stroke="#e1ed5e" stroke-width="0.3" x1="58.666819895761336" x2="56.23545636021788" y1="174.27360380694188" y2="178.64263932499728" /><path d="M 58.180547188652646 175.14741091055294 a86.0,86.0 0 0,1 -31.652253787137756,-30.449443065178592" fill="none" id="id140" stroke="none" /><text fill="#e1ed5e" style="font-size:6.75px; font-family:Arial;" text-anchor="middle"><textPath startOffset="22.20632615414155" xlink:href="#id140">August</textPath></text><line stroke="#e1ed5e" stroke-width="0.3" x1="26.63291911575756" x2="22.317208475507996" y1="142.92168965132927" y2="145.44649492493687" /><path d="M 25.769776987707644 143.4266507060508 a86.0,86.0 0 0,1 -11.730757126820373,-40.83630448921669" fill="none" id="id141" stroke="none" /><text fill="#e1ed5e" style="font-size:6.75px; font-family:Arial;" text-anchor="middle"><textPath startOffset="21.46611528233685" xlink:href="#id141">September</textPath></text><line stroke="#e1ed5e" stroke-width="0.3" x1="15.007084014347285" x2="10.007500721073583" y1="101.09737516637583" y2="101.16192664675087" /><path d="M 14.007167355692545 101.11028546245083 a86.0,86.0 0 0,1 10.666146001902534,-42.60595125391555" fill="none" id="id142" stroke="none" /><text fill="#e1ed5e" style="font-size:6.75px; font-family:Arial;" text-anchor="middle"><textPath startOffset="22.20632615414155" xlink:href="#id142">October</textPath></text><line stroke="#e1ed5e" stroke-width="0.3" x1="26.266209847984243" x2="21.928928074336255" y1="57.711370442889674" y2="55.22380399835377" /><path d="M 25.398753493254645 57.213857153982495 a86.0,86.0 0 0,1 29.58750427330803,-30.492523968695096" fill="none" id="id143" stroke="none" /><text fill="#e1ed5e" style="font-size:6.75px; font-family:Arial;" text-anchor="middle"><textPath startOffset="21.46611528233685" xlink:href="#id143">November</textPath></text><line stroke="#e1ed5e" stroke-width="0.3" x1="56.762969772571076" x2="54.21961505331055" y1="26.818313649435495" y2="22.513508569990535" /><path d="M 56.25429882871897 25.957352633546506 a86.0,86.0 0 0,1 42.265352541879196,-11.944610805530505" fill="none" id="id144" stroke="none" /><text fill="#e1ed5e" style="font-size:6.75px; font-family:Arial;" text-anchor="middle"><textPath startOffset="22.20632615414155" xlink:href="#id144">December</textPath></text></svg>