<?xml version="1.0" encoding="utf-8" ?>
<svg baseProfile="full" height="200mm" version="1.1" viewBox="0,0,200,200" width="200mm" xmlns="http://www.w3.org/2000/svg" xmlns:ev="http://www.w3.org/2001/xml-events" xmlns:xlink="http://www.w3.org/1999/xlink"><defs /><rect fill="#1a1a1a" height="200" width="200" x="0" y="0" /><text alignment-baseline="middle" fill="#e1ed5e" style="dominant-baseline: central; font-size:9.0px; font-family:Arial;" text-anchor="middle" x="100.0" y="100.0">2025</text><line stroke="#e1ed5e" stroke-width="0.3" x1="100.0" x2="100.0" y1="15.0" y2="10.0" /><path d="M 100.0 14.0 a86.0,86.0 0 0,1 42.46469731375804,11.215312516191453" fill="none" id="id121" stroke="none" /><text fill="#e1ed5e" style="font-size:6.75px; font-family:Arial;" text-anchor="middle"><textPath startOffset="22.20632615414155" xlink:href="#id121">January</textPath></text><path d="M 100.0 79.0 l 0.0 -54.86107521323339 a75.86107521323339,75.86107521323339 0 0,0 1.305823706009949,0.011239636900884732 l -0.9443432267374207 54.85294695294107" fill="#39ff89" stroke="none" /><path d="M 101.80526077348638 79.07773832637324 l 2.727954797670741 -31.615922169774844 a52.7333936417679,52.7333936417679 0 0,0 0.9036868254729212,0.08581595302734196 l -3.2717667502339065 31.564280672232325" fill="#ff0000" stroke="none" /><path d="M 103.2404852339499 79.25152402106235 l 6.865490181238244 -43.958990035396695 a65.49188420780564,65.49188420780564 0 0,0 1.112335349136138,0.18354486346451146 l -7.621154736513257 43.83429890899256" fill="#b6ff1f" stroke="none" /><path d="M 104.307194497241 79.44645832069477 l 6.9340376442272715 -33.08859904464216 a54.80734039803567,54.80734039803567 0 0,0 0.9216957633981226,0.2014469944758691 l -7.502576131778922 32.964338552070416" fill="#ff3b05" stroke="none" /><path d="M 105.36241919743992 79.69619591428918 l 11.871057230827857 -44.94755285451363 a67.4887567846989,67.4887567846989 0 0,0 1.120641521166291,0.306313660213457 l -12.642996641217858 44.736552653473886" fill="#8aff24" stroke="none" /><path d="M 106.0581310904928 79.89281104454417 l 10.45837921416889 -34.711795417751496 a57.25308865339881,57.25308865339881 0 0,0 0.9411716028877751,0.2924265984058404 l -11.054336189767383 34.52662868446314" fill="#ff7e0b" stroke="none" /><path d="M 106.74666289553966 80.11325718540242 l 15.314872459645013 -45.14275198849437 a68.66983716722667,68.66983716722667 0 0,0 1.1161072001532921,0.38938788679413283 l -16.08966166386158 44.87244324852803" fill="#71ff27" stroke="none" /><path d="M 107.76421540070413 80.48803036053334 l 16.04216539499324 -40.314987153759745 a64.38950633238562,64.38950633238562 0 0,0 1.0262955427947684,0.4186517206524163 l -16.733744807376397 40.03287454692375" fill="#cfff1d" stroke="none" /><path d="M 108.76106565485865 80.91482961587045 l 19.641634399132585 -42.78748201394154 a68.08038252778496,68.08038252778496 0 0,0 1.0608278355309235,0.4980728929300707 l -20.375240445963104 42.44304413837147" fill="#7dff26" stroke="none" /><path d="M 109.73455568895987 81.39251694778311 l 25.402435034085457 -48.55644104207606 a75.79974153528045,75.79974153528045 0 0,0 1.1509106219237089,0.6147765956727071 l -26.234490702537478 48.1119857199016" fill="#39ff88" stroke="none" /><path d="M 110.36928655335952 81.73862282372117 l 27.321421809836558 -48.11582610763031 a76.33166192814681,76.33166192814681 0 0,0 1.1369901555941058,0.6586180857565923 l -28.145608697895995 47.63840386448367" fill="#3aff94" stroke="none" /><line stroke="#e1ed5e" stroke-width="0.3" x1="143.23703022742887" x2="145.7803849466894" y1="26.81831364943548" y2="22.513508569990506" /><path d="M 143.74570117128098 25.957352633546492 a86.0,86.0 0 0,1 28.547481713284135,27.462654790039103" fill="none" id="id122" stroke="none" /><text fill="#e1ed5e" style="font-size:6.75px; font-family:Arial;" text-anchor="middle"><textPath startOffset="19.985693538727396" xlink:href="#id122">February</textPath></text><path d="M 111.2981086023043 82.29822771554956 l 18.68699570398704 -29.27861240110719 a55.73385887826312,55.73385887826312 0 0,0 0.8042474771618703,0.523104930745081 l -19.188210206933192 28.95260854620258" fill="#ff5507" stroke="none" /><path d="M 111.90073688211348 82.69761687909136 l 25.188713964235518 -36.62166331794284 a65.4479193590075,65.4479193590075 0 0,0 0.9227186143448791,0.6464233564105621 l -25.815363718164047 36.182655118768345" fill="#b7ff1f" stroke="none" /><path d="M 113.06298171725822 83.55741782278167 l 21.45988932408716 -27.011902899560514 a55.49883690876195,55.49883690876195 0 0,0 0.7428825923179317,0.600692725633051 l -21.921675314969583 26.638504076663335" fill="#ff4e07" stroke="none" /><path d="M 113.6212207817346 84.01681056812373 l 28.81615200271331 -33.8129763504542 a65.42620832256398,65.42620832256398 0 0,0 0.850871582091472,0.7378674513619238 l -29.393917383451548 33.3119439056726" fill="#b7ff1f" stroke="none" /><path d="M 114.16331599549186 84.49514656593476 l 25.928862030516623 -28.38482214357304 a59.44481778237271,59.44481778237271 0 0,0 0.7495485284773424,0.6966236684700278 l -26.413618442788813 27.93429388902837" fill="#ffb711" stroke="none" /><path d="M 114.68862486808459 84.99185889309783 l 29.946343783138907 -30.597755553665984 a63.813621090721114,63.813621090721114 0 0,0 0.7784173897681069,0.7750746181162108 l -30.468596973074334 30.077745084899654" fill="#dcff1b" stroke="none" /><path d="M 115.19652480421416 85.50635884689758 l 24.426773780668867 -23.296964158992996 a54.75523391057121,54.75523391057121 0 0,0 0.6446325293259163,0.6876490365815929 l -24.824173631965245 22.87304570553335" fill="#ff3a05" stroke="none" /><path d="M 115.4437574822437 85.77008943001954 l 27.97359845840367 -25.774932353172165 a59.0377358490566,59.0377358490566 0 0,0 0.6821848594002017,0.7532855603176829 l -28.41312695841991 25.289594005584934" fill="#ffad10" stroke="none" /><path d="M 115.9244219780498 86.31012108654704 l 25.378647174116086 -21.817470504096917 a54.467562677694495,54.467562677694495 0 0,0 0.6050811562824447,0.716225236617192 l -25.750438943885648 21.377386317850622" fill="#ff3204" stroke="none" /><path d="M 116.60985879189232 87.15038557335679 l 31.459561960968447 -24.33754833766902 a60.77461876453864,60.77461876453864 0 0,0 0.6329938736910315,0.8329457390695443 l -31.87383177488359 23.79241782271844" fill="#ffd914" stroke="none" /><path d="M 117.04232023915458 87.72973835380427 l 29.94453275207981 -21.55969648410526 a57.89844921168261,57.89844921168261 0 0,0 0.5753655087335231,0.8138137085321089 l -30.311210880617214 21.04105627524136" fill="#ff8f0d" stroke="none" /><path d="M 117.45458315368197 88.32363383020206 l 28.05274979742186 -18.766084289748648 a54.7508917032825,54.7508917032825 0 0,0 0.517274339575482,0.7878443073260292 l -28.371620772355268 18.280421918444947" fill="#ff3905" stroke="none" /><line stroke="#e1ed5e" stroke-width="0.3" x1="172.23445277983987" x2="176.4835382374775" y1="55.19839476539836" y2="52.563006222186495" /><path d="M 173.08426987136738 54.67131705675599 a86.0,86.0 0 0,1 12.851231095245387,41.99856678651699" fill="none" id="id123" stroke="none" /><text fill="#e1ed5e" style="font-size:6.75px; font-family:Arial;" text-anchor="middle"><textPath startOffset="22.20632615414155" xlink:href="#id123">March</textPath></text><path d="M 117.84615892207809 88.93136811851018 l 46.12602461121242 -28.608508352261097 a75.27759110881365,75.27759110881365 0 0,0 0.6734985767816905,1.107054575701987 l -46.61163898628033 27.81028600335203" fill="#38ff7c" stroke="none" /><path d="M 118.3937258080291 89.86733742301442 l 29.918210359914173 -16.481224828955288 a55.15743086068752,55.15743086068752 0 0,0 0.4509563879379785,0.8355536984433242 l -30.197474847070616 15.963790147179505" fill="#ff4506" stroke="none" /><path d="M 118.73160827565052 90.50648371742162 l 32.910791826153925 -16.679781761200086 a57.89627810803825,57.89627810803825 0 0,0 0.44287892215814983,0.8928168822326833 l -33.19303076126548 16.110805290468452" fill="#ff8f0d" stroke="none" /><path d="M 119.04729006885535 91.15688171328212 l 49.284678438694996 -22.881482855604215 a75.33729645903334,75.33729645903334 0 0,0 0.5359627398678584,1.1809228527454558 l -49.671243495526205 22.029737994016696" fill="#38ff7e" stroke="none" /><path d="M 119.34039704204932 91.81776055985345 l 31.80742992467301 -13.456601074606484 a55.536831222538126,55.536831222538126 0 0,0 0.36489896608437017,0.8836317898996647 l -32.03435057764358 12.907094714253516" fill="#ff4f07" stroke="none" /><path d="M 119.7369772167798 92.82701384747503 l 35.78672591655562 -13.005927231117383 a59.07681571465495,59.07681571465495 0 0,0 0.33912038714134685,0.958739000891042 l -36.00529938450677 12.387990603799725" fill="#ffae10" stroke="none" /><path d="M 119.97218684219823 93.5106431181261 l 59.91656052659467 -19.46807064562169 a84.0,84.0 0 0,0 0.4349780649271753,1.3789993342943234 l -60.24279407529006 18.433821144900946" fill="#4dd2ff" stroke="none" /><path d="M 120.18372546131832 94.20196356495316 l 35.06720148642587 -10.073507603097672 a57.48539674334453,57.48539674334453 0 0,0 0.2650165192379551,0.9534054240087568 l -35.23540477623019 9.468390875669963" fill="#ff840c" stroke="none" /><path d="M 120.37134235888165 94.90015583598534 l 38.92300626875076 -9.744142672024264 a61.12416645127939,61.12416645127939 0 0,0 0.2467297345936438,1.0228540377851547 l -39.08496880360522 9.072703402579704" fill="#ffe115" stroke="none" /><path d="M 120.53481517161879 95.60439243477599 l 51.84390658991274 -11.09751736808173 a74.01835099508918,74.01835099508918 0 0,0 0.25596498878448887,1.2481761894286776 l -52.02725087461223 10.20346552248964" fill="#34ff60" stroke="none" /><line stroke="#e1ed5e" stroke-width="0.3" x1="184.98032266829074" x2="189.97916517819016" y1="98.17113171792111" y2="98.06355123074" /><path d="M 185.9800911702706 98.14961562048488 a86.0,86.0 0 0,1 -9.607161424134198,41.387399972396054" fill="none" id="id124" stroke="none" /><text fill="#e1ed5e" style="font-size:6.75px; font-family:Arial;" text-anchor="middle"><textPath startOffset="21.466115282336823" xlink:href="#id124">April</textPath></text><line stroke="#e1ed5e" stroke-width="0.3" x1="174.80103733775053" x2="179.2010983576182" y1="140.37084112569926" y2="142.7455964860345" /><path d="M 175.68104954172406 140.8457921977663 a86.0,86.0 0 0,1 -30.038265399797805,32.042727171017184" fill="none" id="id125" stroke="none" /><text fill="#e1ed5e" style="font-size:6.75px; font-family:Arial;" text-anchor="middle"><textPath startOffset="22.206326154141568" xlink:href="#id125">May</textPath></text><line stroke="#e1ed5e" stroke-width="0.3" x1="143.8653032363475" x2="146.44561519142675" y1="172.8068346515853" y2="177.08958963109032" /><path d="M 144.38136562736335 173.6633856474863 a86.0,86.0 0 0,1 -40.68145358897372,12.25698825130547" fill="none" id="id126" stroke="none" /><text fill="#e1ed5e" style="font-size:6.75px; font-family:Arial;" text-anchor="middle"><textPath startOffset="21.466115282336833" xlink:href="#id126">June</textPath></text><line stroke="#e1ed5e" stroke-width="0.3" x1="102.19456741930631" x2="102.32365962044197" y1="184.97166512339345" y2="189.96999836594603" /><path d="M 102.22038585953345 185.97133177190398 a86.0,86.0 0 0,1 -42.740103519485714,-10.115201625700543" fill="none" id="id127" stroke="none" /><text fill="#e1ed5e" style="font-size:6.75px; font-family:Arial;" text-anchor="middle"><textPath startOffset="22.20632615414155" xlink:href="#id127">July</textPath></text><line stroke="#e1ed5e" stroke-width="0.3" x1="58.666819895761336" x2="56.23545636021788" y1="174.27360380694188" y2="178.64263932499728" /><path d="M 58.180547188652646 175.14741091055294 a86.0,86.0 0 0,1 -31.652253787137756,-30.449443065178592" fill="none" id="id128" stroke="none" /><text fill="#e1ed5e" style="font-size:6.75px; font-family:Arial;" text-anchor="middle"><textPath startOffset="22.20632615414155" xlink:href="#id128">August</textPath></text><line stroke="#e1ed5e" stroke-width="0.3" x1="26.63291911575756" x2="22.317208475507996" y1="142.92168965132927" y2="145.44649492493687" /><path d="M 25.769776987707644 143.4266507060508 a86.0,86.0 0 0,1 -11.730757126820373,-40.83630448921669" fill="none" id="id129" stroke="none" /><text fill="#e1ed5e" style="font-size:6.75px; font-family:Arial;" text-anchor="middle"><textPath startOffset="21.46611528233685" xlink:href="#id129">September</textPath></text><line stroke="#e1ed5e" stroke-width="0.3" x1="15.007084014347285" x2="10.007500721073583" y1="101.09737516637583" y2="101.16192664675087" /><path d="M 14.007167355692545 101.11028546245083 a86.0,86.0 0 0,1 10.666146001902534,-42.60595125391555" fill="none" id="id130" stroke="none" /><text fill="#e1ed5e" style="font-size:6.75px; font-family:Arial;" text-anchor="middle"><textPath startOffset="22.20632615414155" xlink:href="#id130">October</textPath></text><line stroke="#e1ed5e" stroke-width="0.3" x1="26.266209847984243" x2="21.928928074336255" y1="57.711370442889674" y2="55.22380399835377" /><path d="M 25.398753493254645 57.213857153982495 a86.0,86.0 0 0,1 29.58750427330803,-30.492523968695096" fill="none" id="id131" stroke="none" /><text fill="#e1ed5e" style="font-size:6.75px; font-family:Arial;" text-anchor="middle"><textPath startOffset="21.46611528233685" xlink:href="#id131">November</textPath></text><line stroke="#e1ed5e" stroke-width="0.3" x1="56.762969772571076" x2="54.21961505331055" y1="26.818313649435495" y2="22.513508569990535" /><path d="M 56.25429882871897 25.957352633546506 a86.0,86.0 0 0,1 42.265352541879196,-11.944610805530505" fill="none" id="id132" stroke="none" /><text fill="#e1ed5e" style="font-size:6.75px; font-family:Arial;" text-anchor="middle"><textPath startOffset="22.20632615414155" xlink:href="#id132">December</textPath></text></svg>