<?xml version="1.0" encoding="utf-8" ?>
<svg baseProfile="full" height="200mm" version="1.1" viewBox="0,0,200,200" width="200mm" xmlns="http://www.w3.org/2000/svg" xmlns:ev="http://www.w3.org/2001/xml-events" xmlns:xlink="http://www.w3.org/1999/xlink"><defs /><rect fill="#1a1a1a" height="200" width="200" x="0" y="0" /><text alignment-baseline="middle" fill="#e1ed5e" style="dominant-baseline: central; font-size:9.0px; font-family:Arial;" text-anchor="middle" x="100.0" y="100.0">2025</text><line stroke="#e1ed5e" stroke-width="0.3" x1="100.0" x2="100.0" y1="15.0" y2="10.0" /><path d="M 100.0 14.0 a86.0,86.0 0 0,1 42.46469731375804,11.215312516191453" fill="none" id="id121" stroke="none" /><text fill="#e1ed5e" style="font-size:6.75px; font-family:Arial;" text-anchor="middle"><textPath startOffset="22.20632615414155" xlink:href="#id121">January</textPath></text><path d="M 100.0 79.0 l 0.0 -62.46419532675442 a83.46419532675442,83.46419532675442 0 0,0 1.4366989204195768,0.0123661211900882 l -1.0752184411470485 62.45494058217289" fill="#4bddff" stroke="none" /><path d="M 101.80526077348638 79.07773832637324 l 3.106018259065379 -35.997528852148925 a57.13128053206725,57.13128053206725 0 0,0 0.9790529676499671,0.092972876349238 l -3.7251963538055906 35.93873043128451" fill="#ff0000" stroke="none" /><path d="M 103.2404852339499 79.25152402106235 l 7.816968916995181 -50.05120532664155 a71.65795256126032,71.65795256126032 0 0,0 1.217061848880359,0.200825633253584 l -8.677359972014415 49.909233430448346" fill="#5dff2a" stroke="none" /><path d="M 104.307194497241 79.44645832069477 l 7.895016277544676 -37.67430196691859 a59.49265268486002,59.49265268486002 0 0,0 1.0004887216697842,0.21866808332103144 l -8.542347723367989 37.53282038550169" fill="#ff4e07" stroke="none" /><path d="M 105.36241919743992 79.69619591428918 l 13.516250542290608 -51.1767716919758 a73.93156893135313,73.93156893135313 0 0,0 1.2276235304459788,0.3355558846184088 l -14.3951719619603 50.9365292665311" fill="#30ff37" stroke="none" /><path d="M 106.0581310904928 79.89281104454417 l 11.907791444042523 -39.5224548678505 a62.27735378940966,62.27735378940966 0 0,0 1.0237644512844664,0.31808859844407744 l -12.586341268037708 39.311626134523905" fill="#ffa40f" stroke="none" /><path d="M 106.74666289553966 80.11325718540242 l 17.437339334042854 -51.39902320245376 a75.27633360145965,75.27633360145965 0 0,0 1.2234841583959364,0.4268495991231479 l -18.319505496502064 51.09125275015841" fill="#34ff5c" stroke="none" /><path d="M 107.76421540070413 80.48803036053334 l 18.26542678578864 -45.90218515368439 a70.40279766926291,70.40279766926291 0 0,0 1.1221405717146369,0.457749314474187 l -19.052851227091665 45.580974953026626" fill="#7bff26" stroke="none" /><path d="M 108.76106565485865 80.91482961587045 l 22.36374119310312 -48.717339637815556 a74.60518726334581,74.60518726334581 0 0,0 1.1624972772685938,0.5458080590642841 l -23.19901668167131 48.325166596111266" fill="#32ff4a" stroke="none" /><path d="M 109.73455568895987 81.39251694778311 l 28.922923175985353 -55.28581067424386 a83.3943614996763,83.3943614996763 0 0,0 1.2662240597990706,0.6763730406284739 l -29.870292282312732 54.77975890711363" fill="#4bdfff" stroke="none" /><path d="M 110.36928655335952 81.73862282372117 l 31.107859660078564 -54.7841315288365 a84.0,84.0 0 0,0 1.2512130701386868,0.7247833704398019 l -32.04626946268258 54.24054400100664" fill="#4dd2ff" stroke="none" /><line stroke="#e1ed5e" stroke-width="0.3" x1="143.23703022742887" x2="145.7803849466894" y1="26.81831364943548" y2="22.513508569990506" /><path d="M 143.74570117128098 25.957352633546492 a86.0,86.0 0 0,1 28.547481713284135,27.462654790039103" fill="none" id="id122" stroke="none" /><text fill="#e1ed5e" style="font-size:6.75px; font-family:Arial;" text-anchor="middle"><textPath startOffset="19.985693538727396" xlink:href="#id122">February</textPath></text><path d="M 111.2981086023043 82.29822771554956 l 21.27680044890012 -33.33629457335064 a60.547576072668775,60.547576072668775 0 0,0 0.8737100980406368,0.568285351593135 l -21.847477572725037 32.96511029759798" fill="#ff6f0a" stroke="none" /><path d="M 111.90073688211348 82.69761687909136 l 28.67958280030621 -41.69700870410257 a71.60789468521315,71.60789468521315 0 0,0 1.0095651322030952,0.7072648921655728 l -29.39307907209296 41.19715896917307" fill="#5eff29" stroke="none" /><path d="M 113.06298171725822 83.55741782278167 l 24.433985539294863 -30.755444954503435 a60.279982735280846,60.279982735280846 0 0,0 0.8068808705465997,0.652441549178708 l -24.959769808405955 30.330297308060597" fill="#ff6709" stroke="none" /><path d="M 113.6212207817346 84.01681056812373 l 32.80974243152904 -38.499069716085785 a71.58317474642443,71.58317474642443 0 0,0 0.9309432826571836,0.8073048410528691 l -33.467579512832984 37.928599881613245" fill="#5fff29" stroke="none" /><path d="M 114.16331599549186 84.49514656593476 l 29.522306957702067 -32.31863516710013 a64.77283161013125,64.77283161013125 0 0,0 0.8167302454593663,0.7590617526768029 l -30.074245086956278 31.805668828348693" fill="#ffee16" stroke="none" /><path d="M 114.68862486808459 84.99185889309783 l 34.09656591894344 -34.838255940770345 a69.74710129289203,69.74710129289203 0 0,0 0.8507957330163043,0.8471421457567386 l -34.69119745212707 34.24617794436349" fill="#8cff24" stroke="none" /><path d="M 115.19652480421416 85.50635884689758 l 27.812046386398492 -26.52565802058344 a59.43332483176708,59.43332483176708 0 0,0 0.6997076220170076,0.7463993054646627 l -28.264521330385964 26.042989298240723" fill="#ff4c07" stroke="none" /><path d="M 115.4437574822437 85.77008943001954 l 31.85042056332929 -29.347044380458435 a64.3093327578427,64.3093327578427 0 0,0 0.7430985029252395,0.8205479269056684 l -32.350862706870565 28.794443666283215" fill="#ffe015" stroke="none" /><path d="M 115.9244219780498 86.31012108654704 l 28.895838589586763 -24.84112339772154 a59.1057856428165,59.1057856428165 0 0,0 0.6566072605702198,0.7772158919240105 l -29.3191564636441 24.340048556168423" fill="#ff4106" stroke="none" /><line stroke="#e1ed5e" stroke-width="0.3" x1="172.23445277983987" x2="176.4835382374775" y1="55.19839476539836" y2="52.563006222186495" /><path d="M 173.08426987136738 54.67131705675599 a86.0,86.0 0 0,1 12.851231095245387,41.99856678651699" fill="none" id="id123" stroke="none" /><text fill="#e1ed5e" style="font-size:6.75px; font-family:Arial;" text-anchor="middle"><textPath startOffset="22.20632615414155" xlink:href="#id123">March</textPath></text><line stroke="#e1ed5e" stroke-width="0.3" x1="184.98032266829074" x2="189.97916517819016" y1="98.17113171792111" y2="98.06355123074" /><path d="M 185.9800911702706 98.14961562048488 a86.0,86.0 0 0,1 -9.607161424134198,41.387399972396054" fill="none" id="id124" stroke="none" /><text fill="#e1ed5e" style="font-size:6.75px; font-family:Arial;" text-anchor="middle"><textPath startOffset="21.466115282336823" xlink:href="#id124">April</textPath></text><line stroke="#e1ed5e" stroke-width="0.3" x1="174.80103733775053" x2="179.2010983576182" y1="140.37084112569926" y2="142.7455964860345" /><path d="M 175.68104954172406 140.8457921977663 a86.0,86.0 0 0,1 -30.038265399797805,32.042727171017184" fill="none" id="id125" stroke="none" /><text fill="#e1ed5e" style="font-size:6.75px; font-family:Arial;" text-anchor="middle"><textPath startOffset="22.206326154141568" xlink:href="#id125">May</textPath></text><line stroke="#e1ed5e" stroke-width="0.3" x1="143.8653032363475" x2="146.44561519142675" y1="172.8068346515853" y2="177.08958963109032" /><path d="M 144.38136562736335 173.6633856474863 a86.0,86.0 0 0,1 -40.68145358897372,12.25698825130547" fill="none" id="id126" stroke="none" /><text fill="#e1ed5e" style="font-size:6.75px; font-family:Arial;" text-anchor="middle"><textPath startOffset="21.466115282336833" xlink:href="#id126">June</textPath></text><line stroke="#e1ed5e" stroke-width="0.3" x1="102.19456741930631" x2="102.32365962044197" y1="184.97166512339345" y2="189.96999836594603" /><path d="M 102.22038585953345 185.97133177190398 a86.0,86.0 0 0,1 -42.740103519485714,-10.115201625700543" fill="none" id="id127" stroke="none" /><text fill="#e1ed5e" style="font-size:6.75px; font-family:Arial;" text-anchor="middle"><textPath startOffset="22.20632615414155" xlink:href="#id127">July</textPath></text><line stroke="#e1ed5e" stroke-width="0.3" x1="58.666819895761336" x2="56.23545636021788" y1="174.27360380694188" y2="178.64263932499728" /><path d="M 58.180547188652646 175.14741091055294 a86.0,86.0 0 0,1 -31.652253787137756,-30.449443065178592" fill="none" id="id128" stroke="none" /><text fill="#e1ed5e" style="font-size:6.75px; font-family:Arial;" text-anchor="middle"><textPath startOffset="22.20632615414155" xlink:href="#id128">August</textPath></text><line stroke="#e1ed5e" stroke-width="0.3" x1="26.63291911575756" x2="22.317208475507996" y1="142.92168965132927" y2="145.44649492493687" /><path d="M 25.769776987707644 143.4266507060508 a86.0,86.0 0 0,1 -11.730757126820373,-40.83630448921669" fill="none" id="id129" stroke="none" /><text fill="#e1ed5e" style="font-size:6.75px; font-family:Arial;" text-anchor="middle"><textPath startOffset="21.46611528233685" xlink:href="#id129">September</textPath></text><line stroke="#e1ed5e" stroke-width="0.3" x1="15.007084014347285" x2="10.007500721073583" y1="101.09737516637583" y2="101.16192664675087" /><path d="M 14.007167355692545 101.11028546245083 a86.0,86.0 0 0,1 10.666146001902534,-42.60595125391555" fill="none" id="id130" stroke="none" /><text fill="#e1ed5e" style="font-size:6.75px; font-family:Arial;" text-anchor="middle"><textPath startOffset="22.20632615414155" xlink:href="#id130">October</textPath></text><line stroke="#e1ed5e" stroke-width="0.3" x1="26.266209847984243" x2="21.928928074336255" y1="57.711370442889674" y2="55.22380399835377" /><path d="M 25.398753493254645 57.213857153982495 a86.0,86.0 0 0,1 29.58750427330803,-30.492523968695096" fill="none" id="id131" stroke="none" /><text fill="#e1ed5e" style="font-size:6.75px; font-family:Arial;" text-anchor="middle"><textPath startOffset="21.46611528233685" xlink:href="#id131">November</textPath></text><line stroke="#e1ed5e" stroke-width="0.3" x1="56.762969772571076" x2="54.21961505331055" y1="26.818313649435495" y2="22.513508569990535" /><path d="M 56.25429882871897 25.957352633546506 a86.0,86.0 0 0,1 42.265352541879196,-11.944610805530505" fill="none" id="id132" stroke="none" /><text fill="#e1ed5e" style="font-size:6.75px; font-family:Arial;" text-anchor="middle"><textPath startOffset="22.20632615414155" xlink:href="#id132">December</textPath></text></svg>