<?xml version="1.0" encoding="utf-8" ?>
<svg baseProfile="full" height="200mm" version="1.1" viewBox="0,0,200,200" width="200mm" xmlns="http://www.w3.org/2000/svg" xmlns:ev="http://www.w3.org/2001/xml-events" xmlns:xlink="http://www.w3.org/1999/xlink"><defs /><rect fill="#1a1a1a" height="200" width="200" x="0" y="0" /><text alignment-baseline="middle" fill="#e1ed5e" style="dominant-baseline: central; font-size:9.0px; font-family:Arial;" text-anchor="middle" x="100.0" y="100.0">2017</text><line stroke="#e1ed5e" stroke-width="0.3" x1="100.0" x2="100.0" y1="15.0" y2="10.0" /><path d="M 100.0 14.0 a86.0,86.0 0 0,1 42.46469731375804,11.215312516191453" fill="none" id="id25" stroke="none" /><text fill="#e1ed5e" style="font-size:6.75px; font-family:Arial;" text-anchor="middle"><textPath startOffset="22.20632615414155" xlink:href="#id25">January</textPath></text><line stroke="#e1ed5e" stroke-width="0.3" x1="143.23703022742887" x2="145.7803849466894" y1="26.81831364943548" y2="22.513508569990506" /><path d="M 143.74570117128098 25.957352633546492 a86.0,86.0 0 0,1 28.547481713284135,27.462654790039103" fill="none" id="id26" stroke="none" /><text fill="#e1ed5e" style="font-size:6.75px; font-family:Arial;" text-anchor="middle"><textPath startOffset="19.985693538727396" xlink:href="#id26">February</textPath></text><line stroke="#e1ed5e" stroke-width="0.3" x1="172.23445277983987" x2="176.4835382374775" y1="55.19839476539836" y2="52.563006222186495" /><path d="M 173.08426987136738 54.67131705675599 a86.0,86.0 0 0,1 12.851231095245387,41.99856678651699" fill="none" id="id27" stroke="none" /><text fill="#e1ed5e" style="font-size:6.75px; font-family:Arial;" text-anchor="middle"><textPath startOffset="22.20632615414155" xlink:href="#id27">March</textPath></text><line stroke="#e1ed5e" stroke-width="0.3" x1="184.98032266829074" x2="189.97916517819016" y1="98.17113171792111" y2="98.06355123074" /><path d="M 185.9800911702706 98.14961562048488 a86.0,86.0 0 0,1 -9.607161424134198,41.387399972396054" fill="none" id="id28" stroke="none" /><text fill="#e1ed5e" style="font-size:6.75px; font-family:Arial;" text-anchor="middle"><textPath startOffset="21.466115282336823" xlink:href="#id28">April</textPath></text><line stroke="#e1ed5e" stroke-width="0.3" x1="174.80103733775053" x2="179.2010983576182" y1="140.37084112569926" y2="142.7455964860345" /><path d="M 175.68104954172406 140.8457921977663 a86.0,86.0 0 0,1 -30.038265399797805,32.042727171017184" fill="none" id="id29" stroke="none" /><text fill="#e1ed5e" style="font-size:6.75px; font-family:Arial;" text-anchor="middle"><textPath startOffset="22.206326154141568" xlink:href="#id29">May</textPath></text><line stroke="#e1ed5e" stroke-width="0.3" x1="143.8653032363475" x2="146.44561519142675" y1="172.8068346515853" y2="177.08958963109032" /><path d="M 144.38136562736335 173.6633856474863 a86.0,86.0 0 0,1 -40.68145358897372,12.25698825130547" fill="none" id="id30" stroke="none" /><text fill="#e1ed5e" style="font-size:6.75px; font-family:Arial;" text-anchor="middle"><textPath startOffset="21.466115282336833" xlink:href="#id30">June</textPath></text><line stroke="#e1ed5e" stroke-width="0.3" x1="102.19456741930631" x2="102.32365962044197" y1="184.97166512339345" y2="189.96999836594603" /><path d="M 102.22038585953345 185.97133177190398 a86.0,86.0 0 0,1 -42.740103519485714,-10.115201625700543" fill="none" id="id31" stroke="none" /><text fill="#e1ed5e" style="font-size:6.75px; font-family:Arial;" text-anchor="middle"><textPath startOffset="22.20632615414155" xlink:href="#id31">July</textPath></text><path d="M 92.06813273071674 119.44442032107085 l -11.55705756553847 28.331321913238224 a51.59786562694696,51.59786562694696 0 0,0 -0.8194933721715085,-0.34254829603057213 l 12.04302239720744 -28.12818857418768" fill="#f6ff19" stroke="none" /><path d="M 91.40352486487194 119.15986991738527 l -16.21628620411709 36.142945722525454 a60.61414474345318,60.61414474345318 0 0,0 -0.9482707836862101,-0.4353046070454591 l 16.83602498357072 -35.85845404514592" fill="#72ff27" stroke="none" /><path d="M 90.42595943632237 118.69057910512821 l -23.08298736220076 45.06293851654242 a71.63094639950158,71.63094639950158 0 0,0 -1.0925735139236818,-0.5715828242716346 l 23.85525177865094 -44.65892627332607" fill="#39ff8a" stroke="none" /><line stroke="#e1ed5e" stroke-width="0.3" x1="58.666819895761336" x2="56.23545636021788" y1="174.27360380694188" y2="178.64263932499728" /><path d="M 58.180547188652646 175.14741091055294 a86.0,86.0 0 0,1 -31.652253787137756,-30.449443065178592" fill="none" id="id32" stroke="none" /><text fill="#e1ed5e" style="font-size:6.75px; font-family:Arial;" text-anchor="middle"><textPath startOffset="22.20632615414155" xlink:href="#id32">August</textPath></text><path d="M 82.85270091963577 112.12312394758628 l -25.426814734558633 17.976733547054913 a52.13977932753181,52.13977932753181 0 0,0 -0.5118117529211397,-0.7373030028072163 l 25.732487394641907 -17.536389282060686" fill="#eeff19" stroke="none" /><line stroke="#e1ed5e" stroke-width="0.3" x1="26.63291911575756" x2="22.317208475507996" y1="142.92168965132927" y2="145.44649492493687" /><path d="M 25.769776987707644 143.4266507060508 a86.0,86.0 0 0,1 -11.730757126820373,-40.83630448921669" fill="none" id="id33" stroke="none" /><text fill="#e1ed5e" style="font-size:6.75px; font-family:Arial;" text-anchor="middle"><textPath startOffset="21.46611528233685" xlink:href="#id33">September</textPath></text><line stroke="#e1ed5e" stroke-width="0.3" x1="15.007084014347285" x2="10.007500721073583" y1="101.09737516637583" y2="101.16192664675087" /><path d="M 14.007167355692545 101.11028546245083 a86.0,86.0 0 0,1 10.666146001902534,-42.60595125391555" fill="none" id="id34" stroke="none" /><text fill="#e1ed5e" style="font-size:6.75px; font-family:Arial;" text-anchor="middle"><textPath startOffset="22.20632615414155" xlink:href="#id34">October</textPath></text><path d="M 80.02781315780177 93.51064311812611 l -32.22997251631543 -10.47215287959612 a54.888598589143236,54.888598589143236 0 0,0 0.29969882168123996,-0.8960613304408658 l 32.04493640086241 11.025387312959309" fill="#c4ff1e" stroke="none" /><path d="M 80.38941819471856 92.48833698450439 l -22.68043773874481 -8.687544664865463 a45.28735655284684,45.28735655284684 0 0,0 0.285108602147334,-0.725570294183128 l 22.527535586715786 9.076663963944354" fill="#ffa00e" stroke="none" /><path d="M 80.803312248108 91.48605970444005 l -20.389222708603587 -9.042842549586025 a43.30456016238921,43.30456016238921 0 0,0 0.3080762358658139,-0.6788051486777601 l 20.23054415577442 9.392469707105855" fill="#ff7e0b" stroke="none" /><path d="M 81.10775173730289 90.83032412892265 l -33.24036349470589 -16.13377904233247 a57.94889161324034,57.94889161324034 0 0,0 0.4432813903864293,-0.8936282336219443 l 32.95772209136605 16.703566864453375" fill="#97ff23" stroke="none" /><path d="M 81.43458229118936 90.18545643968196 l -17.77439965019218 -9.39637461227306 a41.10525152239886,41.10525152239886 0 0,0 0.3360685126658793,-0.622683914008424 l 17.61002303830783 9.700939509613956" fill="#ff5708" stroke="none" /><line stroke="#e1ed5e" stroke-width="0.3" x1="26.266209847984243" x2="21.928928074336255" y1="57.711370442889674" y2="55.22380399835377" /><path d="M 25.398753493254645 57.213857153982495 a86.0,86.0 0 0,1 29.58750427330803,-30.492523968695096" fill="none" id="id35" stroke="none" /><text fill="#e1ed5e" style="font-size:6.75px; font-family:Arial;" text-anchor="middle"><textPath startOffset="21.46611528233685" xlink:href="#id35">November</textPath></text><path d="M 81.78341655067845 89.55222093294921 l -13.37659644849692 -7.671895487526069 a36.42048355005326,36.42048355005326 0 0,0 0.3165812820559475,-0.541140032363954 l 13.242555491970649 7.901014932243916" fill="#ff0000" stroke="none" /><path d="M 82.34701348167596 88.62581576622439 l -24.448164097065938 -15.75245765519378 a50.0835460337239,50.0835460337239 0 0,0 0.4731782879189195,-0.7206829953968726 l 24.1733891737891 16.170958714568318" fill="#fff016" stroke="none" /><path d="M 82.7489923806493 88.02491185347247 l -29.95532404107766 -20.794011211688364 a57.46522097393332,57.46522097393332 0 0,0 0.5710603055924464,-0.8077243040039591 l 29.592951115681334 21.30656201602411" fill="#9eff22" stroke="none" /><path d="M 83.39014120810768 87.1503855733568 l -22.790193733168813 -17.630806248796315 a49.81385533693751,49.81385533693751 0 0,0 0.5305078798089672,-0.6736911334387057 l 22.483331772765876 18.020489776188068" fill="#ffeb16" stroke="none" /><path d="M 83.84228863543731 86.58626213691792 l -45.857414395121985 -38.06970689697929 a80.60037783628434,80.60037783628434 0 0,0 0.895391080863465,-1.059860618857223 l 45.195312700771396 38.85342646546563" fill="#47fbff" stroke="none" /><path d="M 84.5562425177563 85.77008943001954 l -46.331272446731106 -42.68973170994139 a84.0,84.0 0 0,0 0.9889307121181763,-1.0549223324877994 l 45.58957441264248 43.480923459307235" fill="#4dd2ff" stroke="none" /><path d="M 85.57189188830299 84.74124197986013 l -17.931542848628975 -18.96389125565105 a47.09922221998915,47.09922221998915 0 0,0 0.5938810820593934,-0.5519477422757328 l 17.60245388277473 19.269743584001432" fill="#ffbf11" stroke="none" /><line stroke="#e1ed5e" stroke-width="0.3" x1="56.762969772571076" x2="54.21961505331055" y1="26.818313649435495" y2="22.513508569990535" /><path d="M 56.25429882871897 25.957352633546506 a86.0,86.0 0 0,1 42.265352541879196,-11.944610805530505" fill="none" id="id36" stroke="none" /><text fill="#e1ed5e" style="font-size:6.75px; font-family:Arial;" text-anchor="middle"><textPath startOffset="22.20632615414155" xlink:href="#id36">December</textPath></text><path d="M 95.692805502759 79.44645832069477 l -6.155781399356921 -29.374830795641877 a51.01290270715678,51.01290270715678 0 0,0 0.8609850604762483,-0.17270550340461896 l 5.649229929413536 29.476440255123705" fill="#fffe18" stroke="none" /></svg>