<?xml version="1.0" encoding="utf-8" ?>
<svg baseProfile="full" height="200mm" version="1.1" viewBox="0,0,200,200" width="200mm" xmlns="http://www.w3.org/2000/svg" xmlns:ev="http://www.w3.org/2001/xml-events" xmlns:xlink="http://www.w3.org/1999/xlink"><defs /><rect fill="#1a1a1a" height="200" width="200" x="0" y="0" /><text alignment-baseline="middle" fill="#e1ed5e" style="dominant-baseline: central; font-size:9.0px; font-family:Arial;" text-anchor="middle" x="100.0" y="100.0">2025</text><line stroke="#e1ed5e" stroke-width="0.3" x1="100.0" x2="100.0" y1="15.0" y2="10.0" /><path d="M 100.0 14.0 a86.0,86.0 0 0,1 42.46469731375804,11.215312516191453" fill="none" id="id121" stroke="none" /><text fill="#e1ed5e" style="font-size:6.75px; font-family:Arial;" text-anchor="middle"><textPath startOffset="22.20632615414155" xlink:href="#id121">January</textPath></text><path d="M 100.0 79.0 l 0.0 -14.875429252225103 a35.8754292522251,35.8754292522251 0 0,0 0.6175365409620007,0.0053153319713038945 l -0.2560560616894723 14.873225296862358" fill="#ff760a" stroke="none" /><path d="M 101.80526077348638 79.07773832637324 l 0.7396774204350757 -8.572570108266792 a29.60442217394351,29.60442217394351 0 0,0 0.5073279841626037,0.04817690513034779 l -0.8871305316879236 8.558567658621266" fill="#ff1402" stroke="none" /><path d="M 103.2404852339499 79.25152402106235 l 1.861558729498266 -11.919358921224317 a33.0638517064966,33.0638517064966 0 0,0 0.5615671541077452,0.09266339212082825 l -2.0664550897448866 11.885549266163864" fill="#ff4b07" stroke="none" /><path d="M 104.307194497241 79.44645832069477 l 1.8801451850525832 -8.97188238164696 a30.166767117527506,30.166767117527506 0 0,0 0.5073149188724259,0.11087939178849841 l -2.034302828078537 8.938189491762591" fill="#ff1d03" stroke="none" /><path d="M 105.36241919743992 79.69619591428918 l 3.218804431009389 -12.187405003441954 a33.605298198892704,33.605298198892704 0 0,0 0.5580113531057388,0.15252558180478037 l -3.4281136733388387 12.13019288081088" fill="#ff5307" stroke="none" /><path d="M 106.0581310904928 79.89281104454417 l 2.835760682571969 -9.41200760188384 a30.829925012264347,30.829925012264347 0 0,0 0.5068067177364448,0.15746731420940377 l -2.997352773019132 9.361800152791917" fill="#ff2803" stroke="none" /><path d="M 106.74666289553966 80.11325718540242 l 4.152585433202507 -12.240332710315 a33.9255448875184,33.9255448875184 0 0,0 0.5513999520032967,0.1923726162320795 l -4.362667389269077 12.167039240910714" fill="#ff5808" stroke="none" /><path d="M 107.76421540070413 80.48803036053334 l 4.34978890694715 -10.931297589031923 a32.76494498563319,32.76494498563319 0 0,0 0.5222359808924052,0.21303316917057777 l -4.537308757427942 10.854803533677766" fill="#ff4606" stroke="none" /><path d="M 108.76106565485865 80.91482961587045 l 5.325775001068326 -11.601707751905515 a33.76571588758848,33.76571588758848 0 0,0 0.5261370452136326,0.24702839745535166 l -5.524690257581557 11.508314371810162" fill="#ff5607" stroke="none" /><path d="M 109.73455568895987 81.39251694778311 l 6.887800206522997 -13.165945083172772 a35.858798794589674,35.858798794589674 0 0,0 0.5444645533904544,0.2908341084196132 l -7.113409806441762 13.045432248251405" fill="#ff760a" stroke="none" /><path d="M 110.36928655335952 81.73862282372117 l 7.408128178727145 -13.046473558793304 a36.0030275422244,36.0030275422244 0 0,0 0.5362792693499321,0.31064756723917164 l -7.631604180542405 12.917021834164082" fill="#ff780b" stroke="none" /><line stroke="#e1ed5e" stroke-width="0.3" x1="143.23703022742887" x2="145.7803849466894" y1="26.81831364943548" y2="22.513508569990506" /><path d="M 143.74570117128098 25.957352633546492 a86.0,86.0 0 0,1 28.547481713284135,27.462654790039103" fill="none" id="id122" stroke="none" /><text fill="#e1ed5e" style="font-size:6.75px; font-family:Arial;" text-anchor="middle"><textPath startOffset="19.985693538727396" xlink:href="#id122">February</textPath></text><path d="M 111.2981086023043 82.29822771554956 l 5.06692735151208 -7.93881501015374 a30.41799004835658,30.41799004835658 0 0,0 0.4389359044770315,0.28549612206837394 l -5.202830281773392 7.850419963925838" fill="#ff2103" stroke="none" /><path d="M 111.90073688211348 82.69761687909136 l 6.82985032781745 -9.929863016127326 a33.051930758988014,33.051930758988014 0 0,0 0.4659832130654122,0.3264510197776673 l -6.999764680466513 9.810827153585723" fill="#ff4b06" stroke="none" /><path d="M 113.06298171725822 83.55741782278167 l 5.818789809719899 -7.324202979774311 a30.35426448945266,30.35426448945266 0 0,0 0.40630859938379493,0.328539963832597 l -5.944001807668185 7.222956918677585" fill="#ff2003" stroke="none" /><path d="M 113.6212207817346 84.01681056812373 l 7.813420148468555 -9.168295290483377 a33.04604387132946,33.04604387132946 0 0,0 0.4297656910214842,0.37268857227238783 l -7.970079638136803 9.032441724791317" fill="#ff4b06" stroke="none" /><path d="M 114.16331599549186 84.49514656593476 l 7.030539434863608 -7.69646624665247 a31.424206321396035,31.424206321396035 0 0,0 0.3962324805671337,0.3682549077114217 l -7.1619797992255885 7.574306752866407" fill="#ff3104" stroke="none" /><path d="M 114.68862486808459 84.99185889309783 l 8.119868532971086 -8.296497038133976 a32.60879529048987,32.60879529048987 0 0,0 0.39777171205218664,0.3960635539092007 l -8.261476045190596 8.155497633574656" fill="#ff4406" stroke="none" /><path d="M 115.19652480421416 85.50635884689758 l 6.6232523482660195 -6.316907585054586 a30.15263858714696,30.15263858714696 0 0,0 0.35498655178843336,0.37867490272635873 l -6.731006222024916 6.201963265450172" fill="#ff1d02" stroke="none" /><path d="M 115.4437574822437 85.77008943001954 l 7.584964078461268 -6.988801827347616 a31.313827177798025,31.313827177798025 0 0,0 0.36183330006395753,0.3995453672482869 l -7.704141019141261 6.85720367282978" fill="#ff2f04" stroke="none" /><path d="M 115.9244219780498 86.31012108654704 l 6.881350193892713 -5.915746960568433 a30.074637325671034,30.074637325671034 0 0,0 0.3340996995858686,0.395468663839737 l -6.982160506965699 5.796419347099589" fill="#ff1c02" stroke="none" /><path d="M 116.60985879189232 87.15038557335679 l 8.530173468847636 -6.599059115455984 a31.784778190482864,31.784778190482864 0 0,0 0.3310521773761175,0.43562585992692676 l -8.642501586447867 6.451248479648024" fill="#ff3705" stroke="none" /><path d="M 117.04232023915458 87.72973835380427 l 8.119377476893742 -5.845852245917953 a31.004912747915064,31.004912747915064 0 0,0 0.30811114355102803,0.43580136203378517 l -8.218801240248652 5.705224383552375" fill="#ff2b04" stroke="none" /><path d="M 117.45458315368197 88.32363383020206 l 7.6064257457583 -5.088372003436648 a30.15146120961525,30.15146120961525 0 0,0 0.28486435013631795,0.43386794867731426 l -7.692886731252543 4.95668599078166" fill="#ff1d02" stroke="none" /><line stroke="#e1ed5e" stroke-width="0.3" x1="172.23445277983987" x2="176.4835382374775" y1="55.19839476539836" y2="52.563006222186495" /><path d="M 173.08426987136738 54.67131705675599 a86.0,86.0 0 0,1 12.851231095245387,41.99856678651699" fill="none" id="id123" stroke="none" /><text fill="#e1ed5e" style="font-size:6.75px; font-family:Arial;" text-anchor="middle"><textPath startOffset="22.20632615414155" xlink:href="#id123">March</textPath></text><path d="M 117.84615892207809 88.93136811851018 l 12.506944370367991 -7.757118145272842 a35.71721914640129,35.71721914640129 0 0,0 0.3195572003217907,0.525268015420656 l -12.638617368976005 7.540682356645105" fill="#ff740a" stroke="none" /><path d="M 118.3937258080291 89.86733742301442 l 8.11224023284799 -4.4688386616601035 a30.261693181021798,30.261693181021798 0 0,0 0.24741369633891686,0.45842000368769015 l -8.187962028405371 4.328537674639954" fill="#ff1f03" stroke="none" /><path d="M 118.73160827565052 90.50648371742162 l 8.923670444697564 -4.5226768262725585 a31.004324059149205,31.004324059149205 0 0,0 0.23716829596428882,0.47811681245841847 l -9.00019875361526 4.36840042531519" fill="#ff2b04" stroke="none" /><path d="M 119.04729006885535 91.15688171328212 l 13.3634046449864 -6.204250975424536 a35.73340808746233,35.73340808746233 0 0,0 0.25421373215571763,0.5601262614979827 l -13.468220694105465 5.973302705084491" fill="#ff740a" stroke="none" /><path d="M 119.34039704204932 91.81776055985345 l 8.624496907881412 -3.6487202717536253 a30.36456654285514,30.36456654285514 0 0,0 0.19950722238166482,0.48312256376813023 l -8.686025817149273 3.4997231375321918" fill="#ff2003" stroke="none" /><path d="M 119.7369772167798 92.82701384747503 l 9.703472042270212 -3.5265213019267745 a31.32442357558343,31.32442357558343 0 0,0 0.17981251225929298,0.5083541859703308 l -9.762737635339315 3.358969489529829" fill="#ff3004" stroke="none" /><path d="M 119.97218684219823 93.5106431181261 l 16.246210153296996 -5.27871366794522 a38.08227626322798,38.08227626322798 0 0,0 0.19720184329763105,0.6251837335167131 l -16.334667480362835 4.998279768002087" fill="#ff970d" stroke="none" /><path d="M 120.18372546131832 94.20196356495316 l 9.508374977292151 -2.731403806600665 a30.892914710210945,30.892914710210945 0 0,0 0.14242108760540137,0.5123644284766122 l -9.553982835463914 2.567328074705101" fill="#ff2904" stroke="none" /><path d="M 120.37134235888165 94.90015583598534 l 10.553865810764362 -2.6420974138385223 a31.879557081785688,31.879557081785688 0 0,0 0.12868289441658742,0.5334736746045932 l -10.59778150544177 2.4600385075745232" fill="#ff3805" stroke="none" /><path d="M 120.53481517161879 95.60439243477599 l 14.057332300537693 -3.0090612304371858 a35.37577966220478,35.37577966220478 0 0,0 0.12233400126786875,0.5965440362183804 l -14.107045597720559 2.7666415380553935" fill="#ff6e0a" stroke="none" /><path d="M 120.73433829027371 96.67025291283417 l 11.629189805666865 -1.8675426405906606 a32.77819048286495,32.77819048286495 0 0,0 0.08466779321045012,0.5578549701313018 l -11.659613492316616 1.6670885580672765" fill="#ff4606" stroke="none" /><path d="M 120.83666639777658 97.38593545837742 l 10.584950595761674 -1.327935260803519 a31.66792347046044,31.66792347046044 0 0,0 0.06319959494077898,0.5414555341103896 l -10.606240543706042 1.1455359883682767" fill="#ff3505" stroke="none" /><path d="M 120.94382443527127 98.46500227214037 l 17.61033787875402 -1.2906825453141142 a38.657572359660804,38.657572359660804 0 0,0 0.042927225744349165,0.6640651822252399 l -17.629945695502787 0.9873582988358389" fill="#ff9f0e" stroke="none" /><path d="M 120.98425023603335 99.18683210126433 l 9.40622068362835 -0.36450369311817277 a30.413280538229728,30.413280538229728 0 0,0 0.015769004338401373,0.5232964844381282 l -9.411101382422396 0.20253706125504548" fill="#ff2103" stroke="none" /><line stroke="#e1ed5e" stroke-width="0.3" x1="184.98032266829074" x2="189.97916517819016" y1="98.17113171792111" y2="98.06355123074" /><path d="M 185.9800911702706 98.14961562048488 a86.0,86.0 0 0,1 -9.607161424134198,41.387399972396054" fill="none" id="id124" stroke="none" /><text fill="#e1ed5e" style="font-size:6.75px; font-family:Arial;" text-anchor="middle"><textPath startOffset="21.466115282336823" xlink:href="#id124">April</textPath></text><path d="M 120.99980553446 99.90962569577887 l 10.193493102062531 -0.04386849417105706 a31.193587497371926,31.193587497371926 0 0,0 -0.002310854696180306,0.5369612486249521 l -10.192737950076848 -0.13160223265757975" fill="#ff2e04" stroke="none" /><path d="M 120.9904718944345 100.63252640178507 l 17.871837062547115 0.5385495308211381 a38.879949540962926,38.879949540962926 0 0,0 -0.02591601754411059,0.6687772575782455 l -17.8599189121518 -0.8461040354133897" fill="#ffa20f" stroke="none" /><path d="M 120.92983693683757 101.71520430193887 l 13.306852665988542 1.090499223995335 a34.35146120961525,34.35146120961525 0 0,0 -0.053368109068384934,0.5889126364768249 l -13.286109960643081 -1.3193932490207305" fill="#ff5f08" stroke="none" /><path d="M 120.8583938346157 102.4346265915055 l 10.146339029088765 1.1842976502655922 a31.215221809517136,31.215221809517136 0 0,0 -0.06688751761681627,0.5331593266216521 l -10.1244500022251 -1.3587747311746394" fill="#ff2e04" stroke="none" /><path d="M 120.70491114924044 103.5080841355445 l 15.285271150472967 2.5898211706374488 a36.50311864881912,36.50311864881912 0 0,0 -0.11029774971344189,0.6186083555654907 l -15.238426958420337 -2.8525482769361576" fill="#ff7f0b" stroke="none" /><path d="M 120.5718875245553 104.21870165774334 l 9.850544643039036 2.020063009077815 a31.05553998177868,31.05553998177868 0 0,0 -0.11189748979298929,0.5227478197203524 l -9.814313114521603 -2.189324648214336" fill="#ff2b04" stroke="none" /><path d="M 120.41448212921028 104.9243191809786 l 13.3325782438931 3.2160439026939227 a34.71497652253136,34.71497652253136 0 0,0 -0.14512296015194506,0.5796940867821307 l -13.275243969446093 -3.4450658288734495" fill="#ff6409" stroke="none" /><path d="M 120.23288151984713 105.62410040840565 l 14.285528870138334 3.970924688805417 a35.82715677342491,35.82715677342491 0 0,0 -0.17027685930589825,0.5927560854691365 l -14.215059373946335 -4.216238249779136" fill="#ff750a" stroke="none" /><path d="M 119.9155931802556 106.66101706037122 l 8.386908642522666 2.805105579632117 a29.843576985072534,29.843576985072534 0 0,0 -0.167137061471243,0.48577853575970054 l -8.337380750108192 -2.949056818481118" fill="#ff1802" stroke="none" /><path d="M 119.67450827220406 107.3425965602758 l 9.141359236320591 3.411587825027434 a30.757221949681128,30.757221949681128 0 0,0 -0.18938498770980594,0.49442444189974727 l -9.081279969017277 -3.568435833760325" fill="#ff2703" stroke="none" /><path d="M 119.41010516605496 108.01547362559984 l 13.733577808990878 5.67133097792809 a35.85850445020674,35.85850445020674 0 0,0 -0.24050643655823062,0.5684861715708126 l -13.633920391240338 -5.906891675165066" fill="#ff760a" stroke="none" /><path d="M 119.26925614724726 108.34839909993367 l 6.766994362173667 2.931798156126401 a28.374798514261684,28.374798514261684 0 0,0 -0.1980276043437563,0.44649997003440894 l -6.715525673098637 -3.0478464626534976" fill="#ff0000" stroke="none" /><path d="M 118.97047184881838 109.00673069616215 l 9.308546898639483 4.419477583730391 a31.30440815754433,31.30440815754433 0 0,0 -0.23529994672724497,0.48478758380019715 l -9.231093695297522 -4.5790541234958635" fill="#ff2f04" stroke="none" /><path d="M 118.64920377521936 109.65438752849418 l 17.64767004104383 9.135909908262555 a40.87221949681127,40.87221949681127 0 0,0 -0.3288218555841851,0.622007031013554 l -17.487795677234754 -9.438331954362244" fill="#ffbf11" stroke="none" /><line stroke="#e1ed5e" stroke-width="0.3" x1="174.80103733775053" x2="179.2010983576182" y1="140.37084112569926" y2="142.7455964860345" /><path d="M 175.68104954172406 140.8457921977663 a86.0,86.0 0 0,1 -30.038265399797805,32.042727171017184" fill="none" id="id125" stroke="none" /><text fill="#e1ed5e" style="font-size:6.75px; font-family:Arial;" text-anchor="middle"><textPath startOffset="22.206326154141568" xlink:href="#id125">May</textPath></text><path d="M 118.30583269289576 110.29060199501025 l 8.693506528848472 4.887044316979987 a30.97297638236737,30.97297638236737 0 0,0 -0.2652584750280126,0.4625005099147393 l -8.60809605766808 -5.035964672753041" fill="#ff2a04" stroke="none" /><path d="M 117.75023020441432 111.22182372390056 l 9.991455181080344 6.316670121802286 a32.82072324619805,32.82072324619805 0 0,0 -0.3060065710501603,0.4749289937845448 l -9.881243746653134 -6.487720715508284" fill="#ff4706" stroke="none" /><path d="M 117.35343817320211 111.8261652097733 l 8.571520936626843 5.841391295709733 a31.37269605438363,31.37269605438363 0 0,0 -0.30795900497755574,0.4436379153380969 l -8.469701024487152 -5.988070473234849" fill="#ff3004" stroke="none" /><path d="M 116.93607887273984 112.41649034213515 l 14.551568223406717 10.668313938928923 a39.04331067348798,39.04331067348798 0 0,0 -0.4020321925745254,0.538587821115522 l -14.365774764137099 -10.91721463955376" fill="#ffa50f" stroke="none" /><path d="M 116.498646956653 112.99209946851258 l 5.781290544765927 4.552561310712935 a28.358609573200646,28.358609573200646 0 0,0 -0.30530350778716236,0.3809130685248227 l -5.702069124923911 -4.651402212816008" fill="#ff0000" stroke="none" /><path d="M 116.0416608686014 113.55231037782055 l 7.918862627111537 6.6900107813646645 a31.36651482234214,31.36651482234214 0 0,0 -0.35198829364495804,0.4094419062996837 l -7.802531823895801 -6.825329786825876" fill="#ff3004" stroke="none" /><path d="M 115.32070863581623 114.36230785411682 l 10.745755420710106 10.073544974054705 a35.729140093909876,35.729140093909876 0 0,0 -0.42448506563303257,0.4450708942473065 l -10.570763803698108 -10.25702298488452" fill="#ff740a" stroke="none" /><path d="M 115.07121518719521 114.62390073753431 l 8.638196530027136 8.381814408287239 a33.03633050669283,33.03633050669283 0 0,0 -0.39951837361611675,0.40471000318301403 l -8.492637531355484 -8.529264905450917" fill="#ff4a06" stroke="none" /><path d="M 114.29624159901734 115.38237550388516 l 8.025292256509138 8.635000896076818 a32.788492536267434,32.788492536267434 0 0,0 -0.4167268300110546,0.38067007871732556 l -7.875465877031219 -8.771863741380727" fill="#ff4706" stroke="none" /><path d="M 113.48314897796784 116.09983520530334 l 8.5338156177604 10.189980496610522 a34.291414955497935,34.291414955497935 0 0,0 -0.4557980118356569,0.37509073317008707 l -8.357147477380053 -10.335366348637788" fill="#ff5e08" stroke="none" /><path d="M 112.92097659922987 116.55440617244103 l 7.268671887449593 9.312651086003518 a32.813511808816315,32.813511808816315 0 0,0 -0.44825018358042357,0.3436991264010741 l -7.107292975375676 -9.436389554231964" fill="#ff4706" stroke="none" /><path d="M 112.34349029814194 116.9893568818739 l 7.1315252658127495 9.815702441248046 a33.13287546429322,33.13287546429322 0 0,0 -0.4642904666156045,0.3312589202537733 l -6.96150747134826 -9.937005623346039" fill="#ff4c07" stroke="none" /><path d="M 112.04921762599082 117.19931262002967 l 4.238548107919147 6.050194811477813 a28.38716097834466,28.38716097834466 0 0,0 -0.40261526011913784,0.27692244715188996 l -4.133775963177126 -6.122258047994797" fill="#ff0000" stroke="none" /><path d="M 111.45004920935366 117.60387380957326 l 8.078989098028785 12.421038721338817 a35.81729623659682,35.81729623659682 0 0,0 -0.5197229507031924,0.331711776979113 l -7.863984345278663 -12.55826492714174" fill="#ff750a" stroke="none" /><line stroke="#e1ed5e" stroke-width="0.3" x1="143.8653032363475" x2="146.44561519142675" y1="172.8068346515853" y2="177.08958963109032" /><path d="M 144.38136562736335 173.6633856474863 a86.0,86.0 0 0,1 -40.68145358897372,12.25698825130547" fill="none" id="id126" stroke="none" /><text fill="#e1ed5e" style="font-size:6.75px; font-family:Arial;" text-anchor="middle"><textPath startOffset="21.466115282336833" xlink:href="#id126">June</textPath></text><path d="M 110.5260780823613 118.17145234162733 l 5.82235450842056 10.051287539194197 a32.615859555680146,32.615859555680146 0 0,0 -0.48823026996443075,0.27722988931313913 l -5.64847547153493 -10.150020594301964" fill="#ff4406" stroke="none" /><path d="M 109.89434966115114 118.52300852407294 l 5.5878216630051405 10.460846022173193 a32.859723876936016,32.859723876936016 0 0,0 -0.5012032618214256,0.2622058582559206 l -5.406927498657219 -10.55548129937383" fill="#ff4806" stroke="none" /><path d="M 109.2508944713604 118.85261126421891 l 7.783289886959346 15.861746023570479 a38.66846310182913,38.66846310182913 0 0,0 -0.6000743939422163,0.28807217555312975 l -7.509102825016897 -15.993372475623168" fill="#ff9f0e" stroke="none" /><path d="M 107.93186726928326 119.44442032107085 l 4.524872070359924 11.092408817262365 a32.97981638517065,32.97981638517065 0 0,0 -0.5274869161803784,0.20989793003745197 l -4.33326407813768 -11.168653591705887" fill="#ff4a06" stroke="none" /><path d="M 107.2578585660854 119.70592522655815 l 3.9642790729803368 10.763476069153333 a32.47030625832224,32.47030625832224 0 0,0 -0.5261433371461411,0.188656281417308 l -3.778416175204461 -10.8301198916106" fill="#ff4206" stroke="none" /><path d="M 106.2309692047433 120.05430185196036 l 3.957619588099276 12.737552574414233 a34.33821571238349,34.33821571238349 0 0,0 -0.5659674186250041,0.17052134053018506 l -3.737777195034026 -12.803789284050143" fill="#ff5f08" stroke="none" /><path d="M 105.88484417918355 120.15858648285463 l 3.306549143050403 11.32661372679506 a32.79938327843577,32.79938327843577 0 0,0 -0.543327768950418,0.153549854659782 l -3.1110902059953793 -11.381852374793361" fill="#ff4706" stroke="none" /><path d="M 105.53697534728816 120.25689768951611 l 2.3633715293754656 8.646340695073086 a29.963522321115704,29.963522321115704 0 0,0 -0.4986922580124268,0.1317091578844826 l -2.214188828551541 -8.685741202261152" fill="#ff1a02" stroke="none" /><path d="M 104.83641907484287 120.43548508189849 l 2.7200747576930038 11.493223865074189 a32.810715537178496,32.810715537178496 0 0,0 -0.5507198148027608,0.12534203685932763 l -2.521834793497381 -11.5383426355112" fill="#ff4706" stroke="none" /><path d="M 103.7750983002368 120.6578951692458 l 2.387817800753894 13.066491489278233 a34.28287896839302,34.28287896839302 0 0,0 -0.5814229812139239,0.10108783800548558 l -2.16254584806792 -13.105657905804724" fill="#ff5e08" stroke="none" /><path d="M 103.41894727170886 120.7198165907248 l 1.918794004244988 11.628450714148386 a32.78569626462962,32.78569626462962 0 0,0 -0.5576130901119002,0.08708769678308152 l -1.7183450505245708 -11.659756718278572" fill="#ff4706" stroke="none" /><path d="M 103.06178313531738 120.77559828337769 l 1.4084760319730374 9.557153769156297 a30.66038264769781,30.66038264769781 0 0,0 -0.522790781400572,0.0724540386216701 l -1.2437566593856348 -9.57998237327057" fill="#ff2503" stroke="none" /><path d="M 102.34483914955558 120.86867818915974 l 1.4492351573292261 12.897951710014697 a33.979115565211295,33.979115565211295 0 0,0 -0.5817991596867226,0.06030586173477118 l -1.2270034010369009 -12.920986940205227" fill="#ff5908" stroke="none" /><path d="M 101.62511606390274 120.93702456842531 l 1.4257605969284988 18.36864782131118 a39.42389796061392,39.42389796061392 0 0,0 -0.6770345580880458,0.046692267042929406 l -1.1093632780615226 -18.390468432870392" fill="#ffaa0f" stroke="none" /><path d="M 100.90346689309514 120.98055641714683 l 0.49640342293544865 11.527616673237869 a32.53829981077861,32.53829981077861 0 0,0 -0.5597821672734679,0.01928002968655775 l -0.2979009039873285 -11.53445350135052" fill="#ff4306" stroke="none" /><line stroke="#e1ed5e" stroke-width="0.3" x1="102.19456741930631" x2="102.32365962044197" y1="184.97166512339345" y2="189.96999836594603" /><path d="M 102.22038585953345 185.97133177190398 a86.0,86.0 0 0,1 -42.740103519485714,-10.115201625700543" fill="none" id="id127" stroke="none" /><text fill="#e1ed5e" style="font-size:6.75px; font-family:Arial;" text-anchor="middle"><textPath startOffset="22.20632615414155" xlink:href="#id127">July</textPath></text><path d="M 94.81253420990036 120.34920634021253 l -1.8849597992212226 7.394253273065243 a28.630730955217604,28.630730955217604 0 0,0 -0.47651019514959486,-0.12585067347277687 l 2.011960437182307 -7.360711250288885" fill="#ff0400" stroke="none" /><path d="M 93.76903079525671 120.05430185196036 l -3.3078415954818436 10.646249669114844 a32.148293503398975,32.148293503398975 0 0,0 -0.5270462497605647,-0.16874356560132941 l 3.4906091903333487 -10.587733256853808" fill="#ff3d05" stroke="none" /><path d="M 93.08242187328487 119.8279376855182 l -3.2239045863519227 9.240716631067066 a30.786950732356857,30.786950732356857 0 0,0 -0.498866529622731,-0.17887578870173962 l 3.3824906766043803 -9.183853301325367" fill="#ff2703" stroke="none" /><path d="M 92.40401165467489 119.57807347666478 l -4.574947357188595 11.791573583184329 a33.64797813441727,33.64797813441727 0 0,0 -0.5381736518645315,-0.21415040271526387 l 4.777242085094985 -11.711076336062998" fill="#ff5407" stroke="none" /><path d="M 91.7346041902142 119.30500536409082 l -7.05533120493314 16.478727684815066 a38.92557292031677,38.92557292031677 0 0,0 -0.6136882105247282,-0.2690228768599785 l 7.3379400901156115 -16.354840254660633" fill="#ffa30f" stroke="none" /><path d="M 90.7491055286396 118.85261126421891 l -5.174251088087971 10.544725664008066 a32.745812600742866,32.745812600742866 0 0,0 -0.503889589603937,-0.2526607008037023 l 5.354994585374668 -10.45409712229506" fill="#ff4606" stroke="none" /><path d="M 90.10565033884886 118.52300852407294 l -6.152678151474805 11.5183022380054 a34.05858854860186,34.05858854860186 0 0,0 -0.5147342412037228,-0.28067414934301627 l 6.350035204547169 -11.410687436902618" fill="#ff5a08" stroke="none" /><line stroke="#e1ed5e" stroke-width="0.3" x1="58.666819895761336" x2="56.23545636021788" y1="174.27360380694188" y2="178.64263932499728" /><path d="M 58.180547188652646 175.14741091055294 a86.0,86.0 0 0,1 -31.652253787137756,-30.449443065178592" fill="none" id="id128" stroke="none" /><text fill="#e1ed5e" style="font-size:6.75px; font-family:Arial;" text-anchor="middle"><textPath startOffset="22.20632615414155" xlink:href="#id128">August</textPath></text><path d="M 89.1626897886671 117.98757091392108 l -7.180316121518065 11.917758456809157 a34.91365898100778,34.91365898100778 0 0,0 -0.5121015796485977,-0.3145746164013165 l 7.384396901098972 -11.792395373579462" fill="#ff6709" stroke="none" /><path d="M 88.54995079064634 117.60387380957326 l -6.25904995675651 9.622973979583112 a32.479430934193005,32.479430934193005 0 0,0 -0.4660416338571577,-0.3088669824469615 l 6.423766289353629 -9.513808976044832" fill="#ff4206" stroke="none" /><path d="M 87.95078237400918 117.19931262002967 l -8.386910747868868 11.97165694457459 a35.617142056205765,35.617142056205765 0 0,0 -0.49910245558406957,-0.3560963500671421 l 8.591740531301824 -11.825516332663229" fill="#ff720a" stroke="none" /><path d="M 87.36589467227662 116.77436683061367 l -7.145012008731971 9.48646930943444 a32.876207162379984,32.876207162379984 0 0,0 -0.4491066357611183,-0.3443558174122352 l 7.307247372986576 -9.362074150194838" fill="#ff4806" stroke="none" /><path d="M 87.07902340077011 116.55440617244103 l -11.270199366039323 14.439423871483712 a39.317050949611044,39.317050949611044 0 0,0 -0.5299236514160612,-0.42100339809047127 l 11.517080510172743 -14.24328655938811" fill="#ffa90f" stroke="none" /><path d="M 86.51685102203217 116.09983520530335 l -7.4422371119542134 8.886558418737762 a32.591281799705655,32.591281799705655 0 0,0 -0.4269993707478507,-0.3638981273048384 l 7.59410195927912 -8.757135901209972" fill="#ff4406" stroke="none" /><path d="M 85.97065885151581 115.62618273729859 l -8.257932322245338 9.197863116586364 a33.36099236106244,33.36099236106244 0 0,0 -0.4240030424476375,-0.3873167262608099 l 8.41503491415983 -9.054353623738978" fill="#ff4f07" stroke="none" /><path d="M 85.44109423537348 115.13401014063109 l -8.199268815231534 8.523155476214976 a32.82675730604808,32.82675730604808 0 0,0 -0.40384734825551266,-0.395249628867621 l 8.344766115862841 -8.380755744424786" fill="#ff4706" stroke="none" /><path d="M 85.18274418774928 114.88116024355367 l -14.101782460604447 14.162601170892053 a40.98598360081295,40.98598360081295 0 0,0 -0.4956559417498391,-0.5020968521362723 l 14.343479027409819 -13.917763824775117" fill="#ffc111" stroke="none" /><path d="M 84.67929136418377 114.36230785411682 l -7.109006368893358 6.664296047523129 a30.744270796832296,30.744270796832296 0 0,0 -0.35861521739219443,-0.38920599111359744 l 7.222667994281281 -6.5409388016081875" fill="#ff2603" stroke="none" /><path d="M 84.19399662182784 113.82643327865904 l -8.559323575803234 7.487339683523607 a32.371995234424276,32.371995234424276 0 0,0 -0.3632715789110064,-0.4225669161709285 l 8.686937664285018 -7.338895668191148" fill="#ff4006" stroke="none" /><path d="M 83.72743513129214 113.27417163493432 l -17.106207374771724 13.954206638448023 a43.07582871960193,43.07582871960193 0 0,0 -0.4637463474711805,-0.5785948727309494 l 17.343871634297766 -13.657683932138813" fill="#ffde14" stroke="none" /><path d="M 83.50135304334701 112.99209946851258 l -6.99328029457065 5.506960263890798 a29.901268484126426,29.901268484126426 0 0,0 -0.31495032120099936,-0.4071157458828385 l 7.0870374329897174 -5.385766523894707" fill="#ff1902" stroke="none" /><path d="M 83.06392112726016 112.41649034213515 l -8.657352252979493 6.347037672964731 a31.7347396453851,31.7347396453851 0 0,0 -0.31919134746687056,-0.4433288643673073 l 8.765323392821971 -6.197075203146286" fill="#ff3605" stroke="none" /><path d="M 82.6465618267979 111.8261652097733 l -7.469676729960564 5.090497352191996 a30.039315999719673,30.039315999719673 0 0,0 -0.28751472531092453,-0.42979550382963 l 7.5561945606822185 -4.961164934156545" fill="#ff1b02" stroke="none" /><path d="M 82.24976979558568 111.22182372390057 l -10.040094469116827 6.34742023096233 a32.878267573060484,32.878267573060484 0 0,0 -0.29830821710125904,-0.4809678293713644 l 10.147867325886043 -6.173656070225701" fill="#ff4806" stroke="none" /><path d="M 82.05923443525364 110.91462005526583 l -19.65198442616761 11.955673940977285 a44.00301352582521,44.00301352582521 0 0,0 -0.3881047443758192,-0.6504858753170624 l 19.85487004624166 -11.615625971774111" fill="#ffeb16" stroke="none" /><line stroke="#e1ed5e" stroke-width="0.3" x1="26.63291911575756" x2="22.317208475507996" y1="142.92168965132927" y2="145.44649492493687" /><path d="M 25.769776987707644 143.4266507060508 a86.0,86.0 0 0,1 -11.730757126820373,-40.83630448921669" fill="none" id="id129" stroke="none" /><text fill="#e1ed5e" style="font-size:6.75px; font-family:Arial;" text-anchor="middle"><textPath startOffset="21.46611528233685" xlink:href="#id129">September</textPath></text><path d="M 81.69416730710424 110.29060199501025 l -10.385150721773853 5.838000080566819 a32.91358889901184,32.91358889901184 0 0,0 -0.2733764930286834,-0.4962577424172049 l 10.484103624254054 -5.658371819751792" fill="#ff4906" stroke="none" /><path d="M 81.51974371655577 109.97397251340807 l -15.46130068762754 8.344613067843968 a38.56941621697386,38.56941621697386 0 0,0 -0.31029552995657794,-0.5869622047542149 l 15.602648725809004 -8.077235848003626" fill="#ff9e0e" stroke="none" /><path d="M 81.35079622478065 109.6543875284942 l -8.009133137188604 4.146197124858955 a30.01871189291471,30.01871189291471 0 0,0 -0.23360465851633033,-0.4609241533324223 l 8.0793164654912 -4.007718759823847" fill="#ff1b02" stroke="none" /><path d="M 81.02952815118164 109.00673069616217 l -10.908187499136938 5.1789490515012515 a33.07518396523933,33.07518396523933 0 0,0 -0.23975631200960848,-0.5164137663458613 l 10.995718427986374 -4.990415217876563" fill="#ff4b07" stroke="none" /><path d="M 80.87730276802145 108.67885076344099 l -23.996847476053524 10.890987579380083 a47.35265260354615,47.35265260354615 0 0,0 -0.33047397146058377,-0.7451315630631096 l 24.180762532245385 -10.476307679824277" fill="#e6ff1a" stroke="none" /><path d="M 80.58989483394504 108.01547362559985 l -8.082215981786774 3.3375805274722468 a29.744235755834325,29.744235755834325 0 0,0 -0.19135088054881658,-0.474917192950661 l 8.138469476592979 -3.1979639666787802" fill="#ff1602" stroke="none" /><path d="M 80.32549172779594 107.34259656027581 l -9.839046613553416 3.671967239106884 a31.50191323848903,31.50191323848903 0 0,0 -0.18522485794627322,-0.5096592581570862 l 9.900795732504914 -3.5020601839436805" fill="#ff3204" stroke="none" /><path d="M 80.0844068197444 106.66101706037122 l -12.666200021782862 4.236367637736974 a34.35587637535917,34.35587637535917 0 0,0 -0.18275321972644729,-0.562456575717861 l 12.737245492525558 -4.01771216204131" fill="#ff5f08" stroke="none" /><path d="M 79.97269907076064 106.31721596034903 l -19.41815883075384 6.1250741335362555 a41.36127268904619,41.36127268904619 0 0,0 -0.20832930026545046,-0.680832207120138 l 19.52071490352542 -5.789914953864069" fill="#ffc612" stroke="none" /><path d="M 79.76711848015287 105.62410040840567 l -11.021808679919525 3.0637138183851214 a32.439694442497725,32.439694442497725 0 0,0 -0.14491572088265456,-0.5392853073757636 l 11.072912477143955 -2.873537577833819" fill="#ff4106" stroke="none" /><path d="M 79.67330655649465 105.27499134158121 l -17.844440775111764 4.630820592915905 a39.43552456373958,39.43552456373958 0 0,0 -0.1648568034064587,-0.6585209811077992 l 17.92150889281328 -4.322971772410714" fill="#ffab0f" stroke="none" /><path d="M 79.58551787078972 104.9243191809786 l -8.346631771099084 2.013349085558145 a29.586025650010512,29.586025650010512 0 0,0 -0.11515928538075897,-0.4961031874217963 l 8.380051622410397 -1.8693772407877742" fill="#ff1402" stroke="none" /><path d="M 79.4281124754447 104.21870165774334 l -11.917248740484549 2.4438844980661893 a33.165253346415305,33.165253346415305 0 0,0 -0.10987185229471978,-0.5602342077597335 l 11.957550525754936 -2.238386563238501" fill="#ff4c07" stroke="none" /><path d="M 79.35854240842038 103.8639653848113 l -33.17591002269037 6.210344757319034 a54.75217604597379,54.75217604597379 0 0,0 -0.16543906475181375,-0.9278701338721984 l 33.27789552978137 -5.638355872713622" fill="#88ff25" stroke="none" /><path d="M 79.23777060512086 103.15116336523772 l -11.966400907105337 1.8161866644975142 a33.10344102600042,33.10344102600042 0 0,0 -0.08065566546244575,-0.5641055363897154 l 11.995890623584382 -1.609935656127398" fill="#ff4b07" stroke="none" /><path d="M 79.18660465613746 102.79330883721812 l -18.485399060394567 2.480874826131143 a39.651131824234355,39.651131824234355 0 0,0 -0.08496386136880074,-0.6772455717982085 l 18.525364431010214 -2.162311500045526" fill="#ffae10" stroke="none" /><path d="M 79.07016306316243 101.71520430193888 l -36.67011867831938 3.005123522914851 a57.79304786600322,57.79304786600322 0 0,0 -0.07271862904269502,-0.9921879180677486 l 36.71641386602641 -2.3734624683503416" fill="#65ff29" stroke="none" /><path d="M 79.04373962182676 101.35467743843564 l -12.348464311422006 0.7982428973555873 a33.37423785829421,33.37423785829421 0 0,0 -0.03212453016493414,-0.5736050661336661 l 12.360375192474473 -0.5855661148864835" fill="#ff5007" stroke="none" /><line stroke="#e1ed5e" stroke-width="0.3" x1="15.007084014347285" x2="10.007500721073583" y1="101.09737516637583" y2="101.16192664675087" /><path d="M 14.007167355692545 101.11028546245083 a86.0,86.0 0 0,1 10.666146001902534,-42.60595125391555" fill="none" id="id130" stroke="none" /><text fill="#e1ed5e" style="font-size:6.75px; font-family:Arial;" text-anchor="middle"><textPath startOffset="22.20632615414155" xlink:href="#id130">October</textPath></text><path d="M 79.00486145842228 99.54816195383935 l -9.768499879286175 -0.21022866272762944 a30.77076179129582,30.77076179129582 0 0,0 0.01595435505791387,-0.5294473724604539 l 9.763433829772616 0.3783461826130778" fill="#ff2703" stroke="none" /><path d="M 79.08570108090925 98.10471618934814 l -10.42636942749682 -0.9448525746073282 a31.469093839792556,31.469093839792556 0 0,0 0.05353173733966959,-0.53905728955866 l 10.408560564474922 1.1241853948704186" fill="#ff3204" stroke="none" /><path d="M 79.12142395522702 97.74499172005258 l -22.26160429325007 -2.4043834166918567 a43.39107155371785,43.39107155371785 0 0,0 0.08659545198153952,-0.7418969496264936 l 22.21691848826494 2.787224104643212" fill="#ffe315" stroke="none" /><path d="M 79.16333360222342 97.38593545837743 l -8.579116622533984 -1.076293305910194 a29.64636624851076,29.64636624851076 0 0,0 0.06788170964881875,-0.5057975833940361 l 8.559318913827331 1.2238092313688895" fill="#ff1502" stroke="none" /><path d="M 79.32604984820605 96.31383870115002 l -25.849319830272318 -4.608928707883002 a47.25699067909454,47.25699067909454 0 0,0 0.14967926310563764,-0.7995926086394836 l 25.766154843256817 5.053199393985058" fill="#e7ff1a" stroke="none" /><path d="M 79.46518482838121 95.60439243477599 l -10.532925379569553 -2.2546395521672515 a31.771532693251103,31.771532693251103 0 0,0 0.11907609316700628,-0.5337947771921985 l 10.49255489940051 2.4356124989094092" fill="#ff3705" stroke="none" /><path d="M 79.62865764111835 94.90015583598534 l -23.870547637571036 -5.975849353306117 a45.607190412782955,45.607190412782955 0 0,0 0.19720477059857353,-0.7599104260050641 l 23.764146535102157 6.385856204860045" fill="#fdff18" stroke="none" /><path d="M 80.14247586403 93.16781622104843 l -12.945174119615453 -4.453919231327177 a34.68995724998248,34.68995724998248 0 0,0 0.19913178444403803,-0.5629723699977819 l 12.866589254361605 4.67608922775157" fill="#ff6409" stroke="none" /><path d="M 80.803312248108 91.48605970444005 l -57.59006325567602 -25.54182088667983 a84.0,84.0 0 0,0 0.5975907321465934,-1.3167119646317162 l 57.141870206566075 26.529354860153617" fill="#4dd2ff" stroke="none" /><line stroke="#e1ed5e" stroke-width="0.3" x1="26.266209847984243" x2="21.928928074336255" y1="57.711370442889674" y2="55.22380399835377" /><path d="M 25.398753493254645 57.213857153982495 a86.0,86.0 0 0,1 29.58750427330803,-30.492523968695096" fill="none" id="id131" stroke="none" /><text fill="#e1ed5e" style="font-size:6.75px; font-family:Arial;" text-anchor="middle"><textPath startOffset="21.46611528233685" xlink:href="#id131">November</textPath></text><path d="M 82.15384107792192 88.93136811851018 l -7.193994401835667 -4.46189435716094 a29.465344453010022,29.465344453010022 0 0,0 0.2710424483537446,-0.4287240623108621 l 7.11612435723596 4.585066067186017" fill="#ff1202" stroke="none" /><path d="M 82.54541684631803 88.32363383020206 l -9.233106289438046 -6.176551394606128 a32.108557011703695,32.108557011703695 0 0,0 0.31126269763158537,-0.45673960097479427 l 9.125419126137722 6.334569018851338" fill="#ff3c05" stroke="none" /><path d="M 83.17141714833178 87.43820079747576 l -11.780833562640254 -8.793875690939418 a35.701030205340246,35.701030205340246 0 0,0 0.37184163165208267,-0.48930000046801153 l 11.627715990764063 8.995360467288457" fill="#ff730a" stroke="none" /><path d="M 83.6137871275137 86.86637796730984 l -11.325538481395638 -9.077469143653857 a35.51441586656388,35.51441586656388 0 0,0 0.38643321802552083,-0.4737214329212591 l 11.167606771293725 9.2710747461832" fill="#ff700a" stroke="none" /><path d="M 84.07557802195018 86.31012108654704 l -8.282953779444103 -7.12067505135304 a31.922972878267572,31.922972878267572 0 0,0 0.36180606113388136,-0.4136068723777126 l 8.159155854732377 7.262197479933696" fill="#ff3905" stroke="none" /><path d="M 84.5562425177563 85.77008943001954 l -13.173030507841341 -12.137657968128966 a38.91232742308501,38.91232742308501 0 0,0 0.4581142341510369,-0.48868432390106903 l 12.962148951719849 12.362611708908085" fill="#ffa30f" stroke="none" /><path d="M 85.05521093208273 85.24692304244772 l -8.139039585590103 -8.034631791796121 a32.436750998668444,32.436750998668444 0 0,0 0.39567306498790505,-0.39397391910236107 l 7.999530720434884 8.173541561548593" fill="#ff4106" stroke="none" /><path d="M 85.83668400450813 84.49514656593479 l -6.960065299627795 -7.619316860303126 a31.319714065456584,31.319714065456584 0 0,0 0.40117423596398716,-0.3601781900890727 l 6.827880076067837 7.737994059161477" fill="#ff3004" stroke="none" /><path d="M 86.65592168130627 83.78471172551755 l -13.273378737721465 -16.129376452101702 a41.88873782325321,41.88873782325321 0 0,0 0.5607038971685305,-0.45338355716793777 l 12.993771441988434 16.355466106533775" fill="#ffce13" stroke="none" /><path d="M 87.22198572758235 83.33499621200491 l -8.44643847623823 -11.01579057595975 a34.881281098885694,34.881281098885694 0 0,0 0.4796240037684771,-0.36124285599003053 l 8.255568318711363 11.159550021455635" fill="#ff6709" stroke="none" /><path d="M 87.80319425747018 82.90503203632743 l -6.6723852846161495 -9.351974204529265 a32.48826126568085,32.48826126568085 0 0,0 0.4580363090399257,-0.32088370565463364 l 6.5104178359925635 9.46544275294784" fill="#ff4206" stroke="none" /><path d="M 88.39885842347998 82.49532879139004 l -7.671761995657927 -11.57572902967577 a34.887167986544256,34.887167986544256 0 0,0 0.5034267750917004,-0.32744277824642387 l 7.471368194781939 11.70607073208173" fill="#ff6709" stroke="none" /><path d="M 89.00827224532344 82.1063720568725 l -9.604608533438482 -15.63551203891629 a39.34987034830752,39.34987034830752 0 0,0 0.5802005975834921,-0.3495643681352624 l 9.33404586963734 15.798523016510172" fill="#ffa90f" stroke="none" /><line stroke="#e1ed5e" stroke-width="0.3" x1="56.762969772571076" x2="54.21961505331055" y1="26.818313649435495" y2="22.513508569990535" /><path d="M 56.25429882871897 25.957352633546506 a86.0,86.0 0 0,1 42.265352541879196,-11.944610805530505" fill="none" id="id132" stroke="none" /><text fill="#e1ed5e" style="font-size:6.75px; font-family:Arial;" text-anchor="middle"><textPath startOffset="22.20632615414155" xlink:href="#id132">December</textPath></text><path d="M 89.63071344664047 81.73862282372117 l -4.825289979277261 -8.497830573305166 a30.772233513210455,30.772233513210455 0 0,0 0.4628670139177657,-0.25758499210975544 l 4.67829887628745 8.579630962975106" fill="#ff2703" stroke="none" /><path d="M 90.26544431104013 81.39251694778311 l -6.283219419393121 -12.010296370517736 a34.554558833835586,34.554558833835586 0 0,0 0.5294079481325542,-0.27118331334975754 l 6.075550983671803 12.116672209179999" fill="#ff6209" stroke="none" /><path d="M 90.91171255644093 81.06846463323043 l -7.815392184188908 -16.28000593720274 a39.058763753591705,39.058763753591705 0 0,0 0.6086132638036332,-0.2857520879687097 l 7.534000709085666 16.41212300781146" fill="#ffa50f" stroke="none" /><path d="M 91.56875222667455 80.76684994638697 l -5.616538130532463 -12.812305313589826 a34.98930548742028,34.98930548742028 0 0,0 0.5536911674812598,-0.2370616619525921 l 5.3951632052608955 12.907086503505205" fill="#ff6809" stroke="none" /><path d="M 92.23578459929587 80.48803036053334 l -3.224143634017255 -8.102479059831227 a29.720393860817154,29.720393860817154 0 0,0 0.47696538447312603,-0.1850551590737288 l 3.0841950845444526 8.156776922795506" fill="#ff1602" stroke="none" /><path d="M 93.59665428221793 80.00007090966166 l -7.411124362285772 -23.147580695788818 a45.30504590370734,45.30504590370734 0 0,0 0.7447602159986503,-0.2314006244177453 l 7.011578773576392 23.27172145508909" fill="#fffd17" stroke="none" /></svg>