<?xml version="1.0" encoding="utf-8" ?>
<svg baseProfile="full" height="200mm" version="1.1" viewBox="0,0,200,200" width="200mm" xmlns="http://www.w3.org/2000/svg" xmlns:ev="http://www.w3.org/2001/xml-events" xmlns:xlink="http://www.w3.org/1999/xlink"><defs /><rect fill="#1a1a1a" height="200" width="200" x="0" y="0" /><text alignment-baseline="middle" fill="#e1ed5e" style="dominant-baseline: central; font-size:9.0px; font-family:Arial;" text-anchor="middle" x="100.0" y="100.0">2024</text><line stroke="#e1ed5e" stroke-width="0.3" x1="100.0" x2="100.0" y1="15.0" y2="10.0" /><path d="M 100.0 14.0 a86.0,86.0 0 0,1 42.35913384403234,11.155469271406648" fill="none" id="id109" stroke="none" /><text fill="#e1ed5e" style="font-size:6.75px; font-family:Arial;" text-anchor="middle"><textPath startOffset="22.145653131862478" xlink:href="#id109">January</textPath></text><path d="M 103.23170211078529 79.25015418208739 l 2.15746597743658 -13.852479236807767 a35.019480748229824,35.019480748229824 0 0,0 0.5932008158831067,0.09761096851418082 l -2.3949442963727567 13.813402269797919" fill="#ff0000" stroke="none" /><path d="M 104.29559338865022 79.4440306129975 l 3.3477391642578116 -16.02014379619312 a37.3661957938493,37.3661957938493 0 0,0 0.6267513574553216,0.13659754124684675 l -3.622252938332267 15.960314796812554" fill="#ff2b04" stroke="none" /><line stroke="#e1ed5e" stroke-width="0.3" x1="143.13028292997686" x2="145.6673583964461" y1="26.7553504044142" y2="22.446841604673864" /><path d="M 143.63769802327073 25.89364864446614 a86.0,86.0 0 0,1 29.32050498858742,28.57503671076993" fill="none" id="id110" stroke="none" /><text fill="#e1ed5e" style="font-size:6.75px; font-family:Arial;" text-anchor="middle"><textPath startOffset="20.669276256404974" xlink:href="#id110">February</textPath></text><path d="M 113.31354834802062 83.75963576809568 l 11.756650644984397 -14.341202182225615 a39.544242082643464,39.544242082643464 0 0,0 0.5212791021233848,0.4348695669250476 l -12.001104081269675 14.137270431388698" fill="#ff5207" stroke="none" /><path d="M 113.86319453409587 84.22622945171908 l 10.677594860093421 -12.14914289173262 a37.17444604924789,37.17444604924789 0 0,0 0.4757177981857383,0.42538978855919685 l -10.884577685102535 11.964057573290036" fill="#ff2703" stroke="none" /><path d="M 114.39649973595853 84.71141617570332 l 12.814593864383443 -13.608654607938972 a39.692493042589916,39.692493042589916 0 0,0 0.4920499068374204,0.47137268013105144 l -13.046316257086175 13.386669797502341" fill="#ff5407" stroke="none" /><path d="M 114.91283532996326 85.21462403516908 l 13.81539942605325 -13.697319798609348 a40.454609504350586,40.454609504350586 0 0,0 0.4847101764564011,0.4973553416801892 l -14.048496403660463 13.458141764861416" fill="#ff6209" stroke="none" /><path d="M 115.41159269507618 85.73525988315684 l 13.466996833758538 -12.464851218738078 a39.35027301229436,39.35027301229436 0 0,0 0.4545936526324966,0.4996780573298063 l -13.678988187232912 12.2318355858506" fill="#ff4e07" stroke="none" /><path d="M 117.62189284568427 88.57770195909679 l 14.961506613272796 -9.697867826928695 a38.82961919188361,38.82961919188361 0 0,0 0.35775449307301366,0.5624494845526472 l -15.1257787979717 9.439604667697376" fill="#ff4506" stroke="none" /><line stroke="#e1ed5e" stroke-width="0.3" x1="172.87174338648825" x2="177.1583165268699" y1="56.24261187166439" y2="53.66864786411523" /><path d="M 173.72905801456457 55.72781907015455 a86.0,86.0 0 0,1 12.242430191666344,42.057860355516425" fill="none" id="id111" stroke="none" /><text fill="#e1ed5e" style="font-size:6.75px; font-family:Arial;" text-anchor="middle"><textPath startOffset="22.145653131862474" xlink:href="#id111">March</textPath></text><path d="M 118.00360718960297 89.18935116829356 l 16.794783597698824 -10.084784997090866 a40.58998837496037,40.58998837496037 0 0,0 0.3535702847289219,0.600439641317122 l -16.965427592557514 9.794994187480187" fill="#ff6409" stroke="none" /><path d="M 118.70294669586156 90.45014215332178 l 16.405515648957362 -8.37677318428463 a39.42040370592173,39.42040370592173 0 0,0 0.30256114716899185,0.6053249720154378 l -16.546896709338093 8.09391635610544" fill="#ff4f07" stroke="none" /><path d="M 119.0197475246899 91.09779779509293 l 20.82450293852387 -9.74691886602441 a43.99265861133618,43.99265861133618 0 0,0 0.3142658201918394,0.6867275330697167 l -20.98875322357076 9.38800235074001" fill="#ff9e0e" stroke="none" /><path d="M 119.31412917781788 91.75594674310238 l 31.760437877216276 -13.556642337407277 a55.53270863423398,55.53270863423398 0 0,0 0.36671197478352113,0.879975242673463 l -31.98847569653628 13.009434585292537" fill="#aeff20" stroke="none" /><path d="M 119.58574465831526 92.42381321644754 l 18.201971470351864 -7.0409135876144235 a40.51630676013668,40.51630676013668 0 0,0 0.24535385833575896,0.6508302590275228 l -18.320156012502064 6.727415048392743" fill="#ff6309" stroke="none" /><path d="M 119.94978838288452 93.4421083053983 l 28.565859315852585 -9.390165347182686 a51.069644555606445,51.069644555606445 0 0,0 0.26662071409563637,0.8351855894652056 l -28.722844745725478 8.898410724026093" fill="#f0ff19" stroke="none" /><path d="M 120.16314734710363 94.1308016681162 l 33.02233005651161 -9.612319006855593 a55.392891112128794,55.392891112128794 0 0,0 0.2579238295853541,0.9152806803815191 l -33.18247237817155 9.044030402571062" fill="#b0ff20" stroke="none" /><path d="M 120.43855184770803 95.1765574152323 l 33.037057509848985 -7.796655617080572 a54.94458731109311,54.94458731109311 0 0,0 0.20876101350579496,0.9198395444985606 l -33.16602938491245 7.228381738642986" fill="#b7ff1f" stroke="none" /><path d="M 120.86939407059847 97.66154086499901 l 18.111314005947143 -2.0294105109523106 a39.22465917497446,39.22465917497446 0 0,0 0.0692363938732557,0.6697993045304365 l -18.143482792302066 1.7182066841389427" fill="#ff4c07" stroke="none" /><path d="M 120.93736805541906 98.37931529534042 l 18.316343251046032 -1.4178008082817184 a39.371134674322754,39.371134674322754 0 0,0 0.046375519822831474,0.6742898801964518 l -18.33798273203393 1.1031675039309325" fill="#ff4f07" stroke="none" /><path d="M 120.98066250479742 99.09900007780936 l 30.410024263215206 -1.3059372881436562 a51.43805262972488,51.43805262972488 0 0,0 0.03031247626502116,0.8825146726433795 l -30.427961426477076 0.7837163509361567" fill="#eaff1a" stroke="none" /><line stroke="#e1ed5e" stroke-width="0.3" x1="184.99686870605535" x2="189.99668451229388" y1="99.2704041080226" y2="99.22748670261217" /><path d="M 185.99683186730306 99.26182062694052 a86.0,86.0 0 0,1 -10.086455211305974,41.156179273409016" fill="none" id="id112" stroke="none" /><text fill="#e1ed5e" style="font-size:6.75px; font-family:Arial;" text-anchor="middle"><textPath startOffset="21.40746469413373" xlink:href="#id112">April</textPath></text><path d="M 120.99303781780057 100.54070618675476 l 18.471980082890855 0.47577268231092606 a39.47810617536196,39.47810617536196 0 0,0 -0.023264472413898042,0.6773197305645623 l -18.46109092348011 -0.7927986774395991" fill="#ff5007" stroke="none" /><path d="M 120.96210409425399 101.26102812881392 l 21.202835623993902 1.2755099398539433 a42.24116673125022,42.24116673125022 0 0,0 -0.0497561495570059,0.7234434945850913 l -21.177815513271828 -1.639296858593378" fill="#ff800b" stroke="none" /><path d="M 120.9064616781168 101.97986365728391 l 21.816014648577728 2.06599926924522 a42.91362243280375,42.91362243280375 0 0,0 -0.07574787207281619,0.7327919493743416 l -21.777334384023245 -2.440195740902493" fill="#ff8c0c" stroke="none" /><path d="M 120.77682067341334 103.0534771498775 l 25.762613551395933 3.7862170077337405 a47.03934899778068,47.03934899778068 0 0,0 -0.12427013777067394,0.7979034298695454 l -25.69382192148699 -4.227908619534737" fill="#ffcf13" stroke="none" /><path d="M 120.65975698304385 103.76489593502545 l 33.04309319562323 6.021552303590568 a54.58727586571318,54.58727586571318 0 0,0 -0.175910635811877,0.9204387793270425 l -32.93485626752919 -6.587893647950924" fill="#bcff1f" stroke="none" /><path d="M 120.51834098615036 104.47187691870673 l 35.14796798300397 7.660336031491595 a56.973051044492195,56.973051044492195 0 0,0 -0.21646812653672662,0.9537985065706326 l -35.011288994909584 -8.262568872001244" fill="#9aff23" stroke="none" /><path d="M 120.26092885502905 105.52220625578681 l 25.87577632453068 7.052557901717113 a47.81966393067249,47.81966393067249 0 0,0 -0.2226608975060946,0.790144974550689 l -25.750896934950006 -7.49571080017081" fill="#ffdc14" stroke="none" /><path d="M 120.05942366710727 106.21446072829308 l 31.991766924329703 9.911131171029426 a54.49184485856202,54.49184485856202 0 0,0 -0.28448709042334197,0.8911517588435794 l -31.816915118129106 -10.458851963564388" fill="#bdff1f" stroke="none" /><path d="M 119.71291397450082 107.23885506374661 l 20.866369785669526 7.6624200146355035 a43.228766688977345,43.228766688977345 0 0,0 -0.2617796523515398,0.6944016291561039 l -20.731759449503546 -8.019489923985766" fill="#ff910d" stroke="none" /><path d="M 119.4528033332814 107.91128576633889 l 24.571096499036095 9.992851038779971 a47.52538133652728,47.52538133652728 0 0,0 -0.3138353390440187,0.7530905659620245 l -24.395935315455592 -10.413174114183274" fill="#ffd714" stroke="none" /><path d="M 119.16976305983485 108.57439118712176 l 33.078933093421284 14.795786025644569 a57.23715080846866,57.23715080846866 0 0,0 -0.40887913374782314,0.8934746981740693 l -32.820069494818405 -15.361449706033326" fill="#96ff23" stroke="none" /><path d="M 118.8641267826498 109.22738970284198 l 21.72029393352271 10.62448418069503 a45.17955402120689,45.17955402120689 0 0,0 -0.3467640208663502,0.6937603297413505 l -21.534709999444626 -10.995776366600126" fill="#ffb110" stroke="none" /><line stroke="#e1ed5e" stroke-width="0.3" x1="174.33088141563837" x2="178.70328620479359" y1="141.23008692659167" y2="143.65538615756765" /><path d="M 175.20536237346943 141.71514677278685 a86.0,86.0 0 0,1 -30.301960400862466,31.631185727798858" fill="none" id="id113" stroke="none" /><text fill="#e1ed5e" style="font-size:6.75px; font-family:Arial;" text-anchor="middle"><textPath startOffset="22.145653131862474" xlink:href="#id113">May</textPath></text><path d="M 118.36410011445183 110.18625677009912 l 30.042935474518025 16.66430987435809 a55.35516257441787,55.35516257441787 0 0,0 -0.46805856890637704,0.8270146427517153 l -29.75244354059027 -17.177581287208927" fill="#b1ff20" stroke="none" /><path d="M 117.62189284568427 111.42229804090321 l 25.282856653363478 16.388042223902005 a51.12956635079438,51.12956635079438 0 0,0 -0.48372358488019074,0.7324191604817627 l -24.99780862956256 -16.81964126272283" fill="#efff19" stroke="none" /><path d="M 117.21940702142032 112.02048342749411 l 21.49165430545397 15.002843831194431 a47.21023708035368,47.21023708035368 0 0,0 -0.4695955105193751,0.6605448946024441 l -21.230943696404633 -15.36956595250638" fill="#ffd213" stroke="none" /><path d="M 116.79662413953412 112.60449989151573 l 21.02539482331268 15.777848249027429 a47.28702575122415,47.28702575122415 0 0,0 -0.4927939086881663,0.6450830453698005 l -20.751448937270208 -16.136452207638108" fill="#ffd313" stroke="none" /><path d="M 116.35404254752997 113.17365903436017 l 29.27930714649619 23.585337263813233 a58.59715362666009,58.59715362666009 0 0,0 -0.6377412307112359,0.7779406061940817 l -28.870119096546325 -24.084480151705808" fill="#84ff25" stroke="none" /><path d="M 115.6541949942343 113.99807769240083 l 26.249879730881986 23.47280432014555 a56.21404163877831,56.21404163877831 0 0,0 -0.6494121784065675,0.7138177443380292 l -25.84306985163354 -23.919959640041252" fill="#a5ff21" stroke="none" /><path d="M 115.16444852881244 114.52719865689866 l 26.635410703723124 25.5161209368009 a57.88519392679748,57.88519392679748 0 0,0 -0.693556133806066,0.7116496922455968 l -26.19346776876625 -25.969593321114232" fill="#8dff24" stroke="none" /><path d="M 114.39649973595853 115.28858382429668 l 20.784879930201498 22.0728222081039 a51.31865290449854,51.31865290449854 0 0,0 -0.6465422730858247,0.5984298756525576 l -20.402907885801707 -22.426369829888838" fill="#ecff1a" stroke="none" /><path d="M 113.59037401385872 116.0094264158162 l 16.89817730890761 19.9060103800307 a47.111255152006194,47.111255152006194 0 0,0 -0.6210287893296651,0.5180843037130936 l -16.55397418541605 -20.193156867655663" fill="#ffd113" stroke="none" /><path d="M 112.7482090630111 116.68781488649013 l 18.28714804710123 23.938463818994162 a51.124239968999895,51.124239968999895 0 0,0 -0.7019772280604694,0.5267767988038156 l -17.873517830129995 -24.24885964506199" fill="#efff19" stroke="none" /><path d="M 112.16784306229584 117.11559508785304 l 15.960376329163811 22.450268079655835 a48.54538345017085,48.54538345017085 0 0,0 -0.6833454118439377,0.4770281687462375 l -15.572635826146115 -22.720941064207196" fill="#ffe715" stroke="none" /><path d="M 111.5731344415666 117.5232005979908 l 20.285906349507556 30.715447752662342 a57.80973685137563,57.80973685137563 0 0,0 -0.8327750472848833,0.5397947243473826 l -19.755645669965663 -31.059156318713622" fill="#8eff24" stroke="none" /><path d="M 110.96478420261333 117.91015095944535 l 15.139490499927053 24.72921995474902 a49.99549089371895,49.99549089371895 0 0,0 -0.735808026432357,0.44183157839085585 l -14.712749716937259 -24.9854655336758" fill="#fffe18" stroke="none" /><line stroke="#e1ed5e" stroke-width="0.3" x1="143.1302829299769" x2="145.66735839644613" y1="173.24464959558577" y2="177.55315839532614" /><path d="M 143.63769802327073 174.10635135553383 a86.0,86.0 0 0,1 -40.68552437913181,11.842963189579606" fill="none" id="id114" stroke="none" /><text fill="#e1ed5e" style="font-size:6.75px; font-family:Arial;" text-anchor="middle"><textPath startOffset="21.407464694133747" xlink:href="#id114">June</textPath></text><path d="M 110.34350942703117 118.27599006163325 l 19.62158673497122 34.669463656566414 a60.83689717124036,60.83689717124036 0 0,0 -0.9132945432277896,0.506589087734687 l -19.023548003587337 -35.00118565973425" fill="#66ff29" stroke="none" /><path d="M 110.02825361518725 118.45085714620011 l 14.387949175303714 26.472205934069756 a51.12956635079438,51.12956635079438 0 0,0 -0.774761897943155,0.4125170720172853 l -13.931398461574005 -26.71529347380961" fill="#efff19" stroke="none" /><path d="M 109.3889696526874 118.78422872680471 l 16.475860657520666 32.96275805655068 a57.85101631028287,57.85101631028287 0 0,0 -0.8921170810408553,0.43637916889410805 l -15.90758332721774 -33.240730975542014" fill="#8eff24" stroke="none" /><path d="M 108.4095320186766 119.2426549942271 l 13.771523339761691 31.511940472245623 a55.389784056082014,55.389784056082014 0 0,0 -0.8745385517562325,0.37328850446795103 l -13.228549712835028 -31.743703626372977" fill="#b0ff20" stroke="none" /><path d="M 107.74402155503746 119.51999308798841 l 14.542730696205348 36.65718136925199 a60.436530806355016,60.436530806355016 0 0,0 -0.9676399055124218,0.3743039027249186 l -13.911318528199397 -36.90142516011495" fill="#6bff28" stroke="none" /><path d="M 107.06938296918513 119.77432235084164 l 10.895072938981926 30.475458080352663 a53.3644273787297,53.3644273787297 0 0,0 -0.8652514047895271,0.30097935351506533 l -10.370315762147376 -30.65799586643632" fill="#ceff1d" stroke="none" /><path d="M 106.38641147887787 120.00534299687104 l 10.331151637071583 32.362185358062305 a54.97121922006552,54.97121922006552 0 0,0 -0.901421631471284,0.2792627256583602 l -9.774089372728675 -32.534764671527306" fill="#b6ff1f" stroke="none" /><path d="M 105.69591212413111 120.21278271476187 l 10.43250639623591 37.02128480250163 a59.46313453341318,59.46313453341318 0 0,0 -0.9848754356877869,0.2684321795432367 l -9.795449559613427 -37.19491747618901" fill="#78ff26" stroke="none" /><path d="M 105.3480935250658 120.30758222061773 l 7.578742319823233 28.77771902591994 a50.75893895092824,50.75893895092824 0 0,0 -0.8445192662356918,0.21467349501020833 l -7.083617760362143 -28.903577752765415" fill="#f5ff19" stroke="none" /><path d="M 104.29559338865022 120.5559693870025 l 7.773288363743016 37.19799878257414 a59.00151477789129,59.00151477789129 0 0,0 -0.9932020396657928,0.1986682241785613 l -7.133589838546264 -37.32595640341556" fill="#7eff26" stroke="none" /><path d="M 103.58742460773223 120.69131181640829 l 6.736629129869922 38.855086631563275 a60.434755345756855,60.434755345756855 0 0,0 -1.0237143844747294,0.16845181239630025 l -6.0686372423421195 -38.965004442455246" fill="#6bff28" stroke="none" /><path d="M 102.875027216393 120.80226474461374 l 3.1347084008376873 22.68118843521822 a43.89678373903547,43.89678373903547 0 0,0 -0.7473368444937883,0.09675771672459152 l -2.744893734453124 -22.731657748143206" fill="#ff9c0e" stroke="none" /><path d="M 102.15924093988457 120.88869738790638 l 2.3702436653307126 22.92995735035581 a44.05213654137457,44.05213654137457 0 0,0 -0.752872906596298,0.07129784701367954 l -1.9762711953493992 -22.967266952874674" fill="#ff9f0e" stroke="none" /><path d="M 101.44090949804482 120.95050786540614 l 1.5665189193947904 22.776841284356152 a43.83064783175398,43.83064783175398 0 0,0 -0.7510812462833139,0.04518318267713985 l -1.1752933209790115 -22.800376444857985" fill="#ff9b0e" stroke="none" /><path d="M 100.72087961077811 120.9876233191556 l 1.6806980406569105 48.93168965130784 a69.96054532004086,69.96054532004086 0 0,0 -1.2006118606520504,0.03092350266693327 l -0.8404728659341162 -48.95333087132482" fill="#37ff77" stroke="none" /><line stroke="#e1ed5e" stroke-width="0.3" x1="101.45913802915013" x2="101.54496967792366" y1="184.9874750549273" y2="189.98673829345242" /><path d="M 101.47630435890484 185.9873277026323 a86.0,86.0 0 0,1 -42.54439059252881,-10.42667462771756" fill="none" id="id115" stroke="none" /><text fill="#e1ed5e" style="font-size:6.75px; font-family:Arial;" text-anchor="middle"><textPath startOffset="22.145653131862474" xlink:href="#id115">July</textPath></text><path d="M 100.0 121.0 l 4.135269898505301e-15 33.76704125127699 a54.76704125127699,54.76704125127699 0 0,0 -0.9401490898090754,-0.008070049217261609 l 0.5796561649602191 -33.76206560025417" fill="#b9ff1f" stroke="none" /><path d="M 99.27912038922189 120.98762331915562 l -0.9127620336843434 26.574070699982748 a47.58974178321063,47.58974178321063 0 0,0 -0.8162190023795415,-0.03505195593639507 l 1.3688067966647237 -26.554486175620525" fill="#ffd814" stroke="none" /><path d="M 98.19965949673042 120.92268563240118 l -3.39316650600378 39.4337382148423 a60.57945538450699,60.57945538450699 0 0,0 -1.0353329993998832,-0.09804711147483045 l 4.069599068788679 -39.36967934786228" fill="#69ff28" stroke="none" /><path d="M 97.48249496171623 120.84855314841334 l -3.930862360090259 32.553179273598595 a53.789650191989296,53.789650191989296 0 0,0 -0.9157615664939182,-0.11856366896791391 l 4.489101748474971 -32.48090400843029" fill="#c7ff1e" stroke="none" /><path d="M 96.76829788921471 120.74984581791261 l -5.83024698553495 37.43436798412189 a58.88566597386127,58.88566597386127 0 0,0 -0.9974741016478661,-0.16413398384274122 l 6.47199859023588 -37.32876800178349" fill="#80ff26" stroke="none" /><path d="M 96.05791012581884 120.62667999033965 l -7.4713761283957725 39.09339700680803 a60.80094409412759,60.80094409412759 0 0,0 -1.0234927343004685,-0.20472721144587575 l 8.141365348227199 -38.959380398699295" fill="#66ff29" stroke="none" /><path d="M 95.00130118170881 120.39639698878247 l -7.412520767118889 30.245614258759293 a52.140691161447144,52.140691161447144 0 0,0 -0.867508642827615,-0.22051730464062283 l 7.930634703171883 -30.113911722283408" fill="#e0ff1b" stroke="none" /><path d="M 94.30408787586889 120.21278271476187 l -9.861851727513303 34.99623269975098 a57.359213724592244,57.359213724592244 0 0,0 -0.9454436918300537,-0.27520487964773044 l 10.461155431724963 -34.82178412580074" fill="#95ff23" stroke="none" /><path d="M 93.61358852112213 120.00534299687104 l -8.591857342387218 26.913870752474892 a49.25201676823898,49.25201676823898 0 0,0 -0.8032236127673293,-0.2640355555647871 l 9.052603692802291 -26.762414275508085" fill="#fff216" stroke="none" /><path d="M 92.59220618246901 119.65005319985036 l -12.857886249951981 34.10707088678012 a57.450206080248,57.450206080248 0 0,0 -0.9198263242686826,-0.3558085823471275 l 13.441484836714192 -33.88132241629495" fill="#93ff23" stroke="none" /><path d="M 91.59046798132341 119.24265499422711 l -11.711429435584526 26.7980424615416 a50.24538697291014,50.24538697291014 0 0,0 -0.7873849248150857,-0.3521872617378672 l 12.169727763255246 -26.593051448893874" fill="#fcff18" stroke="none" /><path d="M 90.93487009805054 118.94263497670748 l -13.326095424255863 27.84641411836416 a51.87082115052665,51.87082115052665 0 0,0 -0.7998968472361109,-0.3912696313253653 l 13.802152520754042 -27.613550736941573" fill="#e4ff1a" stroke="none" /><line stroke="#e1ed5e" stroke-width="0.3" x1="58.13341422392154" x2="55.67067388415222" y1="173.97424548756322" y2="178.32567169271397" /><path d="M 57.64086615596768 174.84453072859336 a86.0,86.0 0 0,1 -31.369924170532247,-30.572349798747897" fill="none" id="id116" stroke="none" /><text fill="#e1ed5e" style="font-size:6.75px; font-family:Arial;" text-anchor="middle"><textPath startOffset="22.145653131862474" xlink:href="#id116">August</textPath></text><path d="M 89.65649057296885 118.27599006163327 l -17.9101908468224 31.64559110499426 a57.362320780639024,57.362320780639024 0 0,0 -0.8528070766058771,-0.4923683952452247 l 18.450790391288674 -31.333475812472862" fill="#95ff23" stroke="none" /><path d="M 89.03521579738668 117.91015095944536 l -17.20119593410005 28.096860838292045 a53.944115264029314,53.944115264029314 0 0,0 -0.7856212137353604,-0.4902857416646028 l 17.680981276625122 -27.797439299785893" fill="#c5ff1e" stroke="none" /><path d="M 86.96720088162412 116.46651593811092 l -24.19784069374345 30.57318123545589 a59.990446331067034,59.990446331067034 0 0,0 -0.8020129330233846,-0.6460448473269353 l 24.7191043971221 -30.153288094335547" fill="#71ff27" stroke="none" /><path d="M 86.68645165197938 116.24036423190432 l -12.10024121530743 14.760326810974451 a40.08620143023215,40.08620143023215 0 0,0 -0.5284233048497383,-0.4408295149317466 l 12.351838854319059 -14.550435112130835" fill="#ff5b08" stroke="none" /><path d="M 86.13680546590413 115.77377054828092 l -23.586525748167396 26.837136582602028 a56.728925212245045,56.728925212245045 0 0,0 -0.72595458072627,-0.6491530625435133 l 24.04374535571704 -26.428287990175132" fill="#9dff22" stroke="none" /><path d="M 85.60350026404147 115.28858382429668 l -28.68244052090289 30.459757873918456 a62.83872899566703,62.83872899566703 0 0,0 -0.7789833386107231,-0.7462484170730583 l 29.201096345378925 -29.962897326539814" fill="#4cff2c" stroke="none" /><path d="M 85.08716467003676 114.78537596483092 l -21.588334626748498 21.40382005491112 a51.400324092013946,51.400324092013946 0 0,0 -0.6158571412703211,-0.6319236809962849 l 21.952578569169628 -21.030073681847096" fill="#ebff1a" stroke="none" /><path d="M 84.3458050057657 113.99807769240083 l -26.05466413825301 23.298241333457632 a55.95216120054955,55.95216120054955 0 0,0 -0.634095014920767,-0.7214837277634172 l 26.45077021713237 -22.847545327882916" fill="#a8ff21" stroke="none" /><path d="M 83.8745106332314 113.45245675266167 l -32.03170797947468 26.721990043649797 a62.71444675379575,62.71444675379575 0 0,0 -0.682551727869981,-0.8326021266428318 l 32.48570652658329 -26.16818563530847" fill="#4eff2c" stroke="none" /><path d="M 83.4222238831116 112.89097897827486 l -25.030473884029806 19.463847887689386 a52.70750695741008,52.70750695741008 0 0,0 -0.5492825560101872,-0.7190284980242531 l 25.36090841739429 -19.03129847642426" fill="#d7ff1c" stroke="none" /><path d="M 82.98947788004972 112.3143062007846 l -28.671661389835528 20.756071750764114 a56.39602635008983,56.39602635008983 0 0,0 -0.5609656384495361,-0.789068422130823 l 29.023742126815023 -20.26082610192379" fill="#a2ff22" stroke="none" /><path d="M 82.576782715395 111.72311816256416 l -33.69622111969614 22.67232138390011 a61.61366118293585,61.61366118293585 0 0,0 -0.5829108907460964,-0.8826013834774589 l 34.08045644936296 -22.09054012208359" fill="#5cff2a" stroke="none" /><path d="M 82.18462484594161 111.11811171558189 l -31.609786183269044 19.726844428037946 a58.26025997815901,58.26025997815901 0 0,0 -0.5222117774783901,-0.8529936927722772 l 31.94376592520284 -19.18131361914111" fill="#88ff25" stroke="none" /><line stroke="#e1ed5e" stroke-width="0.3" x1="26.387840678322732" x2="22.057713659400548" y1="142.50000000000003" y2="145.00000000000006" /><path d="M 25.521815274538298 143.00000000000003 a86.0,86.0 0 0,1 -11.493303480769221,-40.785679425670985" fill="none" id="id117" stroke="none" /><text fill="#e1ed5e" style="font-size:6.75px; font-family:Arial;" text-anchor="middle"><textPath startOffset="21.40746469413373" xlink:href="#id117">September</textPath></text><path d="M 81.81346652052679 110.50000000000001 l -54.559600438419615 31.50000000000003 a84.0,84.0 0 0,0 -0.7102665399144867,-1.2549729196035138 l 55.09230034335548 -30.558770310297394" fill="#4dd2ff" stroke="none" /><line stroke="#e1ed5e" stroke-width="0.3" x1="15.003131293944662" x2="10.003315487706104" y1="100.72959589197737" y2="100.7725132973878" /><path d="M 14.003168132696942 100.73817937305945 a86.0,86.0 0 0,1 10.791469493833604,-42.45332614584628" fill="none" id="id118" stroke="none" /><text fill="#e1ed5e" style="font-size:6.75px; font-family:Arial;" text-anchor="middle"><textPath startOffset="22.145653131862435" xlink:href="#id118">October</textPath></text><line stroke="#e1ed5e" stroke-width="0.3" x1="26.387840678322718" x2="22.05771365940052" y1="57.49999999999999" y2="54.99999999999999" /><path d="M 25.521815274538284 56.99999999999999 a86.0,86.0 0 0,1 29.574782752854787,-30.34633250058573" fill="none" id="id119" stroke="none" /><text fill="#e1ed5e" style="font-size:6.75px; font-family:Arial;" text-anchor="middle"><textPath startOffset="21.40746469413373" xlink:href="#id119">November</textPath></text><line stroke="#e1ed5e" stroke-width="0.3" x1="56.869717070023135" x2="54.33264160355391" y1="26.7553504044142" y2="22.446841604673864" /><path d="M 56.362301976729285 25.89364864446614 a86.0,86.0 0 0,1 42.16139366436587,-11.88097634709845" fill="none" id="id120" stroke="none" /><text fill="#e1ed5e" style="font-size:6.75px; font-family:Arial;" text-anchor="middle"><textPath startOffset="22.145653131862474" xlink:href="#id120">December</textPath></text></svg>