<?xml version="1.0" encoding="utf-8" ?>
<svg baseProfile="full" height="200mm" version="1.1" viewBox="0,0,200,200" width="200mm" xmlns="http://www.w3.org/2000/svg" xmlns:ev="http://www.w3.org/2001/xml-events" xmlns:xlink="http://www.w3.org/1999/xlink"><defs /><rect fill="#1a1a1a" height="200" width="200" x="0" y="0" /><text alignment-baseline="middle" fill="#e1ed5e" style="dominant-baseline: central; font-size:9.0px; font-family:Arial;" text-anchor="middle" x="100.0" y="100.0">2025</text><line stroke="#e1ed5e" stroke-width="0.3" x1="100.0" x2="100.0" y1="15.0" y2="10.0" /><path d="M 100.0 14.0 a86.0,86.0 0 0,1 42.46469731375804,11.215312516191453" fill="none" id="id121" stroke="none" /><text fill="#e1ed5e" style="font-size:6.75px; font-family:Arial;" text-anchor="middle"><textPath startOffset="22.20632615414155" xlink:href="#id121">January</textPath></text><path d="M 100.0 79.0 l 0.0 -27.765677733301942 a48.76567773330194,48.76567773330194 0 0,0 0.8394209790039834,0.007225161380948369 l -0.477940499731455 27.761563948529552" fill="#ffee16" stroke="none" /><path d="M 101.80526077348638 79.07773832637324 l 1.3806421673060851 -16.001099190913703 a37.06055254689585,37.06055254689585 0 0,0 0.6351029351323557,0.06031067634556147 l -1.655870229528685 15.974962970052962" fill="#ff2a04" stroke="none" /><path d="M 103.2404852339499 79.25152402106235 l 3.4746855965270607 -22.248035534488377 a43.51773801114513,43.51773801114513 0 0,0 0.7391193411178848,0.12196102430334459 l -3.8571341437838207 22.184928247245406" fill="#ff9a0e" stroke="none" /><path d="M 104.307194497241 79.44645832069477 l 3.509378076748989 -16.74643404543345 a38.1101954320697,38.1101954320697 0 0,0 0.6408996571793524,0.14007584153734257 l -3.7971204580818694 16.683544705800234" fill="#ff3d05" stroke="none" /><path d="M 105.36241919743992 79.69619591428918 l 6.008047566396277 -22.748355962916737 a44.5283729691547,44.5283729691547 0 0,0 0.7393875068465763,0.20210253614605225 l -6.398732962466564 22.64156688594439" fill="#ffaa0f" stroke="none" /><path d="M 106.0581310904928 79.89281104454417 l 5.293078667244777 -17.567948155728292 a39.34801036025429,39.34801036025429 0 0,0 0.646833749099523,0.20097439447057422 l -5.594697789055019 17.4742336263752" fill="#ff5307" stroke="none" /><path d="M 106.74666289553966 80.11325718540242 l 7.750993059985682 -22.847147979421383 a45.12612824739031,45.12612824739031 0 0,0 0.7334456979896647,0.2558848024447994 l -8.14312076203862 22.710342323804376" fill="#ffb410" stroke="none" /><path d="M 107.76421540070413 80.48803036053334 l 8.119082478249858 -20.40377329067531 a42.95981477121105,42.95981477121105 0 0,0 0.6847306173056855,0.2793188113608922 l -8.46909696514393 20.260993593130838" fill="#ff900d" stroke="none" /><path d="M 108.76106565485865 80.91482961587045 l 9.9408057308746 -21.655124913264242 a44.827800015697356,44.827800015697356 0 0,0 0.6985063287923999,0.32795808731534004 l -10.312090270966596 21.4808018433089" fill="#ffaf10" stroke="none" /><path d="M 109.73455568895987 81.39251694778311 l 12.856398130298073 -24.57484634798319 a48.734636213797984,48.734636213797984 0 0,0 0.7399657220195351,0.3952640620670383 l -13.27750889884592 24.349903559414397" fill="#ffed16" stroke="none" /><path d="M 110.36928655335952 81.73862282372117 l 13.827614392153633 -24.35184721377465 a49.00384585197395,49.00384585197395 0 0,0 0.7299315763934676,0.42282348287031174 l -14.244742701012429 24.11021957351429" fill="#fff216" stroke="none" /><line stroke="#e1ed5e" stroke-width="0.3" x1="143.23703022742887" x2="145.7803849466894" y1="26.81831364943548" y2="22.513508569990506" /><path d="M 143.74570117128098 25.957352633546492 a86.0,86.0 0 0,1 28.547481713284135,27.462654790039103" fill="none" id="id122" stroke="none" /><text fill="#e1ed5e" style="font-size:6.75px; font-family:Arial;" text-anchor="middle"><textPath startOffset="19.985693538727396" xlink:href="#id122">February</textPath></text><path d="M 111.2981086023043 82.29822771554956 l 9.457654603082682 -14.818165944573126 a38.579114669178246,38.579114669178246 0 0,0 0.5567020886100186,0.3620945241079984 l -9.711323717476981 14.653172496305599" fill="#ff4506" stroke="none" /><path d="M 111.90073688211348 82.69761687909136 l 12.748231997439655 -18.5345492736207 a43.49548701043874,43.49548701043874 0 0,0 0.6132218701159385,0.42960110844425464 l -13.065385007139245 18.31236332241251" fill="#ff990e" stroke="none" /><path d="M 113.06298171725822 83.55741782278167 l 10.861040707805932 -13.670964120869586 a38.46016796169845,38.46016796169845 0 0,0 0.5148105954605846,0.41627436551864405 l -11.094754701831008 13.481983658086811" fill="#ff4306" stroke="none" /><path d="M 113.6212207817346 84.01681056812373 l 14.584110626912821 -17.113047837677215 a43.48449886194176,43.48449886194176 0 0,0 0.5655183953301914,0.4904119797195369 l -14.876522820889777 16.859470864538007" fill="#ff990e" stroke="none" /><path d="M 114.16331599549186 84.49514656593476 l 13.122827511716611 -14.365810751835815 a40.45726395102425,40.45726395102425 0 0,0 0.5101316446410556,0.47411176753880185 l -13.368167040152514 14.137794398222374" fill="#ff6609" stroke="none" /><path d="M 114.68862486808459 84.99185889309783 l 15.156110731361279 -15.485796017729339 a42.6683541323287,42.6683541323287 0 0,0 0.5204811806897761,0.5182460690915197 l -15.420427712218377 15.2226140979877" fill="#ff8b0c" stroke="none" /><path d="M 115.19652480421416 85.50635884689758 l 12.36260729893099 -11.790800608422142 a38.08382387567695,38.08382387567695 0 0,0 0.44836027458994454,0.47827947991646386 l -12.563734895491399 11.576251711627624" fill="#ff3c05" stroke="none" /><path d="M 115.4437574822437 85.77008943001954 l 14.157686790095466 -13.044922333990412 a40.25123616670591,40.25123616670591 0 0,0 0.4651056394722387,0.5135812638011414 l -14.380136070183742 12.799288282919722" fill="#ff6209" stroke="none" /><path d="M 115.9244219780498 86.31012108654704 l 12.84435888295727 -11.04201572094694 a37.93823090809199,37.93823090809199 0 0,0 0.42145650542537466,0.49887156819876266 l -13.032526001869762 10.819285203119072" fill="#ff3a05" stroke="none" /><path d="M 116.60985879189232 87.15038557335679 l 15.921963899613706 -12.31744950925378 a41.13028804646417,41.13028804646417 0 0,0 0.4283896943463933,0.5637106224843206 l -16.131629534184214 12.041554110888427" fill="#ff710a" stroke="none" /><path d="M 117.04232023915458 87.72973835380427 l 15.155194152447056 -10.911553998509175 a39.67463307432698,39.67463307432698 0 0,0 0.39426643983445314,0.5576619186952896 l -15.340773212085391 10.649065579482093" fill="#ff5808" stroke="none" /><path d="M 117.45458315368197 88.32363383020206 l 14.197745986215786 -9.497682039222134 a38.08162624597755,38.08162624597755 0 0,0 0.3597867989639953,0.5479799783756247 l -14.359129420537705 9.251883996868836" fill="#ff3c05" stroke="none" /><line stroke="#e1ed5e" stroke-width="0.3" x1="172.23445277983987" x2="176.4835382374775" y1="55.19839476539836" y2="52.563006222186495" /><path d="M 173.08426987136738 54.67131705675599 a86.0,86.0 0 0,1 12.851231095245387,41.99856678651699" fill="none" id="id123" stroke="none" /><text fill="#e1ed5e" style="font-size:6.75px; font-family:Arial;" text-anchor="middle"><textPath startOffset="22.20632615414155" xlink:href="#id123">March</textPath></text><path d="M 117.84615892207809 88.93136811851018 l 23.344790992436604 -14.47902033002357 a48.47037124244565,48.47037124244565 0 0,0 0.4336579527455843,0.7128196516325682 l -23.590564743468413 14.075032905183921" fill="#ffe915" stroke="none" /><path d="M 118.3937258080291 89.86733742301442 l 15.141872155836534 -8.341294359839367 a38.287379326583476,38.287379326583476 0 0,0 0.31303013964403675,0.5799973077214231 l -15.283210394699035 8.079416068785484" fill="#ff4006" stroke="none" /><path d="M 118.73160827565052 90.50648371742162 l 16.65644423192705 -8.441785787887284 a39.67353425947728,39.67353425947728 0 0,0 0.3034836204540452,0.6118044600138158 l -16.799287865334506 8.153821739374518" fill="#ff5808" stroke="none" /><path d="M 119.04729006885535 91.15688171328212 l 24.9434137664902 -11.580521828262135 a48.50058865081234,48.50058865081234 0 0,0 0.3450416938259596,0.7602536353358026 l -25.139057777279504 11.149446184084269" fill="#ffea16" stroke="none" /><path d="M 119.34039704204932 91.81776055985345 l 16.098022967658196 -6.81050539696681 a38.47939722156816,38.47939722156816 0 0,0 0.2528248722984723,0.6122354821597351 l -16.212869526842866 6.5323953443537714" fill="#ff4306" stroke="none" /><path d="M 119.7369772167798 92.82701384747503 l 18.11198003442347 -6.5824153594946955 a40.27101483400047,40.27101483400047 0 0,0 0.23116889385243883,0.653545592458875 l -18.22260200908572 6.269672140609206" fill="#ff6309" stroke="none" /><path d="M 119.97218684219823 93.5106431181261 l 30.324303780105538 -9.852963572706265 a52.884859901106665,52.884859901106665 0 0,0 0.2738542145681922,0.8681926975937458 l -30.489413478441936 9.3295207086861" fill="#d2ff1c" stroke="none" /><path d="M 120.18372546131832 94.20196356495316 l 17.747822325691565 -5.098291724404795 a39.46558354917197,39.46558354917197 0 0,0 0.18194240927992153,0.6545436501976932 l -17.83295150553785 4.79203677078815" fill="#ff5507" stroke="none" /><path d="M 120.37134235888165 94.90015583598534 l 19.69927939379388 -4.931597205617283 a41.30719723726552,41.30719723726552 0 0,0 0.16673787804176257,0.6912361499015658 l -19.781250072096462 4.591775824056311" fill="#ff740a" stroke="none" /><path d="M 120.53481517161879 95.60439243477599 l 26.238661878498856 -5.616552167164823 a47.83305862962091,47.83305862962091 0 0,0 0.16541287601058588,0.806611928614836 l -26.33145405042444 5.164064582386575" fill="#ffdf14" stroke="none" /><path d="M 120.73433829027371 96.67025291283417 l 21.70642143958618 -3.4858548437574415 a42.98453810532925,42.98453810532925 0 0,0 0.11103132692609306,0.7315577177267163 l -21.763208659951573 3.111698013638643" fill="#ff910d" stroke="none" /><path d="M 120.83666639777658 97.38593545837742 l 19.757300584847254 -2.478652674620701 a40.91217329879915,40.91217329879915 0 0,0 0.08164832099088895,0.6995129524606001 l -19.797039258841732 2.138195983835248" fill="#ff6e0a" stroke="none" /><path d="M 120.94382443527127 98.46500227214037 l 32.87051136644705 -2.4091187556035756 a53.95867671297386,53.95867671297386 0 0,0 0.059918307196683715,0.9269096918621975 l -32.907110264648146 1.8429499994883427" fill="#c2ff1e" stroke="none" /><path d="M 120.98425023603335 99.18683210126433 l 17.55714660475276 -0.6803630271176004 a38.570324150380664,38.570324150380664 0 0,0 0.019998355918769375,0.663648073287002 l -17.566256655127177 0.37804480640559934" fill="#ff4506" stroke="none" /><line stroke="#e1ed5e" stroke-width="0.3" x1="184.98032266829074" x2="189.97916517819016" y1="98.17113171792111" y2="98.06355123074" /><path d="M 185.9800911702706 98.14961562048488 a86.0,86.0 0 0,1 -9.607161424134198,41.387399972396054" fill="none" id="id124" stroke="none" /><text fill="#e1ed5e" style="font-size:6.75px; font-family:Arial;" text-anchor="middle"><textPath startOffset="21.466115282336823" xlink:href="#id124">April</textPath></text><path d="M 120.99980553446 99.90962569577887 l 19.026627040437727 -0.08188257637113952 a40.02680323365513,40.02680323365513 0 0,0 -0.0029652288706250875,0.6890147612748777 l -19.0252175142776 -0.24564166310742294" fill="#ff5e08" stroke="none" /><path d="M 120.9904718944345 100.63252640178507 l 33.358611705711844 1.005227645041836 a54.373754022447216,54.373754022447216 0 0,0 -0.03624364691369391,0.935287481817697 l -33.33636592594695 -1.5792923738735394" fill="#bcff1f" stroke="none" /><path d="M 120.92983693683757 101.71520430193887 l 24.837856878187278 2.0354673138149066 a45.92112079114669,45.92112079114669 0 0,0 -0.07134262405811193,0.7872599115962857 l -24.79913965785209 -2.4627086139597627" fill="#ffc111" stroke="none" /><path d="M 120.8583938346157 102.4346265915055 l 18.938611779042407 2.210546421217557 a40.067184679381526,40.067184679381526 0 0,0 -0.08585537329999895,0.6843517990562976 l -18.89775489649556 -2.53621597456125" fill="#ff5f08" stroke="none" /><path d="M 120.70491114924044 103.5080841355445 l 28.53066662037239 4.8340211762323415 a49.937289066792246,49.937289066792246 0 0,0 -0.15089041196306205,0.8462735627660201 l -28.44322976607014 -5.32441348973158" fill="#feff18" stroke="none" /><path d="M 120.5718875245553 104.21870165774334 l 18.386497856202293 3.770541176324641 a39.76913115140099,39.76913115140099 0 0,0 -0.14329378750783103,0.6694208702783899 l -18.318870029970018 -4.0864758660191995" fill="#ff5a08" stroke="none" /><path d="M 120.41448212921028 104.9243191809786 l 24.885874860962076 6.00289491242702 a46.5996389608351,46.5996389608351 0 0,0 -0.19480576469982808,0.7781521941760634 l -24.778857781967186 -6.430374946000479" fill="#ffcc13" stroke="none" /><path d="M 120.23288151984713 105.62410040840565 l 26.664601345787077 7.411914865992269 a48.675574915626726,48.675574915626726 0 0,0 -0.2313419419229442,0.805331649045295 l -26.533066766978035 -7.869803990542146" fill="#ffec16" stroke="none" /><path d="M 119.9155931802556 106.66101706037122 l 15.654553465211512 5.235859497654642 a37.50694607958559,37.50694607958559 0 0,0 -0.21005527439414803,0.6105189520838145 l -15.562107359874133 -5.504551152827758" fill="#ff3204" stroke="none" /><path d="M 119.67450827220406 107.3425965602758 l 17.062770444896852 6.36788670111143 a39.21230672631661,39.21230672631661 0 0,0 -0.2414464557165119,0.630340506710223 l -16.95062970958683 -6.660650774654797" fill="#ff5007" stroke="none" /><path d="M 119.41010516605496 108.01547362559984 l 25.63435912362856 10.585801967932388 a48.73408680637313,48.73408680637313 0 0,0 -0.32686420519840464,0.7726104269637208 l -25.448343937237848 -11.025486920562273" fill="#ffed16" stroke="none" /><path d="M 119.26925614724726 108.34839909993367 l 12.630908426059712 5.472337060116635 a34.765403029589514,34.765403029589514 0 0,0 -0.2426276074712742,0.5470612030300005 l -12.534839733857163 -5.688946599639323" fill="#ff0100" stroke="none" /><path d="M 118.97047184881838 109.00673069616215 l 17.37483396079412 8.249159621464685 a40.233655129110744,40.233655129110744 0 0,0 -0.3024167350769918,0.6230680471367217 l -17.230263969102413 -8.547016624566682" fill="#ff6209" stroke="none" /><path d="M 118.64920377521936 109.65438752849418 l 32.94019357659714 17.052599021662143 a58.09241817753709,58.09241817753709 0 0,0 -0.4673603972497867,0.8840697422322936 l -32.641780671122454 -17.61708377898057" fill="#89ff25" stroke="none" /><line stroke="#e1ed5e" stroke-width="0.3" x1="174.80103733775053" x2="179.2010983576182" y1="140.37084112569926" y2="142.7455964860345" /><path d="M 175.68104954172406 140.8457921977663 a86.0,86.0 0 0,1 -30.038265399797805,32.042727171017184" fill="none" id="id125" stroke="none" /><text fill="#e1ed5e" style="font-size:6.75px; font-family:Arial;" text-anchor="middle"><textPath startOffset="22.206326154141568" xlink:href="#id125">May</textPath></text><path d="M 118.30583269289576 110.29060199501025 l 16.226832621738062 9.121894586896293 a39.61502236873086,39.61502236873086 0 0,0 -0.33927060454262276,0.5915468962244247 l -16.06741002104306 -9.399861328979032" fill="#ff5708" stroke="none" /><path d="M 117.75023020441432 111.22182372390056 l 18.649513902471742 11.790357372262362 a43.063927478219924,43.063927478219924 0 0,0 -0.4015098840056603,0.6231522563419072 l -18.44379915508903 -12.109631228525721" fill="#ff920d" stroke="none" /><path d="M 117.35343817320211 111.8261652097733 l 15.999140863449814 10.903227428313082 a40.3611176516757,40.3611176516757 0 0,0 -0.3961906751732724,0.5707422168839438 l -15.809089281114405 -11.177010907384044" fill="#ff6409" stroke="none" /><path d="M 116.93607887273984 112.41649034213515 l 27.161176121679414 19.91290212628219 a54.678675143238365,54.678675143238365 0 0,0 -0.563030831036401,0.7542718073566818 l -26.81438402394792 -20.377486813148188" fill="#b8ff1f" stroke="none" /><path d="M 116.498646956653 112.99209946851258 l 10.791046592792954 8.497566562352887 a34.735185621222826,34.735185621222826 0 0,0 -0.3739525376384891,0.4665632885352349 l -10.64317614309961 -8.682057684466372" fill="#ff0000" stroke="none" /><path d="M 116.0416608686014 113.55231037782055 l 14.780923897424918 12.487215006578815 a40.349580095753865,40.349580095753865 0 0,0 -0.4527943231065815,0.5267020925458248 l -14.563787064747558 -12.739794198286166" fill="#ff6409" stroke="none" /><path d="M 115.32070863581623 114.36230785411682 l 20.057450239137754 18.80273830348044 a48.49262224315203,48.49262224315203 0 0,0 -0.5761234074343398,0.6040630893838758 l -19.73082028032445 -19.14520850944682" fill="#ffea16" stroke="none" /><path d="M 115.07121518719521 114.62390073753431 l 16.123593946963506 15.645044841044742 a43.466368416921746,43.466368416921746 0 0,0 -0.5256519882984407,0.5324826889234155 l -15.851901333609531 -15.920268023948822" fill="#ff990e" stroke="none" /><path d="M 114.29624159901734 115.38237550388516 l 14.979579730545602 16.117629148172583 a43.00376736519897,43.00376736519897 0 0,0 -0.5465583278282751,0.4992680736982548 l -14.699921853250462 -16.373089988457423" fill="#ff910d" stroke="none" /><path d="M 113.48314897796784 116.09983520530334 l 15.928762139264732 19.02007059965669 a45.80904167647752,45.80904167647752 0 0,0 -0.6088891387926694,0.5010743082648491 l -15.599002871927372 -19.29144002677872" fill="#ffbf11" stroke="none" /><path d="M 112.92097659922987 116.55440617244103 l 13.567312764829847 17.3824946166162 a43.05046699631112,43.05046699631112 0 0,0 -0.5880924860086026,0.45092424072131515 l -13.26609155032775 -17.613458199164885" fill="#ff920d" stroke="none" /><path d="M 112.34349029814194 116.9893568818739 l 13.31132224287499 18.32146327265892 a43.64657405227219,43.64657405227219 0 0,0 -0.6116187607906513,0.4363737463388454 l -12.993976154235453 -18.547881280841985" fill="#ff9c0e" stroke="none" /><path d="M 112.04921762599082 117.19931262002967 l 7.911446374159319 11.29296886233118 a34.78847814143317,34.78847814143317 0 0,0 -0.49340517661300864,0.3393685795830322 l -7.715884312923427 -11.427478231279306" fill="#ff0100" stroke="none" /><path d="M 111.45004920935366 117.60387380957326 l 15.079807372494669 23.184444119350076 a48.65716976689428,48.65716976689428 0 0,0 -0.7060345280411715,0.4506246406633968 l -14.678491042406566 -23.440583188837284" fill="#ffec16" stroke="none" /><line stroke="#e1ed5e" stroke-width="0.3" x1="143.8653032363475" x2="146.44561519142675" y1="172.8068346515853" y2="177.08958963109032" /><path d="M 144.38136562736335 173.6633856474863 a86.0,86.0 0 0,1 -40.68145358897372,12.25698825130547" fill="none" id="id126" stroke="none" /><text fill="#e1ed5e" style="font-size:6.75px; font-family:Arial;" text-anchor="middle"><textPath startOffset="21.466115282336833" xlink:href="#id126">June</textPath></text><path d="M 110.5260780823613 118.17145234162733 l 10.867694383048551 18.76119377034272 a42.681539910525075,42.681539910525075 0 0,0 -0.6389045095512196,0.3627866549066163 l -10.543141106576133 -18.945483591043967" fill="#ff8c0c" stroke="none" /><path d="M 109.89434966115114 118.52300852407294 l 10.429927963453984 19.525653649685953 a43.1367239620124,43.1367239620124 0 0,0 -0.6579564342969467,0.344211709482656 l -10.092280626630542 -19.702294778113327" fill="#ff930d" stroke="none" /><path d="M 109.2508944713604 118.85261126421891 l 14.527871098163795 29.6066836734855 a53.97900478769327,53.97900478769327 0 0,0 -0.8376701835363821,0.402132593230685 l -14.016088246627179 -29.85237054321574" fill="#c2ff1e" stroke="none" /><path d="M 107.93186726928326 119.44442032107085 l 8.44588331266067 20.70449486088437 a43.360882191350754,43.360882191350754 0 0,0 -0.6935241167764903,0.27596755877193896 l -8.088238119842313 -20.84680926406238" fill="#ff970d" stroke="none" /><path d="M 107.2578585660854 119.70592522655815 l 7.3995105162279815 20.09052665028241 a42.40985793893729,42.40985793893729 0 0,0 -0.6872021472901005,0.24640624053693846 l -7.052588808308146 -20.21492043185931" fill="#ff870c" stroke="none" /><path d="M 106.2309692047433 120.05430185196036 l 7.3870802792282895 23.775231887125123 a45.89639745702849,45.89639745702849 0 0,0 -0.7564710353768868,0.22791851753253006 l -6.976734269411157 -23.89886577376338" fill="#ffc111" stroke="none" /><path d="M 105.88484417918355 120.15858648285463 l 6.171827135780315 21.14164917296375 a43.02409543991837,43.02409543991837 0 0,0 -0.7127019916209696,0.20141670181986168 l -5.8069939760547395 -21.24475466812213" fill="#ff910d" stroke="none" /><path d="M 105.53697534728816 120.25689768951611 l 4.411342431606432 16.138795408261768 a37.730829605211525,37.730829605211525 0 0,0 -0.6279659784605869,0.16585152240540302 l -4.132886010334348 -16.212338279970755" fill="#ff3605" stroke="none" /><path d="M 104.83641907484287 120.43548508189849 l 5.077145529853948 21.45263471348974 a43.04524762577506,43.04524762577506 0 0,0 -0.722503926308593,0.16443954135700478 l -4.707121454152493 -21.53685098842443" fill="#ff920d" stroke="none" /><path d="M 103.7750983002368 120.6578951692458 l 4.4569725294923614 24.389211608260876 a45.793108861156895,45.793108861156895 0 0,0 -0.7766315628758768,0.1350273521250068 l -4.036491995144435 -24.462317538906888" fill="#ffbf11" stroke="none" /><path d="M 103.41894727170886 120.7198165907248 l 3.5815178879956733 21.705041891032003 a42.9985479946629,42.9985479946629 0 0,0 -0.7313113933619763,0.11421579946471465 l -3.2073706310251797 -21.763475997843823" fill="#ff910d" stroke="none" /><path d="M 103.06178313531738 120.77559828337769 l 2.628985754679547 17.838870200153202 a39.03155168354132,39.03155168354132 0 0,0 -0.6655277475947468,0.09223608151398466 l -2.32152941589797 -17.88148084715979" fill="#ff4d07" stroke="none" /><path d="M 102.34483914955558 120.86867818915974 l 2.7050645501309076 24.074624303456005 a45.22612039871282,45.22612039871282 0 0,0 -0.774373270350836,0.08026695569313973 l -2.290258683174469 -24.117620627604904" fill="#ffb610" stroke="none" /><path d="M 101.62511606390274 120.93702456842531 l 2.6612481957947764 34.28593199935761 a55.38905894356801,55.38905894356801 0 0,0 -0.951207490498165,0.06560083769579036 l -2.0706779445176813 -34.32666118156968" fill="#aeff20" stroke="none" /><path d="M 100.90346689309514 120.98055641714683 l 0.9265599824537475 21.51683048301169 a42.53677105407739,42.53677105407739 0 0,0 -0.7317937946339481,0.025204457929951626 l -0.556045836145147 -21.529591739367735" fill="#ff890c" stroke="none" /><line stroke="#e1ed5e" stroke-width="0.3" x1="102.19456741930631" x2="102.32365962044197" y1="184.97166512339345" y2="189.96999836594603" /><path d="M 102.22038585953345 185.97133177190398 a86.0,86.0 0 0,1 -42.740103519485714,-10.115201625700543" fill="none" id="id127" stroke="none" /><text fill="#e1ed5e" style="font-size:6.75px; font-family:Arial;" text-anchor="middle"><textPath startOffset="22.20632615414155" xlink:href="#id127">July</textPath></text><path d="M 94.81253420990036 120.34920634021253 l -3.5183647771090207 13.801716238046193 a35.24311278549564,35.24311278549564 0 0,0 -0.5865621306477773,-0.15491638988432346 l 3.7554173505682873 -13.739108498858288" fill="#ff0901" stroke="none" /><path d="M 93.76903079525671 120.05430185196036 l -6.174239558110356 19.87171814465109 a41.808806216152576,41.808806216152576 0 0,0 -0.6854228365452638,-0.21945074732202205 l 6.51538373974656 -19.76249455066936" fill="#ff7d0b" stroke="none" /><path d="M 93.08242187328487 119.8279376855182 l -6.0175672425837305 17.248225624453337 a39.267796876226356,39.267796876226356 0 0,0 -0.636288722578331,-0.22815049784818295 l 6.313575525791788 -17.142087585565196" fill="#ff5107" stroke="none" /><path d="M 92.40401165467489 119.57807347666478 l -8.539351155027607 22.009518281984295 a44.60803704575779,44.60803704575779 0 0,0 -0.7134714039435266,-0.28390499600079105 l 8.916943635012991 -21.859266441577436" fill="#ffac0f" stroke="none" /><path d="M 91.7346041902142 119.30500536409082 l -13.169102498913087 30.75830852296081 a54.4589121732988,54.4589121732988 0 0,0 -0.8585819000575703,-0.3763770735890436 l 13.696605073628401 -30.527066896077315" fill="#bbff1f" stroke="none" /><path d="M 90.7491055286396 118.85261126421891 l -9.65797932866694 19.682218886499115 a42.92410328859587,42.92410328859587 0 0,0 -0.6605122020919679,-0.3311945301373007 l 9.995345438441667 -19.51305651545251" fill="#ff900d" stroke="none" /><path d="M 90.10565033884886 118.52300852407294 l -11.4842587634924 21.499444658203057 a45.37446040342202,45.37446040342202 0 0,0 -0.6857532693245615,-0.37392735924612036 l 11.852634844685603 -21.29857664719717" fill="#ffb811" stroke="none" /><line stroke="#e1ed5e" stroke-width="0.3" x1="58.666819895761336" x2="56.23545636021788" y1="174.27360380694188" y2="178.64263932499728" /><path d="M 58.180547188652646 175.14741091055294 a86.0,86.0 0 0,1 -31.652253787137756,-30.449443065178592" fill="none" id="id128" stroke="none" /><text fill="#e1ed5e" style="font-size:6.75px; font-family:Arial;" text-anchor="middle"><textPath startOffset="22.20632615414155" xlink:href="#id128">August</textPath></text><path d="M 89.1626897886671 117.98757091392108 l -13.402392635054978 22.245048193523516 a46.970488972608116,46.970488972608116 0 0,0 -0.6889470282339725,-0.42320753487275903 l 13.78331886322126 -22.01105219182238" fill="#ffd213" stroke="none" /><path d="M 88.54995079064634 117.60387380957326 l -11.68280666522233 17.961726671725323 a42.4268895691076,42.4268895691076 0 0,0 -0.6087759657589391,-0.4034635145662328 l 11.990257329721231 -17.75796513606777" fill="#ff870c" stroke="none" /><path d="M 87.95078237400918 117.19931262002967 l -15.654557394937711 22.345652217530645 a48.28357271799702,48.28357271799702 0 0,0 -0.6765969507013125,-0.4827339595621609 l 16.036881673487912 -22.072873996124265" fill="#ffe615" stroke="none" /><path d="M 87.36589467227662 116.77436683061367 l -13.3364958732434 17.70693438195851 a43.16749077780394,43.16749077780394 0 0,0 -0.5896910936749667,-0.4521499849117538 l 13.639315695411854 -17.47474505521939" fill="#ff940d" stroke="none" /><path d="M 87.07902340077011 116.55440617244103 l -21.036349155484277 26.951853494257527 a55.18962404834785,55.18962404834785 0 0,0 -0.7438575984109889,-0.5909654641562047 l 21.497164246612623 -26.58575411609619" fill="#b1ff20" stroke="none" /><path d="M 86.51685102203217 116.09983520530335 l -13.891280295957232 16.58717291643371 a42.63566439055019,42.63566439055019 0 0,0 -0.5585972953768851,-0.4760487336297071 l 14.174743067911175 -16.345599792581048" fill="#ff8b0c" stroke="none" /><path d="M 85.97065885151581 115.62618273729859 l -15.413813189194823 17.168237554688385 a44.0723648065301,44.0723648065301 0 0,0 -0.5601397153773345,-0.5116743492127267 l 15.707052454039012 -16.900370438889084" fill="#ffa30f" stroke="none" /><path d="M 85.44109423537348 115.13401014063109 l -15.304315036043574 15.908864491289465 a43.07519033042932,43.07519033042932 0 0,0 -0.5299274987280068,-0.518645592459037 l 15.575892487147376 -15.643068795907858" fill="#ff920d" stroke="none" /><path d="M 85.18274418774928 114.88116024355367 l -26.321630161207242 26.435151101098647 a58.304764147241194,58.304764147241194 0 0,0 -0.705097212338949,-0.7142597534806249 l 26.772767998601722 -25.97815085363736" fill="#86ff25" stroke="none" /><path d="M 84.67929136418377 114.36230785411682 l -13.269289678693362 12.439217264749953 a39.18813279962326,39.18813279962326 0 0,0 -0.45710828062895753,-0.49610075864086345 l 13.48144436731805 -12.208965251307745" fill="#ff5007" stroke="none" /><path d="M 84.19399662182784 113.82643327865904 l -15.976373924487396 13.975466334955177 a42.22635585903775,42.22635585903775 0 0,0 -0.4738550977005752,-0.5512005314246161 l 16.21457153175875 -13.698388704369032" fill="#ff840c" stroke="none" /><path d="M 83.72743513129214 113.27417163493432 l -31.92952842929882 26.046173053399112 a62.20555686366847,62.20555686366847 0 0,0 -0.6696934370251545,-0.8355455327621775 l 32.373139778378835 -25.492699687058675" fill="#52ff2b" stroke="none" /><path d="M 83.50135304334701 112.99209946851258 l -13.05328160050606 10.278996416484553 a37.61462993485598,37.61462993485598 0 0,0 -0.39619522449787203,-0.5121357353172244 l 13.228283642222 -10.052782687054076" fill="#ff3405" stroke="none" /><path d="M 83.06392112726016 112.41649034213515 l -16.1593489911525 11.847039813140485 a41.036888784239856,41.036888784239856 0 0,0 -0.41275334139363085,-0.5732782907683368 l 16.360882124921737 -11.56712791692101" fill="#ff700a" stroke="none" /><path d="M 82.6465618267979 111.8261652097733 l -13.94249761397683 9.501649101120735 a37.872302017110115,37.872302017110115 0 0,0 -0.3624864331612412,-0.5418680347709534 l 14.1039871525488 -9.260244152143962" fill="#ff3905" stroke="none" /><path d="M 82.24976979558568 111.22182372390057 l -18.74030138657719 11.847753875363193 a43.17133662977788,43.17133662977788 0 0,0 -0.3916983895605097,-0.6315425234539485 l 18.941464415805655 -11.52341502054398" fill="#ff940d" stroke="none" /><path d="M 82.05923443525364 110.91462005526583 l -36.68133921683093 22.31581920097911 a63.93619025194255,63.93619025194255 0 0,0 -0.5639145318883829,-0.9451531917482038 l 37.06003462441754 -21.681103915344796" fill="#3dff2e" stroke="none" /><line stroke="#e1ed5e" stroke-width="0.3" x1="26.63291911575756" x2="22.317208475507996" y1="142.92168965132927" y2="145.44649492493687" /><path d="M 25.769776987707644 143.4266507060508 a86.0,86.0 0 0,1 -11.730757126820373,-40.83630448921669" fill="none" id="id129" stroke="none" /><text fill="#e1ed5e" style="font-size:6.75px; font-family:Arial;" text-anchor="middle"><textPath startOffset="21.46611528233685" xlink:href="#id129">September</textPath></text><path d="M 81.69416730710424 110.29060199501025 l -19.38436486526321 10.896897568166803 a43.23726552075975,43.23726552075975 0 0,0 -0.3591237665537647,-0.6519139508444696 l 19.56906504126849 -10.56161309892451" fill="#ff950d" stroke="none" /><path d="M 81.51974371655577 109.97397251340807 l -28.85923390520856 15.575606815930925 a53.79412918923162,53.79412918923162 0 0,0 -0.43278015232129163,-0.8186569507331222 l 29.123066565754737 -15.076534850111678" fill="#c5ff1e" stroke="none" /><path d="M 81.35079622478065 109.6543875284942 l -14.949417985838918 7.739068986554226 a37.833843497370694,37.833843497370694 0 0,0 -0.2944217634018344,-0.580922070991759 l 15.080418419027021 -7.480592703859782" fill="#ff3805" stroke="none" /><path d="M 81.02952815118164 109.00673069616217 l -20.360637237420523 9.666748294988794 a43.538890197001805,43.538890197001805 0 0,0 -0.31560591631463397,-0.6797870661213088 l 20.524017770574986 -9.314841161588658" fill="#ff9a0e" stroke="none" /><path d="M 80.87730276802145 108.67885076344099 l -44.79122735470891 20.328532790489287 a70.18844674672317,70.18844674672317 0 0,0 -0.48984488664743214,-1.1044709041165954 l 45.13451332608762 -19.554513549879996" fill="#37ff7b" stroke="none" /><path d="M 80.58989483394504 108.01547362559985 l -15.085830500499112 6.229748652186052 a37.32152107369908,37.32152107369908 0 0,0 -0.2400971394759312,-0.5959014099561601 l 15.19083025423243 -5.969147874387087" fill="#ff2f04" stroke="none" /><path d="M 80.32549172779594 107.34259656027581 l -18.365036251575454 6.853896938337667 a40.602307511184364,40.602307511184364 0 0,0 -0.23873332975412462,-0.6568915915980936 l 18.480293842334802 -6.536757549733456" fill="#ff6809" stroke="none" /><path d="M 80.0844068197444 106.66101706037122 l -23.64204904256856 7.907376425564302 a45.929361902519425,45.929361902519425 0 0,0 -0.2443174109709753,-0.7519316735906546 l 23.774658704555783 -7.499245851995844" fill="#ffc111" stroke="none" /><path d="M 79.97269907076064 106.31721596034903 l -36.244892912124435 11.432734585384297 a59.00525861392355,59.00525861392355 0 0,0 -0.2971988877478641,-0.9712631609725864 l 36.43631857237843 -10.807144451859664" fill="#7cff26" stroke="none" /><path d="M 79.76711848015287 105.62410040840567 l -20.572716434315943 5.718563754092731 a42.352719566753,42.352719566753 0 0,0 -0.1891995283197357,-0.7040818288298683 l 20.668104038977454 -5.363590992087324" fill="#ff860c" stroke="none" /><path d="M 79.67330655649465 105.27499134158121 l -33.3074752662101 8.643641137576465 a55.410760536849544,55.410760536849544 0 0,0 -0.2316398972114885,-0.9252862437186078 l 33.45132647771665 -8.069027054460465" fill="#aeff20" stroke="none" /><path d="M 79.58551787078972 104.9243191809786 l -15.579374819063498 3.7580093270843693 a37.02621458284279,37.02621458284279 0 0,0 -0.14411913455882835,-0.6208614597312492 l 15.641754519552881 -3.4892792100045456" fill="#ff2a04" stroke="none" /><path d="M 79.4281124754447 104.21870165774334 l -22.244096784393438 4.561623617050789 a43.70700886900558,43.70700886900558 0 0,0 -0.14479521602142184,-0.7383076870094705 l 22.319321933390526 -4.1780522029733635" fill="#ff9d0e" stroke="none" /><path d="M 79.35854240842038 103.8639653848113 l -61.92437277473888 11.591896154433886 a84.0,84.0 0 0,0 -0.25381423064324515,-1.4235249970671453 l 62.11473344772131 -10.524252406633527" fill="#4dd2ff" stroke="none" /><path d="M 79.23777060512086 103.15116336523772 l -22.335841580133174 3.389996535556475 a43.5916333097873,43.5916333097873 0 0,0 -0.10620987076341429,-0.742831588746542 l 22.39088550191319 -3.005019474829533" fill="#ff9b0e" stroke="none" /><line stroke="#e1ed5e" stroke-width="0.3" x1="15.007084014347285" x2="10.007500721073583" y1="101.09737516637583" y2="101.16192664675087" /><path d="M 14.007167355692545 101.11028546245083 a86.0,86.0 0 0,1 10.666146001902534,-42.60595125391555" fill="none" id="id130" stroke="none" /><text fill="#e1ed5e" style="font-size:6.75px; font-family:Arial;" text-anchor="middle"><textPath startOffset="22.20632615414155" xlink:href="#id130">October</textPath></text><line stroke="#e1ed5e" stroke-width="0.3" x1="26.266209847984243" x2="21.928928074336255" y1="57.711370442889674" y2="55.22380399835377" /><path d="M 25.398753493254645 57.213857153982495 a86.0,86.0 0 0,1 29.58750427330803,-30.492523968695096" fill="none" id="id131" stroke="none" /><text fill="#e1ed5e" style="font-size:6.75px; font-family:Arial;" text-anchor="middle"><textPath startOffset="21.46611528233685" xlink:href="#id131">November</textPath></text><line stroke="#e1ed5e" stroke-width="0.3" x1="56.762969772571076" x2="54.21961505331055" y1="26.818313649435495" y2="22.513508569990535" /><path d="M 56.25429882871897 25.957352633546506 a86.0,86.0 0 0,1 42.265352541879196,-11.944610805530505" fill="none" id="id132" stroke="none" /><text fill="#e1ed5e" style="font-size:6.75px; font-family:Arial;" text-anchor="middle"><textPath startOffset="22.20632615414155" xlink:href="#id132">December</textPath></text></svg>