<?xml version="1.0" encoding="utf-8" ?>
<svg baseProfile="full" height="200mm" version="1.1" viewBox="0,0,200,200" width="200mm" xmlns="http://www.w3.org/2000/svg" xmlns:ev="http://www.w3.org/2001/xml-events" xmlns:xlink="http://www.w3.org/1999/xlink"><defs /><rect fill="#1a1a1a" height="200" width="200" x="0" y="0" /><text alignment-baseline="middle" fill="#e1ed5e" style="dominant-baseline: central; font-size:9.0px; font-family:Arial;" text-anchor="middle" x="100.0" y="100.0">2025</text><line stroke="#e1ed5e" stroke-width="0.3" x1="100.0" x2="100.0" y1="15.0" y2="10.0" /><path d="M 100.0 14.0 a86.0,86.0 0 0,1 42.46469731375804,11.215312516191453" fill="none" id="id121" stroke="none" /><text fill="#e1ed5e" style="font-size:6.75px; font-family:Arial;" text-anchor="middle"><textPath startOffset="22.20632615414155" xlink:href="#id121">January</textPath></text><path d="M 100.0 79.0 l 0.0 -25.4709 a46.4709,46.4709 0 0,0 0.7999201525821781,0.006885165297079921 l -0.43843967330964967 25.46712621131148" fill="#ffd714" stroke="none" /><path d="M 101.80526077348638 79.07773832637324 l 1.266534853462572 -14.67864034498307 a35.733180000000004,35.733180000000004 0 0,0 0.6123558862457823,0.058150569963863065 l -1.5190158667985985 14.654664230504029" fill="#ff2603" stroke="none" /><path d="M 103.2404852339499 79.25152402106235 l 3.1875097813452924 -20.409279893633983 a41.65669200000001,41.65669200000001 0 0,0 0.7075107335842081,0.11674533322728767 l -3.538349721068376 20.35138829746707" fill="#ff8b0c" stroke="none" /><path d="M 104.307194497241 79.44645832069477 l 3.2193349974618375 -15.36237476444646 a36.696072,36.696072 0 0,0 0.6171183248469524,0.13487816339533676 l -3.483296046462318 15.304683102955254" fill="#ff3705" stroke="none" /><path d="M 105.36241919743992 79.69619591428918 l 5.511494451128756 -20.868249839293586 a42.5838,42.5838 0 0,0 0.7070981402321591,0.19327663251244176 l -5.869890480584625 20.77028666595485" fill="#ff9a0e" stroke="none" /><path d="M 106.0581310904928 79.89281104454417 l 4.855616301554332 -16.115992376553663 a37.831584,37.831584 0 0,0 0.6219055319201502,0.19322907604859965 l -5.1323072061852 16.030023165622545" fill="#ff4a06" stroke="none" /><path d="M 106.74666289553966 80.11325718540242 l 7.110388985563988 -20.95887689321817 a43.132152000000005,43.132152000000005 0 0,0 0.7010371276703936,0.24457808861936503 l -7.470108117297656 20.8333779514266" fill="#ffa20f" stroke="none" /><path d="M 107.76421540070413 80.48803036053334 l 7.448056549587464 -18.71744223574758 a41.14488,41.14488 0 0,0 0.6558026199928642,0.2675183549182367 l -7.769143039168715 18.586462994645764" fill="#ff820c" stroke="none" /><path d="M 108.76106565485865 80.91482961587045 l 9.119218018829274 -19.86537214943278 a42.85848,42.85848 0 0,0 0.6678204041228765,0.31355063422967083 l -9.45981663425175 19.705456532563105" fill="#ff9e0e" stroke="none" /><path d="M 109.73455568895987 81.39251694778311 l 11.793842537625196 -22.54378444701507 a46.442424,46.442424 0 0,0 0.7051617592205927,0.3766729904774047 l -12.180149343374099 22.33743273003591" fill="#ffd714" stroke="none" /><path d="M 110.36928655335952 81.73862282372117 l 12.684789717870919 -22.339215745250602 a46.689384000000004,46.689384000000004 0 0,0 0.6954567559229058,0.40285344165807335 l -13.067443206259153 22.11755814620248" fill="#ffdb14" stroke="none" /><line stroke="#e1ed5e" stroke-width="0.3" x1="143.23703022742887" x2="145.7803849466894" y1="26.81831364943548" y2="22.513508569990506" /><path d="M 143.74570117128098 25.957352633546492 a86.0,86.0 0 0,1 28.547481713284135,27.462654790039103" fill="none" id="id122" stroke="none" /><text fill="#e1ed5e" style="font-size:6.75px; font-family:Arial;" text-anchor="middle"><textPath startOffset="19.985693538727396" xlink:href="#id122">February</textPath></text><path d="M 111.2981086023043 82.29822771554956 l 8.675998365447105 -13.593474165586048 a37.126236000000006,37.126236000000006 0 0,0 0.5357368436435587,0.3484581455955839 l -8.908702234874944 13.442117095830938" fill="#ff3e05" stroke="none" /><path d="M 111.90073688211348 82.69761687909136 l 11.694616119315265 -17.0027058452545 a41.63628,41.63628 0 0,0 0.5870098081702869,0.4112378839488002 l -11.985557067069202 16.798883118541763" fill="#ff8a0c" stroke="none" /><path d="M 113.06298171725822 83.55741782278167 l 9.963397415387186 -12.541086278207956 a37.01712,37.01712 0 0,0 0.49549460128240014,0.4006555082305734 l -10.177795415234078 12.367724672713253" fill="#ff3c05" stroke="none" /><path d="M 113.6212207817346 84.01681056812373 l 13.378763051819732 -15.69868865998887 a41.6262,41.6262 0 0,0 0.541351112322384,0.4694543500435276 l -13.647007962788878 15.46606931652567" fill="#ff8a0c" stroke="none" /><path d="M 114.16331599549186 84.49514656593476 l 12.038252063528255 -13.178505224818087 a38.84916,38.84916 0 0,0 0.48985482329488517,0.455266671945358 l -12.263314770617987 12.96933396679809" fill="#ff5c08" stroke="none" /><path d="M 114.68862486808459 84.99185889309783 l 13.90348849163573 -14.205925948456043 a40.877508,40.877508 0 0,0 0.49863591085589865,0.49649460978871274 l -14.145960202658953 13.964495488017212" fill="#ff7e0b" stroke="none" /><path d="M 115.19652480421416 85.50635884689758 l 11.340862530888943 -10.81631451973727 a36.67188,36.67188 0 0,0 0.43173748098942005,0.46054744269419046 l -11.525367333848825 10.619497660165024" fill="#ff3605" stroke="none" /><path d="M 115.4437574822437 85.77008943001954 l 12.98758229226766 -11.966785592930776 a38.660160000000005,38.660160000000005 0 0,0 0.4467206513715031,0.49328010074825107 l -13.1916465842552 11.741452704912977" fill="#ff5808" stroke="none" /><path d="M 115.9244219780498 86.31012108654704 l 11.782798309998615 -10.129415205642117 a36.53832,36.53832 0 0,0 0.405904869381495,0.4804633363613249 l -11.955413792867228 9.925092919651686" fill="#ff3404" stroke="none" /><path d="M 116.60985879189232 87.15038557335679 l 14.606045427238433 -11.299436942212974 a39.46656,39.46656 0 0,0 0.4110612489804101,0.5409084196002207 l -14.798382616442955 11.04634374673172" fill="#ff6609" stroke="none" /><path d="M 117.04232023915458 87.72973835380427 l 13.902647666135614 -10.009735883640392 a38.131212000000005,38.131212000000005 0 0,0 0.378928701713464,0.5359677758395394 l -14.072888987652963 9.76894160746906" fill="#ff4f07" stroke="none" /><path d="M 117.45458315368197 88.32363383020206 l 13.02433067594702 -8.712717614044502 a36.669864,36.669864 0 0,0 0.3464487808841572,0.5276652617712093 l -13.172376092189102 8.48723428829562" fill="#ff3605" stroke="none" /><line stroke="#e1ed5e" stroke-width="0.3" x1="172.23445277983987" x2="176.4835382374775" y1="55.19839476539836" y2="52.563006222186495" /><path d="M 173.08426987136738 54.67131705675599 a86.0,86.0 0 0,1 12.851231095245387,41.99856678651699" fill="none" id="id123" stroke="none" /><text fill="#e1ed5e" style="font-size:6.75px; font-family:Arial;" text-anchor="middle"><textPath startOffset="22.20632615414155" xlink:href="#id123">March</textPath></text><path d="M 117.84615892207809 88.93136811851018 l 21.415390706493703 -13.282358257787783 a46.2,46.2 0 0,0 0.41334524377030735,0.6794308989444209 l -21.640851748550237 12.911759585636279" fill="#ffd313" stroke="none" /><path d="M 118.3937258080291 89.86733742301442 l 13.890426705900952 -7.651903063587361 a36.858612,36.858612 0 0,0 0.30134881687852866,0.5583535907224018 l -14.020083621997946 7.4116684895325005" fill="#ff3a05" stroke="none" /><path d="M 118.73160827565052 90.50648371742162 l 15.279822429046742 -7.744089076089975 a38.130204,38.130204 0 0,0 0.291677879840186,0.5880048073323327 l -15.410860321840337 7.4799246802586925" fill="#ff4f07" stroke="none" /><path d="M 119.04729006885535 91.15688171328212 l 22.88189050551732 -10.623414860199928 a46.227720000000005,46.227720000000005 0 0,0 0.32887210762224506,0.7246260954957905 l -23.06136493010291 10.227966755862074" fill="#ffd313" stroke="none" /><path d="M 119.34039704204932 91.81776055985345 l 14.767553565427182 -6.247630746918297 a37.03476,37.03476 0 0,0 0.2433330338749777,0.5892502425313727 l -14.872908286188357 5.9925059339336215" fill="#ff3d05" stroke="none" /><path d="M 119.7369772167798 92.82701384747503 l 16.615061108538438 -6.038391894863177 a38.678304,38.678304 0 0,0 0.22202620889055333,0.627697990904427 l -16.716540398238802 5.751496277532136" fill="#ff5908" stroke="none" /><path d="M 119.97218684219823 93.5106431181261 l 27.818060721287374 -9.038635839349238 a50.24964,50.24964 0 0,0 0.26020822822008555,0.8249311917682072 l -27.969524433275666 8.55845448115461" fill="#eeff19" stroke="none" /><path d="M 120.18372546131832 94.20196356495316 l 16.28100030611781 -4.676928109966188 a37.939440000000005,37.939440000000005 0 0,0 0.1749066528239858,0.6292322907911848 l -16.35909372950816 4.395984515756052" fill="#ff4c07" stroke="none" /><path d="M 120.37134235888165 94.90015583598534 l 18.071173350455602 -4.524010559767425 a39.628848,39.628848 0 0,0 0.15996316542141076,0.6631505923583145 l -18.146369316137832 4.212274735749705" fill="#ff6909" stroke="none" /><path d="M 120.53481517161879 95.60439243477599 l 24.07008895156468 -5.152355363652984 a45.615359999999995,45.615359999999995 0 0,0 0.15774378858528032,0.7692147347080833 l -24.155212036064956 4.737264972781489" fill="#ffca12" stroke="none" /><path d="M 120.73433829027371 96.67025291283417 l 19.912429120447264 -3.1977559126305772 a41.16756,41.16756 0 0,0 0.10633797673733407,0.7006344040310579 l -19.964522990623898 2.854522396207437" fill="#ff820c" stroke="none" /><path d="M 120.83666639777658 97.38593545837742 l 18.124399206110795 -2.273796988368649 a39.266472,39.266472 0 0,0 0.07836399906259334,0.671374887880564 l -18.160853558176978 1.9614783621632326" fill="#ff6309" stroke="none" /><path d="M 120.94382443527127 98.46500227214037 l 30.153829343032932 -2.210009908690451 a51.234708,51.234708 0 0,0 0.05689348145815926,0.8801169765067858 l -30.187403415495506 1.69063386793063" fill="#dfff1b" stroke="none" /><path d="M 120.98425023603335 99.18683210126433 l 16.106083552163152 -0.624132383652385 a37.118172,37.118172 0 0,0 0.01924542847542477,0.6386620769815966 l -16.114440675094222 0.34680015924578933" fill="#ff3e05" stroke="none" /><line stroke="#e1ed5e" stroke-width="0.3" x1="184.98032266829074" x2="189.97916517819016" y1="98.17113171792111" y2="98.06355123074" /><path d="M 185.9800911702706 98.14961562048488 a86.0,86.0 0 0,1 -9.607161424134198,41.387399972396054" fill="none" id="id124" stroke="none" /><text fill="#e1ed5e" style="font-size:6.75px; font-family:Arial;" text-anchor="middle"><textPath startOffset="21.466115282336823" xlink:href="#id124">April</textPath></text><path d="M 120.99980553446 99.90962569577887 l 17.45411436879963 -0.07511514519921758 a38.454276,38.454276 0 0,0 -0.0028487343525428204,0.6619455379304535 l -17.452821337157584 -0.22533987093492067" fill="#ff5507" stroke="none" /><path d="M 120.9904718944345 100.63252640178507 l 30.60158916545818 0.9221475906344185 a51.615480000000005,51.615480000000005 0 0,0 -0.034405077707684695,0.8878421801092146 l -30.58118195489929 -1.4487670177576393" fill="#daff1c" stroke="none" /><path d="M 120.92983693683757 101.71520430193887 l 22.785057682918858 1.8672400112627323 a43.86144,43.86144 0 0,0 -0.06814272323184938,0.7519492726219137 l -22.74954036340993 -2.2591706724332163" fill="#ffae10" stroke="none" /><path d="M 120.8583938346157 102.4346265915055 l 17.373373392728112 2.0278491805967684 a38.49132,38.49132 0 0,0 -0.08247863367126713,0.6574358618115481 l -17.335893249809995 -2.3266027966957115" fill="#ff5607" stroke="none" /><path d="M 120.70491114924044 103.5080841355445 l 26.172664085531856 4.4344989940590915 a47.545680000000004,47.545680000000004 0 0,0 -0.14366393082868964,0.8057436188399351 l -26.09245371236398 -4.884361363632245" fill="#ffe815" stroke="none" /><path d="M 120.5718875245553 104.21870165774334 l 16.866890581382883 3.4589134891837614 a38.2179,38.2179 0 0,0 -0.13770448292538603,0.6433095000445139 l -16.804852059733054 -3.7487368086444444" fill="#ff5107" stroke="none" /><path d="M 120.41448212921028 104.9243191809786 l 22.82910707545328 5.506767653704751 a44.48388,44.48388 0 0,0 -0.18596101715505847,0.7428218243612841 l -22.73093474400316 -5.8989173174634315" fill="#ffb811" stroke="none" /><path d="M 120.23288151984713 105.62410040840565 l 24.46082537376046 6.799334926147738 a46.388244,46.388244 0 0,0 -0.2204708720535343,0.7674880286794966 l -24.340161864820825 -7.2193804303318165" fill="#ffd614" stroke="none" /><path d="M 119.9155931802556 106.66101706037122 l 14.36073593041871 4.803126181892481 a36.14268,36.14268 0 0,0 -0.20241478868022436,0.5883121241670669 l -14.275930310795255 -5.049611009148848" fill="#ff2d04" stroke="none" /><path d="M 119.67450827220406 107.3425965602758 l 15.652566593167018 5.841593601037974 a37.707096,37.707096 0 0,0 -0.2321782482246095,0.6061441415600108 l -15.549694065348902 -6.1101613094311285" fill="#ff4806" stroke="none" /><path d="M 119.41010516605496 108.01547362559984 l 23.515730610778903 9.710906606886711 a46.441919999999996,46.441919999999996 0 0,0 -0.31149042207358496,0.736271344998766 l -23.34508920751301 -10.11425247755164" fill="#ffd714" stroke="none" /><path d="M 119.26925614724726 108.34839909993367 l 11.586989106462726 5.020059346772114 a33.62772,33.62772 0 0,0 -0.23468772219811807,0.5291588578075292 l -11.498860299533334 -5.2187665410723305" fill="#ff0000" stroke="none" /><path d="M 118.97047184881838 109.00673069616215 l 15.93883868360241 7.567383077069873 a38.644032,38.644032 0 0,0 -0.29046831440365567,0.598450761544348 l -15.80621711258404 -7.840622794579496" fill="#ff5808" stroke="none" /><path d="M 118.64920377521936 109.65438752849418 l 30.217752457878536 15.64323581771981 a55.026804000000006,55.026804000000006 0 0,0 -0.4426971674381153,0.8374162060094402 l -29.944002782215527 -16.161067038815386" fill="#aaff21" stroke="none" /><line stroke="#e1ed5e" stroke-width="0.3" x1="174.80103733775053" x2="179.2010983576182" y1="140.37084112569926" y2="142.7455964860345" /><path d="M 175.68104954172406 140.8457921977663 a86.0,86.0 0 0,1 -30.038265399797805,32.042727171017184" fill="none" id="id125" stroke="none" /><text fill="#e1ed5e" style="font-size:6.75px; font-family:Arial;" text-anchor="middle"><textPath startOffset="22.206326154141568" xlink:href="#id125">May</textPath></text><path d="M 118.30583269289576 110.29060199501025 l 14.885717359216656 8.367988243078488 a38.076527999999996,38.076527999999996 0 0,0 -0.32609464544038225,0.5685735009247704 l -14.739470717623895 -8.622981589861574" fill="#ff4f07" stroke="none" /><path d="M 117.75023020441432 111.22182372390056 l 17.10816887746025 10.815907916159619 a41.240387999999996,41.240387999999996 0 0,0 -0.384507971563974,0.5967649106694528 l -16.919456042519226 -11.108794426750524" fill="#ff840c" stroke="none" /><path d="M 117.35343817320211 111.8261652097733 l 14.676843869367406 10.002097487817858 a38.76096,38.76096 0 0,0 -0.38048329199641545,0.5481145599056867 l -14.502499670208856 -10.253253309910564" fill="#ff5a08" stroke="none" /><path d="M 116.93607887273984 112.41649034213515 l 24.916359237574856 18.26714059134922 a51.8952,51.8952 0 0,0 -0.5343691577430886,0.7158748121565809 l -24.598228813136675 -18.693328283015116" fill="#d6ff1c" stroke="none" /><path d="M 116.498646956653 112.99209946851258 l 9.899188173991801 7.795259681107544 a33.6,33.6 0 0,0 -0.36173134071223373,0.45131546627479957 l -9.763538921224715 -7.964502980960594" fill="#ff0000" stroke="none" /><path d="M 116.0416608686014 113.55231037782055 l 13.559310099150546 11.45517166071509 a38.750376,38.750376 0 0,0 -0.4348483981594631,0.5058269275095956 l -13.360119191420303 -11.686875687386214" fill="#ff5a08" stroke="none" /><path d="M 115.32070863581623 114.36230785411682 l 18.3997420917735 17.248729588174392 a46.220412,46.220412 0 0,0 -0.5491280945983378,0.5757586118011662 l -18.100107445796198 -17.562895316558066" fill="#ffd313" stroke="none" /><path d="M 115.07121518719521 114.62390073753431 l 14.791011154434866 14.352013175022075 a41.609567999999996,41.609567999999996 0 0,0 -0.5031971371899613,0.5097360433027591 l -14.541773392189368 -14.604489712305499" fill="#ff8a0c" stroke="none" /><path d="M 114.29624159901734 115.38237550388516 l 13.741547424975463 14.785539334334409 a41.185199999999995,41.185199999999995 0 0,0 -0.5234451635855863,0.47815474617039344 l -13.485002711923013 -15.019886847091387" fill="#ff830c" stroke="none" /><path d="M 113.48314897796784 116.09983520530334 l 14.61228180597878 17.448099804736266 a43.758624000000005,43.758624000000005 0 0,0 -0.5816351948657712,0.47864616785206776 l -14.309776482568317 -17.697041091445513" fill="#ffad10" stroke="none" /><path d="M 112.92097659922987 116.55440617244103 l 12.44600149944219 15.945866201542103 a41.22804,41.22804 0 0,0 -0.5631971550724334,0.4318355625508313 l -12.169675615876264 -16.157741105920305" fill="#ff830c" stroke="none" /><path d="M 112.34349029814194 116.9893568818739 l 12.211168082145853 16.807230976100204 a41.774879999999996,41.774879999999996 0 0,0 -0.5853907412567708,0.41766075079853143 l -11.920050013040198 -17.014935988742952" fill="#ff8c0c" stroke="none" /><path d="M 112.04921762599082 117.19931262002967 l 7.2575811542278 10.359627571797233 a33.648888,33.648888 0 0,0 -0.4772423633759847,0.32825164925820743 l -7.078181906228932 -10.483020010420535" fill="#ff0100" stroke="none" /><path d="M 111.45004920935366 117.60387380957326 l 13.833491452772728 21.26829618177403 a46.371359999999996,46.371359999999996 0 0,0 -0.6728665359920499,0.4294552588484182 l -13.465343114733747 -21.503265869446256" fill="#ffd614" stroke="none" /><line stroke="#e1ed5e" stroke-width="0.3" x1="143.8653032363475" x2="146.44561519142675" y1="172.8068346515853" y2="177.08958963109032" /><path d="M 144.38136562736335 173.6633856474863 a86.0,86.0 0 0,1 -40.68145358897372,12.25698825130547" fill="none" id="id126" stroke="none" /><text fill="#e1ed5e" style="font-size:6.75px; font-family:Arial;" text-anchor="middle"><textPath startOffset="21.466115282336833" xlink:href="#id126">June</textPath></text><path d="M 110.5260780823613 118.17145234162733 l 9.969501177678355 17.21061862761144 a40.889604,40.889604 0 0,0 -0.6120808303573272,0.34755546980529983 l -9.67177158039983 -17.379677263211367" fill="#ff7e0b" stroke="none" /><path d="M 109.89434966115114 118.52300852407294 l 9.567915277130439 17.91189742684671 a41.307168,41.307168 0 0,0 -0.6300505572031628,0.32961267350039053 l -9.258173817400781 -18.073939519291816" fill="#ff850c" stroke="none" /><path d="M 109.2508944713604 118.85261126421891 l 13.327171607642754 27.159750481239268 a51.253356,51.253356 0 0,0 -0.7953723544225839,0.38182706482121975 l -12.857686585219936 -27.385131822560048" fill="#dfff1b" stroke="none" /><path d="M 107.93186726928326 119.44442032107085 l 7.74784794863589 18.993309769622 a41.5128,41.5128 0 0,0 -0.6639654568804387,0.264205557978083 l -7.419761415713586 -19.123862172006152" fill="#ff880c" stroke="none" /><path d="M 107.2578585660854 119.70592522655815 l 6.787955771082771 18.43008480368987 a40.640376,40.640376 0 0,0 -0.658529761973942,0.23612534327717094 l -6.469706448479094 -18.544197688007" fill="#ff7a0b" stroke="none" /><path d="M 106.2309692047433 120.05430185196036 l 6.776552868310629 21.810256522118006 a43.83876,43.83876 0 0,0 -0.7225567583575204,0.2177004240696515 l -6.4001211355128635 -21.923672315293384" fill="#ffae10" stroke="none" /><path d="M 105.88484417918355 120.15858648285463 l 5.661737966662343 19.394334152116638 a41.203847999999994,41.203847999999994 0 0,0 -0.6825492606359702,0.19289523885601184 l -5.327057537921767 -19.48891818431117" fill="#ff830c" stroke="none" /><path d="M 105.53697534728816 120.25689768951611 l 4.0467538023190235 14.80495624535975 a36.348060000000004,36.348060000000004 0 0,0 -0.6049521121552917,0.15977335114439867 l -3.7913112473522346 -14.872420945807733" fill="#ff3104" stroke="none" /><path d="M 104.83641907484287 120.43548508189849 l 4.657529606102578 19.67961735968924 a41.223252,41.223252 0 0,0 -0.6919221765000191,0.15747923466620256 l -4.3180872802096975 -19.756873327933125" fill="#ff830c" stroke="none" /><path d="M 103.7750983002368 120.6578951692458 l 4.088612663874875 22.373492047261323 a43.744007999999994,43.744007999999994 0 0,0 -0.7418796876730892,0.1289852931689751 l -3.7028840047297367 -22.440555918951304" fill="#ffac0f" stroke="none" /><path d="M 103.41894727170886 120.7198165907248 l 3.2855125975886077 19.911163588821996 a41.180412000000004,41.180412000000004 0 0,0 -0.700388870867879,0.10938633740493132 l -2.9422878631122114 -19.96476823357403" fill="#ff830c" stroke="none" /><path d="M 103.06178313531738 120.77559828337769 l 2.411705340026792 16.36452325585094 a37.54128,37.54128 0 0,0 -0.640117096107127,0.08871439676018424 l -2.1296596527328346 -16.403612218103728" fill="#ff4506" stroke="none" /><path d="M 102.34483914955558 120.86867818915974 l 2.481496375191688 22.08490475402397 a43.22388,43.22388 0 0,0 -0.7400903950586202,0.0767133954948816 l -2.100973383527465 -22.12434751797461" fill="#ffa40f" stroke="none" /><path d="M 101.62511606390274 120.93702456842531 l 2.4413013549087297 31.452268291474702 a52.546872,52.546872 0 0,0 -0.9023980403706156,0.06223465224432675 l -1.8995405537591836 -31.489631288235312" fill="#cdff1d" stroke="none" /><path d="M 100.90346689309514 120.98055641714683 l 0.8499816530239099 19.738507477251737 a40.7568,40.7568 0 0,0 -0.7011715414698348,0.02414976561463718 l -0.5100897598794228 -19.750214041292466" fill="#ff7c0b" stroke="none" /><line stroke="#e1ed5e" stroke-width="0.3" x1="102.19456741930631" x2="102.32365962044197" y1="184.97166512339345" y2="189.96999836594603" /><path d="M 102.22038585953345 185.97133177190398 a86.0,86.0 0 0,1 -42.740103519485714,-10.115201625700543" fill="none" id="id127" stroke="none" /><text fill="#e1ed5e" style="font-size:6.75px; font-family:Arial;" text-anchor="middle"><textPath startOffset="22.20632615414155" xlink:href="#id127">July</textPath></text><path d="M 94.81253420990036 120.34920634021253 l -3.227578965010515 12.661031994404153 a34.065948,34.065948 0 0,0 -0.5669702095565158,-0.1497419854559215 l 3.4450396173785203 -12.603598659644652" fill="#ff0801" stroke="none" /><path d="M 93.76903079525671 120.05430185196036 l -5.663951007111652 18.229360383431967 a40.089,40.089 0 0,0 -0.6572279522213949,-0.21042363572662015 l 5.976900304423987 -18.12916390104564" fill="#ff710a" stroke="none" /><path d="M 93.08242187328487 119.8279376855182 l -5.520227345118669 15.822694273043512 a37.757999999999996,37.757999999999996 0 0,0 -0.6118242299877514,-0.21937840121015587 l 5.7917711357361465 -15.725328330793399" fill="#ff4906" stroke="none" /><path d="M 92.40401165467489 119.57807347666478 l -7.833590860766886 20.190475615014858 a42.65688,42.65688 0 0,0 -0.6822641406576945,-0.2714869818948451 l 8.179976077466439 -20.052641788713945" fill="#ff9b0e" stroke="none" /><path d="M 91.7346041902142 119.30500536409082 l -12.08070251558292 28.216195840155148 a51.6936,51.6936 0 0,0 -0.8149848672624992,-0.35726541561037645 l 12.564608057503163 -28.00406587125032" fill="#d9ff1c" stroke="none" /><path d="M 90.7491055286396 118.85261126421891 l -8.859766653111276 18.055522859967738 a41.112120000000004,41.112120000000004 0 0,0 -0.6326295678513062,-0.3172135984950411 l 9.169250128645341 -17.900341420563397" fill="#ff820b" stroke="none" /><path d="M 90.10565033884886 118.52300852407294 l -10.535107745207283 19.722558556091894 a43.35996,43.35996 0 0,0 -0.6553077229661057,-0.3573260198725059 l 10.873038280042028 -19.53829188445962" fill="#ffa60f" stroke="none" /><line stroke="#e1ed5e" stroke-width="0.3" x1="58.666819895761336" x2="56.23545636021788" y1="174.27360380694188" y2="178.64263932499728" /><path d="M 58.180547188652646 175.14741091055294 a86.0,86.0 0 0,1 -31.652253787137756,-30.449443065178592" fill="none" id="id128" stroke="none" /><text fill="#e1ed5e" style="font-size:6.75px; font-family:Arial;" text-anchor="middle"><textPath startOffset="22.20632615414155" xlink:href="#id128">August</textPath></text><path d="M 89.1626897886671 117.98757091392108 l -12.294711688552951 20.40653945042518 a44.824079999999995,44.824079999999995 0 0,0 -0.6574642373284856,-0.4038682333241634 l 12.644155125813745 -20.19188275027264" fill="#ffbd11" stroke="none" /><path d="M 88.54995079064634 117.60387380957326 l -10.717246059955038 16.47722588576057 a40.656,40.656 0 0,0 -0.583365783239434,-0.38662303116720753 l 10.999286541934433 -16.290304833502045" fill="#ff7a0b" stroke="none" /><path d="M 87.95078237400918 117.19931262002967 l -14.360739535360898 20.49882875305617 a46.028639999999996,46.028639999999996 0 0,0 -0.6449986137276956,-0.46018938511936636 l 14.71146547693748 -20.248595106092584" fill="#ffd013" stroke="none" /><path d="M 87.36589467227662 116.77436683061367 l -12.23426116231158 16.243491669158402 a41.335392,41.335392 0 0,0 -0.5646636410123884,-0.4329600014354189 l 12.512053531817454 -16.03049232589562" fill="#ff850c" stroke="none" /><path d="M 87.07902340077011 116.55440617244103 l -19.297736970481814 24.72433670666413 a52.36392,52.36392 0 0,0 -0.7057721527594133,-0.5607080827499266 l 19.720466615958586 -24.388494709909075" fill="#cfff1d" stroke="none" /><path d="M 86.51685102203217 116.09983520530335 l -12.743193762056963 15.216276249236298 a40.84752,40.84752 0 0,0 -0.5351696642004358,-0.4560831980895326 l 13.003228902834454 -14.994668660923814" fill="#ff7d0b" stroke="none" /><path d="M 85.97065885151581 115.62618273729859 l -14.139892356734249 15.749317057268499 a42.16548,42.16548 0 0,0 -0.535904076616492,-0.4895356678261459 l 14.408895982817596 -15.503588622855776" fill="#ff930d" stroke="none" /><path d="M 85.44109423537348 115.13401014063109 l -14.039444006944647 14.594028658813373 a41.25072,41.25072 0 0,0 -0.5074821655491799,-0.49667810982713795 l 14.288576124869621 -14.350200446063667" fill="#ff840c" stroke="none" /><path d="M 85.18274418774928 114.88116024355367 l -24.146200071643783 24.250338732895045 a55.2216,55.2216 0 0,0 -0.6678115723539698,-0.6764895970284442 l 24.560052269053287 -23.831108641885937" fill="#a7ff21" stroke="none" /><path d="M 84.67929136418377 114.36230785411682 l -12.17260942532872 11.411140836252903 a37.684920000000005,37.684920000000005 0 0,0 -0.4395741199235045,-0.477070890233892 l 12.367229953247952 -11.199918691217668" fill="#ff4806" stroke="none" /><path d="M 84.19399662182784 113.82643327865904 l -14.65595857237636 12.820421993303802 a40.47204,40.47204 0 0,0 -0.4541685418548123,-0.5283006194119323 l 14.874469623801952 -12.56624427473034" fill="#ff770a" stroke="none" /><path d="M 83.72743513129214 113.27417163493432 l -29.290616763674134 23.893508942881784 a58.8,58.8 0 0,0 -0.6330298462463894,-0.789802065980873 l 29.697564521975384 -23.38577904332265" fill="#77ff26" stroke="none" /><path d="M 83.50135304334701 112.99209946851258 l -11.974453982787436 9.429457920654938 a36.241464,36.241464 0 0,0 -0.381731655754133,-0.49343962300725436 l 12.134992455759637 -9.221940303534431" fill="#ff2f04" stroke="none" /><path d="M 83.06392112726016 112.41649034213515 l -14.82381111573173 10.867905666664052 a39.380880000000005,39.380880000000005 0 0,0 -0.3960970309538709,-0.5501441323695897 l 15.008687939061208 -10.611127928843326" fill="#ff6509" stroke="none" /><path d="M 82.6465618267979 111.8261652097733 l -12.790178071176873 8.71635680621131 a36.47784,36.47784 0 0,0 -0.3491396457773449,-0.5219163985479209 l 12.938320822364949 -8.494903493457569" fill="#ff3304" stroke="none" /><path d="M 82.24976979558568 111.22182372390057 l -17.191452957579358 10.868560713072176 a41.33892,41.33892 0 0,0 -0.37507266752083546,-0.6047365657808501 l 17.375990264768152 -10.571027815926062" fill="#ff850c" stroke="none" /><path d="M 82.05923443525364 110.91462005526583 l -33.64969989323828 20.471461375656588 a60.3876,60.3876 0 0,0 -0.5326161138421645,-0.8926952428210989 l 33.99709688277868 -19.88920403894938" fill="#63ff29" stroke="none" /><line stroke="#e1ed5e" stroke-width="0.3" x1="26.63291911575756" x2="22.317208475507996" y1="142.92168965132927" y2="145.44649492493687" /><path d="M 25.769776987707644 143.4266507060508 a86.0,86.0 0 0,1 -11.730757126820373,-40.83630448921669" fill="none" id="id129" stroke="none" /><text fill="#e1ed5e" style="font-size:6.75px; font-family:Arial;" text-anchor="middle"><textPath startOffset="21.46611528233685" xlink:href="#id129">September</textPath></text><path d="M 81.69416730710424 110.29060199501025 l -17.782285877878937 9.996290777952954 a41.3994,41.3994 0 0,0 -0.34385866640728024,-0.6242033600305327 l 17.951720953737734 -9.6887168995246" fill="#ff860c" stroke="none" /><path d="M 81.51974371655577 109.97397251340807 l -26.474075941410877 14.288314063807864 a51.08376,51.08376 0 0,0 -0.4109749105924711,-0.7774096509020929 l 26.716103360228235 -13.830489397819644" fill="#e2ff1b" stroke="none" /><path d="M 81.35079622478065 109.6543875284942 l -13.713878488145303 7.099450412953492 a36.44256,36.44256 0 0,0 -0.2835948395997042,-0.5595595231796285 l 13.834051997531274 -6.862336678071179" fill="#ff3204" stroke="none" /><path d="M 81.02952815118164 109.00673069616217 l -18.677871291022193 8.86781088190456 a41.676096,41.676096 0 0,0 -0.3021028420104841,-0.6507026453600544 l 18.827748749872505 -8.544988169265679" fill="#ff8b0c" stroke="none" /><path d="M 80.87730276802145 108.67885076344099 l -41.08932199629693 18.64842021242093 a66.12312,66.12312 0 0,0 -0.4614729876849244,-1.0404997619187186 l 41.40423606871313 -17.938372114009518" fill="#32ff46" stroke="none" /><path d="M 80.58989483394504 108.01547362559985 l -13.839016781293862 5.71487238558018 a35.97258,35.97258 0 0,0 -0.23141911982937988,-0.5743632768726312 l 13.935338515380629 -5.475809740864743" fill="#ff2a04" stroke="none" /><path d="M 80.32549172779594 107.34259656027581 l -16.847202735455248 6.287436064177936 a38.982216,38.982216 0 0,0 -0.22920752039304595,-0.6306806554087329 l 16.952934516853517 -5.996507611763086" fill="#ff5e08" stroke="none" /><path d="M 80.0844068197444 106.66101706037122 l -21.68808097329835 7.253847578744264 a43.869,43.869 0 0,0 -0.2333574876270552,-0.7182004979463688 l 21.809730711941658 -6.879448180820091" fill="#ffae10" stroke="none" /><path d="M 79.97269907076064 106.31721596034903 l -33.249325002723175 10.487841937371456 a55.8642,55.8642 0 0,0 -0.281377939779192,-0.9195593876170424 l 33.424929715008496 -9.913955577202366" fill="#9eff22" stroke="none" /><path d="M 79.76711848015287 105.62410040840567 l -18.872422566452595 5.245935896944474 a40.587959999999995,40.587959999999995 0 0,0 -0.18131593356967113,-0.6747440399956454 l 18.95992657636404 -4.920300923773289" fill="#ff790b" stroke="none" /><path d="M 79.67330655649465 105.27499134158121 l -30.554679050408367 7.929261484838045 a52.56678,52.56678 0 0,0 -0.2197508822828954,-0.8777955389772367 l 30.68664124698632 -7.402138106463417" fill="#ccff1d" stroke="none" /><path d="M 79.58551787078972 104.9243191809786 l -14.291770649017534 3.4474173722194994 a35.701679999999996,35.701679999999996 0 0,0 -0.13896357707278176,-0.5986514530148358 l 14.348994792020871 -3.200897261856089" fill="#ff2503" stroke="none" /><path d="M 79.4281124754447 104.21870165774334 l -20.405666673356883 4.184614548348775 a41.83032,41.83032 0 0,0 -0.13857800790711047,-0.7066062767787994 l 20.47467461423966 -3.8327445445020203" fill="#ff8d0d" stroke="none" /><path d="M 79.35854240842038 103.8639653848113 l -56.80644721365224 10.633849121062234 a78.79317599999999,78.79317599999999 0 0,0 -0.23808130174259293,-1.3352863765989411 l 56.98107495773402 -9.654443993730078" fill="#45fff0" stroke="none" /><path d="M 79.23777060512086 103.15116336523772 l -20.48982894521833 3.1098201018858043 a41.72448,41.72448 0 0,0 -0.10166060071613975,-0.7110140046315817 l 20.54032359695107 -2.7566606252738217" fill="#ff8c0c" stroke="none" /><path d="M 79.18660465613746 102.79330883721812 l -31.652179103132408 4.247952347287834 a52.93596,52.93596 0 0,0 -0.11343039555091512,-0.9041518577024719 l 31.72061100793017 -3.7024827352979535" fill="#c7ff1e" stroke="none" /><path d="M 79.07016306316243 101.71520430193888 l -62.78951081051271 5.145612905816642 a84.0,84.0 0 0,0 -0.10569376534265862,-1.4421074540129575 l 62.86878113451971 -4.064032315306924" fill="#4dd2ff" stroke="none" /><path d="M 79.04373962182676 101.35467743843564 l -21.144028471161665 1.3668153482840242 a42.188159999999996,42.188159999999996 0 0,0 -0.04060841252098445,-0.7250904847507592 l 21.16442323457018 -1.0026531471978275" fill="#ff930d" stroke="none" /><line stroke="#e1ed5e" stroke-width="0.3" x1="15.007084014347285" x2="10.007500721073583" y1="101.09737516637583" y2="101.16192664675087" /><path d="M 14.007167355692545 101.11028546245083 a86.0,86.0 0 0,1 10.666146001902534,-42.60595125391555" fill="none" id="id130" stroke="none" /><text fill="#e1ed5e" style="font-size:6.75px; font-family:Arial;" text-anchor="middle"><textPath startOffset="22.20632615414155" xlink:href="#id130">October</textPath></text><path d="M 79.00486145842228 99.54816195383935 l -16.72640697330413 -0.35997033461526523 a37.73028,37.73028 0 0,0 0.01956280080543163,-0.649194119524461 l 16.717732478043054 0.6478346015647207" fill="#ff4906" stroke="none" /><path d="M 79.08570108090925 98.10471618934814 l -17.852863843314257 -1.6178521664486363 a38.92602,38.92602 0 0,0 0.06621663429290728,-0.666792470775654 l 17.822370083339123 1.9249201679287204" fill="#ff5d08" stroke="none" /><path d="M 79.12142395522702 97.74499172005258 l -38.11809979924623 -4.116977636733132 a59.339784,59.339784 0 0,0 0.1184242571563468,-1.0145867148404848 l 38.0415851890863 4.772508089898479" fill="#70ff27" stroke="none" /><path d="M 79.16333360222342 97.38593545837743 l -14.689849810432488 -1.8429155018439065 a35.805,35.805 0 0,0 0.08198322160639326,-0.6108702267797557 l 14.655950589768262 2.0955040706883215" fill="#ff2703" stroke="none" /><path d="M 79.32604984820605 96.31383870115002 l -44.26127335897867 -7.891776447933904 a65.95931999999999,65.95931999999999 0 0,0 0.2089160200570374,-1.116037732936256 l 44.11887161501177 8.652492258332733" fill="#31ff44" stroke="none" /><path d="M 79.46518482838121 95.60439243477599 l -18.035317468929357 -3.860574212384942 a39.44388,39.44388 0 0,0 0.14783117878181284,-0.6626981876977026 l 17.966191903145504 4.170450569632603" fill="#ff6609" stroke="none" /><line stroke="#e1ed5e" stroke-width="0.3" x1="26.266209847984243" x2="21.928928074336255" y1="57.711370442889674" y2="55.22380399835377" /><path d="M 25.398753493254645 57.213857153982495 a86.0,86.0 0 0,1 29.58750427330803,-30.492523968695096" fill="none" id="id131" stroke="none" /><text fill="#e1ed5e" style="font-size:6.75px; font-family:Arial;" text-anchor="middle"><textPath startOffset="21.46611528233685" xlink:href="#id131">November</textPath></text><line stroke="#e1ed5e" stroke-width="0.3" x1="56.762969772571076" x2="54.21961505331055" y1="26.818313649435495" y2="22.513508569990535" /><path d="M 56.25429882871897 25.957352633546506 a86.0,86.0 0 0,1 42.265352541879196,-11.944610805530505" fill="none" id="id132" stroke="none" /><text fill="#e1ed5e" style="font-size:6.75px; font-family:Arial;" text-anchor="middle"><textPath startOffset="22.20632615414155" xlink:href="#id132">December</textPath></text></svg>