<?xml version="1.0" encoding="utf-8" ?>
<svg baseProfile="full" height="200mm" version="1.1" viewBox="0,0,200,200" width="200mm" xmlns="http://www.w3.org/2000/svg" xmlns:ev="http://www.w3.org/2001/xml-events" xmlns:xlink="http://www.w3.org/1999/xlink"><defs /><rect fill="#1a1a1a" height="200" width="200" x="0" y="0" /><text alignment-baseline="middle" fill="#e1ed5e" style="dominant-baseline: central; font-size:9.0px; font-family:Arial;" text-anchor="middle" x="100.0" y="100.0">2024</text><line stroke="#e1ed5e" stroke-width="0.3" x1="100.0" x2="100.0" y1="15.0" y2="10.0" /><path d="M 100.0 14.0 a86.0,86.0 0 0,1 42.35913384403234,11.155469271406648" fill="none" id="id109" stroke="none" /><text fill="#e1ed5e" style="font-size:6.75px; font-family:Arial;" text-anchor="middle"><textPath startOffset="22.145653131862478" xlink:href="#id109">January</textPath></text><path d="M 103.23170211078529 79.25015418208739 l 3.4119212647070856 -21.906982066588416 a43.17108635097493,43.17108635097493 0 0,0 0.7312822206038242,0.12033221111483798 l -3.7874809883639804 21.84518385697791" fill="#ff0000" stroke="none" /><path d="M 104.29559338865022 79.4440306129975 l 5.294276972467212 -25.33503186309381 a46.88229526462395,46.88229526462395 0 0,0 0.7863669708266358,0.17138502127664962 l -5.728406359912982 25.24041538368344" fill="#ff5007" stroke="none" /><line stroke="#e1ed5e" stroke-width="0.3" x1="143.13028292997686" x2="145.6673583964461" y1="26.7553504044142" y2="22.446841604673864" /><path d="M 143.63769802327073 25.89364864446614 a86.0,86.0 0 0,1 29.32050498858742,28.57503671076993" fill="none" id="id110" stroke="none" /><text fill="#e1ed5e" style="font-size:6.75px; font-family:Arial;" text-anchor="middle"><textPath startOffset="20.669276256404974" xlink:href="#id110">February</textPath></text><path d="M 113.31354834802062 83.75963576809568 l 18.592537150928802 -22.67987221987958 a50.326763231197766,50.326763231197766 0 0,0 0.6634161781406237,0.5534453710189144 l -18.97912766323132 22.357364664948797" fill="#ff970d" stroke="none" /><path d="M 113.86319453409587 84.22622945171908 l 16.88606603306251 -19.213243413237546 a46.579052924791085,46.579052924791085 0 0,0 0.596067644682681,0.5330073634107427 l -17.213398704568565 18.92054051994342" fill="#ff4a06" stroke="none" /><path d="M 114.39649973595853 84.71141617570332 l 20.265619834443058 -21.521385980811345 a50.56121448467967,50.56121448467967 0 0,0 0.626784537067973,0.6004454080712812 l -20.63207685737634 21.170328442434485" fill="#ff9c0e" stroke="none" /><path d="M 114.91283532996326 85.21462403516908 l 21.84834225667819 -21.661605410758966 a51.76646239554317,51.76646239554317 0 0,0 0.6202440569737537,0.6364250429741811 l -22.21697311480276 21.283357675717046" fill="#ffb410" stroke="none" /><path d="M 115.41159269507618 85.73525988315684 l 21.297361510858142 -19.712519863304614 a50.02001114206128,50.02001114206128 0 0,0 0.5778557003323319,0.635164640084492 l -21.63261491203235 19.34401764766245" fill="#ff910d" stroke="none" /><path d="M 117.62189284568427 88.57770195909679 l 23.66085171203203 -15.336678217438713 a49.19662395543176,49.19662395543176 0 0,0 0.45327030319571326,0.7126162028199051 l -23.920639706853635 14.928248339940136" fill="#ff800b" stroke="none" /><line stroke="#e1ed5e" stroke-width="0.3" x1="172.87174338648825" x2="177.1583165268699" y1="56.24261187166439" y2="53.66864786411523" /><path d="M 173.72905801456457 55.72781907015455 a86.0,86.0 0 0,1 12.242430191666344,42.057860355516425" fill="none" id="id111" stroke="none" /><text fill="#e1ed5e" style="font-size:6.75px; font-family:Arial;" text-anchor="middle"><textPath startOffset="22.145653131862474" xlink:href="#id111">March</textPath></text><path d="M 118.00360718960297 89.18935116829356 l 26.56008479041095 -15.948567783421641 a51.98055710306407,51.98055710306407 0 0,0 0.45279097410720287,0.7689380635960442 l -26.829949474647922 15.49027855153204" fill="#ffb811" stroke="none" /><path d="M 118.70294669586156 90.45014215332178 l 25.944477589245267 -13.247435118790403 a50.13091922005571,50.13091922005571 0 0,0 0.38476694812685625,0.769791641414111 l -26.16806445058386 12.80011162121254" fill="#ff930d" stroke="none" /><path d="M 119.0197475246899 91.09779779509293 l 32.93287826829398 -15.414249908068797 a57.36170473537605,57.36170473537605 0 0,0 0.4097688967954271,0.895418991009733 l -33.192631629944465 14.84664193484438" fill="#e1ff1b" stroke="none" /><path d="M 119.31412917781788 91.75594674310238 l 50.22749582287122 -21.43913125526353 a75.6116991643454,75.6116991643454 0 0,0 0.499304215465576,1.1981483518000118 l -50.58812588287328 20.57375039402224" fill="#3dffae" stroke="none" /><path d="M 119.58574465831526 92.42381321644754 l 28.78547989575924 -11.134842006217863 a51.86403342618384,51.86403342618384 0 0,0 0.31407207930632347,0.8331135043677278 l -28.972382658880004 10.639060221655978" fill="#ffb610" stroke="none" /><path d="M 119.94978838288452 93.4421083053983 l 45.17543445120374 -14.850062602254866 a68.55359331476323,68.55359331476323 0 0,0 0.35789965178830424,1.121115561715086 l -45.4236988187693 14.072378006848394" fill="#30ff34" stroke="none" /><path d="M 120.16314734710363 94.1308016681162 l 52.22311327655682 -15.201387166997753 a75.39058495821726,75.39058495821726 0 0,0 0.35103833717113414,1.2457112187056227 l -52.476370105802545 14.302668024389117" fill="#3dffab" stroke="none" /><path d="M 120.43855184770803 95.1765574152323 l 52.246403985074274 -12.330009080895053 a74.6816155988858,74.6816155988858 0 0,0 0.28375151267222093,1.2502615205015186 l -52.45036635930416 11.431313226454508" fill="#3bff9f" stroke="none" /><path d="M 120.86939407059847 97.66154086499901 l 28.64210978756665 -3.209408143420792 a49.821359331476316,49.821359331476316 0 0,0 0.08794088541566895,0.850748292856404 l -28.692983065463984 2.717255328281457" fill="#ff8d0d" stroke="none" /><path d="M 120.93736805541906 98.37931529534042 l 28.96635297311664 -2.2421789161388936 a50.05300278551532,50.05300278551532 0 0,0 0.058957762890836304,0.8572329329824768 l -29.000574697172542 1.7446025590020824" fill="#ff920d" stroke="none" /><path d="M 120.98066250479742 99.09900007780936 l 48.09188628188802 -2.065272523595207 a69.13621169916435,69.13621169916435 0 0,0 0.04074201236330137,1.1861592365227482 l -48.12025298124817 1.2394070225083385" fill="#31ff3f" stroke="none" /><line stroke="#e1ed5e" stroke-width="0.3" x1="184.99686870605535" x2="189.99668451229388" y1="99.2704041080226" y2="99.22748670261217" /><path d="M 185.99683186730306 99.26182062694052 a86.0,86.0 0 0,1 -10.086455211305974,41.156179273409016" fill="none" id="id112" stroke="none" /><text fill="#e1ed5e" style="font-size:6.75px; font-family:Arial;" text-anchor="middle"><textPath startOffset="21.40746469413373" xlink:href="#id112">April</textPath></text><path d="M 120.99303781780057 100.54070618675476 l 29.21248460239681 0.7524099795409616 a50.22217270194986,50.22217270194986 0 0,0 -0.029595957470718852,0.8616540097377078 l -29.195263957929246 -1.25377025384278" fill="#ff950d" stroke="none" /><path d="M 120.96210409425399 101.26102812881392 l 33.531191914112256 2.0171532402581556 a54.59181058495822,54.59181058495822 0 0,0 -0.06430405460470871,0.9349668411524161 l -33.49162389834248 -2.5924635055649152" fill="#ffea16" stroke="none" /><path d="M 120.9064616781168 101.97986365728391 l 34.500902943129574 3.267271379167914 a55.65526462395543,55.65526462395543 0 0,0 -0.09823845263856167,0.9503679145379603 l -34.43973209800935 -3.8590438159888056" fill="#fffe18" stroke="none" /><path d="M 120.77682067341334 103.0534771498775 l 40.74224573166999 5.987707086269509 a62.17988857938719,62.17988857938719 0 0,0 -0.1642689255901515,1.0547243408649212 l -40.63345531394157 -6.686219609065881" fill="#8eff24" stroke="none" /><path d="M 120.65975698304385 103.76489593502545 l 52.25594911109507 9.522774665293895 a74.11654596100279,74.11654596100279 0 0,0 -0.23884483182956254,1.2497370863515018 l -52.084777986983354 -10.418414316678712" fill="#3aff96" stroke="none" /><path d="M 120.51834098615036 104.47187691870673 l 55.58470011885982 12.114426681111526 a77.88952646239554,77.88952646239554 0 0,0 -0.2959399147674317,1.3039658690441263 l -55.36854934253473 -13.06682688409467" fill="#41ffd3" stroke="none" /><path d="M 120.26092885502905 105.52220625578681 l 40.92120682587479 11.153256888916083 a63.41391643454039,63.41391643454039 0 0,0 -0.29527182725837864,1.0478155484315381 l -40.72371650654183 -11.85408036125063" fill="#7aff26" stroke="none" /><path d="M 120.05942366710727 106.21446072829308 l 50.593330790024915 15.67394320624024 a73.96562674094707,73.96562674094707 0 0,0 -0.3861544052598672,1.2096231745364712 l -50.316811668987796 -16.540135414468093" fill="#3aff93" stroke="none" /><path d="M 119.71291397450082 107.23885506374661 l 32.99908852957108 12.117722393061731 a56.15364902506964,56.15364902506964 0 0,0 -0.34004862608771474,0.9020193809047778 l -32.786209219668926 -12.68241005416067" fill="#f7ff18" stroke="none" /><path d="M 119.4528033332814 107.91128576633889 l 38.85792291465948 15.803178965896771 a62.94852367688022,62.94852367688022 0 0,0 -0.4156825408841147,0.9974867742062733 l -38.58091452923888 -16.467898249544323" fill="#82ff25" stroke="none" /><path d="M 119.16976305983485 108.57439118712176 l 52.31262806255989 23.398773142616843 a78.30718662952646,78.30718662952646 0 0,0 -0.5593949765677814,1.2223789785204464 l -51.90324862113705 -24.29334110335198" fill="#42ffd9" stroke="none" /><path d="M 118.8641267826498 109.22738970284198 l 34.34952556495316 16.802074230495254 a59.23871866295265,59.23871866295265 0 0,0 -0.45467151501526093,0.9096476024038291 l -34.05603413672617 -17.38925368906283" fill="#c0ff1e" stroke="none" /><line stroke="#e1ed5e" stroke-width="0.3" x1="174.33088141563837" x2="178.70328620479359" y1="141.23008692659167" y2="143.65538615756765" /><path d="M 175.20536237346943 141.71514677278685 a86.0,86.0 0 0,1 -30.301960400862466,31.631185727798858" fill="none" id="id113" stroke="none" /><text fill="#e1ed5e" style="font-size:6.75px; font-family:Arial;" text-anchor="middle"><textPath startOffset="22.145653131862474" xlink:href="#id113">May</textPath></text><path d="M 118.36410011445183 110.18625677009912 l 47.51135427939516 26.353747320523844 a75.3309192200557,75.3309192200557 0 0,0 -0.6369646588453175,1.1254555194048739 l -47.05195625552847 -27.165459610027842" fill="#3dffaa" stroke="none" /><path d="M 117.62189284568427 111.42229804090321 l 39.98353492028018 25.916844267961352 a68.64835654596101,68.64835654596101 0 0,0 -0.6494643216161338,0.9833717603799765 l -39.53274615974331 -26.59939590668039" fill="#30ff36" stroke="none" /><path d="M 117.21940702142032 112.02048342749411 l 33.98794377542741 23.7262243919842 a62.45013927576602,62.45013927576602 0 0,0 -0.6211852947337438,0.8737749102087286 l -33.575643382163705 -24.306176528902434" fill="#8aff24" stroke="none" /><path d="M 116.79662413953412 112.60449989151573 l 33.25057843172017 24.95185394123352 a62.57157660167131,62.57157660167131 0 0,0 -0.6520793244333066,0.853592767710728 l -32.817347129932564 -25.518967622185126" fill="#88ff25" stroke="none" /><path d="M 116.35404254752997 113.17365903436017 l 46.30371542994915 37.29899548233238 a80.45796100278551,80.45796100278551 0 0,0 -0.8756629954648139,1.0681664736556304 l -45.65660561524571 -38.088364237686505" fill="#46fffa" stroke="none" /><path d="M 115.6541949942343 113.99807769240083 l 41.51283208471014 37.121030430973356 a76.6891922005571,76.6891922005571 0 0,0 -0.8859511594492442,0.9738155200344879 l -40.869483224419014 -37.82818352656552" fill="#3fffc0" stroke="none" /><path d="M 115.16444852881244 114.52719865689866 l 42.122529451063414 40.3524303639536 a79.33203342618384,79.33203342618384 0 0,0 -0.950523176265391,0.9753205153697343 l -41.42361947364722 -41.06957357139107" fill="#44ffe9" stroke="none" /><path d="M 114.39649973595853 115.28858382429668 l 32.870216522486345 34.90703086470448 a68.94738718662953,68.94738718662953 0 0,0 -0.8686393331081437,0.8039995986926348 l -32.26614741806423 -35.46614820952949" fill="#31ff3c" stroke="none" /><path d="M 113.59037401385872 116.0094264158162 l 26.723596616599465 31.48032961882627 a62.29360445682451,62.29360445682451 0 0,0 -0.8211651681531423,0.6850451890246115 l -26.179257114284425 -31.93443699176275" fill="#8cff24" stroke="none" /><path d="M 112.7482090630111 116.68781488649013 l 28.92018226256617 37.85744693202158 a68.63993314763232,68.63993314763232 0 0,0 -0.9424818840230759,0.7072559763341747 l -28.266047389632323 -38.348321935619765" fill="#30ff36" stroke="none" /><path d="M 112.16784306229584 117.11559508785304 l 25.240512693926078 35.503942060010594 a64.56160445682451,64.56160445682451 0 0,0 -0.9087965332921658,0.6344105609335655 l -24.627321069460155 -35.931997436749285" fill="#68ff28" stroke="none" /><path d="M 111.5731344415666 117.5232005979908 l 32.08111551774212 48.574897791355205 a79.21270194986073,79.21270194986073 0 0,0 -1.1410943070274313,0.7396435435048858 l -31.242535578457677 -49.118455176563984" fill="#44ffe7" stroke="none" /><path d="M 110.96478420261333 117.91015095944535 l 23.942324056904134 39.10798701144626 a66.85487465181058,66.85487465181058 0 0,0 -0.9839358009206286,0.5908251776810394 l -23.26745549942607 -39.51322618966322" fill="#44ff2d" stroke="none" /><line stroke="#e1ed5e" stroke-width="0.3" x1="143.1302829299769" x2="145.66735839644613" y1="173.24464959558577" y2="177.55315839532614" /><path d="M 143.63769802327073 174.10635135553383 a86.0,86.0 0 0,1 -40.68552437913181,11.842963189579606" fill="none" id="id114" stroke="none" /><text fill="#e1ed5e" style="font-size:6.75px; font-family:Arial;" text-anchor="middle"><textPath startOffset="21.407464694133747" xlink:href="#id114">June</textPath></text><path d="M 110.34350942703117 118.27599006163325 l 31.03052828109348 54.82797018489977 a84.0,84.0 0 0,0 -1.2610232473756222,0.6994683382674252 l -30.084760845561767 -55.352571438600336" fill="#4dd2ff" stroke="none" /><path d="M 110.02825361518725 118.45085714620011 l 22.75380018046499 41.864429518130265 a68.64835654596101,68.64835654596101 0 0,0 -1.04022261099034,0.553859949580787 l -22.031788753688097 -42.24885993543362" fill="#30ff36" stroke="none" /><path d="M 109.3889696526874 118.78422872680471 l 26.055724595266803 52.12890322848491 a79.27798328690807,79.27798328690807 0 0,0 -1.2225410641256256,0.5980060967778142 l -25.157023281879106 -52.56850307535995" fill="#44ffe8" stroke="none" /><path d="M 108.4095320186766 119.2426549942271 l 21.77895448723204 49.83450998248671 a75.3856713091922,75.3856713091922 0 0,0 -1.1902497352789951,0.5080468353664024 l -20.920269676782613 -50.201031467512514" fill="#3dffab" stroke="none" /><path d="M 107.74402155503746 119.51999308798841 l 22.998579179564413 57.97144331637638 a83.36684122562673,83.36684122562673 0 0,0 -1.334773543254935,0.5163190807325344 l -22.000033373815945 -58.35770228524696" fill="#4cdbff" stroke="none" /><path d="M 107.06938296918513 119.77432235084164 l 17.229996407737044 48.19536649175326 a72.18267409470752,72.18267409470752 0 0,0 -1.17037066131444,0.40711566957941714 l -16.40011997437758 -48.48404059390127" fill="#37ff75" stroke="none" /><line stroke="#e1ed5e" stroke-width="0.3" x1="101.45913802915013" x2="101.54496967792366" y1="184.9874750549273" y2="189.98673829345242" /><path d="M 101.47630435890484 185.9873277026323 a86.0,86.0 0 0,1 -42.54439059252881,-10.42667462771756" fill="none" id="id115" stroke="none" /><text fill="#e1ed5e" style="font-size:6.75px; font-family:Arial;" text-anchor="middle"><textPath startOffset="22.145653131862474" xlink:href="#id115">July</textPath></text><line stroke="#e1ed5e" stroke-width="0.3" x1="58.13341422392154" x2="55.67067388415222" y1="173.97424548756322" y2="178.32567169271397" /><path d="M 57.64086615596768 174.84453072859336 a86.0,86.0 0 0,1 -31.369924170532247,-30.572349798747897" fill="none" id="id116" stroke="none" /><text fill="#e1ed5e" style="font-size:6.75px; font-family:Arial;" text-anchor="middle"><textPath startOffset="22.145653131862474" xlink:href="#id116">August</textPath></text><line stroke="#e1ed5e" stroke-width="0.3" x1="26.387840678322732" x2="22.057713659400548" y1="142.50000000000003" y2="145.00000000000006" /><path d="M 25.521815274538298 143.00000000000003 a86.0,86.0 0 0,1 -11.493303480769221,-40.785679425670985" fill="none" id="id117" stroke="none" /><text fill="#e1ed5e" style="font-size:6.75px; font-family:Arial;" text-anchor="middle"><textPath startOffset="21.40746469413373" xlink:href="#id117">September</textPath></text><line stroke="#e1ed5e" stroke-width="0.3" x1="15.003131293944662" x2="10.003315487706104" y1="100.72959589197737" y2="100.7725132973878" /><path d="M 14.003168132696942 100.73817937305945 a86.0,86.0 0 0,1 10.791469493833604,-42.45332614584628" fill="none" id="id118" stroke="none" /><text fill="#e1ed5e" style="font-size:6.75px; font-family:Arial;" text-anchor="middle"><textPath startOffset="22.145653131862435" xlink:href="#id118">October</textPath></text><line stroke="#e1ed5e" stroke-width="0.3" x1="26.387840678322718" x2="22.05771365940052" y1="57.49999999999999" y2="54.99999999999999" /><path d="M 25.521815274538284 56.99999999999999 a86.0,86.0 0 0,1 29.574782752854787,-30.34633250058573" fill="none" id="id119" stroke="none" /><text fill="#e1ed5e" style="font-size:6.75px; font-family:Arial;" text-anchor="middle"><textPath startOffset="21.40746469413373" xlink:href="#id119">November</textPath></text><line stroke="#e1ed5e" stroke-width="0.3" x1="56.869717070023135" x2="54.33264160355391" y1="26.7553504044142" y2="22.446841604673864" /><path d="M 56.362301976729285 25.89364864446614 a86.0,86.0 0 0,1 42.16139366436587,-11.88097634709845" fill="none" id="id120" stroke="none" /><text fill="#e1ed5e" style="font-size:6.75px; font-family:Arial;" text-anchor="middle"><textPath startOffset="22.145653131862474" xlink:href="#id120">December</textPath></text></svg>