<?xml version="1.0" encoding="utf-8" ?>
<svg baseProfile="full" height="200mm" version="1.1" viewBox="0,0,200,200" width="200mm" xmlns="http://www.w3.org/2000/svg" xmlns:ev="http://www.w3.org/2001/xml-events" xmlns:xlink="http://www.w3.org/1999/xlink"><defs /><rect fill="#1a1a1a" height="200" width="200" x="0" y="0" /><text alignment-baseline="middle" fill="#e1ed5e" style="dominant-baseline: central; font-size:9.0px; font-family:Arial;" text-anchor="middle" x="100.0" y="100.0">2024</text><line stroke="#e1ed5e" stroke-width="0.3" x1="100.0" x2="100.0" y1="15.0" y2="10.0" /><path d="M 100.0 14.0 a86.0,86.0 0 0,1 42.35913384403234,11.155469271406648" fill="none" id="id109" stroke="none" /><text fill="#e1ed5e" style="font-size:6.75px; font-family:Arial;" text-anchor="middle"><textPath startOffset="22.145653131862478" xlink:href="#id109">January</textPath></text><path d="M 103.23170211078529 79.25015418208739 l 2.776120153279189 -17.824682838278505 a39.03957209555324,39.03957209555324 0 0,0 0.6612978126461843,0.10881630341759889 l -3.081695468978444 17.77440053636524" fill="#ff0000" stroke="none" /><path d="M 104.29559338865022 79.4440306129975 l 4.307704621539662 -20.613926020694166 a42.05920855808893,42.05920855808893 0 0,0 0.7054682848291942,0.15375352919306212 l -4.6609353229879895 20.536941033367384" fill="#ff3c05" stroke="none" /><line stroke="#e1ed5e" stroke-width="0.3" x1="143.13028292997686" x2="145.6673583964461" y1="26.7553504044142" y2="22.446841604673864" /><path d="M 143.63769802327073 25.89364864446614 a86.0,86.0 0 0,1 29.32050498858742,28.57503671076993" fill="none" id="id110" stroke="none" /><text fill="#e1ed5e" style="font-size:6.75px; font-family:Arial;" text-anchor="middle"><textPath startOffset="20.669276256404974" xlink:href="#id110">February</textPath></text><path d="M 113.31354834802062 83.75963576809568 l 15.127874613987217 -18.453547271059264 a44.86181043470377,44.86181043470377 0 0,0 0.5913762163947534,0.4933470727404839 l -15.442425164543863 18.19113801440691" fill="#ff710a" stroke="none" /><path d="M 113.86319453409587 84.22622945171908 l 13.739399179251715 -15.632914159268122 a41.812474502515755,41.812474502515755 0 0,0 0.5350702006610412,0.47846307283768774 l -14.005734406736131 15.394755556547047" fill="#ff3705" stroke="none" /><path d="M 114.39649973595853 84.71141617570332 l 16.48918344718068 -17.510941405900173 a45.05257241285527,45.05257241285527 0 0,0 0.5584963896005538,0.535026907537884 l -16.787352322646544 17.22530236805671" fill="#ff750a" stroke="none" /><path d="M 114.91283532996326 85.21462403516908 l 17.776970377923643 -17.625031373152776 a46.03322605502923,46.03322605502923 0 0,0 0.5515508219549382,0.5659397323011679 l -18.076908001029395 17.317268948783866" fill="#ff870c" stroke="none" /><path d="M 115.41159269507618 85.73525988315684 l 17.328663211998716 -16.039151967105656 a44.61222066089479,44.61222066089479 0 0,0 0.5153822525182177,0.5664953771995397 l -17.60144316535881 15.739319014348444" fill="#ff6d0a" stroke="none" /><path d="M 117.62189284568427 88.57770195909679 l 19.251724229680203 -12.478735052945238 a43.94226916277594,43.94226916277594 0 0,0 0.4048596034671601,0.6365065420431202 l -19.463101524773254 12.146414836223446" fill="#ff6008" stroke="none" /><line stroke="#e1ed5e" stroke-width="0.3" x1="172.87174338648825" x2="177.1583165268699" y1="56.24261187166439" y2="53.66864786411523" /><path d="M 173.72905801456457 55.72781907015455 a86.0,86.0 0 0,1 12.242430191666344,42.057860355516425" fill="none" id="id111" stroke="none" /><text fill="#e1ed5e" style="font-size:6.75px; font-family:Arial;" text-anchor="middle"><textPath startOffset="22.145653131862474" xlink:href="#id111">March</textPath></text><path d="M 118.00360718960297 89.18935116829356 l 21.610694074968336 -12.976600866344155 a46.20742486741308,46.20742486741308 0 0,0 0.40250251406920884,0.6835372643440543 l -21.830270299167314 12.603712433706544" fill="#ff8a0c" stroke="none" /><path d="M 118.70294669586156 90.45014215332178 l 21.109803396353406 -10.77881602748233 a44.70246135714609,44.70246135714609 0 0,0 0.34310221910446576,0.6864342732738369 l -21.29172552866961 10.414849898044743" fill="#ff6e0a" stroke="none" /><path d="M 119.0197475246899 91.09779779509293 l 26.795936943741307 -12.541851495844925 a50.58581206654277,50.58581206654277 0 0,0 0.3613646508525815,0.7896469780490522 l -27.00728605944894 12.08001553558119" fill="#ffd814" stroke="none" /><path d="M 119.31412917781788 91.75594674310238 l 40.86775531573992 -17.44401459734284 a65.43497574905942,65.43497574905942 0 0,0 0.43210190475126276,1.0368872702278735 l -41.161183065027664 16.739894817673687" fill="#40ff2d" stroke="none" /><path d="M 119.58574465831526 92.42381321644754 l 23.421393596340984 -9.059898191904749 a46.112615021984496,46.112615021984496 0 0,0 0.2792433199939867,0.7407260823862261 l -23.57346760014941 8.656503829324365" fill="#ff880c" stroke="none" /><path d="M 119.94978838288452 93.4421083053983 l 36.75713015725068 -12.082798772062684 a59.69212637686415,59.69212637686415 0 0,0 0.31163634481844693,0.9761964115534428 l -36.959131217846384 11.450033326817854" fill="#92ff23" stroke="none" /><path d="M 120.16314734710363 94.1308016681162 l 42.49149554934932 -12.368655076724071 a65.25506550020398,65.25506550020398 0 0,0 0.30384470020866017,1.0782376501790782 l -42.697558741632555 11.63740950264198" fill="#43ff2d" stroke="none" /><path d="M 120.43855184770803 95.1765574152323 l 42.510446105438696 -10.032349530939946 a64.67821041657223,64.67821041657223 0 0,0 0.24574374691096496,1.0827922916540011 l -42.67640071390733 9.301122905346919" fill="#4bff2c" stroke="none" /><path d="M 120.86939407059847 97.66154086499901 l 23.304740070115656 -2.611344733892536 a44.45058700874847,44.45058700874847 0 0,0 0.07846080539046864,0.7590371182479182 l -23.346133267987792 2.2109030933616864" fill="#ff6909" stroke="none" /><path d="M 120.93736805541906 98.37931529534042 l 23.56856152792002 -1.8243557202616896 a44.63906441231131,44.63906441231131 0 0,0 0.05258064908847853,0.764511097880286 l -23.596406138173567 1.4195011982270693" fill="#ff6d0a" stroke="none" /><path d="M 120.98066250479742 99.09900007780936 l 39.130110092919175 -1.680415293891209 a60.16617560400707,60.16617560400707 0 0,0 0.035455964538199394,1.0322617216789916 l -39.15319074445422 1.0084473076480973" fill="#8bff24" stroke="none" /><line stroke="#e1ed5e" stroke-width="0.3" x1="184.99686870605535" x2="189.99668451229388" y1="99.2704041080226" y2="99.22748670261217" /><path d="M 185.99683186730306 99.26182062694052 a86.0,86.0 0 0,1 -10.086455211305974,41.156179273409016" fill="none" id="id112" stroke="none" /><text fill="#e1ed5e" style="font-size:6.75px; font-family:Arial;" text-anchor="middle"><textPath startOffset="21.40746469413373" xlink:href="#id112">April</textPath></text><path d="M 120.99303781780057 100.54070618675476 l 23.768827279498787 0.6122006768850125 a44.77671003127691,44.77671003127691 0 0,0 -0.026386942947072677,0.768227053223734 l -23.75481564955487 -1.0201339946728571" fill="#ff700a" stroke="none" /><path d="M 120.96210409425399 101.26102812881392 l 27.282756668252343 1.6412628921007157 a48.33207923484883,48.33207923484883 0 0,0 -0.05693067566315827,0.8277595295765089 l -27.250562031424117 -2.1093658458315683" fill="#ffb110" stroke="none" /><path d="M 120.9064616781168 101.97986365728391 l 28.071765007441908 2.658425332308783 a49.19736186029645,49.19736186029645 0 0,0 -0.08683945239880571,0.840092927557738 l -28.021993162561436 -3.139922782149452" fill="#ffc011" stroke="none" /><path d="M 120.77682067341334 103.0534771498775 l 33.150052621525596 4.871916150606848 a54.50614206065001,54.50614206065001 0 0,0 -0.14399616337259422,0.9245586647298463 l -33.06153496601473 -5.440262997268145" fill="#e4ff1a" stroke="none" /><path d="M 120.65975698304385 103.76489593502545 l 42.518212526365836 7.748234678483544 a64.21843978060832,64.21843978060832 0 0,0 -0.2069476154194593,1.082837371613141 l -42.37893861866422 -8.476974615129999" fill="#51ff2b" stroke="none" /><path d="M 120.51834098615036 104.47187691870673 l 45.2266609461735 9.856940253204836 a67.2883368840941,67.2883368840941 0 0,0 -0.25566087748569155,1.1264889987996358 l -45.05078920713015 -10.631863585943488" fill="#30ff39" stroke="none" /><path d="M 120.26092885502905 105.52220625578681 l 33.29566486217544 9.074881517430928 a55.510212592357554,55.510212592357554 0 0,0 -0.2584701091686369,0.9172192339051195 l -33.13497626093223 -9.645108675239054" fill="#d4ff1c" stroke="none" /><path d="M 120.05942366710727 106.21446072829308 l 41.16541805362166 12.753151740719476 a64.09564389646889,64.09564389646889 0 0,0 -0.334625911239487,1.0482109009303469 l -40.94042742660491 -13.457931675341205" fill="#53ff2b" stroke="none" /><path d="M 119.71291397450082 107.23885506374661 l 26.849809124962643 9.859621819294595 a49.60287384978015,49.60287384978015 0 0,0 -0.3003792165864337,0.7967915591932628 l -26.67659922456177 -10.319081658682016" fill="#ffc712" stroke="none" /><path d="M 119.4528033332814 107.91128576633889 l 31.616867608818172 12.858304811107704 a55.13154435429038,55.13154435429038 0 0,0 -0.36406287393954795,0.8736183650192426 l -31.39147889034214 -13.399155685568225" fill="#daff1c" stroke="none" /><path d="M 119.16976305983485 108.57439118712176 l 42.56432952826028 19.03848320157619 a67.62816735415439,67.62816735415439 0 0,0 -0.4831083674526332,1.0556789700628906 l -42.23123669595259 -19.766351153853773" fill="#31ff3f" stroke="none" /><path d="M 118.8641267826498 109.22738970284198 l 27.948596341548846 13.671058992674391 a52.113050179049,52.113050179049 0 0,0 -0.3999802833647841,0.8002285028992145 l -27.70979614497233 -14.148819351737352" fill="#fff216" stroke="none" /><line stroke="#e1ed5e" stroke-width="0.3" x1="174.33088141563837" x2="178.70328620479359" y1="141.23008692659167" y2="143.65538615756765" /><path d="M 175.20536237346943 141.71514677278685 a86.0,86.0 0 0,1 -30.301960400862466,31.631185727798858" fill="none" id="id113" stroke="none" /><text fill="#e1ed5e" style="font-size:6.75px; font-family:Arial;" text-anchor="middle"><textPath startOffset="22.145653131862474" xlink:href="#id113">May</textPath></text><path d="M 118.36410011445183 110.18625677009912 l 38.657758456785416 21.442806962667284 a65.20651829019536,65.20651829019536 0 0,0 -0.5513572395934256,0.9741954123312629 l -38.28396785217061 -22.10325914509767" fill="#43ff2d" stroke="none" /><path d="M 117.62189284568427 111.42229804090321 l 32.532725253570966 21.087319460129013 a59.76923076923077,59.76923076923077 0 0,0 -0.5654612123025471,0.8561803462657493 l -32.16593960234769 -21.642679684733825" fill="#91ff24" stroke="none" /><path d="M 117.21940702142032 112.02048342749411 l 27.654394214628617 19.30491491029946 a54.72603236480667,54.72603236480667 0 0,0 -0.5443543751604203,0.7657026000291874 l -27.318924740938236 -19.77679473703815" fill="#e0ff1b" stroke="none" /><path d="M 116.79662413953412 112.60449989151573 l 27.05443465161947 20.302152134769123 a54.82484021576538,54.82484021576538 0 0,0 -0.5713479939564983,0.7479128646060613 l -26.701934680308668 -20.763585912616062" fill="#dfff1b" stroke="none" /><path d="M 116.35404254752997 113.17365903436017 l 37.6751594201345 30.348441544257565 a69.37815148905307,69.37815148905307 0 0,0 -0.7550760570555917,0.9210700159583002 l -37.148636543840276 -30.990713841914356" fill="#34ff5c" stroke="none" /><path d="M 115.6541949942343 113.99807769240083 l 33.77704256019886 30.203639736910013 a66.31168124745025,66.31168124745025 0 0,0 -0.7660650634129443,0.8420396995377123 l -33.253579795944034 -30.779017012005397" fill="#34ff2f" stroke="none" /><path d="M 115.16444852881244 114.52719865689866 l 34.273124683676556 32.832878157516305 a68.46203707900821,68.46203707900821 0 0,0 -0.8202834356753004,0.8416830680293852 l -33.70445444685045 -33.41638391761343" fill="#32ff4d" stroke="none" /><path d="M 114.39649973595853 115.28858382429668 l 26.744952022964956 28.402212230698765 a60.012537962920995,60.012537962920995 0 0,0 -0.7560728996609157,0.6998097884131537 l -26.253449351990074 -28.8571397652443" fill="#8eff24" stroke="none" /><path d="M 113.59037401385872 116.0094264158162 l 21.743735971531677 25.614066300617903 a54.598667331489956,54.598667331489956 0 0,0 -0.719729163710138,0.6004236664217433 l -21.300832473659646 -25.983552150951514" fill="#e2ff1b" stroke="none" /><path d="M 112.7482090630111 116.68781488649013 l 23.530994588326127 30.802827271192932 a59.76237704546485,59.76237704546485 0 0,0 -0.8205858474594103,0.615782918005352 l -22.99875575195595 -31.2022292164623" fill="#91ff23" stroke="none" /><path d="M 112.16784306229584 117.11559508785304 l 20.537020210143382 28.88789084706905 a56.444032455464395,56.444032455464395 0 0,0 -0.7945301460849035,0.5546437482880489 l -20.038094972884718 -29.23617941116222" fill="#c5ff1e" stroke="none" /><path d="M 111.5731344415666 117.5232005979908 l 26.102897581409312 39.523113882182386 a68.36494265899097,68.36494265899097 0 0,0 -0.9848274954414497,0.638353284196908 l -25.420584453710852 -39.96538100808319" fill="#32ff4b" stroke="none" /><path d="M 110.96478420261333 117.91015095944535 l 19.48074506239197 31.820333024589115 a58.30995875073659,58.30995875073659 0 0,0 -0.8581761055399875,0.5153100939745014 l -18.931636200294548 -32.15005711909954" fill="#a7ff21" stroke="none" /><line stroke="#e1ed5e" stroke-width="0.3" x1="143.1302829299769" x2="145.66735839644613" y1="173.24464959558577" y2="177.55315839532614" /><path d="M 143.63769802327073 174.10635135553383 a86.0,86.0 0 0,1 -40.68552437913181,11.842963189579606" fill="none" id="id114" stroke="none" /><text fill="#e1ed5e" style="font-size:6.75px; font-family:Arial;" text-anchor="middle"><textPath startOffset="21.407464694133747" xlink:href="#id114">June</textPath></text><path d="M 110.34350942703117 118.27599006163325 l 25.248084068973668 44.610945325187025 a72.26014233262319,72.26014233262319 0 0,0 -1.0847823730965376,0.601710496194852 l -24.478557507721035 -45.037788736815024" fill="#39ff89" stroke="none" /><path d="M 110.02825361518725 118.45085714620011 l 18.51369898188416 34.06312088529251 a59.76923076923077,59.76923076923077 0 0,0 -0.9056779858382702,0.4822225149434589 l -17.926232180259337 -34.37591386795854" fill="#91ff24" stroke="none" /><path d="M 109.3889696526874 118.78422872680471 l 21.200319862428685 42.41484125612186 a68.41805901817688,68.41805901817688 0 0,0 -1.0550708180199726,0.5160880073664875 l -20.469088795146643 -42.77252301358557" fill="#32ff4c" stroke="none" /><path d="M 108.4095320186766 119.2426549942271 l 17.720512807479945 40.54800118696507 a65.25106749467386,65.25106749467386 0 0,0 -1.0302364423295554,0.4397466755848381 l -17.02184128997996 -40.84622251220931" fill="#43ff2d" stroke="none" /><path d="M 107.74402155503746 119.51999308798841 l 18.712864161786918 47.168641835318255 a71.74497076288472,71.74497076288472 0 0,0 -1.1486975808129816,0.44434090109303787 l -17.900394318480405 -47.48292262454934" fill="#38ff81" stroke="none" /><path d="M 107.06938296918513 119.77432235084164 l 14.019239178590269 39.21430708159064 a62.64493903268211,62.64493903268211 0 0,0 -1.015725721486656,0.3533221319369504 l -13.34400768505859 -39.44918764609618" fill="#67ff28" stroke="none" /><path d="M 106.38641147887787 120.00534299687104 l 13.293613232471378 41.64205411174991 a64.71247903540184,64.71247903540184 0 0,0 -1.0611594440923455,0.3287499083327457 l -12.576813155507407 -41.8641206078893" fill="#4aff2c" stroke="none" /><path d="M 105.69591212413111 120.21278271476187 l 13.424031506729014 47.637152064213495 a70.49245274466253,70.49245274466253 0 0,0 -1.1675517218250346,0.31822141365530593 l -12.604298383969285 -47.86057397201294" fill="#36ff6d" stroke="none" /><path d="M 105.3480935250658 120.30758222061773 l 9.751949514202535 37.02974071840757 a59.292325823852046,59.292325823852046 0 0,0 -0.9864964188194756,0.25076353199966916 l -9.114847802157662 -37.19168948224251" fill="#98ff23" stroke="none" /><path d="M 104.29559338865022 120.5559693870025 l 10.002281708969358 47.8645388441563 a69.89846335161597,69.89846335161597 0 0,0 -1.1766358309896063,0.23536011980626814 l -9.179149392448792 -48.029188360625426" fill="#35ff64" stroke="none" /><path d="M 103.58742460773223 120.69131181640829 l 8.668360052110852 49.99679725353279 a71.74268618829609,71.74268618829609 0 0,0 -1.2152613080276453,0.1999707857747785 l -7.8088212410301345 -50.13823403780324" fill="#38ff81" stroke="none" /><path d="M 102.875027216393 120.80226474461374 l 4.033587207043173 29.185027700944637 a50.46244503875617,50.46244503875617 0 0,0 -0.8591163458558639,0.11122981107949215 l -3.5319930392965335 -29.249969108224523" fill="#ffd614" stroke="none" /><path d="M 102.15924093988457 120.88869738790638 l 3.0499119227479685 29.505131195528328 a50.66234531526223,50.66234531526223 0 0,0 -0.8658446596946067,0.08199638948837827 l -2.542967699668347 -29.553139340521888" fill="#ffda14" stroke="none" /><path d="M 101.44090949804482 120.95050786540614 l 2.0157188053515216 29.308109040343506 a50.37734463532932,50.37734463532932 0 0,0 -0.8632653329329769,0.051931898752321695 l -1.5123091202860794 -29.33839291692052" fill="#ffd513" stroke="none" /><path d="M 100.72087961077811 120.9876233191556 l 2.162638832334333 62.96286995746683 a84.0,84.0 0 0,0 -1.4415467437170246,0.03712913059981959 l -1.0814787745465644 -62.990716805416696" fill="#4dd2ff" stroke="none" /><line stroke="#e1ed5e" stroke-width="0.3" x1="101.45913802915013" x2="101.54496967792366" y1="184.9874750549273" y2="189.98673829345242" /><path d="M 101.47630435890484 185.9873277026323 a86.0,86.0 0 0,1 -42.54439059252881,-10.42667462771756" fill="none" id="id115" stroke="none" /><text fill="#e1ed5e" style="font-size:6.75px; font-family:Arial;" text-anchor="middle"><textPath startOffset="22.145653131862474" xlink:href="#id115">July</textPath></text><path d="M 100.0 121.0 l 5.321060088340056e-15 43.44975295770817 a64.44975295770817,64.44975295770817 0 0,0 -1.1063657118814372,-0.009496819008767058 l 0.7458727870325796 -43.44335053689384" fill="#4eff2c" stroke="none" /><path d="M 99.27912038922189 120.98762331915562 l -1.1744968881826505 34.19419541092471 a55.2143601831286,55.2143601831286 0 0,0 -0.9469900087080798,-0.04066782562115218 l 1.7613126574915692 -34.16899501687774" fill="#d8ff1c" stroke="none" /><path d="M 98.19965949673042 120.92268563240118 l -4.366158270519438 50.741377394711414 a71.9288790172703,71.9288790172703 0 0,0 -1.2293002897392726,-0.11641601553700215 l 5.236558123643726 -50.65894962366923" fill="#38ff84" stroke="none" /><path d="M 97.48249496171623 120.84855314841334 l -5.058038611843623 41.8878156039909 a63.19209464666153,63.19209464666153 0 0,0 -1.075836919874168,-0.13928862828320945 l 5.7763533536085845 -41.79481537950729" fill="#5fff29" stroke="none" /><path d="M 96.76829788921471 120.74984581791261 l -7.502072488934346 48.16868700264123 a69.74939485970717,69.74939485970717 0 0,0 -1.1814966142872785,-0.19441481826877716 l 8.327846606274688 -48.03280618587678" fill="#35ff61" stroke="none" /><path d="M 96.05791012581884 120.62667999033965 l -9.613796027232254 50.303443217998264 a72.2138796972032,72.2138796972032 0 0,0 -1.2156123936383771,-0.24315652393832268 l 10.47590490640159 -50.13099729739708" fill="#39ff88" stroke="none" /><path d="M 95.00130118170881 120.39639698878247 l -9.538063869099492 38.918555458202256 a61.070295997461585,61.070295997461585 0 0,0 -1.0160780077463056,-0.2582830562269722 l 10.204747170071176 -38.74908717014002" fill="#7eff26" stroke="none" /><path d="M 94.30408787586889 120.21278271476187 l -12.689741398346406 45.03141551370432 a67.78523185712342,67.78523185712342 0 0,0 -1.1172942531302197,-0.3252280734652935 l 13.460895663858233 -44.80694374593651" fill="#31ff42" stroke="none" /><path d="M 93.61358852112213 120.00534299687104 l -11.055575648354381 34.63143325554167 a57.35329314174335,57.35329314174335 0 0,0 -0.9353428010509861,-0.30746575697415346 l 11.64844118705311 -34.4365465771655" fill="#b6ff1f" stroke="none" /><path d="M 92.59220618246901 119.65005319985036 l -16.54488994050075 43.88728621835037 a67.90231630479127,67.90231630479127 0 0,0 -1.0871734372670847,-0.42054204068034784 l 17.29583564026136 -43.59680428953198" fill="#31ff44" stroke="none" /><path d="M 91.59046798132341 119.24265499422711 l -15.069686205880872 34.48239115886774 a58.63151262408776,58.63151262408776 0 0,0 -0.9188021416613292,-0.4109685112736765 l 15.659401750397835 -34.21861889668421" fill="#a3ff22" stroke="none" /><path d="M 90.93487009805054 118.94263497670748 l -17.147358270629216 35.83138378033649 a60.723040659988214,60.723040659988214 0 0,0 -0.9364063976847528,-0.4580432930306045 l 17.75992491757604 -35.531746737208664" fill="#83ff25" stroke="none" /><line stroke="#e1ed5e" stroke-width="0.3" x1="58.13341422392154" x2="55.67067388415222" y1="173.97424548756322" y2="178.32567169271397" /><path d="M 57.64086615596768 174.84453072859336 a86.0,86.0 0 0,1 -31.369924170532247,-30.572349798747897" fill="none" id="id116" stroke="none" /><text fill="#e1ed5e" style="font-size:6.75px; font-family:Arial;" text-anchor="middle"><textPath startOffset="22.145653131862474" xlink:href="#id116">August</textPath></text><path d="M 89.65649057296885 118.27599006163327 l -23.045944769899254 40.719976188634796 a67.78922986265356,67.78922986265356 0 0,0 -1.0078241981458649,-0.5818675720953382 l 23.74156143590552 -40.31836171926329" fill="#31ff42" stroke="none" /><line stroke="#e1ed5e" stroke-width="0.3" x1="26.387840678322732" x2="22.057713659400548" y1="142.50000000000003" y2="145.00000000000006" /><path d="M 25.521815274538298 143.00000000000003 a86.0,86.0 0 0,1 -11.493303480769221,-40.785679425670985" fill="none" id="id117" stroke="none" /><text fill="#e1ed5e" style="font-size:6.75px; font-family:Arial;" text-anchor="middle"><textPath startOffset="21.40746469413373" xlink:href="#id117">September</textPath></text><line stroke="#e1ed5e" stroke-width="0.3" x1="15.003131293944662" x2="10.003315487706104" y1="100.72959589197737" y2="100.7725132973878" /><path d="M 14.003168132696942 100.73817937305945 a86.0,86.0 0 0,1 10.791469493833604,-42.45332614584628" fill="none" id="id118" stroke="none" /><text fill="#e1ed5e" style="font-size:6.75px; font-family:Arial;" text-anchor="middle"><textPath startOffset="22.145653131862435" xlink:href="#id118">October</textPath></text><line stroke="#e1ed5e" stroke-width="0.3" x1="26.387840678322718" x2="22.05771365940052" y1="57.49999999999999" y2="54.99999999999999" /><path d="M 25.521815274538284 56.99999999999999 a86.0,86.0 0 0,1 29.574782752854787,-30.34633250058573" fill="none" id="id119" stroke="none" /><text fill="#e1ed5e" style="font-size:6.75px; font-family:Arial;" text-anchor="middle"><textPath startOffset="21.40746469413373" xlink:href="#id119">November</textPath></text><line stroke="#e1ed5e" stroke-width="0.3" x1="56.869717070023135" x2="54.33264160355391" y1="26.7553504044142" y2="22.446841604673864" /><path d="M 56.362301976729285 25.89364864446614 a86.0,86.0 0 0,1 42.16139366436587,-11.88097634709845" fill="none" id="id120" stroke="none" /><text fill="#e1ed5e" style="font-size:6.75px; font-family:Arial;" text-anchor="middle"><textPath startOffset="22.145653131862474" xlink:href="#id120">December</textPath></text></svg>