<?xml version="1.0" encoding="utf-8" ?>
<svg baseProfile="full" height="200mm" version="1.1" viewBox="0,0,200,200" width="200mm" xmlns="http://www.w3.org/2000/svg" xmlns:ev="http://www.w3.org/2001/xml-events" xmlns:xlink="http://www.w3.org/1999/xlink"><defs /><rect fill="#1a1a1a" height="200" width="200" x="0" y="0" /><text alignment-baseline="middle" fill="#e1ed5e" style="dominant-baseline: central; font-size:9.0px; font-family:Arial;" text-anchor="middle" x="100.0" y="100.0">2025</text><line stroke="#e1ed5e" stroke-width="0.3" x1="100.0" x2="100.0" y1="15.0" y2="10.0" /><path d="M 100.0 14.0 a86.0,86.0 0 0,1 42.46469731375804,11.215312516191453" fill="none" id="id121" stroke="none" /><text fill="#e1ed5e" style="font-size:6.75px; font-family:Arial;" text-anchor="middle"><textPath startOffset="22.20632615414155" xlink:href="#id121">January</textPath></text><path d="M 100.0 79.0 l 0.0 -46.89046391752578 a67.89046391752578,67.89046391752578 0 0,0 1.168622734997215,0.010058704827485696 l -0.8071422557246866 46.88351658930685" fill="#3bff2e" stroke="none" /><path d="M 101.80526077348638 79.07773832637324 l 2.331617918745529 -27.022533772060132 a48.12293814432989,48.12293814432989 0 0,0 0.8246779166064171,0.0783131051148683 l -2.7964209624421907 26.978395122430086" fill="#ff5708" stroke="none" /><path d="M 103.2404852339499 79.25152402106235 l 5.868022425157018 -37.572312028044884 a59.027783505154645,59.027783505154645 0 0,0 1.002546971554577,0.16542884046043485 l -6.51389860285047 37.46573692464482" fill="#cfff1d" stroke="none" /><path d="M 104.307194497241 79.44645832069477 l 5.926610820069657 -28.281249566359463 a49.89556701030928,49.89556701030928 0 0,0 0.8390944058179012,0.18339353704994552 l -6.412547950041086 28.175042531213645" fill="#ff7d0b" stroke="none" /><path d="M 105.36241919743992 79.69619591428918 l 10.146344718572822 -38.417249335960214 a60.73453608247423,60.73453608247423 0 0,0 1.0084886156655932,0.27565803453956683 l -10.806131223462126 38.236904760594356" fill="#b1ff20" stroke="none" /><path d="M 106.0581310904928 79.89281104454417 l 8.93891071714715 -29.6686163044066 a51.9859793814433,51.9859793814433 0 0,0 0.8545866903063445,0.26552424459303214 l -9.448282780164213 29.510351924931047" fill="#ffa80f" stroke="none" /><path d="M 106.74666289553966 80.11325718540242 l 13.089817720110434 -38.5840885368523 a61.7440206185567,61.7440206185567 0 0,0 1.0035402561238898,0.3501154903321601 l -13.752039980297596 38.35305219334793" fill="#9fff22" stroke="none" /><path d="M 107.76421540070413 80.48803036053334 l 13.711444310728025 -34.45773607464576 a58.085567010309276,58.085567010309276 0 0,0 0.9258179153550066,0.3776643735767595 l -14.302546095671419 34.21661081488542" fill="#e0ff1b" stroke="none" /><path d="M 108.76106565485865 80.91482961587045 l 16.787956588419135 -36.571009111621464 a61.24020618556701,61.24020618556701 0 0,0 0.9542442765915553,0.4480304828785423 l -17.41497907631029 36.276613646102916" fill="#a8ff21" stroke="none" /><path d="M 109.73455568895987 81.39251694778311 l 21.711786704022817 -41.501812310410656 a67.8380412371134,67.8380412371134 0 0,0 1.030023594393824,0.5502029321491273 l -22.422955344944953 41.121930651759776" fill="#3cff2e" stroke="none" /><path d="M 110.36928655335952 81.73862282372117 l 23.35196928915854 -41.12521308035825 a68.29268041237114,68.29268041237114 0 0,0 1.0172463610328935,0.5892547510196023 l -24.05641238265676 40.7171541719486" fill="#35ff2f" stroke="none" /><line stroke="#e1ed5e" stroke-width="0.3" x1="143.23703022742887" x2="145.7803849466894" y1="26.81831364943548" y2="22.513508569990506" /><path d="M 143.74570117128098 25.957352633546492 a86.0,86.0 0 0,1 28.547481713284135,27.462654790039103" fill="none" id="id122" stroke="none" /><text fill="#e1ed5e" style="font-size:6.75px; font-family:Arial;" text-anchor="middle"><textPath startOffset="19.985693538727396" xlink:href="#id122">February</textPath></text><path d="M 111.2981086023043 82.29822771554956 l 15.972014663930604 -25.024805164922764 a50.68747422680413,50.68747422680413 0 0,0 0.7314274319252905,0.4757407477018709 l -16.400409121640173 24.746165493061365" fill="#ff8d0d" stroke="none" /><path d="M 111.90073688211348 82.69761687909136 l 21.529116567222506 -31.3010048697616 a58.99020618556701,58.99020618556701 0 0,0 0.8316744343374424,0.5826410900651067 l -22.064722141143598 30.925778936932556" fill="#d0ff1d" stroke="none" /><path d="M 113.06298171725822 83.55741782278167 l 18.342042370005867 -23.087419510692115 a50.48659793814433,50.48659793814433 0 0,0 0.6757910046882543,0.5464426610103604 l -18.736736773258613 22.768270752417624" fill="#ff890c" stroke="none" /><path d="M 113.6212207817346 84.01681056812373 l 24.629534336928813 -28.900384131054622 a58.97164948453608,58.97164948453608 0 0,0 0.7669296751550551,0.6650738568439496 l -25.123357810730635 28.472145280791" fill="#d0ff1d" stroke="none" /><path d="M 114.16331599549186 84.49514656593476 l 22.16173060296071 -24.260871179709298 a53.85927835051547,53.85927835051547 0 0,0 0.6791196329388278,0.631167685685298 l -22.576058119694384 23.87579890794936" fill="#ffcd13" stroke="none" /><path d="M 114.68862486808459 84.99185889309783 l 25.595523732760917 -26.152293719543522 a57.59335051546391,57.59335051546391 0 0,0 0.7025406928798446,0.6995237598779215 l -26.04190022580808 25.707834109015483" fill="#e9ff1a" stroke="none" /><path d="M 115.19652480421416 85.50635884689758 l 20.87787652961882 -19.912213769766698 a49.851030927835055,49.851030927835055 0 0,0 0.5868954228010447,0.6260591169441935 l -21.217539274390326 19.549885235944448" fill="#ff7c0b" stroke="none" /><path d="M 115.4437574822437 85.77008943001954 l 23.909393027002313 -22.03016493543957 a53.511340206185565,53.511340206185565 0 0,0 0.6183270000090355,0.6827721170342066 l -24.285063667627384 21.615340031135812" fill="#ffc612" stroke="none" /><path d="M 115.9244219780498 86.31012108654704 l 21.691454915314093 -18.647671586233646 a49.605154639175254,49.605154639175254 0 0,0 0.5510645758880893,0.6522866431367834 l -22.009230104689298 18.271525993467755" fill="#ff770a" stroke="none" /><path d="M 116.60985879189232 87.15038557335679 l 26.88889069815617 -20.801614400244794 a54.995876288659794,54.995876288659794 0 0,0 0.5728057777518135,0.7537452599828367 l -27.242972416132098 20.335684364380924" fill="#ffe415" stroke="none" /><path d="M 117.04232023915458 87.72973835380427 l 25.59397582131004 -18.42734882849851 a52.53757731958763,52.53757731958763 0 0,0 0.5220918748893183,0.7384619315005567 l -25.90738031600324 17.98406039666616" fill="#ffb310" stroke="none" /><path d="M 117.45458315368197 88.32363383020206 l 23.97704469062412 -16.03961269153995 a49.84731958762886,49.84731958762886 0 0,0 0.47094647259878003,0.7172837875482525 l -24.249587798580823 15.624510840014025" fill="#ff7c0b" stroke="none" /><line stroke="#e1ed5e" stroke-width="0.3" x1="172.23445277983987" x2="176.4835382374775" y1="55.19839476539836" y2="52.563006222186495" /><path d="M 173.08426987136738 54.67131705675599 a86.0,86.0 0 0,1 12.851231095245387,41.99856678651699" fill="none" id="id123" stroke="none" /><text fill="#e1ed5e" style="font-size:6.75px; font-family:Arial;" text-anchor="middle"><textPath startOffset="22.20632615414155" xlink:href="#id123">March</textPath></text><path d="M 117.84615892207809 88.93136811851018 l 39.42450424612242 -24.452058648357472 a67.39175257731958,67.39175257731958 0 0,0 0.602945030242,0.991083095996715 l -39.83956507465064 23.769807779153673" fill="#43ff2d" stroke="none" /><path d="M 118.3937258080291 89.86733742301442 l 25.571477735458313 -14.086714034586455 a50.194793814433,50.194793814433 0 0,0 0.41038283615891646,0.7603770690513052 l -25.810168670835694 13.644455982202691" fill="#ff830c" stroke="none" /><path d="M 118.73160827565052 90.50648371742162 l 28.129275458480752 -14.25642318867816 a52.535721649484536,52.535721649484536 0 0,0 0.401873221202693,0.8101518913082715 l -28.37050869263685 13.770111708870937" fill="#ffb310" stroke="none" /><path d="M 119.04729006885535 91.15688171328212 l 42.124246144177675 -19.557096576214885 a67.44278350515464,67.44278350515464 0 0,0 0.47979979015298585,1.0571752377298318 l -42.45464825129401 18.82909932964299" fill="#42ff2d" stroke="none" /><path d="M 119.34039704204932 91.81776055985345 l 27.186217903952844 -11.501529357360637 a50.519072164948454,50.519072164948454 0 0,0 0.33193030273304985,0.8037955565435229 l -27.38016989357209 11.03185923036381" fill="#ff8a0c" stroke="none" /><path d="M 119.7369772167798 92.82701384747503 l 30.587373174776214 -11.116332648864466 a53.54474226804123,53.54474226804123 0 0,0 0.3073644628211972,0.8689607265392205 l -30.774190718407223 10.58817429589863" fill="#ffc712" stroke="none" /><path d="M 119.97218684219823 93.5106431181261 l 51.21145199058796 -16.63960942442791 a74.84690721649486,74.84690721649486 0 0,0 0.38758051031922336,1.2287361336373261 l -51.49028798467539 15.755623124364163" fill="#3bff9e" stroke="none" /><path d="M 120.18372546131832 94.20196356495316 l 29.972386425106414 -8.609956019819933 a52.184536082474224,52.184536082474224 0 0,0 0.24057873641145147,0.8654897168500773 l -30.11615193208423 8.092754999550904" fill="#ffac0f" stroke="none" /><path d="M 120.37134235888165 94.90015583598534 l 33.26799217683285 -8.328443593091725 a55.29463917525773,55.29463917525773 0 0,0 0.22319865349880907,0.9253025150595201 l -33.40642363059248 7.754555846372799" fill="#ffe915" stroke="none" /><path d="M 120.53481517161879 95.60439243477599 l 44.31165123631202 -9.485190286548205 a66.31546391752578,66.31546391752578 0 0,0 0.22932741340068283,1.1182819117148932 l -44.468357945627695 8.7210327186699" fill="#54ff2b" stroke="none" /><path d="M 120.73433829027371 96.67025291283417 l 36.65763829242869 -5.886884964342005 a58.12731958762887,58.12731958762887 0 0,0 0.15014592941901006,0.9892740768994127 l -36.753540115287 5.25501177505051" fill="#dfff1b" stroke="none" /><path d="M 120.83666639777658 97.38593545837742 l 33.36597791993888 -4.185929654581461 a54.62752577319588,54.62752577319588 0 0,0 0.10902001530676132,0.9340169137469748 l -33.43308828824922 3.610969002509633" fill="#ffdc14" stroke="none" /><path d="M 120.94382443527127 98.46500227214037 l 55.51146786272631 -4.068501304658415 a76.66036082474227,76.66036082474227 0 0,0 0.08512734799148798,1.3168823951722612 l -55.57327580172222 3.112359845233119" fill="#3fffbc" stroke="none" /><path d="M 120.98425023603335 99.18683210126433 l 29.650374727840855 -1.1489918697577044 a50.672628865979384,50.672628865979384 0 0,0 0.0262732888489754,0.8718825484634317 l -29.665759711145476 0.6384391738692735" fill="#ff8d0d" stroke="none" /><line stroke="#e1ed5e" stroke-width="0.3" x1="184.98032266829074" x2="189.97916517819016" y1="98.17113171792111" y2="98.06355123074" /><path d="M 185.9800911702706 98.14961562048488 a86.0,86.0 0 0,1 -9.607161424134198,41.387399972396054" fill="none" id="id124" stroke="none" /><text fill="#e1ed5e" style="font-size:6.75px; font-family:Arial;" text-anchor="middle"><textPath startOffset="21.466115282336823" xlink:href="#id124">April</textPath></text><path d="M 120.99980553446 99.90962569577887 l 32.132022033872666 -0.13828266789252133 a53.13231958762887,53.13231958762887 0 0,0 -0.0039360996951174464,0.9146109491419306 l -32.129641636888046 -0.41483775945309403" fill="#ffbf11" stroke="none" /><path d="M 120.9904718944345 100.63252640178507 l 56.335767977647585 1.697620748590608 a77.36134020618556,77.36134020618556 0 0,0 -0.05156636965043135,1.3306988706649714 l -56.29819947514595 -2.6670968662695858" fill="#40ffc8" stroke="none" /><path d="M 120.92983693683757 101.71520430193887 l 41.94598247960025 3.437481611308417 a63.08659793814433,63.08659793814433 0 0,0 -0.09801074891608501,1.0815404471850159 l -41.88059713440709 -4.159003447042004" fill="#88ff25" stroke="none" /><path d="M 120.8583938346157 102.4346265915055 l 31.983382534477375 3.7331538670779976 a53.200515463917526,53.200515463917526 0 0,0 -0.11399728110314315,0.9086704933174339 l -31.91438374412738 -4.283142114682827" fill="#ffc011" stroke="none" /><path d="M 120.70491114924044 103.5080841355445 l 48.182371291479846 8.163657941934996 a69.86907216494845,69.86907216494845 0 0,0 -0.21111624758694958,1.184052032722513 l -48.0347086015537 -8.991828725390729" fill="#32ff46" stroke="none" /><path d="M 120.5718875245553 104.21870165774334 l 31.050976769850664 6.367661062562152 a52.697164948453604,52.697164948453604 0 0,0 -0.1898753163010155,0.8870342650107143 l -30.936767414825205 -6.901209146989035" fill="#ffb610" stroke="none" /><path d="M 120.41448212921028 104.9243191809786 l 42.0270748811732 10.137642956010222 a64.23247422680413,64.23247422680413 0 0,0 -0.2685183091403577,1.0725971675221182 l -41.84634525773778 -10.859567962929734" fill="#75ff27" stroke="none" /><path d="M 120.23288151984713 105.62410040840565 l 45.03097454668715 12.517185062864023 a67.73829896907216,67.73829896907216 0 0,0 -0.3219419524725783,1.120722171373324 l -44.808839957328466 -13.29046470974193" fill="#3dff2e" stroke="none" /><path d="M 119.9155931802556 106.66101706037122 l 26.437290004452706 8.8422794217461 a48.87680412371134,48.87680412371134 0 0,0 -0.2737314437685791,0.7955917064400945 l -26.281167729740897 -9.296043831275496" fill="#ff6709" stroke="none" /><path d="M 119.67450827220406 107.3425965602758 l 28.81547605516756 10.754038293516151 a51.75680412371134,51.75680412371134 0 0,0 -0.3186881353882979,0.8319941584856241 l -28.626093640185754 -11.24845601883492" fill="#ffa30f" stroke="none" /><path d="M 119.41010516605496 108.01547362559984 l 43.29110937183155 17.87722129397406 a67.83711340206185,67.83711340206185 0 0,0 -0.4549900410203086,1.0754620550866523 l -42.976968349618936 -18.619757874726876" fill="#3cff2e" stroke="none" /><path d="M 119.26925614724726 108.34839909993367 l 21.330981418377633 9.241640918210816 a44.24690721649485,44.24690721649485 0 0,0 -0.3087989869354999,0.6962601949878298 l -21.16874134671086 -9.607449449691334" fill="#ff0100" stroke="none" /><path d="M 118.97047184881838 109.00673069616215 l 29.34248653093227 13.931117594016701 a53.481649484536085,53.481649484536085 0 0,0 -0.4019954381908269,0.8282296697888175 l -29.098337836126728 -14.434136219770794" fill="#ffc612" stroke="none" /><path d="M 118.64920377521936 109.65438752849418 l 55.62914664557905 28.79829863350481 a83.64139175257733,83.64139175257733 0 0,0 -0.6729049211989074,1.2728825200677216 l -55.12518921615524 -29.751596168658665" fill="#4cd7ff" stroke="none" /><line stroke="#e1ed5e" stroke-width="0.3" x1="174.80103733775053" x2="179.2010983576182" y1="140.37084112569926" y2="142.7455964860345" /><path d="M 175.68104954172406 140.8457921977663 a86.0,86.0 0 0,1 -30.038265399797805,32.042727171017184" fill="none" id="id125" stroke="none" /><text fill="#e1ed5e" style="font-size:6.75px; font-family:Arial;" text-anchor="middle"><textPath startOffset="22.206326154141568" xlink:href="#id125">May</textPath></text><path d="M 118.30583269289576 110.29060199501025 l 27.403750661297238 15.404985719953038 a52.436907216494845,52.436907216494845 0 0,0 -0.44907967099188006,0.783008259412461 l -27.134518994152977 -15.874413825223813" fill="#ffb110" stroke="none" /><path d="M 117.75023020441432 111.22182372390056 l 31.495156254529185 19.9114652359345 a58.26139175257732,58.26139175257732 0 0,0 -0.543204626573289,0.8430656434344119 l -31.147746764578848 -20.450652479290365" fill="#ddff1b" stroke="none" /><path d="M 117.35343817320211 111.8261652097733 l 27.019226563636614 18.413286980518883 a53.69690721649484,53.69690721649484 0 0,0 -0.5270967496098662,0.7593221805462395 l -26.69826890686461 -18.875650423252143" fill="#ffca12" stroke="none" /><path d="M 116.93607887273984 112.41649034213515 l 45.869586225285076 33.62875661146764 a77.87628865979381,77.87628865979381 0 0,0 -0.8018985721086277,1.0742741817312884 l -45.283926386481355 -34.41334367270824" fill="#41ffd0" stroke="none" /><path d="M 116.498646956653 112.99209946851258 l 18.223836844609348 14.350625333408583 a44.19587628865979,44.19587628865979 0 0,0 -0.47580457094788464,0.5936393605547574 l -17.97411436160661 -14.66219252754159" fill="#ff0000" stroke="none" /><path d="M 116.0416608686014 113.55231037782055 l 24.961911080910426 21.08831307200863 a53.67742268041237,53.67742268041237 0 0,0 -0.6023565105511687,0.7006767054613061 l -24.595212060788477 -21.514866876631466" fill="#ffca12" stroke="none" /><path d="M 115.32070863581623 114.36230785411682 l 33.87286835746226 31.75392044951103 a67.42932989690722,67.42932989690722 0 0,0 -0.8011036216278512,0.8399539445067293 l -33.321258184455445 -32.33228151060026" fill="#42ff2d" stroke="none" /><path d="M 115.07121518719521 114.62390073753431 l 27.22940197797288 26.421231912779966 a58.94103092783505,58.94103092783505 0 0,0 -0.7127917796673969,0.7220543095602482 l -26.770569573249947 -26.886026716320877" fill="#d1ff1d" stroke="none" /><path d="M 114.29624159901734 115.38237550388516 l 25.29739953051448 27.219328671455106 a58.15979381443299,58.15979381443299 0 0,0 -0.7391845319993554,0.6752275440853177 l -24.825115449048262 -27.650748982127006" fill="#dfff1b" stroke="none" /><path d="M 113.48314897796784 116.09983520530334 l 26.90037151321572 32.120949566892975 a62.89731958762887,62.89731958762887 0 0,0 -0.8360247967323013,0.6879914914323026 l -26.343476587938728 -32.57923617718246" fill="#8bff24" stroke="none" /><path d="M 112.92097659922987 116.55440617244103 l 22.912373894407565 29.355423787816832 a58.238659793814435,58.238659793814435 0 0,0 -0.7955713517088757,0.6100101875875821 l -22.4036738142052 -29.745473317231784" fill="#ddff1b" stroke="none" /><path d="M 112.34349029814194 116.9893568818739 l 22.48005906138781 30.94114686321835 a59.24536082474227,59.24536082474227 0 0,0 -0.8302043163073295,0.5923287363935399 l -21.944127417231595 -31.32351986145611" fill="#cbff1d" stroke="none" /><path d="M 112.04921762599082 117.19931262002967 l 13.360790048283873 19.071479329523626 a44.28587628865979,44.28587628865979 0 0,0 -0.6281068267152389,0.43201760279856855 l -13.030526336945751 -19.29863772168729" fill="#ff0200" stroke="none" /><path d="M 111.45004920935366 117.60387380957326 l 25.466663204662616 39.153711674841745 a67.70721649484537,67.70721649484537 0 0,0 -0.9824581427965536,0.6270512701309539 l -24.788923259819132 -39.586277373796506" fill="#3eff2d" stroke="none" /><line stroke="#e1ed5e" stroke-width="0.3" x1="143.8653032363475" x2="146.44561519142675" y1="172.8068346515853" y2="177.08958963109032" /><path d="M 144.38136562736335 173.6633856474863 a86.0,86.0 0 0,1 -40.68145358897372,12.25698825130547" fill="none" id="id126" stroke="none" /><text fill="#e1ed5e" style="font-size:6.75px; font-family:Arial;" text-anchor="middle"><textPath startOffset="21.466115282336833" xlink:href="#id126">June</textPath></text><path d="M 110.5260780823613 118.17145234162733 l 18.353279045799624 31.683760360109424 a57.61561855670103,57.61561855670103 0 0,0 -0.8624543208522292,0.48972407205501867 l -17.805175958026194 -31.99498759795907" fill="#e9ff1a" stroke="none" /><path d="M 109.89434966115114 118.52300852407294 l 17.61398246894411 32.97477434986508 a58.38432989690721,58.38432989690721 0 0,0 -0.8905253340892233,0.46588076596895645 l -17.043766232328387 -33.273084534778754" fill="#dbff1b" stroke="none" /><path d="M 109.2508944713604 118.85261126421891 l 24.534557451477824 49.999540650293206 a76.69469072164948,76.69469072164948 0 0,0 -1.1901822922774121,0.5713598275519491 l -23.670262491200177 -50.41445475434471" fill="#3fffbd" stroke="none" /><path d="M 107.93186726928326 119.44442032107085 l 14.263343057135291 34.96559235939249 a58.76288659793814,58.76288659793814 0 0,0 -0.9398673866280619,0.3739926297915597 l -13.659354594465363 -35.20593183359012" fill="#d4ff1c" stroke="none" /><path d="M 107.2578585660854 119.70592522655815 l 12.49623669197859 33.92872754729357 a57.15680412371134,57.15680412371134 0 0,0 -0.9261591628674609,0.3320877246395889 l -11.910357968481394 -34.13880281297312" fill="#f1ff19" stroke="none" /><path d="M 106.2309692047433 120.05430185196036 l 12.475244602928258 40.15142953261783 a63.044845360824745,63.044845360824745 0 0,0 -1.0391142243774387,0.31307659182096276 l -11.782255404110574 -40.36022149354452" fill="#89ff24" stroke="none" /><path d="M 105.88484417918355 120.15858648285463 l 10.422934401072062 35.70385521376407 a58.194123711340204,58.194123711340204 0 0,0 -0.9639962780304753,0.27243497726996935 l -9.806806954936981 -35.87797898437256" fill="#deff1b" stroke="none" /><path d="M 105.53697534728816 120.25689768951611 l 7.449841315020291 27.2550740893957 a49.25489690721649,49.25489690721649 0 0,0 -0.8197646289241229,0.21650728922362997 l -6.979586243284671 -27.379272727922913" fill="#ff6f0a" stroke="none" /><path d="M 104.83641907484287 120.43548508189849 l 8.574244488406809 36.22904521297724 a58.22984536082475,58.22984536082475 0 0,0 -0.9773736758885834,0.2224470665767467 l -7.949350663125363 -36.37126901313167" fill="#deff1b" stroke="none" /><path d="M 103.7750983002368 120.6578951692458 l 7.5269010748801115 41.18831378361806 a62.870412371134016,62.870412371134016 0 0,0 -1.066255334759797,0.18538215728529223 l -6.816796768648264 -41.311774519424354" fill="#8cff24" stroke="none" /><path d="M 103.41894727170886 120.7198165907248 l 6.048439980833224 36.65530852139542 a58.1509793814433,58.1509793814433 0 0,0 -0.9890211586234344,0.1544647647295457 l -5.416582958601272 -36.75399159347207" fill="#dfff1b" stroke="none" /><path d="M 103.06178313531738 120.77559828337769 l 4.439811008885846 30.126147378223376 a51.45154639175257,51.45154639175257 0 0,0 -0.8773013191481426,0.12158596884610655 l -3.9205810985508727 -30.198107912562087" fill="#ff9d0e" stroke="none" /><path d="M 102.34483914955558 120.86867818915974 l 4.568292296008262 40.65704115247417 a61.91288659793815,61.91288659793815 0 0,0 -1.060088374793924,0.109882494487246 l -3.8677713246087357 -40.72965301541718" fill="#9cff22" stroke="none" /><path d="M 101.62511606390274 120.93702456842531 l 4.494295572365114 57.90181938784003 a79.0759793814433,79.0759793814433 0 0,0 -1.3579877568012353,0.09365478648631409 l -3.4969450547849483 -57.970602518842625" fill="#43ffe3" stroke="none" /><path d="M 100.90346689309514 120.98055641714683 l 1.564767402474061 36.3374585369141 a57.371134020618555,57.371134020618555 0 0,0 -0.987001101095022,0.03399431357819739 l -0.9390459497043867 -36.35900964891839" fill="#edff19" stroke="none" /><line stroke="#e1ed5e" stroke-width="0.3" x1="102.19456741930631" x2="102.32365962044197" y1="184.97166512339345" y2="189.96999836594603" /><path d="M 102.22038585953345 185.97133177190398 a86.0,86.0 0 0,1 -42.740103519485714,-10.115201625700543" fill="none" id="id127" stroke="none" /><text fill="#e1ed5e" style="font-size:6.75px; font-family:Arial;" text-anchor="middle"><textPath startOffset="22.20632615414155" xlink:href="#id127">July</textPath></text><path d="M 94.81253420990036 120.34920634021253 l -5.941787490814645 23.30823268483828 a45.05365979381443,45.05365979381443 0 0,0 -0.7498421278218044,-0.198040121166785 l 6.342120061447939 -23.202501214367917" fill="#ff1302" stroke="none" /><path d="M 93.76903079525671 120.05430185196036 l -10.427008481427931 33.55920541868919 a56.141752577319586,56.141752577319586 0 0,0 -0.9204003362646104,-0.29468312238728667 l 11.003130162783481 -33.374749449642195" fill="#fff917" stroke="none" /><path d="M 93.08242187328487 119.8279376855182 l -10.162421474813458 29.128671342127237 a51.850515463917525,51.850515463917525 0 0,0 -0.8401769611255718,-0.30125756619515576 l 10.662317996568756 -28.949426234892123" fill="#ffa50f" stroke="none" /><path d="M 92.40401165467489 119.57807347666478 l -14.421190833517832 37.16950591865769 a60.869072164948456,60.869072164948456 0 0,0 -0.9735542124330178,-0.38739731299620084 l 15.058866121992708 -36.915761761255425" fill="#aeff20" stroke="none" /><path d="M 91.7346041902142 119.30500536409082 l -22.23987944694941 51.944395876574276 a77.50515463917526,77.50515463917526 0 0,0 -1.221921633737401,-0.5356545352637744 l 23.130721755344553 -51.55387678801605" fill="#40ffca" stroke="none" /><path d="M 90.7491055286396 118.85261126421891 l -16.310321526346232 33.23918052276829 a58.02525773195876,58.02525773195876 0 0,0 -0.8928873948468172,-0.44771227581445194 l 16.880062828875808 -32.95350040604453" fill="#e1ff1b" stroke="none" /><path d="M 90.10565033884886 118.52300852407294 l -19.394528249645216 36.30809748912351 a62.16340206185567,62.16340206185567 0 0,0 -0.9394878929081384,-0.5122837069152558 l 20.016638954421996 -35.96887313044849" fill="#98ff23" stroke="none" /><line stroke="#e1ed5e" stroke-width="0.3" x1="58.666819895761336" x2="56.23545636021788" y1="174.27360380694188" y2="178.64263932499728" /><path d="M 58.180547188652646 175.14741091055294 a86.0,86.0 0 0,1 -31.652253787137756,-30.449443065178592" fill="none" id="id128" stroke="none" /><text fill="#e1ed5e" style="font-size:6.75px; font-family:Arial;" text-anchor="middle"><textPath startOffset="22.20632615414155" xlink:href="#id128">August</textPath></text><path d="M 89.1626897886671 117.98757091392108 l -22.633858042255063 37.56726702950144 a64.85876288659793,64.85876288659793 0 0,0 -0.9513260969395513,-0.5843821888279944 l 23.277163339126925 -37.172096373845065" fill="#6bff28" stroke="none" /><path d="M 88.54995079064634 117.60387380957326 l -19.729834425543146 30.33362644654008 a57.18556701030928,57.18556701030928 0 0,0 -0.8205456289098831,-0.5438128998558943 l 20.24905475319299 -29.989515525592868" fill="#f1ff19" stroke="none" /><path d="M 87.95078237400918 117.19931262002967 l -26.437296640944222 37.73716633478677 a67.07628865979382,67.07628865979382 0 0,0 -0.9399389858046158,-0.6706215094436778 l 27.082962954597722 -37.27650056349888" fill="#48ff2c" stroke="none" /><path d="M 87.36589467227662 116.77436683061367 l -22.52257209556624 29.903335178863045 a58.43628865979382,58.43628865979382 0 0,0 -0.7982710680931759,-0.612080214989249 l 23.033971892152902 -29.51121562204643" fill="#daff1c" stroke="none" /><path d="M 87.07902340077011 116.55440617244103 l -35.52602535066608 45.516083775154875 a78.73917525773196,78.73917525773196 0 0,0 -1.061263504110277,-0.8431319121271544 l 36.30424634749372 -44.897817949022595" fill="#43ffde" stroke="none" /><path d="M 86.51685102203217 116.09983520530335 l -23.459487779928132 28.01229059137757 a57.53814432989691,57.53814432989691 0 0,0 -0.7538442818498439,-0.6424424512948764 l 23.938197538355034 -27.604323749859745" fill="#eaff1a" stroke="none" /><path d="M 85.97065885151581 115.62618273729859 l -26.030729669982044 28.993588102482505 a59.96443298969072,59.96443298969072 0 0,0 -0.7621206752815742,-0.6961791671629118 l 26.525949894730473 -28.541216168733015" fill="#beff1f" stroke="none" /><path d="M 85.44109423537348 115.13401014063109 l -25.845810027512233 26.86676851769767 a58.28041237113402,58.28041237113402 0 0,0 -0.7169879672209917,-0.7017236318891159 l 26.30444794710902 -26.41789478288598" fill="#ddff1b" stroke="none" /><path d="M 85.18274418774928 114.88116024355367 l -44.45176743675218 44.64348073066098 a84.0,84.0 0 0,0 -1.015837499777867,-1.0290380240773414 l 45.21364556158558 -43.871702212602976" fill="#4dd2ff" stroke="none" /><path d="M 84.67929136418377 114.36230785411682 l -22.40907478889675 21.00725485319017 a51.7159793814433,51.7159793814433 0 0,0 -0.6032388054049216,-0.6546965821560123 l 22.7673600022974 -20.618407016232812" fill="#ffa20f" stroke="none" /><line stroke="#e1ed5e" stroke-width="0.3" x1="26.63291911575756" x2="22.317208475507996" y1="142.92168965132927" y2="145.44649492493687" /><path d="M 25.769776987707644 143.4266507060508 a86.0,86.0 0 0,1 -11.730757126820373,-40.83630448921669" fill="none" id="id129" stroke="none" /><text fill="#e1ed5e" style="font-size:6.75px; font-family:Arial;" text-anchor="middle"><textPath startOffset="21.46611528233685" xlink:href="#id129">September</textPath></text><line stroke="#e1ed5e" stroke-width="0.3" x1="15.007084014347285" x2="10.007500721073583" y1="101.09737516637583" y2="101.16192664675087" /><path d="M 14.007167355692545 101.11028546245083 a86.0,86.0 0 0,1 10.666146001902534,-42.60595125391555" fill="none" id="id130" stroke="none" /><text fill="#e1ed5e" style="font-size:6.75px; font-family:Arial;" text-anchor="middle"><textPath startOffset="22.20632615414155" xlink:href="#id130">October</textPath></text><line stroke="#e1ed5e" stroke-width="0.3" x1="26.266209847984243" x2="21.928928074336255" y1="57.711370442889674" y2="55.22380399835377" /><path d="M 25.398753493254645 57.213857153982495 a86.0,86.0 0 0,1 29.58750427330803,-30.492523968695096" fill="none" id="id131" stroke="none" /><text fill="#e1ed5e" style="font-size:6.75px; font-family:Arial;" text-anchor="middle"><textPath startOffset="21.46611528233685" xlink:href="#id131">November</textPath></text><line stroke="#e1ed5e" stroke-width="0.3" x1="56.762969772571076" x2="54.21961505331055" y1="26.818313649435495" y2="22.513508569990535" /><path d="M 56.25429882871897 25.957352633546506 a86.0,86.0 0 0,1 42.265352541879196,-11.944610805530505" fill="none" id="id132" stroke="none" /><text fill="#e1ed5e" style="font-size:6.75px; font-family:Arial;" text-anchor="middle"><textPath startOffset="22.20632615414155" xlink:href="#id132">December</textPath></text></svg>