<?xml version="1.0" encoding="utf-8" ?>
<svg baseProfile="full" height="200mm" version="1.1" viewBox="0,0,200,200" width="200mm" xmlns="http://www.w3.org/2000/svg" xmlns:ev="http://www.w3.org/2001/xml-events" xmlns:xlink="http://www.w3.org/1999/xlink"><defs /><rect fill="#1a1a1a" height="200" width="200" x="0" y="0" /><text alignment-baseline="middle" fill="#e1ed5e" style="dominant-baseline: central; font-size:9.0px; font-family:Arial;" text-anchor="middle" x="100.0" y="100.0">2021</text><line stroke="#e1ed5e" stroke-width="0.3" x1="100.0" x2="100.0" y1="15.0" y2="10.0" /><path d="M 100.0 14.0 a86.0,86.0 0 0,1 42.46469731375804,11.215312516191453" fill="none" id="id73" stroke="none" /><text fill="#e1ed5e" style="font-size:6.75px; font-family:Arial;" text-anchor="middle"><textPath startOffset="22.20632615414155" xlink:href="#id73">January</textPath></text><line stroke="#e1ed5e" stroke-width="0.3" x1="143.23703022742887" x2="145.7803849466894" y1="26.81831364943548" y2="22.513508569990506" /><path d="M 143.74570117128098 25.957352633546492 a86.0,86.0 0 0,1 28.547481713284135,27.462654790039103" fill="none" id="id74" stroke="none" /><text fill="#e1ed5e" style="font-size:6.75px; font-family:Arial;" text-anchor="middle"><textPath startOffset="19.985693538727396" xlink:href="#id74">February</textPath></text><line stroke="#e1ed5e" stroke-width="0.3" x1="172.23445277983987" x2="176.4835382374775" y1="55.19839476539836" y2="52.563006222186495" /><path d="M 173.08426987136738 54.67131705675599 a86.0,86.0 0 0,1 12.851231095245387,41.99856678651699" fill="none" id="id75" stroke="none" /><text fill="#e1ed5e" style="font-size:6.75px; font-family:Arial;" text-anchor="middle"><textPath startOffset="22.20632615414155" xlink:href="#id75">March</textPath></text><line stroke="#e1ed5e" stroke-width="0.3" x1="184.98032266829074" x2="189.97916517819016" y1="98.17113171792111" y2="98.06355123074" /><path d="M 185.9800911702706 98.14961562048488 a86.0,86.0 0 0,1 -9.607161424134198,41.387399972396054" fill="none" id="id76" stroke="none" /><text fill="#e1ed5e" style="font-size:6.75px; font-family:Arial;" text-anchor="middle"><textPath startOffset="21.466115282336823" xlink:href="#id76">April</textPath></text><path d="M 120.81339534386255 102.79330883721812 l 11.839015858414308 1.5888819231517537 a32.94515978384148,32.94515978384148 0 0,0 -0.08027001736904525,0.5614083145226949 l -11.809911790028663 -1.792435709654858" fill="#ff5a08" stroke="none" /><path d="M 120.64145759157962 103.86396538481128 l 11.177518899525513 2.092369006608283 a32.37167255987724,32.37167255987724 0 0,0 -0.10724282998478639,0.5468288796413204 l -11.139846136565064 -2.2844616133175486" fill="#ff5107" stroke="none" /><path d="M 120.49622156327973 104.57218783832717 l 9.472557131409243 2.1130875454469984 a30.7053839482287,30.7053839482287 0 0,0 -0.11951622413396673,0.5148727655389331 l -9.434780341344723 -2.2758289683344963" fill="#ff3705" stroke="none" /><path d="M 120.23288151984713 105.62410040840565 l 13.787804132200849 3.8325729716186228 a35.31056107812396,35.31056107812396 0 0,0 -0.1678216186323754,0.5842090705872875 l -13.719789876682375 -4.0693395177104925" fill="#ff7d0b" stroke="none" /><path d="M 119.67450827220406 107.3425965602758 l 5.949124668693901 2.2202345148680136 a27.349923277069852,27.349923277069852 0 0,0 -0.16840483487637312,0.43965188320287685 l -5.910025554224021 -2.322309964904034" fill="#ff0300" stroke="none" /><path d="M 119.41010516605496 108.01547362559984 l 5.708168895321252 2.357209136142776 a27.175728867836412,27.175728867836412 0 0,0 -0.18227022601993353,0.43083297255677006 l -5.66674768810901 -2.455116634365709" fill="#ff0000" stroke="none" /><path d="M 119.12269723197855 108.67885076344098 l 16.402729889355403 7.444391504807575 a39.01300954032958,39.01300954032958 0 0,0 -0.28279858692895166,0.6091229973016 l -16.27215668558662 -7.7256345693880055" fill="#ffb210" stroke="none" /><path d="M 118.81262510543309 109.33194174019688 l 16.72414634264433 8.295958615526278 a39.668690372940155,39.668690372940155 0 0,0 -0.3087004832658335,0.6090953399059252 l -16.57886718959223 -8.582608167134898" fill="#ffbb11" stroke="none" /><line stroke="#e1ed5e" stroke-width="0.3" x1="174.80103733775053" x2="179.2010983576182" y1="140.37084112569926" y2="142.7455964860345" /><path d="M 175.68104954172406 140.8457921977663 a86.0,86.0 0 0,1 -30.038265399797805,32.042727171017184" fill="none" id="id77" stroke="none" /><text fill="#e1ed5e" style="font-size:6.75px; font-family:Arial;" text-anchor="middle"><textPath startOffset="22.206326154141568" xlink:href="#id77">May</textPath></text><path d="M 118.30583269289576 110.29060199501025 l 9.817498637264531 5.518895138916696 a32.262392421108814,32.262392421108814 0 0,0 -0.27630127982309616,0.48175457087575374 l -9.721045361289056 -5.687069555650765" fill="#ff4f07" stroke="none" /><path d="M 117.94076556474637 110.91462005526583 l 17.196275860211564 10.46169499859925 a41.12856094469278,41.12856094469278 0 0,0 -0.37316405616834225,0.6016592765655502 l -17.013647164375257 -10.756150606530072" fill="#ffd013" stroke="none" /><path d="M 117.75023020441432 111.22182372390056 l 16.826935600635444 10.638110207539588 a40.907665621455735,40.907665621455735 0 0,0 -0.3814058085370889,0.5919502847617215 l -16.641324928721307 -10.926182092222763" fill="#ffcc13" stroke="none" /><path d="M 117.35343817320211 111.8261652097733 l 21.896815040974207 14.922423421676708 a47.49809860564414,47.49809860564414 0 0,0 -0.46624833133766125,0.6716654957356462 l -21.63670580247441 -15.297130179599373" fill="#daff1c" stroke="none" /><path d="M 116.27256486870786 113.27417163493432 l 12.531832708505192 10.222709180460683 a37.172526519447594,37.172526519447594 0 0,0 -0.40872786035256137,0.4923390379059135 l -12.354008848259086 -10.436909475480368" fill="#ff980e" stroke="none" /><path d="M 115.80600337817218 113.82643327865902 l 20.48344432271677 17.918063755211058 a48.214490626459394,48.214490626459394 0 0,0 -0.5518060067039362,0.6199598981871861 l -20.171979466364498 -18.267997823139112" fill="#d1ff1d" stroke="none" /><path d="M 115.32070863581623 114.36230785411682 l 21.1451468711728 19.822393089203153 a49.98352124891587,49.98352124891587 0 0,0 -0.5938362424102299,0.6226349260411156 l -20.800804077383606 -20.183435131826776" fill="#baff1f" stroke="none" /><path d="M 114.81725581225074 114.88116024355365 l 13.759845402360984 13.819189393339858 a40.50136766962439,40.50136766962439 0 0,0 -0.49826334601394906,0.4876555546075999 l -13.519932103971241 -14.05399505087003" fill="#ffc712" stroke="none" /><path d="M 114.55890576462653 115.13401014063108 l 18.323364085735626 19.047171701444956 a47.42991527119888,47.42991527119888 0 0,0 -0.5932447199821022,0.560949911211499 l -17.99278353136272 -19.359756249402377" fill="#dbff1b" stroke="none" /><path d="M 114.0293411484842 115.62618273729858 l 10.448297767731614 11.637539388649275 a36.63966909066649,36.63966909066649 0 0,0 -0.4729267854284421,0.4173029018861233 l -10.246428629396583 -11.815665432307686" fill="#ff900d" stroke="none" /><path d="M 113.48314897796784 116.09983520530334 l 24.920152813372187 29.756428134248683 a59.81312962839416,59.81312962839416 0 0,0 -0.7950300564053995,0.6542556110509744 l -24.404252628422096 -30.180978864156838" fill="#48ff2c" stroke="none" /><path d="M 112.92097659922987 116.55440617244103 l 11.144331541453328 14.278161518267911 a39.11248248715725,39.11248248715725 0 0,0 -0.5342975039460361,0.4096765424114532 l -10.896905309013796 -14.467877402506737" fill="#ffb310" stroke="none" /><path d="M 112.04921762599082 117.19931262002967 l 12.637650963920324 18.039255033657117 a43.025552071519115,43.025552071519115 0 0,0 -0.6102316414191243,0.41972288735725927 l -12.325262437878317 -18.254118710379473" fill="#ffe915" stroke="none" /><path d="M 111.45004920935366 117.60387380957326 l 24.165111527699917 37.15264154326778 a65.32010140769898,65.32010140769898 0 0,0 -0.9478201710031331,0.6049436776934792 l -23.522009554649852 -37.56309964978506" fill="#34ff59" stroke="none" /><line stroke="#e1ed5e" stroke-width="0.3" x1="143.8653032363475" x2="146.44561519142675" y1="172.8068346515853" y2="177.08958963109032" /><path d="M 144.38136562736335 173.6633856474863 a86.0,86.0 0 0,1 -40.68145358897372,12.25698825130547" fill="none" id="id78" stroke="none" /><text fill="#e1ed5e" style="font-size:6.75px; font-family:Arial;" text-anchor="middle"><textPath startOffset="21.466115282336833" xlink:href="#id78">June</textPath></text><path d="M 110.5260780823613 118.17145234162733 l 14.176625988479651 24.47349159858639 a49.28300753886183,49.28300753886183 0 0,0 -0.7377225804606218,0.4188981345622046 l -13.753254641097831 -24.71389289894322" fill="#c3ff1e" stroke="none" /><path d="M 109.57404056367764 118.69057910512821 l 23.608387035431914 46.08863128325062 a72.7833744746147,72.7833744746147 0 0,0 -1.1199839546254313,0.5615832053346957 l -22.811549173123723 -46.48818232949462" fill="#3effb4" stroke="none" /><path d="M 108.59647513512805 119.15986991738527 l 11.170428061037361 24.896710012736875 a48.28781106144506,48.28781106144506 0 0,0 -0.7612902813560517,0.33372728708741944 l -10.740217105023556 -25.085301853118747" fill="#d0ff1d" stroke="none" /><path d="M 107.93186726928326 119.44442032107085 l 7.736952924707061 18.96660137707228 a41.48395490026019,41.48395490026019 0 0,0 -0.6635041015917686,0.2640219751874331 l -7.409327747073426 -19.096970196665783" fill="#ffd413" stroke="none" /><path d="M 106.91757812671514 119.82793768551818 l 6.304230916734192 18.069893173939455 a40.13803455867637,40.13803455867637 0 0,0 -0.654307813802214,0.22197673549640892 l -5.992253369994751 -18.175732896333987" fill="#ffc212" stroke="none" /><line stroke="#e1ed5e" stroke-width="0.3" x1="102.19456741930631" x2="102.32365962044197" y1="184.97166512339345" y2="189.96999836594603" /><path d="M 102.22038585953345 185.97133177190398 a86.0,86.0 0 0,1 -42.740103519485714,-10.115201625700543" fill="none" id="id79" stroke="none" /><text fill="#e1ed5e" style="font-size:6.75px; font-family:Arial;" text-anchor="middle"><textPath startOffset="22.20632615414155" xlink:href="#id79">July</textPath></text><line stroke="#e1ed5e" stroke-width="0.3" x1="58.666819895761336" x2="56.23545636021788" y1="174.27360380694188" y2="178.64263932499728" /><path d="M 58.180547188652646 175.14741091055294 a86.0,86.0 0 0,1 -31.652253787137756,-30.449443065178592" fill="none" id="id80" stroke="none" /><text fill="#e1ed5e" style="font-size:6.75px; font-family:Arial;" text-anchor="middle"><textPath startOffset="22.20632615414155" xlink:href="#id80">August</textPath></text><line stroke="#e1ed5e" stroke-width="0.3" x1="26.63291911575756" x2="22.317208475507996" y1="142.92168965132927" y2="145.44649492493687" /><path d="M 25.769776987707644 143.4266507060508 a86.0,86.0 0 0,1 -11.730757126820373,-40.83630448921669" fill="none" id="id81" stroke="none" /><text fill="#e1ed5e" style="font-size:6.75px; font-family:Arial;" text-anchor="middle"><textPath startOffset="21.46611528233685" xlink:href="#id81">September</textPath></text><path d="M 80.58989483394504 108.01547362559985 l -8.860525023764318 3.6589860811859385 a30.586296617519515,30.586296617519515 0 0,0 -0.19676803393214234,-0.4883621233905599 l 8.922195671953848 -3.5059245899525733" fill="#ff3605" stroke="none" /><path d="M 80.0844068197444 106.66101706037122 l -11.902320615700159 3.980878699499995 a33.55040362932817,33.55040362932817 0 0,0 -0.1784685746156433,-0.5492697939977012 l 11.969081441332053 -3.7754100055244906" fill="#ff6309" stroke="none" /><path d="M 79.86692584326677 105.97154293290107 l -11.7435097306237 3.4831676470981465 a33.24918273400494,33.24918273400494 0 0,0 -0.1580244406844338,-0.5501038088815083 l 11.801726808194237 -3.280506362712042" fill="#ff5e08" stroke="none" /><path d="M 79.4281124754447 104.21870165774334 l -15.44938825592617 3.1682245865188383 a36.77089865901661,36.77089865901661 0 0,0 -0.12181685163108391,-0.6211415020314994 l 15.50163504053292 -2.9018193574193836" fill="#ff920d" stroke="none" /><path d="M 79.29508885075956 103.50808413554451 l -11.457758112342365 1.9413162014119152 a32.621055440656484,32.621055440656484 0 0,0 -0.08903722232102385,-0.5544348683856902 l 11.48947708902468 -1.7438021033330113" fill="#ff5507" stroke="none" /><path d="M 79.1416061653843 102.43462659150553 l -15.493852622230378 1.8084683747963566 a36.59903929548335,36.59903929548335 0 0,0 -0.06765192727253463,-0.6263728256323862 l 15.522686851003964 -1.5414992272791883" fill="#ff900d" stroke="none" /><path d="M 79.07016306316243 101.71520430193888 l -14.670015802149276 1.2022107142684555 a35.71919407565548,35.71919407565548 0 0,0 -0.044944001391204906,-0.6132251908075981 l 14.688536362204816 -0.9495123869640967" fill="#ff830c" stroke="none" /><path d="M 79.0235259727143 100.99374915477108 l -17.686348572742457 0.837881234104803 a38.7061845353259,38.7061845353259 0 0,0 -0.025800191855352175,-0.6657883112111755 l 17.69815089744901 -0.5333156758796307" fill="#ffae10" stroke="none" /><line stroke="#e1ed5e" stroke-width="0.3" x1="15.007084014347285" x2="10.007500721073583" y1="101.09737516637583" y2="101.16192664675087" /><path d="M 14.007167355692545 101.11028546245083 a86.0,86.0 0 0,1 10.666146001902534,-42.60595125391555" fill="none" id="id82" stroke="none" /><text fill="#e1ed5e" style="font-size:6.75px; font-family:Arial;" text-anchor="middle"><textPath startOffset="22.20632615414155" xlink:href="#id82">October</textPath></text><path d="M 79.00175016825051 100.2711162175752 l -21.020664402255065 0.27140562043604916 a42.02241643872173,42.02241643872173 0 0,0 -0.003113066055016787,-0.7233669164559984 l 21.022221765599582 0.0904707742236246" fill="#ffdc14" stroke="none" /><path d="M 79.00486145842228 99.54816195383935 l -15.95680954470967 -0.3434077671533861 a36.96050436987124,36.96050436987124 0 0,0 0.019163679269172566,-0.635949218812544 l 15.948534170984852 0.6180271333909245" fill="#ff950d" stroke="none" /><path d="M 79.05617556472873 98.46500227214037 l -21.258212352939957 -1.558039591143936 a42.31523116952432,42.31523116952432 0 0,0 0.059494240122738656,-0.7259804228816779 l 21.22824362899772 1.923733931233392" fill="#ffe015" stroke="none" /><path d="M 79.12142395522702 97.74499172005258 l -18.777114190999278 -2.0280381134910885 a39.886316632196944,39.886316632196944 0 0,0 0.07960102143059306,-0.6819729400927392 l 18.739422816565096 2.3509547919086895" fill="#ffbe11" stroke="none" /><path d="M 79.26566170972629 96.67025291283419 l -29.397507899045983 -4.720973726115958 a50.774167722996864,50.774167722996864 0 0,0 0.14600749865008367,-0.8617445220434219 l 29.311888538875678 5.226304036475208" fill="#b1ff20" stroke="none" /><path d="M 79.3925641242962 95.95851677861259 l -23.262246648669578 -4.562138642062512 a44.7053839482287,44.7053839482287 0 0,0 0.15459697422432706,-0.7538697503156975 l 23.180270378530256 4.961884048541611" fill="#feff18" stroke="none" /><path d="M 79.62865764111835 94.90015583598534 l -23.643568788445595 -5.919026551024633 a45.373207018480215,45.373207018480215 0 0,0 0.19619303009932948,-0.7560117771465527 l 23.538179426475956 6.325134753720049" fill="#f5ff19" stroke="none" /><path d="M 79.91906864156998 93.8553929516997 l -20.28680031469209 -6.207601329645882 a42.21529121355661,42.21529121355661 0 0,0 0.21860387717155277,-0.6930340295301947 l 20.176940953752332 6.55588552560249" fill="#ffde14" stroke="none" /><path d="M 80.14247586403 93.16781622104843 l -17.95819326424613 -6.17869961426923 a39.991393688705045,39.991393688705045 0 0,0 0.22956377634740094,-0.6490077091246917 l 17.84917640708892 6.4869049498205325" fill="#ffc011" stroke="none" /><path d="M 80.38941819471856 92.48833698450439 l -39.760196214724324 -15.22979778777182 a63.57722329708453,63.57722329708453 0 0,0 0.4002532857374568,-1.0186009544889687 l 39.49214937910517 15.911947747156551" fill="#31ff43" stroke="none" /><path d="M 80.52162464483688 92.15188598940014 l -6.058321829726499 -2.440983889346622 a27.531589832543865,27.531589832543865 0 0,0 0.18089344392549797,-0.43804782280485555 l 6.015406698914801 2.544906282604789" fill="#ff0600" stroke="none" /><path d="M 80.803312248108 91.48605970444005 l -19.303414283303326 -8.561274675747411 a42.116752285009,42.116752285009 0 0,0 0.2996259623051814,-0.6601860910131134 l 19.153186004034794 8.892282775602595" fill="#ffdd14" stroke="none" /><path d="M 81.10775173730289 90.83032412892265 l -5.7512394971437 -2.7914624724615322 a27.392888117953166,27.392888117953166 0 0,0 0.20954253297317188,-0.4224249600152315 l 5.702336951217116 2.890047020975725" fill="#ff0400" stroke="none" /><path d="M 81.26839172434947 90.50648371742162 l -5.916033996726239 -2.9983525306375376 a27.632463806791648,27.632463806791648 0 0,0 0.2186788011063494,-0.4224178396730538 l 5.8635457624597755 3.0997430925709266" fill="#ff0701" stroke="none" /><path d="M 81.43458229118936 90.18545643968196 l -35.19613780863053 -18.6063159523649 a60.811595169791175,60.811595169791175 0 0,0 0.497183731631345,-0.9212059455903676 l 34.87064597778071 19.20940288128774" fill="#3dff2e" stroke="none" /><line stroke="#e1ed5e" stroke-width="0.3" x1="26.266209847984243" x2="21.928928074336255" y1="57.711370442889674" y2="55.22380399835377" /><path d="M 25.398753493254645 57.213857153982495 a86.0,86.0 0 0,1 29.58750427330803,-30.492523968695096" fill="none" id="id83" stroke="none" /><text fill="#e1ed5e" style="font-size:6.75px; font-family:Arial;" text-anchor="middle"><textPath startOffset="21.46611528233685" xlink:href="#id83">November</textPath></text><path d="M 81.96595687620814 89.24020034530311 l -11.364571352300356 -6.780537790271663 a34.23363800120088,34.23363800120088 0 0,0 0.3062837975054407,-0.5034500311968468 l 11.246171756508698 6.975155594675584" fill="#ff6d0a" stroke="none" /><path d="M 82.34701348167596 88.62581576622439 l -5.334721769242009 -3.4372715447500757 a27.34618720394956,27.34618720394956 0 0,0 0.2583607405426562,-0.3935011329580299 l 5.274764393341432 3.5285907416857727" fill="#ff0300" stroke="none" /><path d="M 82.7489923806493 88.02491185347247 l -25.46160795002306 -17.67461972550726 a51.994929615051035,51.994929615051035 0 0,0 0.5166993164212736,-0.7308345399750985 l 25.153596013797905 18.110280765814146" fill="#a2ff22" stroke="none" /><path d="M 83.17141714833178 87.43820079747576 l -4.943749404464099 -3.69029215792348 a27.16919073987591,27.16919073987591 0 0,0 0.2829788428310098,-0.37236698675850105 l 4.87949462140898 3.7748439205630073" fill="#ff0000" stroke="none" /><path d="M 83.6137871275137 86.86637796730984 l -25.706242681606533 -20.60366711259506 a53.94422576556141,53.94422576556141 0 0,0 0.5869684252953477,-0.7195538854842535 l 25.34777576423479 21.043105167687393" fill="#8bff24" stroke="none" /><path d="M 84.07557802195018 86.31012108654704 l -18.23374116142568 -15.67515034349336 a45.04536660217492,45.04536660217492 0 0,0 0.5105316075922143,-0.5836258817898707 l 17.961217690255623 15.986691781486174" fill="#faff18" stroke="none" /><path d="M 84.5562425177563 85.77008943001954 l -23.976341619252235 -22.091851508904444 a53.60237507505504,53.60237507505504 0 0,0 0.6310599399309497,-0.6731707445364636 l 23.59251435735083 22.50129167031896" fill="#8fff24" stroke="none" /><path d="M 85.05521093208273 85.24692304244772 l -12.457812916623551 -12.29800379560322 a38.505370605110414,38.505370605110414 0 0,0 0.46969987858662704,-0.46768283803784627 l 12.24427723786961 12.510622484291176" fill="#ffab0f" stroke="none" /><path d="M 85.57189188830299 84.74124197986013 l -17.322585467883084 -18.31987519717373 a46.212889452264996,46.212889452264996 0 0,0 0.5827051806676009,-0.5415609599257958 l 17.004672403420628 18.615340743174173" fill="#eaff1a" stroke="none" /><path d="M 86.10567301691215 84.25364557470407 l -26.8953655700606 -30.480350662508823 a61.64987657615584,61.64987657615584 0 0,0 0.8017601716956752,-0.6952785202185594 l 26.36671159971815 30.938794176147063" fill="#34ff2f" stroke="none" /><path d="M 86.65592168130627 83.78471172551755 l -13.277902468290792 -16.13487354178492 a41.89585696177196,41.89585696177196 0 0,0 0.5607991907705672,-0.45346061130022564 l 12.998199878955726 16.36104025034928" fill="#ffda14" stroke="none" /><path d="M 87.22198572758235 83.33499621200491 l -15.070935685101135 -19.655417103656184 a45.7682967509507,45.7682967509507 0 0,0 0.6293224629887808,-0.47399263190023255 l 14.730367068353964 19.91192632506227" fill="#f0ff19" stroke="none" /><path d="M 88.09926311788651 82.69761687909137 l -27.366375265373783 -39.7877471086449 a69.29061311628527,69.29061311628527 0 0,0 0.9885305910157965,-0.6674602677593503 l 26.677439979951448 40.25291928870292" fill="#39ff8a" stroke="none" /><path d="M 88.70189139769569 82.29822771554957 l -13.406375315270166 -21.004985112498183 a45.9186736940423,45.9186736940423 0 0,0 0.6699334365868144,-0.4195122565308534 l 13.042822726311108 21.232641710351967" fill="#eeff19" stroke="none" /><path d="M 89.00827224532344 82.1063720568725 l -9.163317507050946 -14.917126575133324 a38.506771632530516,38.506771632530516 0 0,0 0.5677693907107423,-0.3420747050881537 l 8.905186050122554 15.072647889680097" fill="#ffab0f" stroke="none" /><line stroke="#e1ed5e" stroke-width="0.3" x1="56.762969772571076" x2="54.21961505331055" y1="26.818313649435495" y2="22.513508569990535" /><path d="M 56.25429882871897 25.957352633546506 a86.0,86.0 0 0,1 42.265352541879196,-11.944610805530505" fill="none" id="id84" stroke="none" /><text fill="#e1ed5e" style="font-size:6.75px; font-family:Arial;" text-anchor="middle"><textPath startOffset="22.20632615414155" xlink:href="#id84">December</textPath></text><path d="M 89.63071344664047 81.73862282372117 l -12.176250091779375 -21.44362530386842 a45.65948362132231,45.65948362132231 0 0,0 0.6867967133992952,-0.382201627427686 l 11.805329289308034 21.65004232885629" fill="#f2ff19" stroke="none" /><path d="M 90.58718382345135 81.22770947309562 l -21.41626577318236 -42.71116694036933 a68.77970511708585,68.77970511708585 0 0,0 1.062904312240209,-0.5215625298735226 l 20.677890193931724 43.073484630377685" fill="#38ff84" stroke="none" /><path d="M 91.23893434514133 80.91482961587045 l -8.892772915353804 -19.372082456975676 a42.315698178664356,42.315698178664356 0 0,0 0.6645939966136405,-0.29818395383052715 l 8.557996800273388 19.52228674132273" fill="#ffe015" stroke="none" /><path d="M 91.90106846888425 80.62456947434976 l -9.712161893919673 -23.23483255865775 a46.18300086730268,46.18300086730268 0 0,0 0.736104540052382,-0.30027552437164784 l 9.31077348427891 23.398568969212974" fill="#ebff1a" stroke="none" /><path d="M 92.57280143429618 80.3572730644239 l -16.968572896769082 -44.87681875596494 a68.97771699246113,68.97771699246113 0 0,0 1.1142124157952655,-0.41037383596278104 l 16.193578155201248 45.162255859734046" fill="#39ff87" stroke="none" /><path d="M 93.25333710446033 80.11325718540243 l -8.156099843539307 -24.041257503154295 a46.38708386149844,46.38708386149844 0 0,0 0.7583563197968727,-0.25001815546464784 l 7.741060701500024 24.178089382878177" fill="#e8ff1a" stroke="none" /><path d="M 93.59665428221793 80.00007090966166 l -7.662170548106395 -23.931687338800348 a46.128360797918475,46.128360797918475 0 0,0 0.7582945181104028,-0.23560579796547362 l 7.249090657285263 24.060033271648347" fill="#ebff1a" stroke="none" /><path d="M 94.28887869178378 79.79150937346287 l -8.770972633800442 -31.035607315987875 a53.25118420174795,53.25118420174795 0 0,0 0.8842285872612319,-0.24169307482689031 l 8.235446157315486 31.181986931641063" fill="#93ff23" stroke="none" /><path d="M 94.98787191387505 79.60689891045804 l -15.036384258374849 -61.17930326862588 a84.0,84.0 0 0,0 1.407105252149864,-0.3330163514365161 l 13.98105531926245 61.42906553220327" fill="#4dd2ff" stroke="none" /><path d="M 96.04723909329186 79.375362276772 l -3.3213493917552963 -17.33007120186909 a38.645473347121225,38.645473347121225 0 0,0 0.6544056604535432,-0.11958845159217268 l 3.02254861019886 17.384675134811996" fill="#ffad10" stroke="none" /><path d="M 96.75951476605007 79.25152402106235 l -3.90512809010488 -25.004112200027375 a46.30722529855227,46.30722529855227 0 0,0 0.788614295097215,-0.11622124744925837 l 3.4741448145790157 25.067627931637603" fill="#e9ff1a" stroke="none" /><path d="M 97.47563105711357 79.15227682838746 l -5.803460595052214 -47.928390286987366 a69.27847087864433,69.27847087864433 0 0,0 1.185101593787686,-0.1331599724776851 l 4.977592297754811 48.021186212935646" fill="#39ff8a" stroke="none" /><path d="M 98.19473922651362 79.07773832637324 l -2.1719976508808716 -25.17259770646374 a46.2661284942291,46.2661284942291 0 0,0 0.7940365052163345,-0.06163251496099893 l 1.738370956302203 25.2062554836132" fill="#eaff1a" stroke="none" /></svg>