<?xml version="1.0" encoding="utf-8" ?>
<svg baseProfile="full" height="200mm" version="1.1" viewBox="0,0,200,200" width="200mm" xmlns="http://www.w3.org/2000/svg" xmlns:ev="http://www.w3.org/2001/xml-events" xmlns:xlink="http://www.w3.org/1999/xlink"><defs /><rect fill="#1a1a1a" height="200" width="200" x="0" y="0" /><text alignment-baseline="middle" fill="#e1ed5e" style="dominant-baseline: central; font-size:9.0px; font-family:Arial;" text-anchor="middle" x="100.0" y="100.0">2019</text><line stroke="#e1ed5e" stroke-width="0.3" x1="100.0" x2="100.0" y1="15.0" y2="10.0" /><path d="M 100.0 14.0 a86.0,86.0 0 0,1 42.46469731375804,11.215312516191453" fill="none" id="id49" stroke="none" /><text fill="#e1ed5e" style="font-size:6.75px; font-family:Arial;" text-anchor="middle"><textPath startOffset="22.20632615414155" xlink:href="#id49">January</textPath></text><path d="M 106.74666289553966 80.11325718540242 l 7.235686133271022 -21.328207952207315 a43.5221581619482,43.5221581619482 0 0,0 0.7073759906036855,0.2467895934299542 l -7.601744127937981 21.200497505605153" fill="#ffe915" stroke="none" /><path d="M 107.76421540070413 80.48803036053334 l 10.505063834185643 -26.399896965081673 a49.41321745116599,49.41321745116599 0 0,0 0.7875905207829449,0.32127794864763326 l -10.957938224556976 26.215158130250458" fill="#c7ff1e" stroke="none" /><line stroke="#e1ed5e" stroke-width="0.3" x1="143.23703022742887" x2="145.7803849466894" y1="26.81831364943548" y2="22.513508569990506" /><path d="M 143.74570117128098 25.957352633546492 a86.0,86.0 0 0,1 28.547481713284135,27.462654790039103" fill="none" id="id50" stroke="none" /><text fill="#e1ed5e" style="font-size:6.75px; font-family:Arial;" text-anchor="middle"><textPath startOffset="19.985693538727396" xlink:href="#id50">February</textPath></text><path d="M 116.60985879189232 87.15038557335679 l 13.629774842051905 -10.544180636130253 a38.232251957662854,38.232251957662854 0 0,0 0.3982053982168859,0.5239916269413109 l -13.809256180492905 10.308004233307908" fill="#ff9e0e" stroke="none" /><path d="M 117.04232023915458 87.72973835380427 l 12.021476617654518 -8.65531579047258 a35.813183030720246,35.813183030720246 0 0,0 0.35589330205547837,0.5033858366397969 l -12.168682539513878 8.44710345350099" fill="#ff7b0b" stroke="none" /><path d="M 117.65298651832404 88.62581576622439 l 14.323715188892253 -9.229065875141112 a38.03949746149213,38.03949746149213 0 0,0 0.3499133886777287,0.5534789490061144 l -14.480456173815938 8.981139278420791" fill="#ff9b0e" stroke="none" /><line stroke="#e1ed5e" stroke-width="0.3" x1="172.23445277983987" x2="176.4835382374775" y1="55.19839476539836" y2="52.563006222186495" /><path d="M 173.08426987136738 54.67131705675599 a86.0,86.0 0 0,1 12.851231095245387,41.99856678651699" fill="none" id="id51" stroke="none" /><text fill="#e1ed5e" style="font-size:6.75px; font-family:Arial;" text-anchor="middle"><textPath startOffset="22.20632615414155" xlink:href="#id51">March</textPath></text><path d="M 118.21658344932153 89.55222093294921 l 14.930460817511792 -8.56308519237901 a38.211771792444715,38.211771792444715 0 0,0 0.3223296850337587,0.5733885431622775 l -15.075648143837983 8.304813139281938" fill="#ff9e0e" stroke="none" /><path d="M 118.56541770881063 90.18545643968196 l 20.553333387524173 -10.86544827622509 a44.24860166939162,44.24860166939162 0 0,0 0.3501761996813531,0.6764289589386263 l -20.737319020365643 10.51004659502612" fill="#fff316" stroke="none" /><path d="M 118.89224826269711 90.83032412892265 l 22.577166031860422 -10.958213745710218 a46.09603304362792,46.09603304362792 0 0,0 0.340324391419722,0.716809961870522 l -22.762448617121898 10.567961368199155" fill="#f2ff19" stroke="none" /><path d="M 119.47837535516314 92.15188598940014 l 21.38246574355185 -8.615299064901668 a44.05283538421823,44.05283538421823 0 0,0 0.27733661827587186,0.7057914429610678 l -21.527595911709422 8.245958617044817" fill="#fff016" stroke="none" /><path d="M 119.85752413597 93.16781622104841 l 21.24617811994999 -7.309964350132602 a43.46854831770071,43.46854831770071 0 0,0 0.23734387552000644,0.7096279781061334 l -21.36885928924177 6.943163269104155" fill="#ffe815" stroke="none" /><path d="M 120.18372546131832 94.20196356495316 l 26.56368859081744 -7.6307634382943075 a48.63798296187936,48.63798296187936 0 0,0 0.22422858112751187,0.8066695090535327 l -26.691103942511315 7.172382625821823" fill="#d1ff1c" stroke="none" /><path d="M 120.37134235888165 94.90015583598534 l 23.581042716777898 -5.903373521583774 a45.30875139833061,45.30875139833061 0 0,0 0.1828902847483413,0.7581983036402814 l -23.679165801787057 5.496589986284087" fill="#fdff18" stroke="none" /><path d="M 120.67395015179393 96.31383870115 l 24.622773662702226 -4.390235764301678 a46.01110059375269,46.01110059375269 0 0,0 0.132310700679166,0.7809052450877642 l -24.694696224901616 3.9657447308980753" fill="#f4ff19" stroke="none" /><path d="M 120.73433829027371 96.67025291283417 l 16.36836928620351 -2.6286119763926785 a37.57809138628345,37.57809138628345 0 0,0 0.09706619016691839,0.6395449150509122 l -16.41119136980973 2.3464679489496842" fill="#ff950d" stroke="none" /><path d="M 120.91429891909075 98.10471618934814 l 23.751224014130784 -2.1523700379006003 a44.848550038723005,44.848550038723005 0 0,0 0.0630560280876436,0.7694432577315657 l -23.784754526037922 1.7432128629612658" fill="#fffb17" stroke="none" /><path d="M 120.96714384426684 98.82574320788733 l 35.78782266577585 -2.004283184793519 a56.843903278547465,56.843903278547465 0 0,0 0.04630447995333653,0.9774143871466637 l -35.81702075396268 1.3879576910238558" fill="#6dff28" stroke="none" /><path d="M 120.98425023603335 99.18683210126433 l 22.119445025499516 -0.8571582224890878 a43.13604681180621,43.13604681180621 0 0,0 0.02236564084107351,0.7422067350084893 l -22.130922360796234 0.4762813400555994" fill="#ffe415" stroke="none" /><line stroke="#e1ed5e" stroke-width="0.3" x1="184.98032266829074" x2="189.97916517819016" y1="98.17113171792111" y2="98.06355123074" /><path d="M 185.9800911702706 98.14961562048488 a86.0,86.0 0 0,1 -9.607161424134198,41.387399972396054" fill="none" id="id52" stroke="none" /><text fill="#e1ed5e" style="font-size:6.75px; font-family:Arial;" text-anchor="middle"><textPath startOffset="21.466115282336823" xlink:href="#id52">April</textPath></text><path d="M 120.92983693683757 101.71520430193887 l 12.446958357325915 1.020030714284445 a33.488684278461406,33.488684278461406 0 0,0 -0.052027706892112544,0.574121410155571 l -12.427556054156728 -1.2341335129885864" fill="#ff5808" stroke="none" /><path d="M 120.76222939487914 103.15116336523771 l 24.67372073714936 3.744825442020576 a45.95628603390414,45.95628603390414 0 0,0 -0.12543493769210512,0.7810834767457369 l -24.605604045095966 -4.168988148459518" fill="#f4ff19" stroke="none" /><path d="M 120.64145759157962 103.86396538481128 l 29.63446161758149 5.547405428120765 a51.14921263230359,51.14921263230359 0 0,0 -0.16945019767006514,0.8640229072663126 l -29.53458148693576 -6.0566920624550225" fill="#b1ff20" stroke="none" /><path d="M 120.49622156327973 104.57218783832717 l 19.88773722980314 4.4364503971239255 a41.37655967644781,41.37655967644781 0 0,0 -0.16105221769969297,0.6938087387221332 l -19.808424446172896 -4.778127793194624" fill="#ffcb12" stroke="none" /><path d="M 120.32669344350535 105.2749913415812 l 16.65467682682874 4.322064299465541 a38.20635057223991,38.20635057223991 0 0,0 -0.17067672586391747,0.6351515902401207 l -16.577812024623046 -4.6081068228812105" fill="#ff9e0e" stroke="none" /><path d="M 120.13307415673323 105.97154293290107 l 22.405501853912046 6.645553242999625 a44.37027794509939,44.37027794509939 0 0,0 -0.22348511919300576,0.7303623002851998 l -22.28778996221291 -7.030242515836883" fill="#fff417" stroke="none" /><path d="M 119.9155931802556 106.66101706037122 l 17.389512434390635 5.816138035589604 a39.33637380604078,39.33637380604078 0 0,0 -0.22030086843023422,0.6402974442089414 l -17.28682073501717 -6.114608182887846" fill="#ffae10" stroke="none" /><path d="M 119.54520255179757 107.68017299344265 l 21.63354490631227 8.500774903793848 a44.243782806987355,44.243782806987355 0 0,0 -0.28462949488512945,0.7064270640099104 l -21.48401279716975 -8.871901335646573" fill="#fff316" stroke="none" /><path d="M 119.41010516605496 108.01547362559984 l 20.511920790746544 8.470472400950838 a43.192066087255824,43.192066087255824 0 0,0 -0.28969333946033005,0.6847494804551457 l -20.363076470093905 -8.822296407072146" fill="#ffe415" stroke="none" /><path d="M 118.81262510543309 109.33194174019688 l 20.581485648002857 10.209379282128594 a43.97452887014887,43.97452887014887 0 0,0 -0.3422083811181831,0.6752096012637039 l -20.402698597098404 -10.562143095094992" fill="#ffef16" stroke="none" /><line stroke="#e1ed5e" stroke-width="0.3" x1="174.80103733775053" x2="179.2010983576182" y1="140.37084112569926" y2="142.7455964860345" /><path d="M 175.68104954172406 140.8457921977663 a86.0,86.0 0 0,1 -30.038265399797805,32.042727171017184" fill="none" id="id53" stroke="none" /><text fill="#e1ed5e" style="font-size:6.75px; font-family:Arial;" text-anchor="middle"><textPath startOffset="22.206326154141568" xlink:href="#id53">May</textPath></text><path d="M 118.48025628344425 109.97397251340804 l 29.981980198143887 16.181563816391954 a55.069959555976254,55.069959555976254 0 0,0 -0.4574047655768348,0.8303225117172668 l -29.698999023115544 -16.69525684650703" fill="#82ff25" stroke="none" /><path d="M 118.12598468904814 110.60418214915192 l 22.943047137604804 13.42229153766963 a47.580845021943034,47.580845021943034 0 0,0 -0.41966106897631683,0.7033760904638944 l -22.70860519293026 -13.815229722019629" fill="#dfff1b" stroke="none" /><path d="M 117.35343817320211 111.8261652097733 l 18.96269915515897 12.922857752675421 a43.947422769124856,43.947422769124856 0 0,0 -0.43139437438997513,0.6214557712215597 l -18.737443873606857 -13.247354786084001" fill="#ffef16" stroke="none" /><path d="M 116.71984013943494 112.70617746262583 l 19.957052110326302 15.166284104989487 a46.06591515360124,46.06591515360124 0 0,0 -0.48521268526607,0.6272028030345893 l -19.693032607842163 -15.507564902137329" fill="#f3ff19" stroke="none" /><path d="M 116.0416608686014 113.55231037782055 l 18.594485768896856 15.708987025732332 a45.34188107735995,45.34188107735995 0 0,0 -0.5088168526681353,0.5918689509713777 l -18.321326406657942 -16.026733075865238" fill="#fdff18" stroke="none" /><path d="M 115.56566222782051 114.09645910891815 l 18.032022499354245 16.330025930983496 a45.327424490147145,45.327424490147145 0 0,0 -0.5287197831030582,0.5738209011329936 l -17.748256308255467 -16.637998086917822" fill="#fdff18" stroke="none" /><path d="M 115.07121518719521 114.62390073753431 l 13.223572307636008 12.831095994620007 a39.425522760519755,39.425522760519755 0 0,0 -0.47678481510096915,0.48298050047263685 l -13.000746867479505 -13.05681698907331" fill="#ffaf10" stroke="none" /><path d="M 114.0293411484842 115.62618273729858 l 13.009625390509877 14.490401334197449 a40.47362533344807,40.47362533344807 0 0,0 -0.5224136024868933,0.460969264206648 l -12.758269435116395 -14.712193740176385" fill="#ffbe11" stroke="none" /><path d="M 113.20401910651253 116.32954008644616 l 8.093677776042588 10.009530781841907 a33.872386197401255,33.872386197401255 0 0,0 -0.4565392912837448,0.3627024241674483 l -7.920180992041491 -10.147367120014481" fill="#ff5d08" stroke="none" /><path d="M 112.63410532772338 116.77436683061366 l 15.546657446557461 20.641377306408693 a46.84114964288788,46.84114964288788 0 0,0 -0.6482258137664912,0.479541960133934 l -15.189046662372407 -20.905929215282395" fill="#e9ff1a" stroke="none" /><path d="M 112.04921762599082 117.19931262002967 l 14.905044297349065 21.27578108743941 a46.97728250580846,46.97728250580846 0 0,0 -0.6662790558800437,0.45827281009109017 l -14.536608356846138 -21.529194686895593" fill="#e7ff1a" stroke="none" /><path d="M 111.1453310114006 117.79835938074945 l 5.716365884027598 9.128659727710781 a31.770759831339817,31.770759831339817 0 0,0 -0.46600261247655994,0.286256865605485 l -5.55838407161873 -9.225705060144644" fill="#ff3d05" stroke="none" /><line stroke="#e1ed5e" stroke-width="0.3" x1="143.8653032363475" x2="146.44561519142675" y1="172.8068346515853" y2="177.08958963109032" /><path d="M 144.38136562736335 173.6633856474863 a86.0,86.0 0 0,1 -40.68145358897372,12.25698825130547" fill="none" id="id54" stroke="none" /><text fill="#e1ed5e" style="font-size:6.75px; font-family:Arial;" text-anchor="middle"><textPath startOffset="21.466115282336833" xlink:href="#id54">June</textPath></text><path d="M 110.8373102113329 117.98757091392108 l 11.76303403915465 19.524070531901653 a43.79382152998881,43.79382152998881 0 0,0 -0.6490497290753092,0.38347002036414635 l -11.42521643905096 -19.72365912455955" fill="#ffed16" stroke="none" /><path d="M 109.89434966115114 118.52300852407294 l 3.6293188614519916 6.794373203850633 a28.702951553222615,28.702951553222615 0 0,0 -0.4378007860399265,0.22903667951310275 l -3.5118271728855692 -6.8558393023084525" fill="#ff0d01" stroke="none" /><path d="M 103.41894727170886 120.7198165907248 l 1.2976367581462191 7.8640568261041945 a28.970398416659496,28.970398416659496 0 0,0 -0.4927232062573034,0.07695323145285685 l -1.1620776882803987 -7.885228364904157" fill="#ff1101" stroke="none" /><line stroke="#e1ed5e" stroke-width="0.3" x1="102.19456741930631" x2="102.32365962044197" y1="184.97166512339345" y2="189.96999836594603" /><path d="M 102.22038585953345 185.97133177190398 a86.0,86.0 0 0,1 -42.740103519485714,-10.115201625700543" fill="none" id="id55" stroke="none" /><text fill="#e1ed5e" style="font-size:6.75px; font-family:Arial;" text-anchor="middle"><textPath startOffset="22.20632615414155" xlink:href="#id55">July</textPath></text><line stroke="#e1ed5e" stroke-width="0.3" x1="58.666819895761336" x2="56.23545636021788" y1="174.27360380694188" y2="178.64263932499728" /><path d="M 58.180547188652646 175.14741091055294 a86.0,86.0 0 0,1 -31.652253787137756,-30.449443065178592" fill="none" id="id56" stroke="none" /><text fill="#e1ed5e" style="font-size:6.75px; font-family:Arial;" text-anchor="middle"><textPath startOffset="22.20632615414155" xlink:href="#id56">August</textPath></text><path d="M 86.24171649860922 115.8653595955263 l -4.531239743079165 5.225197455062184 a27.91627226572584,27.91627226572584 0 0,0 -0.36032947980793945,-0.3179488711402712 l 4.620511575793691 -5.146425442149623" fill="#ff0000" stroke="none" /><path d="M 85.70375840098266 115.38237550388516 l -16.020992543154875 17.23816162009263 a44.533516909043975,44.533516909043975 0 0,0 -0.5570170981217372,-0.5266944335283781 l 16.315345475667428 -16.959832549818323" fill="#fff717" stroke="none" /><path d="M 85.18274418774928 114.88116024355367 l -13.624242099575744 13.68300125540992 a40.309181653902414,40.309181653902414 0 0,0 -0.48747117034990584,-0.4938057219203138 l 13.857753894981183 -13.44645503950894" fill="#ffbc11" stroke="none" /><path d="M 84.43433777217949 114.09645910891817 l -11.685743553014547 10.582756052483012 a36.76551071336374,36.76551071336374 0 0,0 -0.42077453038648494,-0.4727446454893903 l 11.866176933049369 -10.380037237252758" fill="#ff890c" stroke="none" /><path d="M 83.95833913139862 113.55231037782056 l -19.844210431694687 16.764778982424556 a46.97788486360898,46.97788486360898 0 0,0 -0.5165419776927715,-0.6222080875913653 l 20.129848409280996 -16.42070963771943" fill="#e7ff1a" stroke="none" /><path d="M 83.28015986056508 112.70617746262583 l -18.49143436469014 14.052493601424558 a44.22510971517081,44.22510971517081 0 0,0 -0.45538960500378206,-0.6100687946082267 l 18.730585236389004 -13.732111927307024" fill="#fff216" stroke="none" /><path d="M 82.85270091963577 112.12312394758628 l -15.756352753333568 11.13972623299563 a40.296532140091216,40.296532140091216 0 0,0 -0.39555669427953905,-0.5698289201219985 l 15.94577035477524 -10.866856050686618" fill="#ffbc11" stroke="none" /><path d="M 82.44556493220864 111.52570212397912 l -10.417957764753561 6.84011063147543 a33.462782893038465,33.462782893038465 0 0,0 -0.31199286420603456,-0.4842198537005933 l 10.534155492336641 -6.659769177853389" fill="#ff5708" stroke="none" /><path d="M 82.05923443525364 110.91462005526583 l -15.756770812235578 9.585943592696681 a39.443593494535754,39.443593494535754 0 0,0 -0.34789084982727764,-0.5830850749548138 l 15.919442537761087 -9.313296423855757" fill="#ffb010" stroke="none" /><line stroke="#e1ed5e" stroke-width="0.3" x1="26.63291911575756" x2="22.317208475507996" y1="142.92168965132927" y2="145.44649492493687" /><path d="M 25.769776987707644 143.4266507060508 a86.0,86.0 0 0,1 -11.730757126820373,-40.83630448921669" fill="none" id="id57" stroke="none" /><text fill="#e1ed5e" style="font-size:6.75px; font-family:Arial;" text-anchor="middle"><textPath startOffset="21.46611528233685" xlink:href="#id57">September</textPath></text><path d="M 81.51974371655577 109.97397251340807 l -10.509940089259356 5.672316009045171 a32.94294811117804,32.94294811117804 0 0,0 -0.2650299264314884,-0.5013367416728268 l 10.606022523915732 -5.490564252286219" fill="#ff4f07" stroke="none" /><path d="M 81.18737489456691 109.33194174019688 l -10.560280908508318 5.238393134717407 a32.78814215644093,32.78814215644093 0 0,0 -0.2464524505260879,-0.5077650448883244 l 10.648886615649126 -5.055839133863798" fill="#ff4d07" stroke="none" /><path d="M 80.87730276802145 108.67885076344099 l -15.229923166196714 6.91211227655975 a37.72506668961363,37.72506668961363 0 0,0 -0.26328308821285235,-0.59363385921461 l 15.346647339140846 -6.648930080852444" fill="#ff970d" stroke="none" /><path d="M 80.45479744820244 107.68017299344265 l -10.86218338757645 4.268231412900536 a32.67068238533689,32.67068238533689 0 0,0 -0.20116695819083996,-0.5251834489889907 l 10.9340446253608 -4.080624397078387" fill="#ff4b07" stroke="none" /><path d="M 80.0844068197444 106.66101706037122 l -11.177136108908615 3.7383317500852864 a32.78573272523879,32.78573272523879 0 0,0 -0.17440097150091977,-0.5367509988557536 l 11.239829331425783 -3.5453818512517294" fill="#ff4d07" stroke="none" /><path d="M 79.86692584326677 105.97154293290107 l -15.870034446295096 4.707109868314675 a37.55339471646158,37.55339471646158 0 0,0 -0.17848120488692104,-0.6213164887457038 l 15.94870828806812 -4.433235904064375" fill="#ff940d" stroke="none" /><path d="M 79.67330655649465 105.27499134158121 l -11.407856005381793 2.9604589561821397 a32.78573272523879,32.78573272523879 0 0,0 -0.13705792313439058,-0.5474782729380534 l 11.457125242811243 -2.7636528438466943" fill="#ff4d07" stroke="none" /><path d="M 79.50377843672027 104.57218783832718 l -12.34311940226194 2.7534372734899204 a33.64650202220119,33.64650202220119 0 0,0 -0.12123309138428101,-0.566360642373058 l 12.388686532370663 -2.5405628117006986" fill="#ff5a08" stroke="none" /><path d="M 79.35854240842038 103.8639653848113 l -16.62423905734942 3.1119645490844614 a37.91300232338009,37.91300232338009 0 0,0 -0.11455785138195576,-0.6425012681094799 l 16.675343351070563 -2.8253445302417677" fill="#ff9a0e" stroke="none" /><path d="M 79.18660465613746 102.79330883721812 l -11.642200114753848 1.562467820743786 a32.74657946820411,32.74657946820411 0 0,0 -0.07016888825701599,-0.5593150791933946 l 11.667370512257714 -1.361834987262983" fill="#ff4c07" stroke="none" /><path d="M 79.10278846688536 102.07522291339032 l -17.675385758210275 1.7552756007817343 a38.76232682213235,38.76232682213235 0 0,0 -0.060220788657715206,-0.6645313847205123 l 17.702981143145067 -1.4507628275126558" fill="#ffa60f" stroke="none" /><path d="M 79.04373962182676 101.35467743843564 l -16.928869031078587 1.0943344146706524 a37.964202736425435,37.964202736425435 0 0,0 -0.03654262252136739,-0.6524930730643579 l 16.945198004487487 -0.802769625270857" fill="#ff9a0e" stroke="none" /><line stroke="#e1ed5e" stroke-width="0.3" x1="15.007084014347285" x2="10.007500721073583" y1="101.09737516637583" y2="101.16192664675087" /><path d="M 14.007167355692545 101.11028546245083 a86.0,86.0 0 0,1 10.666146001902534,-42.60595125391555" fill="none" id="id58" stroke="none" /><text fill="#e1ed5e" style="font-size:6.75px; font-family:Arial;" text-anchor="middle"><textPath startOffset="22.20632615414155" xlink:href="#id58">October</textPath></text><path d="M 79.00175016825051 100.2711162175752 l -12.568352673009114 0.16227467837368528 a33.5694002237329,33.5694002237329 0 0,0 -0.0024868574722771153,-0.5778580953936601 l 12.569283827770896 0.054092895223650184" fill="#ff5908" stroke="none" /><path d="M 79.00486145842228 99.54816195383935 l -17.805790128756218 -0.38319982534009944 a38.80991308837449,38.80991308837449 0 0,0 0.020122580564575297,-0.6677704845081494 l 17.796555853736 0.6896404572732432" fill="#ffa70f" stroke="none" /><path d="M 79.05617556472873 98.46500227214037 l -17.164528347089195 -1.2580086361014666 a38.210567076843645,38.210567076843645 0 0,0 0.053723176975882816,-0.6555588349231156 l 17.140330686293815 1.5532813882323606" fill="#ff9e0e" stroke="none" /><path d="M 79.12142395522702 97.74499172005258 l -12.32484568170921 -1.3311553911401197 a33.39652353497978,33.39652353497978 0 0,0 0.06664935772658749,-0.571010994924553 l 12.300105970979033 1.5431101243895344" fill="#ff5608" stroke="none" /><path d="M 79.21141760316559 97.0276538004421 l -12.201955126822783 -1.7446324263991446 a33.32604767231736,33.32604767231736 0 0,0 0.08608293719924176,-0.567179000883318 l 12.170116296184238 1.9544105396745548" fill="#ff5507" stroke="none" /><path d="M 79.3925641242962 95.95851677861259 l -17.05316596431904 -3.344427930385417 a38.378022545391964,38.378022545391964 0 0,0 0.1327161437445989,-0.6471710500777655 l 16.993070524659448 3.6374746366265853" fill="#ffa00e" stroke="none" /><path d="M 79.54389044137918 95.25157060432595 l -11.368417023729416 -2.6389243479099527 a32.67068238533689,32.67068238533689 0 0,0 0.1318762980653968,-0.546712394379647 l 11.321307925403204 2.8342219739489964" fill="#ff4b07" stroke="none" /><path d="M 79.71946130924805 94.55025226153421 l -16.10785406726104 -4.32847187213142 a37.679287496773085,37.679287496773085 0 0,0 0.17370730977719748,-0.6249176157311443 l 16.030959986917484 4.605100791281507" fill="#ff960d" stroke="none" /><path d="M 79.91906864156998 93.8553929516997 l -18.350640855583915 -5.615151764099459 a40.190517167197314,40.190517167197314 0 0,0 0.20811896887869383,-0.6597940049822669 l 18.251266402937016 5.930195935508141" fill="#ffba11" stroke="none" /><path d="M 80.2630227832202 92.82701384747504 l -22.007723154206417 -7.9982406474845895 a44.41605713793994,44.41605713793994 0 0,0 0.26733265805167333,-0.7163186141430012 l 21.866785907653117 8.375882398656932" fill="#fff517" stroke="none" /><path d="M 80.65960295795068 91.81776055985345 l -19.601686288723602 -8.292781699169261 a42.28371052405129,42.28371052405129 0 0,0 0.2893600964109038,-0.6678829976609727 l 19.456035482470018 8.628963841416832" fill="#ffd814" stroke="none" /><path d="M 80.95270993114464 91.15688171328213 l -18.916713172820696 -8.782495125471693 a41.85603648567249,41.85603648567249 0 0,0 0.3090207378744862,-0.6508764840772836 l 18.76273424110446 9.106814025189509" fill="#ffd213" stroke="none" /><path d="M 81.26839172434947 90.50648371742162 l -25.574020901942276 -12.961374179450008 a49.67102658979434,49.67102658979434 0 0,0 0.39308838402271284,-0.7593216404121984 l 25.34712308475945 13.399668542122543" fill="#c4ff1e" stroke="none" /><path d="M 81.6062741919709 89.86733742301443 l -23.326260087329924 -12.849877459016325 a47.63144307718785,47.63144307718785 0 0,0 0.4017879131113515,-0.7147358647249781 l 23.101614532926142 13.249496833676087" fill="#deff1b" stroke="none" /><line stroke="#e1ed5e" stroke-width="0.3" x1="26.266209847984243" x2="21.928928074336255" y1="57.711370442889674" y2="55.22380399835377" /><path d="M 25.398753493254645 57.213857153982495 a86.0,86.0 0 0,1 29.58750427330803,-30.492523968695096" fill="none" id="id59" stroke="none" /><text fill="#e1ed5e" style="font-size:6.75px; font-family:Arial;" text-anchor="middle"><textPath startOffset="21.46611528233685" xlink:href="#id59">November</textPath></text><path d="M 82.15384107792192 88.93136811851018 l -33.03610011628813 -20.489811425743866 a59.87436537303158,59.87436537303158 0 0,0 0.5507654801121908,-0.8711787229213486 l 32.678507039929976 21.055437796379433" fill="#4bff2c" stroke="none" /><path d="M 82.54541684631803 88.32363383020206 l -16.327092081138243 -10.922123086460733 a40.64349023319852,40.64349023319852 0 0,0 0.3940009638719391,-0.5781477973166959 l 16.13666665159756 11.201548907047844" fill="#ffc111" stroke="none" /><path d="M 82.95767976084542 87.72973835380427 l -23.501321969354212 -16.920663709448593 a49.958953618449364,49.958953618449364 0 0,0 0.5084807727599966,-0.6935672026024555 l 23.20657858408058 17.32269335572255" fill="#c0ff1e" stroke="none" /><path d="M 83.6137871275137 86.86637796730984 l -26.599688641041134 -21.319767997476816 a55.08923500559332,55.08923500559332 0 0,0 0.5994272985302884,-0.7348269909165371 l 26.228762850434453 21.774479158001437" fill="#82ff25" stroke="none" /><path d="M 84.5562425177563 85.77008943001954 l -24.57321845667391 -22.64181508011233 a54.41399191119525,54.41399191119525 0 0,0 0.6406150924991786,-0.683363515082504 l 24.179836042204276 23.061448012072884" fill="#8aff24" stroke="none" /><path d="M 85.57189188830299 84.74124197986013 l -27.046857055670678 -28.603989090101848 a60.36649169606746,60.36649169606746 0 0,0 0.7611700516229499,-0.7074246076745275 l 26.55047912025287 29.065318283851024" fill="#45ff2d" stroke="none" /><path d="M 86.37877921826538 84.01681056812374 l -19.46151014998661 -22.83620597169459 a51.004044402375015,51.004044402375015 0 0,0 0.673113642415291,-0.5637133178107545 l 19.06553897061221 23.167820446899157" fill="#b3ff20" stroke="none" /><path d="M 86.93701828274178 83.55741782278169 l -21.499607835084756 -27.061897219017567 a55.56268823681266,55.56268823681266 0 0,0 0.7539789188246638,-0.5884925055580867 l 21.030596361100667 27.427968113798876" fill="#7cff26" stroke="none" /><path d="M 88.39885842347998 82.49532879139004 l -18.155588572840337 -27.39451169267589 a53.86464159710869,53.86464159710869 0 0,0 0.7772744070588214,-0.5055608956452945 l 17.68134713999723 27.70297151248072" fill="#90ff24" stroke="none" /><line stroke="#e1ed5e" stroke-width="0.3" x1="56.762969772571076" x2="54.21961505331055" y1="26.818313649435495" y2="22.513508569990535" /><path d="M 56.25429882871897 25.957352633546506 a86.0,86.0 0 0,1 42.265352541879196,-11.944610805530505" fill="none" id="id60" stroke="none" /><text fill="#e1ed5e" style="font-size:6.75px; font-family:Arial;" text-anchor="middle"><textPath startOffset="22.20632615414155" xlink:href="#id60">December</textPath></text><path d="M 89.94658935756843 81.56283822128135 l -18.528577403211305 -33.979948821616304 a59.70329575768007,59.70329575768007 0 0,0 0.9065091233772335,-0.4842257793090842 l 17.940923233305767 34.293853327427136" fill="#4dff2c" stroke="none" /><path d="M 90.58718382345135 81.22770947309562 l -13.59746000870099 -27.11786408272263 a51.33594355046898,51.33594355046898 0 0,0 0.7933327960599045,-0.38928495762008847 l 13.12865594563066 27.347904200477547" fill="#afff20" stroke="none" /><path d="M 91.23893434514133 80.91482961587045 l -22.3156753927403 -48.61263274190656 a74.48997504517683,74.48997504517683 0 0,0 1.169910750707765,-0.5249048517627275 l 21.475582523565762 48.98955792418582" fill="#40ffc6" stroke="none" /><path d="M 92.23578459929587 80.48803036053334 l -7.816774125844437 -19.64405307562862 a42.142156440925916,42.142156440925916 0 0,0 0.6763150563718741,-0.26239973468746924 l 7.477475904472886 19.77569551420664" fill="#ffd614" stroke="none" /><path d="M 92.91201910852362 80.23233633223022 l -9.559615108201234 -26.660802158693617 a49.32286378108597,49.32286378108597 0 0,0 0.8016562390295159,-0.2796821208645253 l 9.099276865108433 26.82140513273035" fill="#c9ff1d" stroke="none" /><path d="M 93.94186890950719 79.89281104454417 l -11.610244978349147 -38.53488577775364 a61.2459340848464,61.2459340848464 0 0,0 1.012044678671821,-0.2954435937966744 l 10.945210081953906 38.729027700469004" fill="#3cff2e" stroke="none" /><path d="M 95.33964822691252 79.52364482259891 l -5.1334316837364975 -22.554943393355604 a44.13174425608811,44.13174425608811 0 0,0 0.742164122849218,-0.1622083315264382 l 4.744424836733758 22.63996522297791" fill="#fff116" stroke="none" /><path d="M 96.40284397218896 79.31037775812273 l -10.791468083433102 -62.06886672563182 a84.0,84.0 0 0,0 1.4266831754444573,-0.235414948241492 l 9.72145570184976 62.24542793681294" fill="#4dd2ff" stroke="none" /><path d="M 97.83486435360386 79.11191278185805 l -2.1981129297118764 -21.206234661357772 a42.3198519920833,42.3198519920833 0 0,0 0.725231017010047,-0.06886942371559994 l 1.832756785611593 21.240929629588553" fill="#ffd814" stroke="none" /><path d="M 98.55514903715128 79.0497635885617 l -1.173933636624866 -17.021954409844287 a38.0623870579124,38.0623870579124 0 0,0 0.6540168458214458,-0.039452082182480516 l 0.8807547419637972 17.039639761407074" fill="#ff9c0e" stroke="none" /><path d="M 99.63851952072746 79.00311137660856 l -0.4694798101420239 -27.270117889411154 a48.27415885035711,48.27415885035711 0 0,0 0.8309602894145529,-0.007152337554516963 l 6.680242267105258e-15 27.27415885035711" fill="#d6ff1c" stroke="none" /></svg>