<?xml version="1.0" encoding="utf-8" ?>
<svg baseProfile="full" height="200mm" version="1.1" viewBox="0,0,200,200" width="200mm" xmlns="http://www.w3.org/2000/svg" xmlns:ev="http://www.w3.org/2001/xml-events" xmlns:xlink="http://www.w3.org/1999/xlink"><defs /><rect fill="#1a1a1a" height="200" width="200" x="0" y="0" /><text alignment-baseline="middle" fill="#e1ed5e" style="dominant-baseline: central; font-size:9.0px; font-family:Arial;" text-anchor="middle" x="100.0" y="100.0">2025</text><line stroke="#e1ed5e" stroke-width="0.3" x1="100.0" x2="100.0" y1="15.0" y2="10.0" /><path d="M 100.0 14.0 a86.0,86.0 0 0,1 42.46469731375804,11.215312516191453" fill="none" id="id121" stroke="none" /><text fill="#e1ed5e" style="font-size:6.75px; font-family:Arial;" text-anchor="middle"><textPath startOffset="22.20632615414155" xlink:href="#id121">January</textPath></text><path d="M 100.0 79.0 l 0.0 -42.4515 a63.4515,63.4515 0 0,0 1.0922132681219445,0.009401024422760623 l -0.7307327888494162 42.4452103521858" fill="#70ff27" stroke="none" /><path d="M 101.80526077348638 79.07773832637324 l 2.1108914224376196 -24.464400574971776 a45.5553,45.5553 0 0,0 0.7806765618031333,0.0741346462832239 l -2.531693111330997 24.424440384173376" fill="#ff4b07" stroke="none" /><path d="M 103.2404852339499 79.25152402106235 l 5.3125163022421535 -34.015466489389965 a55.427820000000004,55.427820000000004 0 0,0 0.9414040267329301,0.15533973067189588 l -5.897249535113959 33.91898049577844" fill="#f6ff19" stroke="none" /><path d="M 104.307194497241 79.44645832069477 l 5.365558329103064 -25.603957940744106 a47.160120000000006,47.160120000000006 0 0,0 0.7930923575139394,0.17333927105614164 l -5.805493410770531 25.507805171592093" fill="#ff6c09" stroke="none" /><path d="M 105.36241919743992 79.69619591428918 l 9.185824085214595 -34.780416398822645 a56.973,56.973 0 0,0 0.9460288265360725,0.2585854147382654 l -9.783150800974378 34.617144443258084" fill="#dbff1b" stroke="none" /><path d="M 106.0581310904928 79.89281104454417 l 8.092693835923885 -26.859987294256104 a49.05264,49.05264 0 0,0 0.8063661350073958,0.2505418833360131 l -8.553845343642 26.716705276037573" fill="#ff910d" stroke="none" /><path d="M 106.74666289553966 80.11325718540242 l 11.850648309273312 -34.93146148869695 a57.88692,57.88692 0 0,0 0.9408498821595049,0.32824404981374666 l -12.450180195496092 34.72229658571099" fill="#cbff1d" stroke="none" /><path d="M 107.76421540070413 80.48803036053334 l 12.413427582645774 -31.1957370595793 a54.5748,54.5748 0 0,0 0.8698602797136987,0.35483784898611415 l -12.94857173194786 30.977438324409608" fill="#fff917" stroke="none" /><path d="M 108.76106565485865 80.91482961587045 l 15.19869669804879 -33.10895358238796 a57.4308,57.4308 0 0,0 0.8948861477378595,0.42016104547612 l -15.766361057086247 32.842427554271836" fill="#d3ff1c" stroke="none" /><path d="M 109.73455568895987 81.39251694778311 l 19.656404229375326 -37.572974078358456 a63.40404000000001,63.40404000000001 0 0,0 0.962699629719862,0.514240801796844 l -20.3002489056235 37.22905455005986" fill="#71ff27" stroke="none" /><path d="M 110.36928655335952 81.73862282372117 l 21.14131619645153 -37.23202624208434 a63.81564000000001,63.81564000000001 0 0,0 0.9505590815150619,0.550625174356822 l -21.77907201043192 36.862596910337466" fill="#6bff28" stroke="none" /><line stroke="#e1ed5e" stroke-width="0.3" x1="143.23703022742887" x2="145.7803849466894" y1="26.81831364943548" y2="22.513508569990506" /><path d="M 143.74570117128098 25.957352633546492 a86.0,86.0 0 0,1 28.547481713284135,27.462654790039103" fill="none" id="id122" stroke="none" /><text fill="#e1ed5e" style="font-size:6.75px; font-family:Arial;" text-anchor="middle"><textPath startOffset="19.985693538727396" xlink:href="#id122">February</textPath></text><path d="M 111.2981086023043 82.29822771554956 l 14.459997275745172 -22.655790275976738 a47.87706,47.87706 0 0,0 0.690872756595451,0.44936285876565846 l -14.847837058124902 22.403528493051553" fill="#ff7a0b" stroke="none" /><path d="M 111.90073688211348 82.69761687909136 l 19.49102686552544 -28.337843075424164 a55.3938,55.3938 0 0,0 0.7809704400062455,0.5471197017572906 l -19.975928445115336 27.99813853090294" fill="#f6ff19" stroke="none" /><path d="M 113.06298171725822 83.55741782278167 l 16.605662358978645 -20.90181046367993 a47.6952,47.6952 0 0,0 0.6384266011803277,0.5162299118937087 l -16.962992358723465 20.61287445452209" fill="#ff760a" stroke="none" /><path d="M 113.6212207817346 84.01681056812373 l 22.297938419699555 -26.164481099981455 a55.377,55.377 0 0,0 0.7201810529684829,0.6245339123523269 l -22.745013271314804 25.776782194209456" fill="#f7ff19" stroke="none" /><path d="M 114.16331599549186 84.49514656593476 l 20.06375343921376 -21.96417537469681 a50.748599999999996,50.748599999999996 0 0,0 0.6398966280213731,0.5947141772920237 l -20.438857951029977 21.61555661133015" fill="#ffb210" stroke="none" /><path d="M 114.68862486808459 84.99185889309783 l 23.172480819392884 -23.67654324742674 a54.12918,54.12918 0 0,0 0.6602837182047128,0.6574482500812671 l -23.57660033776492 23.274159146695354" fill="#fff116" stroke="none" /><path d="M 115.19652480421416 85.50635884689758 l 18.901437551481568 -18.02719086622878 a47.1198,47.1198 0 0,0 0.5547406829626753,0.5917586824090206 l -19.208945556414708 17.699162766941704" fill="#ff6b09" stroke="none" /><path d="M 115.4437574822437 85.77008943001954 l 21.645970487112763 -19.94464265488462 a50.4336,50.4336 0 0,0 0.5827635126965287,0.643502026093451 l -21.986077640425325 19.569087841521622" fill="#ffac0f" stroke="none" /><path d="M 115.9244219780498 86.31012108654704 l 19.637997183331027 -16.882358676070194 a46.8972,46.8972 0 0,0 0.5209818579605698,0.6166781936882791 l -19.92568965477871 16.54182153275281" fill="#ff6609" stroke="none" /><path d="M 116.60985879189232 87.15038557335679 l 24.343409045397387 -18.83239490368829 a51.7776,51.7776 0 0,0 0.5392860417834258,0.7096372165877236 l -24.663971027404926 18.410572911219532" fill="#ffc512" stroke="none" /><path d="M 117.04232023915458 87.72973835380427 l 23.17107944355935 -16.682893139400647 a49.55202,49.55202 0 0,0 0.4924229160583618,0.6964972932870942 l -23.454814979421595 16.28156934578176" fill="#ff9b0e" stroke="none" /><path d="M 117.45458315368197 88.32363383020206 l 21.707217793245036 -14.521196023407505 a47.11644,47.11644 0 0,0 0.44514572504554534,0.6779874789371315 l -21.953960153648506 14.145390480492699" fill="#ff6b09" stroke="none" /><line stroke="#e1ed5e" stroke-width="0.3" x1="172.23445277983987" x2="176.4835382374775" y1="55.19839476539836" y2="52.563006222186495" /><path d="M 173.08426987136738 54.67131705675599 a86.0,86.0 0 0,1 12.851231095245387,41.99856678651699" fill="none" id="id123" stroke="none" /><text fill="#e1ed5e" style="font-size:6.75px; font-family:Arial;" text-anchor="middle"><textPath startOffset="22.20632615414155" xlink:href="#id123">March</textPath></text><path d="M 117.84615892207809 88.93136811851018 l 35.69231784415617 -22.137263762979636 a63.0,63.0 0 0,0 0.5636526051413282,0.9264966803787557 l -36.06808624758372 21.519599309393797" fill="#77ff26" stroke="none" /><path d="M 118.3937258080291 89.86733742301442 l 23.150711176501588 -12.753171772645603 a47.431020000000004,47.431020000000004 0 0,0 0.38778676094319103,0.7185099734256422 l -23.366806036663245 12.3527808158875" fill="#ff710a" stroke="none" /><path d="M 118.73160827565052 90.50648371742162 l 25.466370715077904 -12.906815126816625 a49.55034,49.55034 0 0,0 0.3790364750359154,0.7641144045531878 l -25.684767203067228 12.466541133764489" fill="#ff9b0e" stroke="none" /><path d="M 119.04729006885535 91.15688171328212 l 38.136484175862186 -17.70569143366654 a63.0462,63.0462 0 0,0 0.4485217240126397,0.9882581650543592 l -38.435608216838176 17.04661125977012" fill="#77ff27" stroke="none" /><path d="M 119.34039704204932 91.81776055985345 l 24.61258927571197 -10.412717911530494 a47.724599999999995,47.724599999999995 0 0,0 0.31356951438242775,0.7593334511878232 l -24.788180476980592 9.987509889889367" fill="#ff770a" stroke="none" /><path d="M 119.7369772167798 92.82701384747503 l 27.691768514230734 -10.06398649143863 a50.46384,50.46384 0 0,0 0.28967906869079524,0.8189617357917881 l -27.86090066373134 9.585827129220228" fill="#ffac10" stroke="none" /><path d="M 119.97218684219823 93.5106431181261 l 46.363434535478966 -15.064393065582065 a69.74940000000001,69.74940000000001 0 0,0 0.36118403621228,1.1450520972312916 l -46.61587405545945 14.264090801924356" fill="#33ff51" stroke="none" /><path d="M 120.18372546131832 94.20196356495316 l 27.135000510196342 -7.7948801832769785 a49.2324,49.2324 0 0,0 0.22696893508421837,0.8165280202646091 l -27.265156215846922 7.326640859593418" fill="#ff950d" stroke="none" /><path d="M 120.37134235888165 94.90015583598534 l 30.11862225075934 -7.540017599612376 a52.04808,52.04808 0 0,0 0.21009380920956425,0.870974475036795 l -30.243948860229725 7.020457892916175" fill="#ffcb12" stroke="none" /><path d="M 120.53481517161879 95.60439243477599 l 40.11681491927447 -8.587258939421641 a62.0256,62.0256 0 0,0 0.21449251158546515,1.045941661955747 l -40.25868672677493 7.895441621302482" fill="#87ff25" stroke="none" /><path d="M 120.73433829027371 96.67025291283417 l 33.18738186741211 -5.329593187717628 a54.6126,54.6126 0 0,0 0.1410672235217567,0.9294567483131512 l -33.27420498437316 4.757537327012395" fill="#fffa17" stroke="none" /><path d="M 120.83666639777658 97.38593545837742 l 30.207332010184658 -3.789661647281082 a51.44412,51.44412 0 0,0 0.10266690044004817,0.8795873053508417 l -30.268089263628294 3.269130603605387" fill="#ffbf11" stroke="none" /><path d="M 120.94382443527127 98.46500227214037 l 50.25638223838821 -3.6833498478174183 a71.39117999999999,71.39117999999999 0 0,0 0.07927619643320911,1.2263676703466664 l -50.312339025825835 2.8177231132177165" fill="#36ff6d" stroke="none" /><path d="M 120.98425023603335 99.18683210126433 l 26.843472586938592 -1.0402206394206417 a47.863620000000004,47.863620000000004 0 0,0 0.02481684376280466,0.8235502265859936 l -26.85740112515704 0.578000265409649" fill="#ff7a0b" stroke="none" /><line stroke="#e1ed5e" stroke-width="0.3" x1="184.98032266829074" x2="189.97916517819016" y1="98.17113171792111" y2="98.06355123074" /><path d="M 185.9800911702706 98.14961562048488 a86.0,86.0 0 0,1 -9.607161424134198,41.387399972396054" fill="none" id="id124" stroke="none" /><text fill="#e1ed5e" style="font-size:6.75px; font-family:Arial;" text-anchor="middle"><textPath startOffset="21.466115282336823" xlink:href="#id124">April</textPath></text><path d="M 120.99980553446 99.90962569577887 l 29.09019061466605 -0.12519190866536262 a50.09046,50.09046 0 0,0 -0.0037107554472400424,0.862248882019879 l -29.088035561929306 -0.37556645155820106" fill="#ffa50f" stroke="none" /><path d="M 120.9904718944345 100.63252640178507 l 51.00264860909696 1.536912651057364 a72.0258,72.0258 0 0,0 -0.04800988474694329,1.2389217981913616 l -50.968636591498814 -2.414611696262732" fill="#37ff78" stroke="none" /><path d="M 120.92983693683757 101.71520430193887 l 37.9750961381981 3.112066685437887 a59.1024,59.1024 0 0,0 -0.09182093623779918,1.013236380068903 l -37.91590060568322 -3.7652844540553607" fill="#b6ff1f" stroke="none" /><path d="M 120.8583938346157 102.4346265915055 l 28.955622321213514 3.3797486343279473 a50.1522,50.1522 0 0,0 -0.10746539561667731,0.8566049392108435 l -28.89315541634999 -3.8776713278261856" fill="#ffa70f" stroke="none" /><path d="M 120.70491114924044 103.5080841355445 l 43.62110680921976 7.390831656765152 a65.2428,65.2428 0 0,0 -0.19713751294060852,1.1056518652220373 l -43.48742285393996 -8.140602272720407" fill="#55ff2b" stroke="none" /><path d="M 120.5718875245553 104.21870165774334 l 28.111484302304806 5.764855815306269 a49.6965,49.6965 0 0,0 -0.17906349735860544,0.8365250463516359 l -28.00808676622176 -6.247894681074074" fill="#ff9e0e" stroke="none" /><path d="M 120.41448212921028 104.9243191809786 l 38.04851179242213 9.17794608950792 a60.1398,60.1398 0 0,0 -0.2514092381218047,1.0042549335337376 l -37.88489124000527 -9.831528862439052" fill="#a5ff21" stroke="none" /><path d="M 120.23288151984713 105.62410040840565 l 40.76804228960077 11.332224876912898 a63.31374,63.31374 0 0,0 -0.30091321134662347,1.0475183648022157 l -40.56693644136805 -12.032300717219695" fill="#72ff27" stroke="none" /><path d="M 119.9155931802556 106.66101706037122 l 23.934559884031184 8.005210303154136 a46.2378,46.2378 0 0,0 -0.25895186842919443,0.7526353423379785 l -23.79321718465876 -8.416018348581416" fill="#ff5908" stroke="none" /><path d="M 119.67450827220406 107.3425965602758 l 26.087610988611697 9.73598933506329 a48.84516,48.84516 0 0,0 -0.300759933436687,0.7851892804887807 l -25.916156775581506 -10.183602182385213" fill="#ff8d0d" stroke="none" /><path d="M 119.41010516605496 108.01547362559984 l 39.192884351298176 16.184844344811186 a63.4032,63.4032 0 0,0 -0.42525135758418087,1.0051685921087192 l -38.90848201252169 -16.85708746258607" fill="#71ff27" stroke="none" /><path d="M 119.26925614724726 108.34839909993367 l 19.311648510771214 8.366765577953524 a42.0462,42.0462 0 0,0 -0.2934402601510454,0.6616303206743407 l -19.164767165888893 -8.697944235120554" fill="#ff0100" stroke="none" /><path d="M 118.97047184881838 109.00673069616215 l 26.56473113933735 12.612305128449789 a50.40672000000001,50.40672000000001 0 0,0 -0.37888269508256905,0.7806105732174302 l -26.34369518764007 -13.067704657632495" fill="#ffab0f" stroke="none" /><path d="M 118.64920377521936 109.65438752849418 l 50.36292076313089 26.072059696199684 a77.71134,77.71134 0 0,0 -0.6251969512134542,1.1826370200731566 l -49.90667130369254 -26.935111731358976" fill="#41ffd3" stroke="none" /><line stroke="#e1ed5e" stroke-width="0.3" x1="174.80103733775053" x2="179.2010983576182" y1="140.37084112569926" y2="142.7455964860345" /><path d="M 175.68104954172406 140.8457921977663 a86.0,86.0 0 0,1 -30.038265399797805,32.042727171017184" fill="none" id="id125" stroke="none" /><text fill="#e1ed5e" style="font-size:6.75px; font-family:Arial;" text-anchor="middle"><textPath startOffset="22.206326154141568" xlink:href="#id125">May</textPath></text><path d="M 118.30583269289576 110.29060199501025 l 24.809528932027764 13.946647071797482 a49.460879999999996,49.460879999999996 0 0,0 -0.42359240650222346,0.7385690654468275 l -24.565784529373158 -14.371635983102625" fill="#ff990e" stroke="none" /><path d="M 117.75023020441432 111.22182372390056 l 28.513614795767086 18.026513193599364 a54.733979999999995,54.733979999999995 0 0,0 -0.5103165281913236,0.7920225843967234 l -28.199093404198713 -18.51465737791754" fill="#fffc17" stroke="none" /><path d="M 117.35343817320211 111.8261652097733 l 24.461406448945684 16.670162479696433 a50.601600000000005,50.601600000000005 0 0,0 -0.4967127581021167,0.7155517746341578 l -24.170832783681433 -17.08875551651761" fill="#ffaf10" stroke="none" /><path d="M 116.93607887273984 112.41649034213515 l 41.52726539595808 30.445234318915357 a72.49199999999999,72.49199999999999 0 0,0 -0.7464561073685422,0.9999999399338445 l -40.99704802189444 -31.155547138358518" fill="#38ff80" stroke="none" /><path d="M 116.498646956653 112.99209946851258 l 16.498646956653 12.992099468512572 a42.0,42.0 0 0,0 -0.4521641758902921,0.5641443328434994 l -16.272564868707853 -13.274171634934323" fill="#ff0000" stroke="none" /><path d="M 116.0416608686014 113.55231037782055 l 22.59885016525091 19.091952767858483 a50.583960000000005,50.583960000000005 0 0,0 -0.567642336646291,0.6602962786236779 l -22.26686531903384 -19.47812614564369" fill="#ffaf10" stroke="none" /><path d="M 115.32070863581623 114.36230785411682 l 30.6662368196225 28.74788264695732 a63.034020000000005,63.034020000000005 0 0,0 -0.7488845252498727,0.7852024307236151 l -30.16684574299366 -29.27149219426344" fill="#77ff27" stroke="none" /><path d="M 115.07121518719521 114.62390073753431 l 24.65168525739145 23.92002195837013 a55.34928,55.34928 0 0,0 -0.669355645353626,0.6780537348250417 l -24.236288986982284 -24.340816187175836" fill="#f7ff18" stroke="none" /><path d="M 114.29624159901734 115.38237550388516 l 22.902579041625778 24.642565557224025 a54.642,54.642 0 0,0 -0.69447497228722,0.6343864213417112 l -22.475004519871696 -25.03314474515232" fill="#fffa17" stroke="none" /><path d="M 113.48314897796784 116.09983520530334 l 24.35380300996463 29.080166341227105 a58.93104,58.93104 0 0,0 -0.783305410472746,0.6446070256582318 l -23.849627470947194 -29.495068485742514" fill="#b9ff1f" stroke="none" /><path d="M 112.92097659922987 116.55440617244103 l 20.74333583240365 26.576443669236838 a54.7134,54.7134 0 0,0 -0.7474144107830514,0.5730854988029664 l -20.282792693127103 -26.929568509867174" fill="#fffb17" stroke="none" /><path d="M 112.34349029814194 116.9893568818739 l 20.35194680357643 28.012051626833678 a55.6248,55.6248 0 0,0 -0.7794694539938745,0.556130759227032 l -19.86675002173367 -28.358226647904928" fill="#f2ff19" stroke="none" /><path d="M 112.04921762599082 117.19931262002967 l 12.095968590379666 17.266045952995388 a42.08148,42.08148 0 0,0 -0.5968418620418966,0.41051327500707513 l -11.796969843714887 -17.47170001736756" fill="#ff0200" stroke="none" /><path d="M 111.45004920935366 117.60387380957326 l 23.05581908795455 35.447160302956725 a63.2856,63.2856 0 0,0 -0.9182987613513703,0.5861017172965697 l -22.442238524556252 -35.8387764490771" fill="#73ff27" stroke="none" /><line stroke="#e1ed5e" stroke-width="0.3" x1="143.8653032363475" x2="146.44561519142675" y1="172.8068346515853" y2="177.08958963109032" /><path d="M 144.38136562736335 173.6633856474863 a86.0,86.0 0 0,1 -40.68145358897372,12.25698825130547" fill="none" id="id126" stroke="none" /><text fill="#e1ed5e" style="font-size:6.75px; font-family:Arial;" text-anchor="middle"><textPath startOffset="21.466115282336833" xlink:href="#id126">June</textPath></text><path d="M 110.5260780823613 118.17145234162733 l 16.61583529613059 28.684364379352395 a54.149339999999995,54.149339999999995 0 0,0 -0.8105672285430112,0.4602612268719187 l -16.11961930066638 -28.96612877201894" fill="#fff116" stroke="none" /><path d="M 109.89434966115114 118.52300852407294 l 15.946525461884066 29.85316237807785 a54.845279999999995,54.845279999999995 0 0,0 -0.8365448636896019,0.43764073513046203 l -15.430289695667968 -30.12323253215303" fill="#fffe18" stroke="none" /><path d="M 109.2508944713604 118.85261126421891 l 22.21195267940459 45.26625080206544 a71.42226,71.42226 0 0,0 -1.1083623693711284,0.5320812923684063 l -21.429477642033227 -45.64188637093341" fill="#36ff6e" stroke="none" /><path d="M 107.93186726928326 119.44442032107085 l 12.913079914393153 31.65551628270334 a55.188,55.188 0 0,0 -0.8826898121619755,0.3512404929008509 l -12.366269026189311 -31.87310362001026" fill="#faff18" stroke="none" /><path d="M 107.2578585660854 119.70592522655815 l 11.313259618471285 30.71680800614978 a53.73396,53.73396 0 0,0 -0.8706959770430598,0.31220059948859163 l -10.78284408079849 -30.90699614667833" fill="#ffea16" stroke="none" /><path d="M 106.2309692047433 120.05430185196036 l 11.294254780517715 36.35042753686334 a59.0646,59.0646 0 0,0 -0.9735112468893645,0.2933109528532362 l -10.666868559188105 -36.539453858822306" fill="#b7ff1f" stroke="none" /><path d="M 105.88484417918355 120.15858648285463 l 9.43622994443724 32.32389025352774 a54.67308,54.67308 0 0,0 -0.905669546463021,0.2559512603190325 l -8.878429229869614 -32.481530307185295" fill="#fffb17" stroke="none" /><path d="M 105.53697534728816 120.25689768951611 l 6.744589670531705 24.674927075599577 a46.5801,46.5801 0 0,0 -0.7752471487998176,0.2047498181097204 l -6.31885207892039 -24.78736824301288" fill="#ff6008" stroke="none" /><path d="M 104.83641907484287 120.43548508189849 l 7.762549343504297 32.799362266148734 a54.705420000000004,54.705420000000004 0 0,0 -0.9182170604286065,0.20898321349546056 l -7.196812133682829 -32.928122213221876" fill="#fffb17" stroke="none" /><path d="M 103.7750983002368 120.6578951692458 l 6.814354439791461 37.28915341210221 a58.906679999999994,58.906679999999994 0 0,0 -0.999032127103182,0.17369454096229597 l -6.171473341216228 -37.40092653158551" fill="#baff1f" stroke="none" /><path d="M 103.41894727170886 120.7198165907248 l 5.475854329314345 33.18527264803665 a54.63402,54.63402 0 0,0 -0.9292053605188096,0.1451227672396227 l -4.903813105187018 -33.27461372262338" fill="#fffa17" stroke="none" /><path d="M 103.06178313531738 120.77559828337769 l 4.019508900044652 27.27420542641823 a48.568799999999996,48.568799999999996 0 0,0 -0.8281475543030984,0.11477370492870875 l -3.5494327545547235 -27.33935369683954" fill="#ff880c" stroke="none" /><path d="M 102.34483914955558 120.86867818915974 l 4.135827291986146 36.80817459003995 a58.0398,58.0398 0 0,0 -0.9937723895014353,0.10300857146197492 l -3.501622305879108 -36.87391252995768" fill="#c8ff1d" stroke="none" /><path d="M 101.62511606390274 120.93702456842531 l 4.06883559151455 52.42044715245785 a73.57812000000001,73.57812000000001 0 0,0 -1.2635719078036465,0.08714331675140137 l -3.1659009229319737 -52.48271881372553" fill="#3aff92" stroke="none" /><path d="M 100.90346689309514 120.98055641714683 l 1.4166360883731832 32.897512462086226 a53.928,53.928 0 0,0 -0.9277661368994928,0.03195414164179116 l -0.850149599799038 -32.91702340215411" fill="#ffed16" stroke="none" /><line stroke="#e1ed5e" stroke-width="0.3" x1="102.19456741930631" x2="102.32365962044197" y1="184.97166512339345" y2="189.96999836594603" /><path d="M 102.22038585953345 185.97133177190398 a86.0,86.0 0 0,1 -42.740103519485714,-10.115201625700543" fill="none" id="id127" stroke="none" /><text fill="#e1ed5e" style="font-size:6.75px; font-family:Arial;" text-anchor="middle"><textPath startOffset="22.20632615414155" xlink:href="#id127">July</textPath></text><path d="M 94.81253420990036 120.34920634021253 l -5.379298275017525 21.101719990673587 a42.776579999999996,42.776579999999996 0 0,0 -0.7119439778018525,-0.18803087529559026 l 5.7417326956308665 -21.005997766074415" fill="#ff1101" stroke="none" /><path d="M 93.76903079525671 120.05430185196036 l -9.439918345186086 30.382267305719946 a52.815,52.815 0 0,0 -0.8658608170962849,-0.27722129065083795 l 9.961500507373312 -30.2152731684094" fill="#ffd914" stroke="none" /><path d="M 93.08242187328487 119.8279376855182 l -9.200378908531118 26.371157121739195 a48.93,48.93 0 0,0 -0.7928534237327369,-0.2842890293768983 l 9.652951892893581 -26.208880551322338" fill="#ff8f0d" stroke="none" /><path d="M 92.40401165467489 119.57807347666478 l -13.055984767944809 33.65079269169143 a57.0948,57.0948 0 0,0 -0.9131876184573962,-0.3633761994287862 l 13.633293462444064 -33.42106964785658" fill="#d9ff1c" stroke="none" /><path d="M 91.7346041902142 119.30500536409082 l -20.1345041926382 47.02699306692524 a72.156,72.156 0 0,0 -1.1375885618759942,-0.49868539488026226 l 20.94101342917194 -46.673443118750534" fill="#37ff7a" stroke="none" /><path d="M 90.7491055286396 118.85261126421891 l -14.766277755185456 30.09253809994623 a54.5202,54.5202 0 0,0 -0.8389518848740173,-0.4206678914312699 l 15.282083547742234 -29.833902367605656" fill="#fff817" stroke="none" /><path d="M 90.10565033884886 118.52300852407294 l -17.558512908678804 32.87093092681982 a58.2666,58.2666 0 0,0 -0.8805947461892699,-0.4801704676273537 l 18.12173046673671 -32.5638198074327" fill="#c4ff1e" stroke="none" /><line stroke="#e1ed5e" stroke-width="0.3" x1="58.666819895761336" x2="56.23545636021788" y1="174.27360380694188" y2="178.64263932499728" /><path d="M 58.180547188652646 175.14741091055294 a86.0,86.0 0 0,1 -31.652253787137756,-30.449443065178592" fill="none" id="id128" stroke="none" /><text fill="#e1ed5e" style="font-size:6.75px; font-family:Arial;" text-anchor="middle"><textPath startOffset="22.20632615414155" xlink:href="#id128">August</textPath></text><path d="M 89.1626897886671 117.98757091392108 l -20.491186147588255 34.010899084041974 a60.7068,60.7068 0 0,0 -0.890426528835682,-0.5469727000925245 l 21.073591876356247 -33.65313791712107" fill="#9cff22" stroke="none" /><path d="M 88.54995079064634 117.60387380957326 l -17.862076766591727 27.462043142934284 a53.76,53.76 0 0,0 -0.7713927712256978,-0.5112370660062249 l 18.332144236557387 -27.15050805583674" fill="#ffea16" stroke="none" /><path d="M 87.95078237400918 117.19931262002967 l -23.934565892268164 34.16471458842695 a62.7144,62.7144 0 0,0 -0.8788159081120841,-0.6270118164284235 l 24.519109128229136 -33.74765851015431" fill="#7cff26" stroke="none" /><path d="M 87.36589467227662 116.77436683061367 l -20.390435270519305 27.07248611526401 a54.892320000000005,54.892320000000005 0 0,0 -0.7498585540163052,-0.5749595636106095 l 20.853422553029095 -26.717487209826036" fill="#ffff18" stroke="none" /><path d="M 87.07902340077011 116.55440617244103 l -32.16289495080302 41.20722784444022 a73.2732,73.2732 0 0,0 -0.9875919164105942,-0.7846027472532981 l 32.86744435993098 -40.64749118318179" fill="#39ff8d" stroke="none" /><path d="M 86.51685102203217 116.09983520530335 l -21.238656270094936 25.360460415393828 a54.0792,54.0792 0 0,0 -0.7085264247187639,-0.6038215902978553 l 21.672048171390756 -24.99111443487302" fill="#fff016" stroke="none" /><path d="M 85.97065885151581 115.62618273729859 l -23.56648726122374 26.24886176211416 a56.2758,56.2758 0 0,0 -0.7152398273387229,-0.6533546241012936 l 24.01482663802932 -25.83931437142629" fill="#e7ff1a" stroke="none" /><path d="M 85.44109423537348 115.13401014063109 l -23.39907334490774 24.32338109802229 a54.7512,54.7512 0 0,0 -0.6735702441658292,-0.6592302516602763 l 23.814293541449363 -23.91700074343944" fill="#fffc17" stroke="none" /><path d="M 85.18274418774928 114.88116024355367 l -40.24366678607297 40.41723122149174 a78.036,78.036 0 0,0 -0.9437130372936384,-0.9559763243678502 l 40.93342044842214 -39.718514403143224" fill="#42ffd7" stroke="none" /><path d="M 84.67929136418377 114.36230785411682 l -20.287682375547856 19.0185680604215 a48.8082,48.8082 0 0,0 -0.5693211385363267,-0.617885653590716 l 20.612049922079912 -18.66653115202944" fill="#ff8c0c" stroke="none" /><path d="M 84.19399662182784 113.82643327865904 l -24.42659762062727 21.367369988839673 a53.4534,53.4534 0 0,0 -0.5998425761385398,-0.6977524317942407 l 24.79078270633659 -20.9437404578839" fill="#ffe515" stroke="none" /><path d="M 83.72743513129214 113.27417163493432 l -48.81769460612356 39.82251490480297 a84.0,84.0 0 0,0 -0.9043283517805563,-1.1282886656869615 l 49.49594086995897 -38.976298405537754" fill="#4dd2ff" stroke="none" /><path d="M 83.50135304334701 112.99209946851258 l -19.957423304645722 15.715763201091562 a46.40244,46.40244 0 0,0 -0.4887573044022672,-0.6317847010875923 l 20.224987426266058 -15.369900505890717" fill="#ff5c08" stroke="none" /><path d="M 83.06392112726016 112.41649034213515 l -24.706351859552875 18.11317611110675 a51.6348,51.6348 0 0,0 -0.5193482465068563,-0.7213292909167415 l 25.014479898435336 -17.68521321473887" fill="#ffc312" stroke="none" /><line stroke="#e1ed5e" stroke-width="0.3" x1="26.63291911575756" x2="22.317208475507996" y1="142.92168965132927" y2="145.44649492493687" /><path d="M 25.769776987707644 143.4266507060508 a86.0,86.0 0 0,1 -11.730757126820373,-40.83630448921669" fill="none" id="id129" stroke="none" /><text fill="#e1ed5e" style="font-size:6.75px; font-family:Arial;" text-anchor="middle"><textPath startOffset="21.46611528233685" xlink:href="#id129">September</textPath></text><line stroke="#e1ed5e" stroke-width="0.3" x1="15.007084014347285" x2="10.007500721073583" y1="101.09737516637583" y2="101.16192664675087" /><path d="M 14.007167355692545 101.11028546245083 a86.0,86.0 0 0,1 10.666146001902534,-42.60595125391555" fill="none" id="id130" stroke="none" /><text fill="#e1ed5e" style="font-size:6.75px; font-family:Arial;" text-anchor="middle"><textPath startOffset="22.20632615414155" xlink:href="#id130">October</textPath></text><line stroke="#e1ed5e" stroke-width="0.3" x1="26.266209847984243" x2="21.928928074336255" y1="57.711370442889674" y2="55.22380399835377" /><path d="M 25.398753493254645 57.213857153982495 a86.0,86.0 0 0,1 29.58750427330803,-30.492523968695096" fill="none" id="id131" stroke="none" /><text fill="#e1ed5e" style="font-size:6.75px; font-family:Arial;" text-anchor="middle"><textPath startOffset="21.46611528233685" xlink:href="#id131">November</textPath></text><line stroke="#e1ed5e" stroke-width="0.3" x1="56.762969772571076" x2="54.21961505331055" y1="26.818313649435495" y2="22.513508569990535" /><path d="M 56.25429882871897 25.957352633546506 a86.0,86.0 0 0,1 42.265352541879196,-11.944610805530505" fill="none" id="id132" stroke="none" /><text fill="#e1ed5e" style="font-size:6.75px; font-family:Arial;" text-anchor="middle"><textPath startOffset="22.20632615414155" xlink:href="#id132">December</textPath></text></svg>