<?xml version="1.0" encoding="utf-8" ?>
<svg baseProfile="full" height="200mm" version="1.1" viewBox="0,0,200,200" width="200mm" xmlns="http://www.w3.org/2000/svg" xmlns:ev="http://www.w3.org/2001/xml-events" xmlns:xlink="http://www.w3.org/1999/xlink"><defs /><rect fill="#1a1a1a" height="200" width="200" x="0" y="0" /><text alignment-baseline="middle" fill="#e1ed5e" style="dominant-baseline: central; font-size:9.0px; font-family:Arial;" text-anchor="middle" x="100.0" y="100.0">2025</text><line stroke="#e1ed5e" stroke-width="0.3" x1="100.0" x2="100.0" y1="15.0" y2="10.0" /><path d="M 100.0 14.0 a86.0,86.0 0 0,1 42.46469731375804,11.215312516191453" fill="none" id="id121" stroke="none" /><text fill="#e1ed5e" style="font-size:6.75px; font-family:Arial;" text-anchor="middle"><textPath startOffset="22.20632615414155" xlink:href="#id121">January</textPath></text><path d="M 100.0 79.0 l 0.0 -53.07366289100594 a74.07366289100594,74.07366289100594 0 0,0 1.2750563411101203,0.010974812477588143 l -0.9135758618375919 53.06579945513691" fill="#35ff68" stroke="none" /><path d="M 101.80526077348638 79.07773832637324 l 2.6390761163673884 -30.58585324303225 a51.69949741204711,51.69949741204711 0 0,0 0.8859690505075573,0.08413343680455539 l -3.16517029396519 30.535894261712517" fill="#ff0000" stroke="none" /><path d="M 103.2404852339499 79.25152402106235 l 6.641807694149167 -42.526775297414495 a64.04230740379566,64.04230740379566 0 0,0 1.087715267733809,0.17948233908012945 l -7.372852168021851 42.40614669539474" fill="#c8ff1d" stroke="none" /><path d="M 104.307194497241 79.44645832069477 l 6.708121832699551 -32.010549272052735 a53.70587352786738,53.70587352786738 0 0,0 0.9031723805741334,0.19739850044388912 l -7.258136937427213 31.89033727351298" fill="#ff3705" stroke="none" /><path d="M 105.36241919743992 79.69619591428918 l 11.484289857243262 -43.48313004628641 a65.97412047108244,65.97412047108244 0 0,0 1.0954911935655065,0.2994391256210334 l -12.231078940032479 43.27900437983909" fill="#9eff22" stroke="none" /><path d="M 106.0581310904928 79.89281104454417 l 10.117637881534128 -33.58086076845461 a56.07193758907809,56.07193758907809 0 0,0 0.9217549064857838,0.28639373631810666 l -10.69417816073063 33.40172689725399" fill="#ff760a" stroke="none" /><path d="M 106.74666289553966 80.11325718540242 l 14.815903169646328 -43.6719694555259 a67.11672042607456,67.11672042607456 0 0,0 1.090864024270158,0.3805810383912588 l -15.56544919797976 43.410467563962435" fill="#86ff25" stroke="none" /><path d="M 107.76421540070413 80.48803036053334 l 15.519500390875619 -39.00149658637674 a62.97584577301028,62.97584577301028 0 0,0 1.0037634003114526,0.409460293985067 l -16.18854766077546 38.728575406208094" fill="#e0ff1b" stroke="none" /><path d="M 108.76106565485865 80.91482961587045 l 19.001696169390634 -41.393435829255075 a66.54647063236067,66.54647063236067 0 0,0 1.0369264358104682,0.4868508652785365 l -19.7114008165007 41.06021998133654" fill="#92ff23" stroke="none" /><path d="M 109.73455568895987 81.39251694778311 l 24.574805877747767 -46.97443812461988 a74.0143275073138,74.0143275073138 0 0,0 1.1238016644563276,0.6002959294362826 l -25.379752588732405 46.54446346868184" fill="#35ff67" stroke="none" /><path d="M 110.36928655335952 81.73862282372117 l 26.43127071794006 -46.548178733883866 a74.52891756057312,74.52891756057312 0 0,0 1.1101375685128307,0.6430633341045515 l -27.228605018918216 46.086311242389264" fill="#36ff72" stroke="none" /><line stroke="#e1ed5e" stroke-width="0.3" x1="143.23703022742887" x2="145.7803849466894" y1="26.81831364943548" y2="22.513508569990506" /><path d="M 143.74570117128098 25.957352633546492 a86.0,86.0 0 0,1 28.547481713284135,27.462654790039103" fill="none" id="id122" stroke="none" /><text fill="#e1ed5e" style="font-size:6.75px; font-family:Arial;" text-anchor="middle"><textPath startOffset="19.985693538727396" xlink:href="#id122">February</textPath></text><path d="M 111.2981086023043 82.29822771554956 l 18.078160272729193 -28.324694666537567 a54.60220538594254,54.60220538594254 0 0,0 0.7879175569923698,0.5124834964205566 l -18.56304485550584 28.009312245957485" fill="#ff4f07" stroke="none" /><path d="M 111.90073688211348 82.69761687909136 l 24.368047990305108 -35.42850383245089 a63.99977496061811,63.99977496061811 0 0,0 0.9023019256901427,0.6321201612633021 l -24.9742810555789 35.003798828423655" fill="#c9ff1d" stroke="none" /><path d="M 113.06298171725822 83.55741782278167 l 20.76071107316111 -26.131836150926322 a54.374840597104495,54.374840597104495 0 0,0 0.7278372807354099,0.5885271299979392 l -21.20745175246101 25.770602923664253" fill="#ff4906" stroke="none" /><path d="M 113.6212207817346 84.01681056812373 l 27.877301552396112 -32.71132585700179 a63.97877128497487,63.97877128497487 0 0,0 0.8320475806136651,0.7215434627751605 l -28.43624293165654 32.22661740080696" fill="#caff1d" stroke="none" /><path d="M 114.16331599549186 84.49514656593476 l 25.08408151328203 -27.460024722697494 a58.192258645262925,58.192258645262925 0 0,0 0.733754824449371,0.6819451418360742 l -25.553044221526246 27.02417499478678" fill="#ffac0f" stroke="none" /><path d="M 114.68862486808459 84.99185889309783 l 28.970670891647142 -29.600859209645108 a62.418723276573395,62.418723276573395 0 0,0 0.7614020144152734,0.7581323121926109 l -29.47590870622974 29.09779104680238" fill="#edff1a" stroke="none" /><path d="M 115.19652480421416 85.50635884689758 l 23.63093235251365 -22.537932721012155 a53.655464706323606,53.655464706323606 0 0,0 0.6316849633458902,0.6738374759370321 l -24.015384637830003 22.127825828197064" fill="#ff3605" stroke="none" /><path d="M 115.4437574822437 85.77008943001954 l 27.062198993714855 -24.935166972826025 a57.79843972695222,57.79843972695222 0 0,0 0.6678647124864628,0.7374728964288483 l -27.487407346817353 24.46564128912763" fill="#ffa20f" stroke="none" /><path d="M 115.9244219780498 86.31012108654704 l 24.551793042946297 -21.106642007439046 a53.37716600405071,53.37716600405071 0 0,0 0.5929679195657758,0.7018869850561955 l -24.91147157599919 20.680896072753743" fill="#ff2e04" stroke="none" /><path d="M 116.60985879189232 87.15038557335679 l 30.434587359534653 -23.544613937049345 a59.478733778411225,59.478733778411225 0 0,0 0.619496672492536,0.815185004416465 l -30.835359972251304 23.017244156751847" fill="#ffcc13" stroke="none" /><path d="M 117.04232023915458 87.72973835380427 l 28.96891886525061 -20.857266445878842 a56.69627184757333,56.69627184757333 0 0,0 0.5634188780360451,0.7969160466375357 l -29.32365036309054 20.355523898909514" fill="#ff860c" stroke="none" /><path d="M 117.45458315368197 88.32363383020206 l 27.138771526573446 -18.154672096876336 a53.65126397119496,53.65126397119496 0 0,0 0.5068852994850104,0.7720210865171695 l -27.447253461416384 17.68483294638149" fill="#ff3605" stroke="none" /><line stroke="#e1ed5e" stroke-width="0.3" x1="172.23445277983987" x2="176.4835382374775" y1="55.19839476539836" y2="52.563006222186495" /><path d="M 173.08426987136738 54.67131705675599 a86.0,86.0 0 0,1 12.851231095245387,41.99856678651699" fill="none" id="id123" stroke="none" /><text fill="#e1ed5e" style="font-size:6.75px; font-family:Arial;" text-anchor="middle"><textPath startOffset="22.20632615414155" xlink:href="#id123">March</textPath></text><path d="M 117.84615892207809 88.93136811851018 l 44.62320636630932 -27.676423077763154 a73.50918910809392,73.50918910809392 0 0,0 0.657676919723868,1.0810479315235428 l -45.09299908431941 26.90420737303253" fill="#34ff5c" stroke="none" /><path d="M 118.3937258080291 89.86733742301442 l 28.943454075090127 -15.944254960425077 a54.04455779761459,54.04455779761459 0 0,0 0.4418577550080946,0.8186953134671072 l -29.213619929316685 15.44367866362551" fill="#ff4006" stroke="none" /><path d="M 118.73160827565052 90.50648371742162 l 31.838535137496446 -16.136342768505273 a56.694171480009004,56.694171480009004 0 0,0 0.43368337962694786,0.8742792296093913 l -32.111578530076805 15.585903950396931" fill="#ff860c" stroke="none" /><path d="M 119.04729006885535 91.15688171328212 l 47.67894903590902 -22.13598808999893 a73.56694921611282,73.56694921611282 0 0,0 0.5233681790934462,1.1531724075513334 l -48.05291953196581 21.31199367360553" fill="#34ff5d" stroke="none" /><path d="M 119.34039704204932 91.81776055985345 l 30.77112154090963 -13.018175570137895 a54.41159702948016,54.41159702948016 0 0,0 0.3575057319978888,0.8657284871331826 l -30.990648959793717 12.48657251255141" fill="#ff4a06" stroke="none" /><path d="M 119.7369772167798 92.82701384747503 l 34.620769277411966 -12.582184996672705 a57.83624634311004,57.83624634311004 0 0,0 0.33199911019937306,0.938606192014616 l -34.832221468421146 11.984381178231475" fill="#ffa30f" stroke="none" /><path d="M 119.97218684219823 93.5106431181261 l 57.96443694581423 -18.833787244745412 a81.94741579776462,81.94741579776462 0 0,0 0.42434914701778914,1.3453027599078278 l -58.28004157660022 17.833234318411165" fill="#48f7ff" stroke="none" /><path d="M 120.18372546131832 94.20196356495316 l 33.92468745805059 -9.745305657586302 a56.29667691846073,56.29667691846073 0 0,0 0.25953633804087,0.9336902964654793 l -34.08741056665782 9.15990405770187" fill="#ff7c0b" stroke="none" /><path d="M 120.37134235888165 94.90015583598534 l 37.65486741524684 -9.426671667057205 a59.816892956267345,59.816892956267345 0 0,0 0.24145288157148082,1.0009780752895614 l -37.81155309707914 8.777108360108238" fill="#ffd413" stroke="none" /><path d="M 120.53481517161879 95.60439243477599 l 50.1547957383473 -10.735952465958594 a72.29097592078614,72.29097592078614 0 0,0 0.24999150335045212,1.2190473530121424 l -50.33216653761275 9.87102945678304" fill="#31ff40" stroke="none" /><path d="M 120.73433829027371 96.67025291283417 l 41.49148834472546 -6.663157537216048 a63.02310404320756,63.02310404320756 0 0,0 0.1627919986431353,1.0725958726118352 l -41.600036236807895 5.947962552212131" fill="#dfff1b" stroke="none" /><path d="M 120.83666639777658 97.38593545837742 l 37.76577402318488 -4.737906192685073 a59.06181081689296,59.06181081689296 0 0,0 0.11786950677641894,1.0098339523656363 l -37.841733882964895 4.0871285019945836" fill="#ffc212" stroke="none" /><path d="M 120.94382443527127 98.46500227214037 l 62.831473305813795 -4.6049931835789 a84.0,84.0 0 0,0 0.09327763598233796,1.442963742987859 l -62.90143153280055 3.5227703763380056" fill="#4dd2ff" stroke="none" /><path d="M 120.98425023603335 99.18683210126433 l 33.56021377108318 -1.3005033873685916 a54.58540244542795,54.58540244542795 0 0,0 0.028302025718447556,0.9392064484930275 l -33.57762749125727 0.722626791450565" fill="#ff4f07" stroke="none" /><line stroke="#e1ed5e" stroke-width="0.3" x1="184.98032266829074" x2="189.97916517819016" y1="98.17113171792111" y2="98.06355123074" /><path d="M 185.9800911702706 98.14961562048488 a86.0,86.0 0 0,1 -9.607161424134198,41.387399972396054" fill="none" id="id124" stroke="none" /><text fill="#e1ed5e" style="font-size:6.75px; font-family:Arial;" text-anchor="middle"><textPath startOffset="21.466115282336823" xlink:href="#id124">April</textPath></text><line stroke="#e1ed5e" stroke-width="0.3" x1="174.80103733775053" x2="179.2010983576182" y1="140.37084112569926" y2="142.7455964860345" /><path d="M 175.68104954172406 140.8457921977663 a86.0,86.0 0 0,1 -30.038265399797805,32.042727171017184" fill="none" id="id125" stroke="none" /><text fill="#e1ed5e" style="font-size:6.75px; font-family:Arial;" text-anchor="middle"><textPath startOffset="22.206326154141568" xlink:href="#id125">May</textPath></text><line stroke="#e1ed5e" stroke-width="0.3" x1="143.8653032363475" x2="146.44561519142675" y1="172.8068346515853" y2="177.08958963109032" /><path d="M 144.38136562736335 173.6633856474863 a86.0,86.0 0 0,1 -40.68145358897372,12.25698825130547" fill="none" id="id126" stroke="none" /><text fill="#e1ed5e" style="font-size:6.75px; font-family:Arial;" text-anchor="middle"><textPath startOffset="21.466115282336833" xlink:href="#id126">June</textPath></text><line stroke="#e1ed5e" stroke-width="0.3" x1="102.19456741930631" x2="102.32365962044197" y1="184.97166512339345" y2="189.96999836594603" /><path d="M 102.22038585953345 185.97133177190398 a86.0,86.0 0 0,1 -42.740103519485714,-10.115201625700543" fill="none" id="id127" stroke="none" /><text fill="#e1ed5e" style="font-size:6.75px; font-family:Arial;" text-anchor="middle"><textPath startOffset="22.20632615414155" xlink:href="#id127">July</textPath></text><line stroke="#e1ed5e" stroke-width="0.3" x1="58.666819895761336" x2="56.23545636021788" y1="174.27360380694188" y2="178.64263932499728" /><path d="M 58.180547188652646 175.14741091055294 a86.0,86.0 0 0,1 -31.652253787137756,-30.449443065178592" fill="none" id="id128" stroke="none" /><text fill="#e1ed5e" style="font-size:6.75px; font-family:Arial;" text-anchor="middle"><textPath startOffset="22.20632615414155" xlink:href="#id128">August</textPath></text><line stroke="#e1ed5e" stroke-width="0.3" x1="26.63291911575756" x2="22.317208475507996" y1="142.92168965132927" y2="145.44649492493687" /><path d="M 25.769776987707644 143.4266507060508 a86.0,86.0 0 0,1 -11.730757126820373,-40.83630448921669" fill="none" id="id129" stroke="none" /><text fill="#e1ed5e" style="font-size:6.75px; font-family:Arial;" text-anchor="middle"><textPath startOffset="21.46611528233685" xlink:href="#id129">September</textPath></text><line stroke="#e1ed5e" stroke-width="0.3" x1="15.007084014347285" x2="10.007500721073583" y1="101.09737516637583" y2="101.16192664675087" /><path d="M 14.007167355692545 101.11028546245083 a86.0,86.0 0 0,1 10.666146001902534,-42.60595125391555" fill="none" id="id130" stroke="none" /><text fill="#e1ed5e" style="font-size:6.75px; font-family:Arial;" text-anchor="middle"><textPath startOffset="22.20632615414155" xlink:href="#id130">October</textPath></text><line stroke="#e1ed5e" stroke-width="0.3" x1="26.266209847984243" x2="21.928928074336255" y1="57.711370442889674" y2="55.22380399835377" /><path d="M 25.398753493254645 57.213857153982495 a86.0,86.0 0 0,1 29.58750427330803,-30.492523968695096" fill="none" id="id131" stroke="none" /><text fill="#e1ed5e" style="font-size:6.75px; font-family:Arial;" text-anchor="middle"><textPath startOffset="21.46611528233685" xlink:href="#id131">November</textPath></text><line stroke="#e1ed5e" stroke-width="0.3" x1="56.762969772571076" x2="54.21961505331055" y1="26.818313649435495" y2="22.513508569990535" /><path d="M 56.25429882871897 25.957352633546506 a86.0,86.0 0 0,1 42.265352541879196,-11.944610805530505" fill="none" id="id132" stroke="none" /><text fill="#e1ed5e" style="font-size:6.75px; font-family:Arial;" text-anchor="middle"><textPath startOffset="22.20632615414155" xlink:href="#id132">December</textPath></text></svg>