<?xml version="1.0" encoding="utf-8" ?>
<svg baseProfile="full" height="200mm" version="1.1" viewBox="0,0,200,200" width="200mm" xmlns="http://www.w3.org/2000/svg" xmlns:ev="http://www.w3.org/2001/xml-events" xmlns:xlink="http://www.w3.org/1999/xlink"><defs /><rect fill="#1a1a1a" height="200" width="200" x="0" y="0" /><text alignment-baseline="middle" fill="#e1ed5e" style="dominant-baseline: central; font-size:9.0px; font-family:Arial;" text-anchor="middle" x="100.0" y="100.0">2025</text><line stroke="#e1ed5e" stroke-width="0.3" x1="100.0" x2="100.0" y1="15.0" y2="10.0" /><path d="M 100.0 14.0 a86.0,86.0 0 0,1 42.46469731375804,11.215312516191453" fill="none" id="id121" stroke="none" /><text fill="#e1ed5e" style="font-size:6.75px; font-family:Arial;" text-anchor="middle"><textPath startOffset="22.20632615414155" xlink:href="#id121">January</textPath></text><path d="M 100.0 79.0 l 0.0 -47.15890155302273 a68.15890155302273,68.15890155302273 0 0,0 1.173243447622654,0.010098476759863891 l -0.8117629683501256 47.151914452871424" fill="#38ff2e" stroke="none" /><path d="M 101.80526077348638 79.07773832637324 l 2.3449659206354494 -27.177231859152357 a48.27821102446177,48.27821102446177 0 0,0 0.8273388122256452,0.07856578921630006 l -2.812429859951339 27.13284052542088" fill="#ff5808" stroke="none" /><path d="M 103.2404852339499 79.25152402106235 l 5.901615568266516 -37.78740528493186 a59.245484236486035,59.245484236486035 0 0,0 1.0062444712054395,0.1660389595842267 l -6.551189245610831 37.680220062408004" fill="#cdff1d" stroke="none" /><path d="M 104.307194497241 79.44645832069477 l 5.9605393689073995 -28.443153525677197 a50.06098780243951,50.06098780243951 0 0,0 0.8418762894520478,0.18400154906359995 l -6.4492583825129755 28.336338478517728" fill="#ff7e0b" stroke="none" /><path d="M 105.36241919743992 79.69619591428918 l 10.204430319730047 -38.63717967386817 a60.962007598480305,60.962007598480305 0 0,0 1.0122657488928695,0.27669046773261574 l -10.867993957846629 38.45580266530926" fill="#aeff20" stroke="none" /><path d="M 106.0581310904928 79.89281104454417 l 8.990084023110807 -29.838462634424346 a52.16336732653469,52.16336732653469 0 0,0 0.8575027337992177,0.2664302735008402 l -9.502372129620742 29.67929222604098" fill="#ffa90f" stroke="none" /><path d="M 106.74666289553966 80.11325718540242 l 13.164754059491782 -38.80497399264252 a61.977271212424185,61.977271212424185 0 0,0 1.0073313335167422,0.3514381227947704 l -13.830767397071797 38.57261501667554" fill="#9cff22" stroke="none" /><path d="M 107.76421540070413 80.48803036053334 l 13.789939326185621 -34.65499906638594 a58.297873758581616,58.297873758581616 0 0,0 0.9292018436046251,0.3790447628751572 l -14.384425039378634 34.412493417327205" fill="#deff1b" stroke="none" /><path d="M 108.76106565485865 80.91482961587045 l 16.884063962817205 -36.78037012862757 a61.470572552156234,61.470572552156234 0 0,0 0.9578338429978286,0.4497158324371182 l -17.51467601711463 36.48428931355045" fill="#a5ff21" stroke="none" /><path d="M 109.73455568895987 81.39251694778311 l 21.836081927364884 -41.73940109573468 a68.10617876424715,68.10617876424715 0 0,0 1.034094879095645,0.5523776714393221 l -22.551321852988842 41.35734469779361" fill="#39ff2e" stroke="none" /><path d="M 110.36928655335952 81.73862282372117 l 23.485654198550876 -41.36064591757685 a68.5634206492035,68.5634206492035 0 0,0 1.021279143448811,0.5915907988929955 l -24.194130074465015 40.95025096129381" fill="#32ff2f" stroke="none" /><line stroke="#e1ed5e" stroke-width="0.3" x1="143.23703022742887" x2="145.7803849466894" y1="26.81831364943548" y2="22.513508569990506" /><path d="M 143.74570117128098 25.957352633546492 a86.0,86.0 0 0,1 28.547481713284135,27.462654790039103" fill="none" id="id122" stroke="none" /><text fill="#e1ed5e" style="font-size:6.75px; font-family:Arial;" text-anchor="middle"><textPath startOffset="19.985693538727396" xlink:href="#id122">February</textPath></text><path d="M 111.2981086023043 82.29822771554956 l 16.063450949526953 -25.168066693302162 a50.85742851429714,50.85742851429714 0 0,0 0.7338798963643248,0.4773358987927554 l -16.494297871675556 24.887831870349878" fill="#ff8e0d" stroke="none" /><path d="M 111.90073688211348 82.69761687909136 l 21.65236604404168 -31.480196266773497 a59.20769179497434,59.20769179497434 0 0,0 0.8347406589343082,0.5847891763447163 l -22.19103784255964 31.102822247664843" fill="#cdff1d" stroke="none" /><path d="M 113.06298171725822 83.55741782278167 l 18.447046545111693 -23.21958993054714 a50.65540225288275,50.65540225288275 0 0,0 0.6780505436968552,0.5482697177482438 l -18.844000487373037 22.898614115534766" fill="#ff8a0c" stroke="none" /><path d="M 113.6212207817346 84.01681056812373 l 24.770533026394226 -29.06583250014603 a59.18902886089449,59.18902886089449 0 0,0 0.7697567063802827,0.6675254304644388 l -25.267183531421274 28.635142076261918" fill="#ceff1d" stroke="none" /><path d="M 114.16331599549186 84.49514656593476 l 22.288601656572865 -24.399759353348013 a54.04739052189562,54.04739052189562 0 0,0 0.681491567221861,0.6333721400986407 l -22.705301107589573 24.012482627174734" fill="#ffcf13" stroke="none" /><path d="M 114.68862486808459 84.99185889309783 l 25.74205249993655 -26.30200987294401 a57.80283943211357,57.80283943211357 0 0,0 0.7050961005325767,0.7020681937980869 l -26.19098440063645 25.855005828495802" fill="#e7ff1a" stroke="none" /><path d="M 115.19652480421416 85.50635884689758 l 20.997397799863997 -20.026206832221092 a50.01619676064787,50.01619676064787 0 0,0 0.5888399176184396,0.62813336843941 l -21.339005039452896 19.661804046903626" fill="#ff7d0b" stroke="none" /><path d="M 115.4437574822437 85.77008943001954 l 24.04626906520114 -22.15628280442203 a53.69746050789842,53.69746050789842 0 0,0 0.6204776321433729,0.6851468987521356 l -24.42409033796055 21.739083118400345" fill="#ffc812" stroke="none" /><path d="M 115.9244219780498 86.31012108654704 l 21.81563374361908 -18.754425421660326 a49.76891288408984,49.76891288408984 0 0,0 0.5528837692448775,0.6544399942680981 l -22.135228126351073 18.376126477763123" fill="#ff780b" stroke="none" /><path d="M 116.60985879189232 87.15038557335679 l 27.042823707922174 -20.920699086503017 a55.19049523428647,55.19049523428647 0 0,0 0.5748328180326121,0.7564126073853766 l -27.398932466178902 20.452101703236607" fill="#ffe515" stroke="none" /><path d="M 117.04232023915458 87.72973835380427 l 25.74049572703165 -18.532841364394507 a52.71812304205825,52.71812304205825 0 0,0 0.5238860469763663,0.7409996606792127 l -26.055694393811898 18.0870152033835" fill="#ffb410" stroke="none" /><path d="M 117.45458315368197 88.32363383020206 l 24.114308019779422 -16.131435961038356 a50.0124641738319,50.0124641738319 0 0,0 0.47250672219664225,0.7196601547283688 l -24.388411377333988 15.713957742332314" fill="#ff7d0b" stroke="none" /><line stroke="#e1ed5e" stroke-width="0.3" x1="172.23445277983987" x2="176.4835382374775" y1="55.19839476539836" y2="52.563006222186495" /><path d="M 173.08426987136738 54.67131705675599 a86.0,86.0 0 0,1 12.851231095245387,41.99856678651699" fill="none" id="id123" stroke="none" /><text fill="#e1ed5e" style="font-size:6.75px; font-family:Arial;" text-anchor="middle"><textPath startOffset="22.20632615414155" xlink:href="#id123">March</textPath></text><path d="M 117.84615892207809 88.93136811851018 l 39.65020089777175 -24.592041328378365 a67.65733519962674,67.65733519962674 0 0,0 0.6053211625744397,0.994988832789316 l -40.06763785863241 23.905884722381966" fill="#40ff2d" stroke="none" /><path d="M 118.3937258080291 89.86733742301442 l 25.717868844566187 -14.167357387017711 a50.36192761447711,50.36192761447711 0 0,0 0.41174928948341244,0.7629088995333024 l -25.957926233268065 13.72256750415195" fill="#ff840c" stroke="none" /><path d="M 118.73160827565052 90.50648371742162 l 28.290309399317806 -14.338038088845147 a52.71625674865027,52.71625674865027 0 0,0 0.4032542286308567,0.812935918013234 l -28.532923640902073 13.848942582332963" fill="#ffb410" stroke="none" /><path d="M 119.04729006885535 91.15688171328212 l 42.365398226868166 -19.66905667051761 a67.70865826834633,67.70865826834633 0 0,0 0.48169126984816474,1.061342862513024 l -42.69769181367968 18.93689179916252" fill="#3fff2d" stroke="none" /><path d="M 119.34039704204932 91.81776055985345 l 27.341853046848374 -11.567373093748467 a50.68806238752249,50.68806238752249 0 0,0 0.33304063539226375,0.8064843151486059 l -27.536915369126838 11.095014208146559" fill="#ff8b0c" stroke="none" /><path d="M 119.7369772167798 92.82701384747503 l 30.76247918664126 -11.179971218465894 a53.73105378924215,53.73105378924215 0 0,0 0.30843395233978804,0.8719843174272842 l -30.95036621979086 10.648789274611996" fill="#ffc912" stroke="none" /><path d="M 119.97218684219823 93.5106431181261 l 51.50462633637601 -16.734867543804643 a75.15516896620676,75.15516896620676 0 0,0 0.38917678531185135,1.2337967615854346 l -51.785058605456065 15.845820615792789" fill="#3cffa3" stroke="none" /><path d="M 120.18372546131832 94.20196356495316 l 30.143971772530318 -8.659246132192427 a52.36306072118909,52.36306072118909 0 0,0 0.2414017624499019,0.8684505794084394 l -30.288560305546582 8.139084249365036" fill="#ffad10" stroke="none" /><path d="M 120.37134235888165 94.90015583598534 l 33.45844414534797 -8.376122108480942 a55.490968472972064,55.490968472972064 0 0,0 0.2239911432509045,0.9285878967106989 l -33.59766808885969 7.798948980110837" fill="#ffeb16" stroke="none" /><path d="M 120.53481517161879 95.60439243477599 l 44.56532573404705 -9.539490923394922 a66.5748850229954,66.5748850229954 0 0,0 0.23022452498800255,1.1226565464173595 l -44.72292955495005 8.770958720814152" fill="#50ff2b" stroke="none" /><path d="M 120.73433829027371 96.67025291283417 l 36.8674952425205 -5.920586091356871 a58.33986536026128,58.33986536026128 0 0,0 0.1506949463494719,0.9928914125087525 l -36.96394608230927 5.285095566456036" fill="#ddff1b" stroke="none" /><path d="M 120.83666639777658 97.38593545837742 l 33.556990835371444 -4.209893185008646 a54.820035992801444,54.820035992801444 0 0,0 0.10940420746613613,0.9373084375463003 l -33.62448539584116 3.631641009137492" fill="#ffde14" stroke="none" /><path d="M 120.94382443527127 98.46500227214037 l 55.82925885754873 -4.091792583502653 a76.97900419916016,76.97900419916016 0 0,0 0.08548118490443007,1.3223560956035507 l -55.89142063345757 3.130177423646067" fill="#3fffc1" stroke="none" /><path d="M 120.98425023603335 99.18683210126433 l 29.82011662882822 -1.15556959654807 a50.84249816703326,50.84249816703326 0 0,0 0.026361364508617334,0.8748053508208992 l -29.835589687792485 0.6420940983021717" fill="#ff8e0d" stroke="none" /><line stroke="#e1ed5e" stroke-width="0.3" x1="184.98032266829074" x2="189.97916517819016" y1="98.17113171792111" y2="98.06355123074" /><path d="M 185.9800911702706 98.14961562048488 a86.0,86.0 0 0,1 -9.607161424134198,41.387399972396054" fill="none" id="id124" stroke="none" /><text fill="#e1ed5e" style="font-size:6.75px; font-family:Arial;" text-anchor="middle"><textPath startOffset="21.466115282336823" xlink:href="#id124">April</textPath></text><path d="M 120.99980553446 99.90962569577887 l 32.315970822131185 -0.13907430587811617 a53.31627007931747,53.31627007931747 0 0,0 -0.003949726946475408,0.9177774424383688 l -32.3135767978952 -0.4172126147639373" fill="#ffc111" stroke="none" /><path d="M 120.9904718944345 100.63252640178507 l 56.658277910081274 1.707339255545962 a77.68399653402653,77.68399653402653 0 0,0 -0.051781441098614045,1.33624890909407 l -56.62049433613146 -2.6823654116540383" fill="#41ffcd" stroke="none" /><path d="M 120.92983693683757 101.71520430193887 l 42.18611404185617 3.4571604406206387 a63.327534493101375,63.327534493101375 0 0,0 -0.09838506569594617,1.0856710016594695 l -42.12035437988315 -4.182812830828679" fill="#85ff25" stroke="none" /><path d="M 120.8583938346157 102.4346265915055 l 32.16648039415841 3.7545253552933273 a53.38485636206092,53.38485636206092 0 0,0 -0.1143922840650733,0.9118190555708983 l -32.09708660084649 -4.30766216515162" fill="#ffc212" stroke="none" /><path d="M 120.70491114924044 103.5080841355445 l 48.45820481372587 8.210393095564388 a70.1488368992868,70.1488368992868 0 0,0 -0.21196158414417818,1.1887931290633285 l -48.3096967872425 -9.043304975360934" fill="#32ff4a" stroke="none" /><path d="M 120.5718875245553 104.21870165774334 l 31.2287368107543 6.404114527434812 a52.87862427514497,52.87862427514497 0 0,0 -0.19052913984323064,0.8900887109308783 l -31.11387363218663 -6.9407170577818595" fill="#ffb811" stroke="none" /><path d="M 120.41448212921028 104.9243191809786 l 42.26767067966644 10.195678741482725 a64.47997067253216,64.47997067253216 0 0,0 -0.2695529466492676,1.0767300300633047 l -42.08590641872211 -10.921736610943425" fill="#72ff27" stroke="none" /><path d="M 120.23288151984713 105.62410040840565 l 45.28876701282052 12.588843205706524 a68.00586549356797,68.00586549356797 0 0,0 -0.32321362434245815,1.125149027980052 l -45.06536075159197 -13.36654970919116" fill="#3aff2e" stroke="none" /><path d="M 119.9155931802556 106.66101706037122 l 26.588637699161488 8.892899534708766 a49.03639272145571,49.03639272145571 0 0,0 -0.27462520959580056,0.7981894082965101 l -26.431621658622458 -9.349261646094577" fill="#ff6809" stroke="none" /><path d="M 119.67450827220406 107.3425965602758 l 28.980438344121954 10.815602807286643 a51.93288009064854,51.93288009064854 0 0,0 -0.3197723082335876,0.8348245916706272 l -28.789971756294857 -11.312850965790414" fill="#ffa50f" stroke="none" /><path d="M 119.41010516605496 108.01547362559984 l 43.538941490922 17.97956447022949 a68.10524561754315,68.10524561754315 0 0,0 -0.45678842956608356,1.0797129143734758 l -43.22300208016361 -18.72635191026913" fill="#39ff2e" stroke="none" /><path d="M 119.26925614724726 108.34839909993367 l 21.45309661486726 9.294547288268484 a44.379990668532955,44.379990668532955 0 0,0 -0.30972777581030575,0.6983543687074149 l -21.28992775432568 -9.662449993468586" fill="#ff0100" stroke="none" /><path d="M 118.97047184881838 109.00673069616215 l 29.51046583942917 14.010870190906028 a53.667599813370664,53.667599813370664 0 0,0 -0.4033931359926346,0.8311093412449554 l -29.26491944682182 -14.51676848811626" fill="#ffc812" stroke="none" /><path d="M 118.64920377521936 109.65438752849418 l 55.94761132565807 28.96316258548255 a84.0,84.0 0 0,0 -0.6757899671004277,1.2783399396554627 l -55.44076885033275 -29.921917540224147" fill="#4dd2ff" stroke="none" /><line stroke="#e1ed5e" stroke-width="0.3" x1="174.80103733775053" x2="179.2010983576182" y1="140.37084112569926" y2="142.7455964860345" /><path d="M 175.68104954172406 140.8457921977663 a86.0,86.0 0 0,1 -30.038265399797805,32.042727171017184" fill="none" id="id125" stroke="none" /><text fill="#e1ed5e" style="font-size:6.75px; font-family:Arial;" text-anchor="middle"><textPath startOffset="22.206326154141568" xlink:href="#id125">May</textPath></text><path d="M 118.30583269289576 110.29060199501025 l 27.560631131582305 15.493175889041614 a52.61687662467506,52.61687662467506 0 0,0 -0.45062096331639667,0.7856956324961725 l -27.28985817211353 -15.965291367396102" fill="#ffb210" stroke="none" /><path d="M 117.75023020441432 111.22182372390056 l 31.67545912569385 20.025454013196658 a58.4747050589882,58.4747050589882 0 0,0 -0.545193469810061,0.8461523723042979 l -31.326060792506738 -20.567727985422408" fill="#dbff1b" stroke="none" /><path d="M 117.35343817320211 111.8261652097733 l 27.173905717684995 18.518699015415173 a53.884089848696924,53.884089848696924 0 0,0 -0.5289341618954443,0.7619691099842986 l -26.851110648627415 -18.98370938758649" fill="#ffcc13" stroke="none" /><path d="M 116.93607887273984 112.41649034213515 l 46.13217955959707 33.821273877352716 a78.20189295474239,78.20189295474239 0 0,0 -0.8052513464085476,1.0787657708085767 l -45.543166946493436 -34.61035252767061" fill="#42ffd5" stroke="none" /><path d="M 116.498646956653 112.99209946851258 l 18.328164318972874 14.432779520221038 a44.32866759981337,44.32866759981337 0 0,0 -0.47723417746629304,0.595423014498523 l -18.077012229451725 -14.74613036829781" fill="#ff0000" stroke="none" /><path d="M 116.0416608686014 113.55231037782055 l 25.104812554434563 21.209039045367014 a53.86449376791308,53.86449376791308 0 0,0 -0.6044557821231821,0.7031186325645777 l -24.7360142627406 -21.63803477709312" fill="#ffcb13" stroke="none" /><path d="M 115.32070863581623 114.36230785411682 l 34.0667831096253 31.93570468901477 a67.69512764113844,67.69512764113844 0 0,0 -0.8042614690489912,0.843264934902887 l -33.51201508919734 -32.51737674050017" fill="#3fff2d" stroke="none" /><line stroke="#e1ed5e" stroke-width="0.3" x1="143.8653032363475" x2="146.44561519142675" y1="172.8068346515853" y2="177.08958963109032" /><path d="M 144.38136562736335 173.6633856474863 a86.0,86.0 0 0,1 -40.68145358897372,12.25698825130547" fill="none" id="id126" stroke="none" /><text fill="#e1ed5e" style="font-size:6.75px; font-family:Arial;" text-anchor="middle"><textPath startOffset="21.466115282336833" xlink:href="#id126">June</textPath></text><line stroke="#e1ed5e" stroke-width="0.3" x1="102.19456741930631" x2="102.32365962044197" y1="184.97166512339345" y2="189.96999836594603" /><path d="M 102.22038585953345 185.97133177190398 a86.0,86.0 0 0,1 -42.740103519485714,-10.115201625700543" fill="none" id="id127" stroke="none" /><text fill="#e1ed5e" style="font-size:6.75px; font-family:Arial;" text-anchor="middle"><textPath startOffset="22.20632615414155" xlink:href="#id127">July</textPath></text><line stroke="#e1ed5e" stroke-width="0.3" x1="58.666819895761336" x2="56.23545636021788" y1="174.27360380694188" y2="178.64263932499728" /><path d="M 58.180547188652646 175.14741091055294 a86.0,86.0 0 0,1 -31.652253787137756,-30.449443065178592" fill="none" id="id128" stroke="none" /><text fill="#e1ed5e" style="font-size:6.75px; font-family:Arial;" text-anchor="middle"><textPath startOffset="22.20632615414155" xlink:href="#id128">August</textPath></text><line stroke="#e1ed5e" stroke-width="0.3" x1="26.63291911575756" x2="22.317208475507996" y1="142.92168965132927" y2="145.44649492493687" /><path d="M 25.769776987707644 143.4266507060508 a86.0,86.0 0 0,1 -11.730757126820373,-40.83630448921669" fill="none" id="id129" stroke="none" /><text fill="#e1ed5e" style="font-size:6.75px; font-family:Arial;" text-anchor="middle"><textPath startOffset="21.46611528233685" xlink:href="#id129">September</textPath></text><line stroke="#e1ed5e" stroke-width="0.3" x1="15.007084014347285" x2="10.007500721073583" y1="101.09737516637583" y2="101.16192664675087" /><path d="M 14.007167355692545 101.11028546245083 a86.0,86.0 0 0,1 10.666146001902534,-42.60595125391555" fill="none" id="id130" stroke="none" /><text fill="#e1ed5e" style="font-size:6.75px; font-family:Arial;" text-anchor="middle"><textPath startOffset="22.20632615414155" xlink:href="#id130">October</textPath></text><line stroke="#e1ed5e" stroke-width="0.3" x1="26.266209847984243" x2="21.928928074336255" y1="57.711370442889674" y2="55.22380399835377" /><path d="M 25.398753493254645 57.213857153982495 a86.0,86.0 0 0,1 29.58750427330803,-30.492523968695096" fill="none" id="id131" stroke="none" /><text fill="#e1ed5e" style="font-size:6.75px; font-family:Arial;" text-anchor="middle"><textPath startOffset="21.46611528233685" xlink:href="#id131">November</textPath></text><line stroke="#e1ed5e" stroke-width="0.3" x1="56.762969772571076" x2="54.21961505331055" y1="26.818313649435495" y2="22.513508569990535" /><path d="M 56.25429882871897 25.957352633546506 a86.0,86.0 0 0,1 42.265352541879196,-11.944610805530505" fill="none" id="id132" stroke="none" /><text fill="#e1ed5e" style="font-size:6.75px; font-family:Arial;" text-anchor="middle"><textPath startOffset="22.20632615414155" xlink:href="#id132">December</textPath></text></svg>