<?xml version="1.0" encoding="utf-8" ?>
<svg baseProfile="full" height="200mm" version="1.1" viewBox="0,0,200,200" width="200mm" xmlns="http://www.w3.org/2000/svg" xmlns:ev="http://www.w3.org/2001/xml-events" xmlns:xlink="http://www.w3.org/1999/xlink"><defs /><rect fill="#1a1a1a" height="200" width="200" x="0" y="0" /><text alignment-baseline="middle" fill="#e1ed5e" style="dominant-baseline: central; font-size:9.0px; font-family:Arial;" text-anchor="middle" x="100.0" y="100.0">2023</text><line stroke="#e1ed5e" stroke-width="0.3" x1="100.0" x2="100.0" y1="15.0" y2="10.0" /><path d="M 100.0 14.0 a86.0,86.0 0 0,1 42.46469731375804,11.215312516191453" fill="none" id="id97" stroke="none" /><text fill="#e1ed5e" style="font-size:6.75px; font-family:Arial;" text-anchor="middle"><textPath startOffset="22.20632615414155" xlink:href="#id97">January</textPath></text><path d="M 101.80526077348638 79.07773832637324 l 0.7246612020274936 -8.398538048474665 a29.4297434841993,29.4297434841993 0 0,0 0.5043345331496637,0.047892640887166334 l -0.8691208622674015 8.38481986307232" fill="#ff0000" stroke="none" /><path d="M 102.52436894288641 79.15227682838746 l 1.0599402329744474 -8.753609735920499 a29.817548225344733,29.817548225344733 0 0,0 0.5090072319425285,0.06608374731151256 l -1.2104621934248219 8.734067665444849" fill="#ff0601" stroke="none" /><path d="M 103.59715602781102 79.31037775812273 l 2.215454254597443 -12.742541960203472 a33.933700675435475,33.933700675435475 0 0,0 0.5746185485342211,0.10500786687529967 l -2.434467924234565 12.702518611977434" fill="#ff4906" stroke="none" /><path d="M 106.74666289553966 80.11325718540242 l 4.560122808896549 -13.441606748050242 a35.19406608415814,35.19406608415814 0 0,0 0.5720175287956936,0.19956568393821428 l -4.790822341755516 13.36112021093982" fill="#ff5d08" stroke="none" /><path d="M 107.4271985657038 80.35727306442388 l 4.983936919920051 -13.181027963111822 a35.09181057870414,35.09181057870414 0 0,0 0.5631681397936225,0.21850048889792664 l -5.210088224713341 13.093284770323349" fill="#ff5b08" stroke="none" /><path d="M 108.09893153111575 80.62456947434976 l 9.815637713240289 -23.482382317614082 a46.45130690216476,46.45130690216476 0 0,0 0.7350725597836278,0.3147197082278702 l -10.218394030814231 23.30994308142342" fill="#fcff18" stroke="none" /><path d="M 108.76106565485865 80.91482961587045 l 6.7279171603945 -14.656144628391074 a37.12660673190263,37.12660673190263 0 0,0 0.5785064125328365,0.2716165176082688 l -6.979201784226935 14.538163128142802" fill="#ff7b0b" stroke="none" /><path d="M 109.73455568895987 81.39251694778311 l 12.263906419431324 -23.4423057553976 a47.456475573933055,47.456475573933055 0 0,0 0.7205586814788935,0.38489749311860366 l -12.665610147438528 23.227729535777243" fill="#eeff19" stroke="none" /><line stroke="#e1ed5e" stroke-width="0.3" x1="143.23703022742887" x2="145.7803849466894" y1="26.81831364943548" y2="22.513508569990506" /><path d="M 143.74570117128098 25.957352633546492 a86.0,86.0 0 0,1 28.547481713284135,27.462654790039103" fill="none" id="id98" stroke="none" /><text fill="#e1ed5e" style="font-size:6.75px; font-family:Arial;" text-anchor="middle"><textPath startOffset="19.985693538727396" xlink:href="#id98">February</textPath></text><path d="M 110.99172775467656 82.1063720568725 l 7.294896310701645 -11.875490676327226 a34.937101240481226,34.937101240481226 0 0,0 0.5097170805578425,0.3191847890837861 l -7.498232543631751 11.748161545920496" fill="#ff5908" stroke="none" /><path d="M 111.90073688211348 82.69761687909136 l 8.559826609068192 -12.44506125173182 a36.10464104627014,36.10464104627014 0 0,0 0.509021901443359,0.3566023714077993 l -8.772779650095202 12.295874037560086" fill="#ff6b09" stroke="none" /><path d="M 112.48926042617603 83.11751280151076 l 10.082167948580668 -13.628674998896422 a37.952607255786106,37.952607255786106 0 0,0 0.5218553009526543,0.39305059348254695 l -10.315269403291706 13.453107815908028" fill="#ff870c" stroke="none" /><path d="M 113.06298171725822 83.55741782278167 l 10.303898235291058 -12.969680058239268 a37.56450783018691,37.56450783018691 0 0,0 0.5028216897934811,0.40658017090834975 l -10.52562332364903 12.790393790066789" fill="#ff820b" stroke="none" /><path d="M 113.6212207817346 84.01681056812373 l 17.31565866893539 -20.318256129760833 a47.69575935038449,47.69575935038449 0 0,0 0.6202860788972184,0.5379059752191471 l -17.662838546479374 20.017185161122015" fill="#ebff1a" stroke="none" /><path d="M 114.42810811169701 84.74124197986012 l 11.443252247176387 -12.102059095435283 a37.65556532639812,37.65556532639812 0 0,0 0.46713836851304424,0.4493867403963043 l -11.649873859301849 11.903289268276676" fill="#ff830c" stroke="none" /><path d="M 114.94478906791727 85.2469230424477 l 14.081256131756296 -13.900621442478284 a40.786587647576106,40.786587647576106 0 0,0 0.48892579392858326,0.5038810084340323 l -14.318446189387988 13.656176238494139" fill="#ffb210" stroke="none" /><path d="M 115.4437574822437 85.77008943001954 l 21.730976543695217 -20.022967413899117 a50.54918891612252,50.54918891612252 0 0,0 0.584099150104692,0.6449768702790493 l -22.072419334415947 19.64593775635052" fill="#c5ff1e" stroke="none" /><path d="M 115.9244219780498 86.31012108654704 l 14.67937214661352 -12.61953667703948 a40.35811645181208,40.35811645181208 0 0,0 0.4483390584694629,0.5306920318092487 l -14.8944218185701 12.364985695601126" fill="#ffab0f" stroke="none" /><path d="M 116.38621287248628 86.86637796730983 l 18.84895823614494 -15.107523325243394 a45.15616872789867,45.15616872789867 0 0,0 0.4809044224764279,0.6106997799363416 l -19.106216739215334 14.780831151354013" fill="#fff016" stroke="none" /><path d="M 116.82858285166822 87.43820079747576 l 11.955734081626538 -8.92443125936064 a35.9192845248564,35.9192845248564 0 0,0 0.36558543022488266,0.4986581159735699 l -12.107582124365047 8.717310699715576" fill="#ff6809" stroke="none" /><path d="M 117.2510076193507 88.02491185347247 l 31.207275159250223 -21.663074939794516 a58.989246356203346,58.989246356203346 0 0,0 0.5718460641315628,0.8391135370149542 l -31.575545689050518 21.122683379509155" fill="#5cff2a" stroke="none" /><path d="M 117.65298651832404 88.62581576622439 l 12.563471999127737 -8.09490479050832 a35.94551144124085,35.94551144124085 0 0,0 0.3306514690129999,0.5230112178565265 l -12.700951064386693 7.877445924937588" fill="#ff6909" stroke="none" /><line stroke="#e1ed5e" stroke-width="0.3" x1="172.23445277983987" x2="176.4835382374775" y1="55.19839476539836" y2="52.563006222186495" /><path d="M 173.08426987136738 54.67131705675599 a86.0,86.0 0 0,1 12.851231095245387,41.99856678651699" fill="none" id="id99" stroke="none" /><text fill="#e1ed5e" style="font-size:6.75px; font-family:Arial;" text-anchor="middle"><textPath startOffset="22.20632615414155" xlink:href="#id99">March</textPath></text><path d="M 118.03404312379186 89.2402003453031 l 18.436246791042784 -10.99976974073351 a42.468351825172604,42.468351825172604 0 0,0 0.3691517508036037,0.631000004421518 l -18.622858216316715 10.680790323958098" fill="#ffca12" stroke="none" /><path d="M 118.3937258080291 89.86733742301442 l 34.216573358767256 -18.84908995619157 a60.06484461241978,60.06484461241978 0 0,0 0.49107844484066215,0.9098937763996022 l -34.53595990282638 18.257315196459512" fill="#50ff2b" stroke="none" /><path d="M 118.73160827565052 90.50648371742162 l 17.995970246002628 -9.120681686115873 a41.175276442082804,41.175276442082804 0 0,0 0.31497123210933436,0.6349627841273139 l -18.15030149106537 8.80955931348961" fill="#ffb811" stroke="none" /><path d="M 119.04729006885535 91.15688171328212 l 22.046025681413283 -10.235346453379952 a45.306163114861455,45.306163114861455 0 0,0 0.32231599031623676,0.7101805600582821 l -22.218943988692867 9.854343884479608" fill="#fff316" stroke="none" /><path d="M 119.47837535516314 92.15188598940014 l 15.496564223824162 -6.243785766707557 a37.70713510580575,37.70713510580575 0 0,0 0.23738697506998524,0.6041239585179736 l -15.601744748775848 5.976112803293799" fill="#ff840c" stroke="none" /><path d="M 119.85752413597 93.16781622104841 l 19.202504863574628 -6.606817715331704 a41.30729507736636,41.30729507736636 0 0,0 0.22554315431137467,0.6743453237164706 l -19.313385311657772 6.275299288692919" fill="#ffb911" stroke="none" /><path d="M 120.18372546131832 94.20196356495316 l 19.016345789263756 -5.462691511480723 a40.785408909761074,40.785408909761074 0 0,0 0.18802700715835227,0.6764331861288453 l -19.10755956698847 5.134547021932926" fill="#ffb210" stroke="none" /><path d="M 120.37134235888165 94.90015583598534 l 24.553323917465846 -6.1467783262233535 a46.31103710217599,46.31103710217599 0 0,0 0.18693604438898828,0.7749705892797059 l -24.655492762115653 5.723222505284242" fill="#feff18" stroke="none" /><path d="M 120.53481517161879 95.60439243477599 l 25.210830065741693 -5.396538241829981 a46.78194285928116,46.78194285928116 0 0,0 0.16177798232882765,0.7888868961163669 l -25.299987343985517 4.961775689550203" fill="#f7ff18" stroke="none" /><path d="M 120.67395015179393 96.31383870115 l 25.175670208421582 -4.48881711107549 a46.572716897113025,46.572716897113025 0 0,0 0.13392569892201478,0.7904370561368664 l -25.24920776886382 4.054794266622786" fill="#faff18" stroke="none" /><path d="M 120.87857604477298 97.74499172005257 l 24.445126071692695 -2.640216534777823 a45.58729208374652,45.58729208374652 0 0,0 0.07754805264739088,0.7808983072117919 l -24.486951250022315 2.2190426968615964" fill="#fff617" stroke="none" /><path d="M 120.94382443527127 98.46500227214037 l 19.052112787072637 -1.3963519379885017 a40.10321439931147,40.10321439931147 0 0,0 0.0445325361245313,0.6888986232794653 l -19.073325914201586 1.0681942504560011" fill="#ffa80f" stroke="none" /><path d="M 120.98425023603335 99.18683210126433 l 26.19929597896882 -1.015257930111259 a47.21895990420416,47.21895990420416 0 0,0 0.024482593472553316,0.8124580867109985 l -26.21289026689702 0.5641296959752613" fill="#f1ff19" stroke="none" /><line stroke="#e1ed5e" stroke-width="0.3" x1="184.98032266829074" x2="189.97916517819016" y1="98.17113171792111" y2="98.06355123074" /><path d="M 185.9800911702706 98.14961562048488 a86.0,86.0 0 0,1 -9.607161424134198,41.387399972396054" fill="none" id="id100" stroke="none" /><text fill="#e1ed5e" style="font-size:6.75px; font-family:Arial;" text-anchor="middle"><textPath startOffset="21.466115282336823" xlink:href="#id100">April</textPath></text><path d="M 120.95626037817324 101.35467743843564 l 25.705893848545777 1.6617084252167535 a46.75954684079555,46.75954684079555 0 0,0 -0.05883562584904361,0.8027653695878274 l -25.673481664032398 -2.1039469313013512" fill="#f7ff18" stroke="none" /><path d="M 120.89721153311464 102.0752229133903 l 37.234704449671156 3.697637444346457 a58.41785320036672,58.41785320036672 0 0,0 -0.10798317202322127,0.9997900622764814 l -37.165538976146884 -4.33802382850773" fill="#63ff29" stroke="none" /><path d="M 120.81339534386255 102.79330883721812 l 23.663471815374407 3.1758098017697276 a44.87562912792112,44.87562912792112 0 0,0 -0.1093382928836729,0.7647117657692576 l -23.605299471474133 -3.5826670395193942" fill="#ffed16" stroke="none" /><path d="M 120.70491114924044 103.5080841355445 l 26.167227526812187 4.4335778645135955 a47.5401659588003,47.5401659588003 0 0,0 -0.14364726961291777,0.8056501738937133 l -26.087033814860078 -4.8833467891405276" fill="#edff1a" stroke="none" /><path d="M 120.5718875245553 104.21870165774334 l 25.066683482043555 5.140454857805308 a46.58833517316219,46.58833517316219 0 0,0 -0.16786434119548366,0.7842063171485931 l -24.97448510212363 -5.57117499437007" fill="#faff18" stroke="none" /><path d="M 120.41448212921028 104.9243191809786 l 24.60102272078216 5.934183747051746 a46.306616835369624,46.306616835369624 0 0,0 -0.19358081101996702,0.7732591131359994 l -24.495230595467135 -6.356770699585141" fill="#feff18" stroke="none" /><path d="M 120.23288151984713 105.62410040840565 l 24.552531880065587 6.824826431105061 a46.483427507624384,46.483427507624384 0 0,0 -0.22092325371581628,0.7690628285927987 l -24.43141598946367 -7.246446735202442" fill="#fbff18" stroke="none" /><path d="M 119.9155931802556 106.66101706037122 l 24.582512685300074 8.221926151108207 a46.92103392145491,46.92103392145491 0 0,0 -0.262778276704133,0.7637566758869607 l -24.437343577652708 -8.643855530084467" fill="#f5ff19" stroke="none" /><path d="M 119.54520255179757 107.68017299344265 l 24.18237472157453 9.50232266776206 a46.98232828783655,46.98232828783655 0 0,0 -0.3022471298946513,0.7501525892918124 l -24.015224977422484 -9.917174624896685" fill="#f4ff19" stroke="none" /><path d="M 119.26925614724726 108.34839909993367 l 23.396425300719176 10.13649382361303 a46.49786704585851,46.49786704585851 0 0,0 -0.3245084265024055,0.7316808340402754 l -23.2184757894855 -10.537722994145993" fill="#fbff18" stroke="none" /><path d="M 118.81262510543309 109.33194174019688 l 22.420927219902953 11.121828315012923 a46.02784534211462,46.02784534211462 0 0,0 -0.3581872244133453,0.7067373749983151 l -22.22616132570334 -11.506119901713934" fill="#fffd17" stroke="none" /><line stroke="#e1ed5e" stroke-width="0.3" x1="174.80103733775053" x2="179.2010983576182" y1="140.37084112569926" y2="142.7455964860345" /><path d="M 175.68104954172406 140.8457921977663 a86.0,86.0 0 0,1 -30.038265399797805,32.042727171017184" fill="none" id="id101" stroke="none" /><text fill="#e1ed5e" style="font-size:6.75px; font-family:Arial;" text-anchor="middle"><textPath startOffset="22.206326154141568" xlink:href="#id101">May</textPath></text><path d="M 118.48025628344425 109.97397251340804 l 18.14762757566508 9.7944495924228 a41.62201807397983,41.62201807397983 0 0,0 -0.34570770658751077,0.6275599050476868 l -17.976343459626058 -10.105380015868294" fill="#ffbe11" stroke="none" /><path d="M 118.12598468904814 110.60418214915192 l 18.2242503365803 10.661670161158527 a42.11384642730181,42.11384642730181 0 0,0 -0.3714423693449611,0.6225587763473214 l -18.038027091537113 -10.973791031391952" fill="#ffc512" stroke="none" /><path d="M 117.35343817320211 111.8261652097733 l 24.19357666544393 16.487639613842635 a50.277489849757714,50.277489849757714 0 0,0 -0.49353124513304575,0.7109685679137613 l -23.90618451314875 -16.901649443943416" fill="#c8ff1d" stroke="none" /><path d="M 116.93607887273984 112.41649034213515 l 19.51236108231368 14.305261846693755 a45.1944777068872,45.1944777068872 0 0,0 -0.4653712672244852,0.623440862332791 l -19.263228548394107 -14.63901558853586" fill="#fff116" stroke="none" /><path d="M 116.498646956653 112.99209946851258 l 11.67549300275054 9.194036749449301 a35.86093700301233,35.86093700301233 0 0,0 -0.3860721673004941,0.481684390016837 l -11.515502923395193 -9.393648973044389" fill="#ff6709" stroke="none" /><path d="M 114.81725581225074 114.88116024355365 l 11.532741466531794 11.582480317917009 a37.344967912137264,37.344967912137264 0 0,0 -0.45943210660119516,0.4496510139497028 l -11.331659407554804 -11.779281434789283" fill="#ff7e0b" stroke="none" /><path d="M 113.75828350139079 115.86535959552629 l 13.762402208446794 15.87010908106389 a42.006286601680166,42.006286601680166 0 0,0 -0.5503514116629161,0.4690214126380293 l -13.48718532020683 -16.104654883924866" fill="#ffc412" stroke="none" /><path d="M 112.92097659922987 116.55440617244103 l 15.291909443969475 19.592054682828373 a45.85339214548992,45.85339214548992 0 0,0 -0.6263819479839591,0.48028296741759996 l -14.952398767492022 -19.852376992073346" fill="#fffa17" stroke="none" /><path d="M 112.04921762599082 117.19931262002967 l 15.201634457031599 21.699140265997272 a47.494195184014075,47.494195184014075 0 0,0 -0.6736104312350288,0.46331539691129864 l -14.825867141173687 -21.957596452273666" fill="#edff19" stroke="none" /><path d="M 111.1453310114006 117.79835938074945 l 12.828224487082226 20.485829393893194 a45.170902950586566,45.170902950586566 0 0,0 -0.6625513174580815,0.4069931334298582 l -12.473693969691835 -20.70361099415143" fill="#fff116" stroke="none" /><line stroke="#e1ed5e" stroke-width="0.3" x1="143.8653032363475" x2="146.44561519142675" y1="172.8068346515853" y2="177.08958963109032" /><path d="M 144.38136562736335 173.6633856474863 a86.0,86.0 0 0,1 -40.68145358897372,12.25698825130547" fill="none" id="id102" stroke="none" /><text fill="#e1ed5e" style="font-size:6.75px; font-family:Arial;" text-anchor="middle"><textPath startOffset="21.466115282336833" xlink:href="#id102">June</textPath></text><path d="M 110.21172684928248 118.3499491758327 l 19.033568261307412 34.20234553710902 a60.1417572548506,60.1417572548506 0 0,0 -0.9089343717534658,0.49562349107364473 l -18.442011077685297 -34.52490967994243" fill="#4fff2b" stroke="none" /><path d="M 109.57404056367764 118.69057910512821 l 11.23006637431357 21.923496409787667 a45.63237880517148,45.63237880517148 0 0,0 -0.7021868997157708,0.3520910886784065 l -10.851025566915038 -22.113555339375374" fill="#fff717" stroke="none" /><path d="M 108.92500713936063 119.00905698771935 l 9.33270831867376 19.877405307279222 a42.95929612513331,42.95929612513331 0 0,0 -0.672071602686237,0.3085151097627334 l -8.989168720220103 -20.03510748737603" fill="#ffd113" stroke="none" /><path d="M 107.93186726928326 119.44442032107085 l 9.282809094872828 22.756160141504317 a45.57668344341123,45.57668344341123 0 0,0 -0.7289641615501644,0.2900698839865516 l -8.889723857280798 -22.912576869896938" fill="#fff617" stroke="none" /><path d="M 106.91757812671514 119.82793768551818 l 6.661729855306375 19.094596696878074 a41.22331000804535,41.22331000804535 0 0,0 -0.6719993678221738,0.2279786711670047 l -6.3320607545469745 -19.206438354943202" fill="#ffb811" stroke="none" /><path d="M 106.2309692047433 120.05430185196036 l 6.454049257380054 20.772282404540032 a42.751838269687724,42.751838269687724 0 0,0 -0.7046419578010543,0.2123028416193381 l -6.095532325138753 -20.880300615265096" fill="#ffce13" stroke="none" /><path d="M 104.48393922423573 120.51570834832081 l 4.9609665303334385 22.698287682400405 a44.234101072090105,44.234101072090105 0 0,0 -0.7452572693000659,0.1561759067825321 l -4.569517799603994 -22.78031956990948" fill="#ffe315" stroke="none" /><path d="M 103.7750983002368 120.6578951692458 l 3.731147191337858 20.417388213400518 a41.755510131532176,41.755510131532176 0 0,0 -0.7081556133359249,0.12312193056785717 l -3.379142606529883 -20.47858872248938" fill="#ffc011" stroke="none" /><path d="M 103.06178313531738 120.77559828337769 l 3.784894312209015 25.682238192661757 a46.95963758489718,46.95963758489718 0 0,0 -0.8007096946371428,0.11097106759335398 l -3.342256026385042 -25.743583825747713" fill="#f5ff19" stroke="none" /><path d="M 101.26447882468166 120.96189622390904 l 1.5479615533108066 25.661330823211777 a46.707977061387915,46.707977061387915 0 0,0 -0.8029589056871684,0.04150380370057809 l -1.1060145792101586 -25.684174433674556" fill="#f8ff18" stroke="none" /><line stroke="#e1ed5e" stroke-width="0.3" x1="102.19456741930631" x2="102.32365962044197" y1="184.97166512339345" y2="189.96999836594603" /><path d="M 102.22038585953345 185.97133177190398 a86.0,86.0 0 0,1 -42.740103519485714,-10.115201625700543" fill="none" id="id103" stroke="none" /><text fill="#e1ed5e" style="font-size:6.75px; font-family:Arial;" text-anchor="middle"><textPath startOffset="22.20632615414155" xlink:href="#id103">July</textPath></text><path d="M 100.54218724476979 120.99299961872073 l 0.3665675545822315 14.193164091950411 a35.19789698205699,35.19789698205699 0 0,0 -0.6058066095390764,0.010429510176030821 l -0.12220125515048716 -14.197371079405603" fill="#ff5d08" stroke="none" /><path d="M 99.81925306533755 120.99922214144158 l -0.16294007956365644 18.93041745295091 a39.931118678316835,39.931118678316835 0 0,0 -0.6872721865725484,-0.01183201396401898 l 0.48877195602887274 -18.924807961707728" fill="#ffa50f" stroke="none" /><path d="M 99.09653310690486 120.98055641714683 l -0.5198226684943049 12.071464827995786 a33.08265197298258,33.08265197298258 0 0,0 -0.5687253376557497,-0.029396603744508466 l 0.7275360745635435 -12.060728417489075" fill="#ff3c05" stroke="none" /><path d="M 98.37488393609728 120.93702456842531 l -1.0621923029982154 13.684651107846763 a34.72581248713679,34.72581248713679 0 0,0 -0.5955570803944782,-0.05138717086993823 l 1.2975937011342353 -13.664339684698161" fill="#ff5607" stroke="none" /><path d="M 97.65516085044442 120.86867818915974 l -2.1119214732596157 18.7957496336515 a39.91402697999888,39.91402697999888 0 0,0 -0.6820976056527891,-0.08259252089800108 l 2.435146501963794 -18.75661158402815" fill="#ffa50f" stroke="none" /><path d="M 96.93821686468263 120.77559828337769 l -2.0077860454728387 13.623746188474424 a34.77089920856176,34.77089920856176 0 0,0 -0.5913770565419646,-0.09236093394841692 l 2.24199896562332 -13.587166947178902" fill="#ff5608" stroke="none" /><path d="M 96.22490169976321 120.6578951692458 l -3.41340663146329 18.67866496571866 a39.98799277789212,39.98799277789212 0 0,0 -0.6760491649726128,-0.12956643147757155 l 3.734423411007598 -18.61714133589262" fill="#ffa60f" stroke="none" /><path d="M 95.51606077576429 120.51570834832081 l -5.008094579788294 22.91391623338867 a44.4548197279548,44.4548197279548 0 0,0 -0.7461632484036538,-0.16982432603769643 l 5.40177797758481 -22.824315173773286" fill="#ffe715" stroke="none" /><path d="M 94.81253420990036 120.34920634021253 l -4.025049114979834 15.789319541448238 a37.294282186090896,37.294282186090896 0 0,0 -0.6207003834535235,-0.1639326127280725 l 4.296239941244846 -15.717695579416583" fill="#ff7d0b" stroke="none" /><path d="M 94.11515582081647 120.15858648285463 l -4.209826623719724 14.420798833088568 a36.02271876812543,36.02271876812543 0 0,0 -0.5937316406832976,-0.17888647288296247 l 4.457433238843268 -14.34619699109988" fill="#ff6a09" stroke="none" /><path d="M 93.42475214034765 119.94407469862007 l -4.451089845980445 13.501067986081503 a35.21587273373623,35.21587273373623 0 0,0 -0.5740694817994567,-0.19475553681295027 l 4.682829060717127 -13.42244946237043" fill="#ff5d08" stroke="none" /><path d="M 91.07499286063937 119.00905698771935 l -6.963023489536827 14.830297416312877 a37.383571575579545,37.383571575579545 0 0,0 -0.5801348762565527,-0.2784999953415208 l 7.2172710337936214 -14.708243144471794" fill="#ff7f0b" stroke="none" /><path d="M 90.42595943632237 118.69057910512821 l -8.780353729477119 17.14113230044232 a40.25910247534941,40.25910247534941 0 0,0 -0.6140646085224998,-0.3212495806932615 l 9.074109240526115 -16.98745330080434" fill="#ffaa0f" stroke="none" /><line stroke="#e1ed5e" stroke-width="0.3" x1="58.666819895761336" x2="56.23545636021788" y1="174.27360380694188" y2="178.64263932499728" /><path d="M 58.180547188652646 175.14741091055294 a86.0,86.0 0 0,1 -31.652253787137756,-30.449443065178592" fill="none" id="id104" stroke="none" /><text fill="#e1ed5e" style="font-size:6.75px; font-family:Arial;" text-anchor="middle"><textPath startOffset="22.20632615414155" xlink:href="#id104">August</textPath></text><path d="M 89.4739219176387 118.17145234162733 l -7.404315145554569 12.782268831474568 a35.77194229797744,35.77194229797744 0 0,0 -0.5301608456594946,-0.3132283724560811 l 7.623243862242446 -12.652921886724737" fill="#ff6609" stroke="none" /><path d="M 88.8546689885994 117.79835938074946 l -10.333521674536364 16.501953351051664 a40.47039122869384,40.47039122869384 0 0,0 -0.5872411755077896,-0.3748051025636489 l 10.616044652091077 -16.32163381966421" fill="#ffad10" stroke="none" /><path d="M 88.24862548938628 117.40417183066458 l -12.937076699550643 19.16023573770925 a44.11887945067076,44.11887945067076 0 0,0 -0.6257383096445204,-0.430388515160032 l 13.264971893818053 -18.934706433184115" fill="#ffe215" stroke="none" /><path d="M 87.65650970185807 116.9893568818739 l -11.967333360931262 16.47162127423732 a41.36004359458903,41.36004359458903 0 0,0 -0.5723738234633791,-0.4234284710726752 l 12.249092154813205 -16.26318285442488" fill="#ffba11" stroke="none" /><path d="M 87.07902340077011 116.55440617244103 l -12.304748011068956 15.764891675209153 a40.99846576982805,40.99846576982805 0 0,0 -0.5525861212492239,-0.4390078347359934 l 12.574291625035539 -15.550749926468027" fill="#ffb510" stroke="none" /><path d="M 86.24171649860922 115.8653595955263 l -14.113007146589133 16.2744090374526 a42.541433569704566,42.541433569704566 0 0,0 -0.5491038517802297,-0.4845203059859439 l 14.39105335127595 -16.029065589694365" fill="#ffcb13" stroke="none" /><path d="M 85.70375840098266 115.38237550388516 l -11.37196780850979 12.235934727111452 a37.704482945721935,37.704482945721935 0 0,0 -0.4716007882220821,-0.4459279811010041 l 11.580904431122688 -12.038372109264518" fill="#ff840c" stroke="none" /><path d="M 85.18274418774928 114.88116024355367 l -13.142077256943134 13.198756913681583 a39.62582558422363,39.62582558422363 0 0,0 -0.4792071379537091,-0.4854343007336053 l 13.367325019952375 -12.970582118967314" fill="#ffa10e" stroke="none" /><path d="M 84.67929136418377 114.36230785411682 l -16.796466643456345 15.745748485208503 a44.02281231874567,44.02281231874567 0 0,0 -0.5135021908384106,-0.5573052102406889 l 17.06501524229048 -15.45429202016647" fill="#ffe015" stroke="none" /><path d="M 83.95833913139862 113.55231037782056 l -13.971660221314796 11.803533148074575 a39.290179991393344,39.290179991393344 0 0,0 -0.4320123678531268,-0.5203867271704857 l 14.172768589061459 -11.561285163790327" fill="#ff9c0e" stroke="none" /><path d="M 83.06392112726016 112.41649034213515 l -15.814654225320409 11.594330832325124 a40.60948229086759,40.60948229086759 0 0,0 -0.4084544419521973,-0.5673074954365561 l 16.011888459648212 -11.320389731437428" fill="#ffaf10" stroke="none" /><path d="M 82.6465618267979 111.8261652097733 l -13.646266232736242 9.299770878493913 a37.513822104140544,37.513822104140544 0 0,0 -0.35905532129078804,-0.5367389880639978 l 13.80432465943776 -9.063494976224094" fill="#ff810b" stroke="none" /><path d="M 82.24976979558568 111.22182372390057 l -13.56573971817432 8.576358618932726 a37.04939940501806,37.04939940501806 0 0,0 -0.3361533650343303,-0.5419862579969117 l 13.711357722876608 -8.34157602957055" fill="#ff7a0b" stroke="none" /><path d="M 82.05923443525364 110.91462005526583 l -11.501700033551963 6.997287011126087 a34.462953954384716,34.462953954384716 0 0,0 -0.30396181677539497,-0.509457488766598 l 11.620442726025589 -6.798267428473378" fill="#ff5107" stroke="none" /><line stroke="#e1ed5e" stroke-width="0.3" x1="26.63291911575756" x2="22.317208475507996" y1="142.92168965132927" y2="145.44649492493687" /><path d="M 25.769776987707644 143.4266507060508 a86.0,86.0 0 0,1 -11.730757126820373,-40.83630448921669" fill="none" id="id105" stroke="none" /><text fill="#e1ed5e" style="font-size:6.75px; font-family:Arial;" text-anchor="middle"><textPath startOffset="21.46611528233685" xlink:href="#id105">September</textPath></text><path d="M 81.69416730710424 110.29060199501025 l -16.935472586542247 9.520255697144398 a40.4279566673527,40.4279566673527 0 0,0 -0.3357899695456266,-0.6095563315151991 l 17.09683896553939 -9.227328847231377" fill="#ffad10" stroke="none" /><path d="M 81.02952815118164 109.00673069616217 l -19.7460154899894 9.374940447338366 a42.8585140419481,42.8585140419481 0 0,0 -0.3106739867481532,-0.6691641286001612 l 19.904464093577378 -9.033656251459377" fill="#ffd013" stroke="none" /><path d="M 80.73074385275274 108.34839909993369 l -19.633301489262394 8.506121628628621 a42.39674350290942,42.39674350290942 0 0,0 -0.2843590344298211,-0.6721407590912533 l 19.776811504884524 -8.166906343871208" fill="#ffc912" stroke="none" /><path d="M 80.58989483394504 108.01547362559985 l -13.165747189902122 5.436843255570282 a35.244162441296986,35.244162441296986 0 0,0 -0.22673305754796114,-0.5627328545913207 l 13.257382861707471 -5.209411033136156" fill="#ff5e08" stroke="none" /><path d="M 80.32549172779594 107.34259656027581 l -20.068848777500868 7.489765841342952 a42.420907628117575,42.420907628117575 0 0,0 -0.24942632943861576,-0.6863141342691884 l 20.194799367944707 -7.143203910067646" fill="#ffca12" stroke="none" /><path d="M 80.0844068197444 106.66101706037122 l -20.367026209946317 6.812004434192763 a42.476013620970306,42.476013620970306 0 0,0 -0.22594761273341551,-0.6953952479736856 l 20.481266073695984 -6.460410286241274" fill="#ffca12" stroke="none" /><path d="M 79.86692584326677 105.97154293290107 l -23.58583591549643 6.995644613500011 a45.6014369375269,45.6014369375269 0 0,0 -0.2167313892828178,-0.7544703985805863 l 23.70275994166535 -6.588616739414829" fill="#fff717" stroke="none" /><path d="M 79.67330655649465 105.27499134158121 l -14.635185050977826 3.7979848833216603 a36.11996463786555,36.11996463786555 0 0,0 -0.15099639158415137,-0.6031555257357197 l 14.698392756857036 -3.5455015181885488" fill="#ff6b09" stroke="none" /><path d="M 79.50377843672027 104.57218783832718 l -15.053776216935397 3.35811614484505 a36.42378430968998,36.42378430968998 0 0,0 -0.1312400310993488,-0.6131097332400843 l 15.109350286759186 -3.098492592188802" fill="#ff700a" stroke="none" /><path d="M 79.4281124754447 104.21870165774334 l -23.42468912913783 4.8037291057157105 a44.9121700001871,44.9121700001871 0 0,0 -0.14878774652958474,-0.7586655140550849 l 23.503906808643077 -4.39979986459267" fill="#ffed16" stroke="none" /><path d="M 79.23777060512086 103.15116336523772 l -33.79111394947621 5.128607257100516 a55.17809231575206,55.17809231575206 0 0,0 -0.1344399741156743,-0.9402728658416828 l 33.87438797460849 -4.546188919278432" fill="#8aff24" stroke="none" /><path d="M 79.1416061653843 102.43462659150553 l -21.39266406792326 2.4969875061269535 a42.53789735625948,42.53789735625948 0 0,0 -0.07862967973116584,-0.7280131794822505 l 21.432476049155476 -2.128378004759921" fill="#ffcb12" stroke="none" /><path d="M 79.07016306316243 101.71520430193888 l -14.656799013451769 1.2011275958045995 a35.70593298033566,35.70593298033566 0 0,0 -0.04492731549719396,-0.6129975250408232 l 14.675302887613297 -0.9486569342670156" fill="#ff6509" stroke="none" /><path d="M 79.0235259727143 100.99374915477108 l -42.81324762363628 2.028254538091154 a63.86126443018317,63.86126443018317 0 0,0 -0.042567690259430274,-1.0984829403160898 l 42.84181744674691 -1.290994350761067" fill="#31ff3b" stroke="none" /><line stroke="#e1ed5e" stroke-width="0.3" x1="15.007084014347285" x2="10.007500721073583" y1="101.09737516637583" y2="101.16192664675087" /><path d="M 14.007167355692545 101.11028546245083 a86.0,86.0 0 0,1 10.666146001902534,-42.60595125391555" fill="none" id="id106" stroke="none" /><text fill="#e1ed5e" style="font-size:6.75px; font-family:Arial;" text-anchor="middle"><textPath startOffset="22.20632615414155" xlink:href="#id106">October</textPath></text><path d="M 79.00175016825051 100.2711162175752 l -16.67716070093773 0.21532502781710977 a37.67855071379124,37.67855071379124 0 0,0 -0.0027912677844306286,-0.6485923313360797 l 16.678396266011664 0.07177678172264532" fill="#ff830c" stroke="none" /><path d="M 79.00486145842228 99.54816195383935 l -25.91680095083224 -0.5577575342581422 a46.92280202817744,46.92280202817744 0 0,0 0.024329038356193978,-0.8073623399641681 l 25.9033602180204 1.0037900216473046" fill="#f5ff19" stroke="none" /><path d="M 79.05617556472873 98.46500227214037 l -47.731970040743754 -3.498332684426781 a68.85999681927892,68.85999681927892 0 0,0 0.09681556906080949,-1.1813951673858496 l 47.66467998786345 4.319441769020409" fill="#38ff7d" stroke="none" /><path d="M 79.12142395522702 97.74499172005258 l -15.848490456423418 -1.711729627885699 a36.940660841581376,36.940660841581376 0 0,0 0.07372238360403913,-0.6316083612184464 l 15.816677719815791 1.9842817274290072" fill="#ff780b" stroke="none" /><path d="M 79.21141760316559 97.0276538004421 l -25.355228771291983 -3.6252841313868074 a46.613088667277864,46.613088667277864 0 0,0 0.12040406422814641,-0.793312345896725 l 25.289068813624535 4.061195589675624" fill="#f9ff18" stroke="none" /><path d="M 79.32604984820605 96.31383870115002 l -13.95134801017509 -2.4875226419868617 a35.17137538121878,35.17137538121878 0 0,0 0.111399932027442,-0.5951028913685809 l 13.906462354237787 2.7273036108180153" fill="#ff5d08" stroke="none" /><path d="M 79.54389044137918 95.25157060432595 l -38.76497252433182 -8.998423406441923 a60.79566205773944,60.79566205773944 0 0,0 0.24540371566306687,-1.0173568332444811 l 38.604336008407934 9.6643654713458" fill="#48ff2c" stroke="none" /><path d="M 79.71946130924805 94.55025226153421 l -15.178245512365958 -4.078669231434893 a36.71670065672535,36.71670065672535 0 0,0 0.16926963641551446,-0.6089529435470347 l 15.105789105384083 4.33933347840087" fill="#ff750a" stroke="none" /><path d="M 80.02781315780177 93.51064311812611 l -23.874081840224743 -7.7571594193653635 a46.10269519336913,46.10269519336913 0 0,0 0.2517266569184193,-0.7526306638124148 l 23.73701788953455 8.1669631861001" fill="#fffe18" stroke="none" /><path d="M 80.2630227832202 92.82701384747504 l -33.28073788440598 -12.095178981495813 a56.410462701367706,56.410462701367706 0 0,0 0.33952493552156954,-0.9097580260201218 l 33.067608360382785 12.666260144545276" fill="#7bff26" stroke="none" /><path d="M 80.52162464483688 92.15188598940014 l -17.81360055728139 -7.177352605835879 a40.20517522031171,40.20517522031171 0 0,0 0.26416391692111296,-0.6396938781184064 l 17.687414953474075 7.482921054407597" fill="#ffa90f" stroke="none" /><path d="M 80.803312248108 91.48605970444005 l -12.765077214327837 -5.661450906304831 a34.964212210226954,34.964212210226954 0 0,0 0.24874153778140937,-0.5480690065610497 l 12.665733359583076 5.880341921707951" fill="#ff5908" stroke="none" /><path d="M 81.10775173730289 90.83032412892265 l -56.676744788091334 -27.50902761323202 a84.0,84.0 0 0,0 0.6425599481863489,-1.295361646004154 l 56.19482482695157 28.480548847735136" fill="#4dd2ff" stroke="none" /><path d="M 81.6062741919709 89.86733742301443 l -12.96340044786125 -7.14122652253433 a35.80023200553819,35.80023200553819 0 0,0 0.30198750189234524,-0.537202069195504 l 12.838555304676474 7.363312101664619" fill="#ff6609" stroke="none" /><line stroke="#e1ed5e" stroke-width="0.3" x1="26.266209847984243" x2="21.928928074336255" y1="57.711370442889674" y2="55.22380399835377" /><path d="M 25.398753493254645 57.213857153982495 a86.0,86.0 0 0,1 29.58750427330803,-30.492523968695096" fill="none" id="id107" stroke="none" /><text fill="#e1ed5e" style="font-size:6.75px; font-family:Arial;" text-anchor="middle"><textPath startOffset="21.46611528233685" xlink:href="#id107">November</textPath></text><path d="M 81.96595687620814 89.24020034530311 l -21.06305513797937 -12.567024035863545 a45.5271764551799,45.5271764551799 0 0,0 0.407325581169715,-0.6695361563927457 l 20.84361375852344 12.927727965463365" fill="#fff617" stroke="none" /><path d="M 82.95767976084542 87.72973835380427 l -17.421927742750924 -12.543574395083343 a42.467762456265085,42.467762456265085 0 0,0 0.43223564760922395,-0.5895689375827957 l 17.203429482628064 12.84160577633764" fill="#ffca12" stroke="none" /><path d="M 83.39014120810768 87.1503855733568 l -14.744135977569249 -11.406265684705355 a39.64114917581904,39.64114917581904 0 0,0 0.4221705358922665,-0.536113708494023 l 14.545611361083012 11.658371787152426" fill="#ffa10e" stroke="none" /><path d="M 87.51073957382395 83.11751280151077 l -9.476831276101231 -12.810404879194905 a36.93476715250622,36.93476715250622 0 0,0 0.5143688401491877,-0.37371083744917727 l 9.254917119598261 12.97163495146075" fill="#ff780b" stroke="none" /><line stroke="#e1ed5e" stroke-width="0.3" x1="56.762969772571076" x2="54.21961505331055" y1="26.818313649435495" y2="22.513508569990535" /><path d="M 56.25429882871897 25.957352633546506 a86.0,86.0 0 0,1 42.265352541879196,-11.944610805530505" fill="none" id="id108" stroke="none" /><text fill="#e1ed5e" style="font-size:6.75px; font-family:Arial;" text-anchor="middle"><textPath startOffset="22.20632615414155" xlink:href="#id108">December</textPath></text></svg>